<svg xmlns="http://www.w3.org/2000/svg" viewBox="0 0 200 200" role="img" aria-labelledby="t" preserveAspectRatio="xMidYMid meet"><title id="t">Engineering plate corner</title><path d="M 20 20 L 180 22 L 150 52 L 52 50 L 50 150 L 22 180 Z" fill="#4B5563" fill-opacity="0.25" stroke="#1F2933" stroke-width="3.5" stroke-linejoin="round"/><path d="M 39.5 37.9 a 5.3 4.4 0 1 1 10.9 1.3 a 6.0 4.2 0 1 1 -9.5 0.6" fill="#D0D4D6" fill-opacity="0.8" stroke="#1F2933" stroke-width="2.2" stroke-linecap="round"/><path d="M 95.1 38.5 a 6.2 5.6 0 1 1 8.3 0.6 a 5.1 4.0 0 1 1 -11.2 -1.4" fill="#D0D4D6" fill-opacity="0.8" stroke="#1F2933" stroke-width="2.2" stroke-linecap="round"/><path d="M 152.7 36.5 a 5.7 5.3 0 1 1 11.7 1.4 a 4.2 3.5 0 1 1 -11.1 -0.4" fill="#D0D4D6" fill-opacity="0.8" stroke="#1F2933" stroke-width="2.2" stroke-linecap="round"/><path d="M 32.1 95.4 a 5.6 4.1 0 1 1 9.6 -0.7 a 5.6 6.3 0 1 1 -11.8 -0.7" fill="#D0D4D6" fill-opacity="0.8" stroke="#1F2933" stroke-width="2.2" stroke-linecap="round"/><path d="M 33.9 151.0 a 6.2 6.4 0 1 1 11.3 -0.7 a 3.8 4.3 0 1 1 -8.6 1.2" fill="#D0D4D6" fill-opacity="0.8" stroke="#1F2933" stroke-width="2.2" stroke-linecap="round"/></svg>
