<svg xmlns="http://www.w3.org/2000/svg" viewBox="0 0 200 200" role="img" aria-labelledby="t" preserveAspectRatio="xMidYMid meet"><title id="t">Pencil sketch corner</title><path d="M 20 24 Q 21.9 19.7 24 20" fill="none" stroke="#8A8178" stroke-width="2" stroke-linecap="round" opacity="0.6"/><path d="M 33 24 Q 27.1 28.9 24 33" fill="none" stroke="#8A8178" stroke-width="2" stroke-linecap="round" opacity="0.54"/><path d="M 46 24 Q 37.7 36.0 24 46" fill="none" stroke="#8A8178" stroke-width="2" stroke-linecap="round" opacity="0.48"/><path d="M 59 24 Q 39.6 41.3 24 59" fill="none" stroke="#8A8178" stroke-width="2" stroke-linecap="round" opacity="0.42"/><path d="M 72 24 Q 45.2 48.0 24 72" fill="none" stroke="#8A8178" stroke-width="2" stroke-linecap="round" opacity="0.36"/><path d="M 85 24 Q 54.3 54.2 24 85" fill="none" stroke="#8A8178" stroke-width="2" stroke-linecap="round" opacity="0.3"/><path d="M 30 96 q 24 -10 20 12 q -4 20 18 12 q 20 -8 16 12" fill="none" stroke="#8A8178" stroke-width="2" stroke-linecap="round" opacity="0.55"/><path d="M 120 20 Q 151.0 18.9 180 22" fill="none" stroke="#1F2933" stroke-width="3" stroke-linecap="round" opacity="1.0"/><path d="M 20 120 Q 22.6 147.1 22 180" fill="none" stroke="#1F2933" stroke-width="3" stroke-linecap="round" opacity="1.0"/></svg>
