<svg xmlns="http://www.w3.org/2000/svg" viewBox="0 0 400 400" role="img" aria-labelledby="t" preserveAspectRatio="xMidYMid meet"><title id="t">Circuit trace pattern</title><path d="M 30 60 Q 99.8 60.6 170 60" fill="none" stroke="#64748B" stroke-width="2.2" stroke-linecap="round" opacity="0.55"/><path d="M 170 60 Q 185.0 75.9 200 90" fill="none" stroke="#64748B" stroke-width="2.2" stroke-linecap="round" opacity="0.55"/><path d="M 200 90 Q 200.2 139.4 200 190" fill="none" stroke="#64748B" stroke-width="2.2" stroke-linecap="round" opacity="0.55"/><path d="M 60 340 Q 61.0 277.6 60 220" fill="none" stroke="#64748B" stroke-width="2.2" stroke-linecap="round" opacity="0.55"/><path d="M 60 220 Q 87.3 196.5 110 170" fill="none" stroke="#64748B" stroke-width="2.2" stroke-linecap="round" opacity="0.55"/><path d="M 110 170 Q 176.8 168.3 240 170" fill="none" stroke="#64748B" stroke-width="2.2" stroke-linecap="round" opacity="0.55"/><path d="M 330 40 Q 330.5 91.5 330 140" fill="none" stroke="#64748B" stroke-width="2.2" stroke-linecap="round" opacity="0.55"/><path d="M 330 140 Q 303.2 165.1 280 190" fill="none" stroke="#64748B" stroke-width="2.2" stroke-linecap="round" opacity="0.55"/><path d="M 280 190 Q 280.0 245.7 280 300" fill="none" stroke="#64748B" stroke-width="2.2" stroke-linecap="round" opacity="0.55"/><path d="M 140 300 Q 190.2 299.0 240 300" fill="none" stroke="#64748B" stroke-width="2.2" stroke-linecap="round" opacity="0.55"/><path d="M 240 300 Q 255.8 315.0 270 330" fill="none" stroke="#64748B" stroke-width="2.2" stroke-linecap="round" opacity="0.55"/><path d="M 330 250 Q 354.2 248.9 380 250" fill="none" stroke="#64748B" stroke-width="2.2" stroke-linecap="round" opacity="0.55"/><path d="M 24.7 58.5 a 6.5 6.5 0 1 1 13.9 1.1 a 5.4 7.3 0 1 1 -11.6 1.3" fill="#5AB8FF" fill-opacity="0.35" stroke="#64748B" stroke-width="2" stroke-linecap="round"/><path d="M 192.8 189.1 a 5.2 7.1 0 1 1 11.3 -0.3 a 6.1 4.8 0 1 1 -12.2 -0.9" fill="#5A9A9A" fill-opacity="0.35" stroke="#64748B" stroke-width="2" stroke-linecap="round"/><path d="M 52.7 338.3 a 6.9 6.9 0 1 1 13.3 -1.2 a 6.3 5.1 0 1 1 -11.3 -1.9" fill="#5A9A9A" fill-opacity="0.35" stroke="#64748B" stroke-width="2" stroke-linecap="round"/><path d="M 233.5 170.5 a 6.2 7.0 0 1 1 12.2 -1.2 a 5.2 7.4 0 1 1 -11.1 -0.0" fill="#5AB8FF" fill-opacity="0.35" stroke="#64748B" stroke-width="2" stroke-linecap="round"/><path d="M 325.7 39.6 a 6.8 5.5 0 1 1 13.0 1.7 a 7.2 4.6 0 1 1 -10.2 -0.2" fill="#5A9A9A" fill-opacity="0.35" stroke="#64748B" stroke-width="2" stroke-linecap="round"/><path d="M 274.5 300.8 a 5.9 5.1 0 1 1 13.7 -0.4 a 4.9 7.3 0 1 1 -10.8 -1.2" fill="#5A9A9A" fill-opacity="0.35" stroke="#64748B" stroke-width="2" stroke-linecap="round"/><path d="M 134.6 299.6 a 6.2 5.9 0 1 1 13.6 0.8 a 5.4 6.2 0 1 1 -10.6 -0.0" fill="#5AB8FF" fill-opacity="0.35" stroke="#64748B" stroke-width="2" stroke-linecap="round"/><path d="M 373.1 250.9 a 5.9 7.4 0 1 1 13.9 1.4 a 5.1 5.7 0 1 1 -10.6 -1.9" fill="#5A9A9A" fill-opacity="0.35" stroke="#64748B" stroke-width="2" stroke-linecap="round"/></svg>
