<svg xmlns="http://www.w3.org/2000/svg" viewBox="0 0 400 400" role="img" aria-labelledby="t" preserveAspectRatio="xMidYMid meet"><title id="t">Sketchbook grid fragment</title><rect width="400" height="400" fill="#F7F1E6"/><path d="M 40 12 Q 40.0 199.8 41.96078431372549 388" fill="none" stroke="#8A8178" stroke-width="1" stroke-linecap="round" opacity="0.25"/><path d="M 12 40 Q 202.2 40.5 388 38.76078431372549" fill="none" stroke="#8A8178" stroke-width="1" stroke-linecap="round" opacity="0.25"/><path d="M 80 12 Q 81.9 200.9 79.1686274509804 388" fill="none" stroke="#8A8178" stroke-width="1" stroke-linecap="round" opacity="0.25"/><path d="M 12 80 Q 199.1 82.4 388 81.86666666666666" fill="none" stroke="#8A8178" stroke-width="1" stroke-linecap="round" opacity="0.25"/><path d="M 120 12 Q 122.8 197.9 123.02745098039216 388" fill="none" stroke="#8A8178" stroke-width="1" stroke-linecap="round" opacity="0.25"/><path d="M 12 120 Q 200.5 118.9 388 122.83921568627451" fill="none" stroke="#8A8178" stroke-width="1" stroke-linecap="round" opacity="0.25"/><path d="M 160 12 Q 160.5 199.7 161.01960784313727 388" fill="none" stroke="#8A8178" stroke-width="1" stroke-linecap="round" opacity="0.25"/><path d="M 12 160 Q 202.1 164.2 388 162.99607843137255" fill="none" stroke="#8A8178" stroke-width="1" stroke-linecap="round" opacity="0.25"/><path d="M 200 12 Q 197.6 201.8 200.0156862745098 388" fill="none" stroke="#8A8178" stroke-width="1" stroke-linecap="round" opacity="0.25"/><path d="M 12 200 Q 200.0 200.1 388 200.7686274509804" fill="none" stroke="#8A8178" stroke-width="1" stroke-linecap="round" opacity="0.25"/><path d="M 240 12 Q 241.7 202.9 237.78823529411764 388" fill="none" stroke="#8A8178" stroke-width="1" stroke-linecap="round" opacity="0.25"/><path d="M 12 240 Q 201.7 238.1 388 240.0156862745098" fill="none" stroke="#8A8178" stroke-width="1" stroke-linecap="round" opacity="0.25"/><path d="M 280 12 Q 283.3 199.1 283.6862745098039 388" fill="none" stroke="#8A8178" stroke-width="1" stroke-linecap="round" opacity="0.25"/><path d="M 12 280 Q 201.2 277.8 388 277.0352941176471" fill="none" stroke="#8A8178" stroke-width="1" stroke-linecap="round" opacity="0.25"/><path d="M 320 12 Q 317.9 202.4 316.2196078431373 388" fill="none" stroke="#8A8178" stroke-width="1" stroke-linecap="round" opacity="0.25"/><path d="M 12 320 Q 199.0 320.9 388 320.8" fill="none" stroke="#8A8178" stroke-width="1" stroke-linecap="round" opacity="0.25"/><path d="M 360 12 Q 362.2 200.3 360.7686274509804 388" fill="none" stroke="#8A8178" stroke-width="1" stroke-linecap="round" opacity="0.25"/><path d="M 12 360 Q 202.4 363.7 388 361.96078431372547" fill="none" stroke="#8A8178" stroke-width="1" stroke-linecap="round" opacity="0.25"/><path d="M 121.1 118.1 Q 132.4 120.2 141.2 122.2 Q 149.2 120.7 158.1 119.1 Q 167.8 120.2 179.7 119.3 Q 188.6 121.0 199.0 121.6 Q 199.3 129.7 201.8 139.2 Q 200.8 151.5 199.7 161.9 Q 200.1 169.7 200.5 179.0 Q 199.0 189.6 199.8 201.8 Q 189.0 199.3 178.7 198.5 Q 167.9 199.7 158.4 200.7 Q 150.6 201.3 142.0 202.4 Q 131.8 201.6 120.6 199.2 Q 120.9 190.2 122.2 180.6 Q 121.5 168.9 119.2 157.7 Q 120.3 148.6 122.1 138.7 Z" fill="#5A9A9A" fill-opacity="0.18" stroke="#5A9A9A" stroke-width="2" stroke-linecap="round" stroke-linejoin="round"/><path d="M 239.7 199.1 Q 246.8 199.0 252.3 198.1 Q 255.4 197.7 258.0 199.4 Q 264.6 200.2 271.1 202.0 Q 277.6 200.8 281.6 199.5 Q 279.2 203.0 278.4 208.0 Q 279.9 213.7 279.2 220.7 Q 278.6 224.1 280.4 228.7 Q 279.9 236.5 278.8 242.3 Q 274.8 242.6 271.5 241.3 Q 265.8 241.3 261.7 241.2 Q 256.0 241.9 251.2 242.1 Q 246.8 240.9 241.1 241.2 Q 242.8 235.5 242.4 230.3 Q 242.6 225.6 240.6 222.0 Q 241.0 215.0 240.0 207.7 Z" fill="#D6A94A" fill-opacity="0.22" stroke="#D6A94A" stroke-width="2" stroke-linecap="round" stroke-linejoin="round"/><path d="M 68.6 288.3 a 21.4 20.8 0 1 1 45.4 1.0 a 22.0 22.4 0 1 1 -43.0 0.6" fill="#3E5C76" fill-opacity="0.15" stroke="#3E5C76" stroke-width="2" stroke-linecap="round"/></svg>
