<svg xmlns="http://www.w3.org/2000/svg" viewBox="0 0 400 400" role="img" aria-labelledby="t" preserveAspectRatio="xMidYMid meet"><title id="t">Paper texture</title><rect width="400" height="400" fill="#F7F1E6"/><path d="M 39.2156862745098 321.5686274509804 Q 43.5 329.5 48.27450980392156 332.27450980392155" fill="none" stroke="#8A8178" stroke-width="1" stroke-linecap="round" opacity="0.3"/><path d="M 208.62745098039218 111.37254901960785 Q 205.1 117.0 206.59607843137258 124.93333333333334" fill="none" stroke="#8A8178" stroke-width="1" stroke-linecap="round" opacity="0.3"/><path d="M 343.52941176470586 199.2156862745098 Q 341.7 197.6 338.7529411764706 201.02745098039216" fill="none" stroke="#8A8178" stroke-width="1" stroke-linecap="round" opacity="0.3"/><path d="M 4.705882352941182 291.7647058823529 Q 8.3 294.1 12.996078431372553 299.39607843137253" fill="none" stroke="#8A8178" stroke-width="1" stroke-linecap="round" opacity="0.3"/><path d="M 221.1764705882353 200.7843137254902 Q 226.1 210.2 226.3921568627451 214.34509803921569" fill="none" stroke="#8A8178" stroke-width="1" stroke-linecap="round" opacity="0.3"/><path d="M 136.47058823529412 312.15686274509807 Q 142.9 314.3 148.60392156862744 322.31372549019613" fill="none" stroke="#8A8178" stroke-width="1" stroke-linecap="round" opacity="0.3"/><path d="M 221.1764705882353 83.1372549019608 Q 216.3 83.7 212.7764705882353 88.24313725490198" fill="none" stroke="#8A8178" stroke-width="1" stroke-linecap="round" opacity="0.3"/><path d="M 136.47058823529412 203.92156862745097 Q 144.7 196.4 149.5921568627451 191.34901960784313" fill="none" stroke="#8A8178" stroke-width="1" stroke-linecap="round" opacity="0.3"/><path d="M 48.62745098039216 161.5686274509804 Q 46.9 160.3 44.72941176470589 153.49803921568628" fill="none" stroke="#8A8178" stroke-width="1" stroke-linecap="round" opacity="0.3"/><path d="M 87.84313725490196 272.94117647058823 Q 92.8 280.7 97.67058823529412 286.8313725490196" fill="none" stroke="#8A8178" stroke-width="1" stroke-linecap="round" opacity="0.3"/><path d="M 277.6470588235294 15.68627450980391 Q 270.4 21.3 268.0392156862745 29.2470588235294" fill="none" stroke="#8A8178" stroke-width="1" stroke-linecap="round" opacity="0.3"/><path d="M 28.235294117647047 58.039215686274524 Q 28.9 57.4 26.423529411764694 59.19215686274511" fill="none" stroke="#8A8178" stroke-width="1" stroke-linecap="round" opacity="0.3"/><path d="M 244.7058823529412 338.8235294117647 Q 253.7 344.0 257.4980392156863 344.8078431372549" fill="none" stroke="#8A8178" stroke-width="1" stroke-linecap="round" opacity="0.3"/><path d="M 329.4117647058823 211.76470588235296 Q 326.9 220.0 324.9647058823529 222.3607843137255" fill="none" stroke="#8A8178" stroke-width="1" stroke-linecap="round" opacity="0.3"/><path d="M 233.72549019607845 59.60784313725491 Q 230.5 54.4 230.37647058823532 47.69411764705883" fill="none" stroke="#8A8178" stroke-width="1" stroke-linecap="round" opacity="0.3"/><path d="M 296.47058823529414 309.0196078431373 Q 292.7 312.0 286.643137254902 315.66274509803924" fill="none" stroke="#8A8178" stroke-width="1" stroke-linecap="round" opacity="0.3"/><path d="M 365.4901960784314 10.98039215686275 Q 367.4 10.9 369.05882352941177 8.949019607843141" fill="none" stroke="#8A8178" stroke-width="1" stroke-linecap="round" opacity="0.3"/><path d="M 83.1372549019608 298.03921568627453 Q 77.4 303.6 70.01568627450982 310.17254901960786" fill="none" stroke="#8A8178" stroke-width="1" stroke-linecap="round" opacity="0.3"/><path d="M 294.90196078431376 69.01960784313725 Q 293.7 62.4 291.0039215686275 59.6313725490196" fill="none" stroke="#8A8178" stroke-width="1" stroke-linecap="round" opacity="0.3"/><path d="M 95.68627450980394 321.5686274509804 Q 93.4 315.8 87.28627450980393 314.8156862745098" fill="none" stroke="#8A8178" stroke-width="1" stroke-linecap="round" opacity="0.3"/><path d="M 7.843137254901955 175.68627450980392 Q 15.9 178.3 18.988235294117644 180.24313725490197" fill="none" stroke="#8A8178" stroke-width="1" stroke-linecap="round" opacity="0.3"/><path d="M 389.01960784313724 185.09803921568627 Q 380.5 182.9 377.3254901960784 179.2235294117647" fill="none" stroke="#8A8178" stroke-width="1" stroke-linecap="round" opacity="0.3"/><path d="M 117.64705882352942 360.7843137254902 Q 119.5 363.3 120.99607843137255 363.9137254901961" fill="none" stroke="#8A8178" stroke-width="1" stroke-linecap="round" opacity="0.3"/><path d="M 139.6078431372549 351.37254901960785 Q 137.6 343.6 138.7843137254902 341.65490196078434" fill="none" stroke="#8A8178" stroke-width="1" stroke-linecap="round" opacity="0.3"/><path d="M 156.86274509803923 301.1764705882353 Q 164.2 307.3 166.69019607843137 312.6509803921569" fill="none" stroke="#8A8178" stroke-width="1" stroke-linecap="round" opacity="0.3"/><path d="M 139.6078431372549 387.45098039215685 Q 139.3 393.3 145.04313725490195 395.8509803921568" fill="none" stroke="#8A8178" stroke-width="1" stroke-linecap="round" opacity="0.3"/><path d="M 356.078431372549 177.2549019607843 Q 358.4 181.6 362.8313725490196 184.3372549019608" fill="none" stroke="#8A8178" stroke-width="1" stroke-linecap="round" opacity="0.3"/><path d="M 341.96078431372547 130.19607843137254 Q 334.9 131.1 332.79215686274506 137.38823529411764" fill="none" stroke="#8A8178" stroke-width="1" stroke-linecap="round" opacity="0.3"/><path d="M 139.6078431372549 222.7450980392157 Q 142.3 227.4 148.1176470588235 228.61960784313726" fill="none" stroke="#8A8178" stroke-width="1" stroke-linecap="round" opacity="0.3"/><path d="M 119.2156862745098 261.96078431372547 Q 123.8 257.0 130.25098039215686 251.14509803921567" fill="none" stroke="#8A8178" stroke-width="1" stroke-linecap="round" opacity="0.3"/><path d="M 160.0 280.78431372549016 Q 168.2 286.7 171.80392156862746 289.2941176470588" fill="none" stroke="#8A8178" stroke-width="1" stroke-linecap="round" opacity="0.3"/><path d="M 54.90196078431373 236.86274509803923 Q 48.2 236.8 43.9764705882353 234.50196078431372" fill="none" stroke="#8A8178" stroke-width="1" stroke-linecap="round" opacity="0.3"/><path d="M 310.5882352941177 50.19607843137255 Q 311.1 47.7 307.12941176470594 40.14901960784314" fill="none" stroke="#8A8178" stroke-width="1" stroke-linecap="round" opacity="0.3"/><path d="M 285.4901960784314 130.19607843137254 Q 279.6 122.0 274.6745098039216 116.19607843137254" fill="none" stroke="#8A8178" stroke-width="1" stroke-linecap="round" opacity="0.3"/><path d="M 260.3921568627451 265.09803921568624 Q 261.9 264.4 262.5333333333333 267.23921568627446" fill="none" stroke="#8A8178" stroke-width="1" stroke-linecap="round" opacity="0.3"/><path d="M 374.9019607843137 356.078431372549 Q 367.4 352.1 362.5490196078431 350.5333333333333" fill="none" stroke="#8A8178" stroke-width="1" stroke-linecap="round" opacity="0.3"/><path d="M 398.4313725490196 174.11764705882354 Q 393.9 175.3 389.37254901960785 175.1607843137255" fill="none" stroke="#8A8178" stroke-width="1" stroke-linecap="round" opacity="0.3"/><path d="M 313.72549019607845 170.98039215686273 Q 311.5 168.6 304.44705882352946 167.08235294117645" fill="none" stroke="#8A8178" stroke-width="1" stroke-linecap="round" opacity="0.3"/><path d="M 97.25490196078432 4.705882352941182 Q 94.3 5.4 88.96470588235294 11.349019607843143" fill="none" stroke="#8A8178" stroke-width="1" stroke-linecap="round" opacity="0.3"/><path d="M 310.5882352941177 58.039215686274524 Q 315.2 64.8 319.42745098039217 66.54901960784315" fill="none" stroke="#8A8178" stroke-width="1" stroke-linecap="round" opacity="0.3"/><path d="M 134.90196078431373 169.41176470588235 Q 143.6 164.7 148.24313725490197 161.01176470588234" fill="none" stroke="#8A8178" stroke-width="1" stroke-linecap="round" opacity="0.3"/><path d="M 207.0588235294118 3.137254901960773 Q 207.9 -1.5 213.81176470588238 -7.0196078431372655" fill="none" stroke="#8A8178" stroke-width="1" stroke-linecap="round" opacity="0.3"/><path d="M 125.49019607843137 23.529411764705888 Q 130.4 26.7 131.36470588235295 28.525490196078437" fill="none" stroke="#8A8178" stroke-width="1" stroke-linecap="round" opacity="0.3"/><path d="M 199.2156862745098 101.96078431372548 Q 194.2 99.7 187.30196078431374 92.4627450980392" fill="none" stroke="#8A8178" stroke-width="1" stroke-linecap="round" opacity="0.3"/><path d="M 348.2352941176471 6.2745098039215685 Q 352.6 2.0 355.64705882352945 -3.772549019607843" fill="none" stroke="#8A8178" stroke-width="1" stroke-linecap="round" opacity="0.3"/><path d="M 384.3137254901961 291.7647058823529 Q 381.3 289.7 374.92549019607844 283.47450980392153" fill="none" stroke="#8A8178" stroke-width="1" stroke-linecap="round" opacity="0.3"/><circle cx="223" cy="207" r="1.6" fill="#8A8178" opacity="0.25"/><circle cx="56" cy="30" r="1.9" fill="#8A8178" opacity="0.25"/><circle cx="190" cy="3" r="1.1" fill="#8A8178" opacity="0.25"/><circle cx="238" cy="245" r="1.7" fill="#8A8178" opacity="0.25"/><circle cx="173" cy="336" r="1.5" fill="#8A8178" opacity="0.25"/><circle cx="99" cy="245" r="1.4" fill="#8A8178" opacity="0.25"/><circle cx="49" cy="52" r="1.8" fill="#8A8178" opacity="0.25"/><circle cx="365" cy="195" r="1.4" fill="#8A8178" opacity="0.25"/><circle cx="42" cy="306" r="1.8" fill="#8A8178" opacity="0.25"/><circle cx="298" cy="61" r="1.6" fill="#8A8178" opacity="0.25"/><circle cx="256" cy="375" r="1.4" fill="#8A8178" opacity="0.25"/><circle cx="77" cy="187" r="1.6" fill="#8A8178" opacity="0.25"/><circle cx="375" cy="60" r="1.6" fill="#8A8178" opacity="0.25"/><circle cx="124" cy="171" r="1.1" fill="#8A8178" opacity="0.25"/><circle cx="168" cy="289" r="1.6" fill="#8A8178" opacity="0.25"/><circle cx="314" cy="113" r="1.5" fill="#8A8178" opacity="0.25"/><circle cx="125" cy="353" r="1.8" fill="#8A8178" opacity="0.25"/><circle cx="340" cy="287" r="1.7" fill="#8A8178" opacity="0.25"/><circle cx="359" cy="331" r="1.3" fill="#8A8178" opacity="0.25"/><circle cx="389" cy="268" r="1.4" fill="#8A8178" opacity="0.25"/><circle cx="129" cy="267" r="1.5" fill="#8A8178" opacity="0.25"/><circle cx="245" cy="278" r="1.3" fill="#8A8178" opacity="0.25"/><circle cx="355" cy="152" r="1.5" fill="#8A8178" opacity="0.25"/><circle cx="249" cy="216" r="1.5" fill="#8A8178" opacity="0.25"/><circle cx="97" cy="218" r="1.2" fill="#8A8178" opacity="0.25"/><circle cx="312" cy="144" r="1.7" fill="#8A8178" opacity="0.25"/><circle cx="240" cy="55" r="1.7" fill="#8A8178" opacity="0.25"/><circle cx="210" cy="177" r="1.6" fill="#8A8178" opacity="0.25"/><circle cx="116" cy="179" r="1.4" fill="#8A8178" opacity="0.25"/><circle cx="190" cy="364" r="1.5" fill="#8A8178" opacity="0.25"/></svg>
