<svg xmlns="http://www.w3.org/2000/svg" viewBox="0 0 400 400" role="img" aria-labelledby="t" preserveAspectRatio="xMidYMid meet"><title id="t">Watercolor wash</title><path d="M 298 140 Q 269 200 241 261 Q 180 283 120 306 Q 80 263 39 221 Q 22 180 5 140 Q 6 84 7 27 Q 64 4 120 -19 Q 184 -4 249 11 Q 273 76 298 140  Z" fill="#5A9A9A" fill-opacity="0.16" stroke="none"/><path d="M 432 220 Q 416 290 400 360 Q 330 364 260 369 Q 199 356 137 343 Q 96 281 54 220 Q 102 165 150 110 Q 205 77 260 45 Q 321 72 381 99 Q 407 159 432 220  Z" fill="#D8C3A5" fill-opacity="0.25" stroke="none"/><path d="M 302 300 Q 278 337 255 375 Q 217 407 180 440 Q 144 406 107 373 Q 91 336 75 300 Q 72 245 70 190 Q 125 173 180 157 Q 216 192 252 228 Q 277 264 302 300  Z" fill="#5A9A9A" fill-opacity="0.12" stroke="none"/><path d="M 397 90 Q 379 120 361 151 Q 330 179 300 207 Q 268 181 236 154 Q 206 122 176 90 Q 204 56 232 22 Q 266 15 300 8 Q 342 7 383 7 Q 390 48 397 90  Z" fill="#8A936D" fill-opacity="0.14" stroke="none"/><path d="M 158 60 Q 151 92 144 124 Q 112 146 80 168 Q 53 141 27 113 Q 8 87 -11 60 Q 5 30 21 1 Q 50 -8 80 -16 Q 117 -14 153 -13 Q 156 23 158 60  Z" fill="#D6A94A" fill-opacity="0.1" stroke="none"/></svg>
