<svg xmlns="http://www.w3.org/2000/svg" viewBox="0 0 1600 900" role="img" aria-labelledby="t d" preserveAspectRatio="xMidYMid meet"><title id="t">Desktop session lifecycle</title><desc id="d">Start the desktop, run apps, save work, stop the session, and return to Android — ready to start again next time.</desc><rect x="0" y="0" width="1600" height="900" fill="#F7F1E6"/><line x1="204" y1="30" x2="197" y2="870" stroke="#8A8178" stroke-width="1" opacity="0.18"/><line x1="803" y1="30" x2="801" y2="870" stroke="#8A8178" stroke-width="1" opacity="0.18"/><line x1="1405" y1="30" x2="1396" y2="870" stroke="#8A8178" stroke-width="1" opacity="0.18"/><line x1="40" y1="152" x2="1560" y2="152" stroke="#8A8178" stroke-width="1" opacity="0.18"/><line x1="40" y1="447" x2="1560" y2="444" stroke="#8A8178" stroke-width="1" opacity="0.18"/><line x1="40" y1="752" x2="1560" y2="745" stroke="#8A8178" stroke-width="1" opacity="0.18"/><line x1="70" y1="20" x2="70" y2="880" stroke="#8A8178" stroke-width="1.6" opacity="0.3"/><path d="M 30 40 L 50 40 M 40 30 L 40 50" stroke="#8A8178" stroke-width="1.3" opacity="0.4"/><path d="M 1550 40 L 1570 40 M 1560 30 L 1560 50" stroke="#8A8178" stroke-width="1.3" opacity="0.4"/><path d="M 30 860 L 50 860 M 40 850 L 40 870" stroke="#8A8178" stroke-width="1.3" opacity="0.4"/><path d="M 1550 860 L 1570 860 M 1560 850 L 1560 870" stroke="#8A8178" stroke-width="1.3" opacity="0.4"/><text x="800.0" y="84.0" font-family="'Segoe Print','Bradley Hand','Comic Sans MS',cursive" font-size="42" fill="#1F2933" text-anchor="middle" font-weight="bold" opacity="1.0">A desktop session, start to finish</text><path d="M 426 99 Q 800 110 1174 99" stroke="#1F2933" stroke-width="2.5" fill="none" opacity="0.75"/><rect x="255.9" y="161.0" width="320" height="140" fill="none" stroke="#8A8178" stroke-width="1.4" opacity="0.55" stroke-dasharray="7 5"/><path d="M 263.3 165.0 Q 302.6 164.6 339.2 164.7 Q 383.0 165.8 426.0 163.9 Q 465.8 164.1 503.7 166.9 Q 541.5 161.9 575.9 160.9 Q 577.9 179.7 574.8 201.2 Q 575.4 219.9 579.5 232.6 Q 579.9 250.9 575.3 264.9 Q 577.2 277.2 575.6 294.5 Q 537.5 297.1 494.9 302.4 Q 456.8 298.4 420.9 293.3 Q 377.7 295.9 336.0 294.4 Q 298.9 296.3 259.3 292.3 Q 260.7 276.1 267.2 263.1 Q 268.0 246.7 266.6 230.4 Q 265.7 212.6 259.2 199.3 Z" fill="#5A9A9A" fill-opacity="0.5" stroke="none"/><path d="M 257.1 161.1 Q 300.8 161.5 341.7 159.1 Q 378.6 158.9 417.8 161.1 Q 458.2 161.7 497.4 158.9 Q 538.3 159.0 577.5 159.2 Q 579.5 177.6 580.8 194.2 Q 583.2 212.7 582.8 231.0 Q 579.8 248.0 576.7 263.9 Q 578.3 280.2 577.6 297.0 Q 539.3 300.6 501.5 302.1 Q 460.5 300.9 419.1 301.4 Q 379.2 300.3 338.0 296.6 Q 298.9 301.2 258.7 303.4 Q 260.8 281.7 259.7 263.1 Q 259.6 249.6 257.0 233.5 Q 257.9 213.7 261.3 191.5 Z" fill="none" stroke="#1F2933" stroke-width="3" stroke-linecap="round" stroke-linejoin="round"/><text x="420.0" y="240.2" font-family="'Segoe Print','Bradley Hand','Comic Sans MS',cursive" font-size="29" fill="#1F2933" text-anchor="middle" font-weight="bold" opacity="1.0">Start desktop</text><rect x="1024.2" y="161.2" width="320" height="140" fill="none" stroke="#8A8178" stroke-width="1.4" opacity="0.55" stroke-dasharray="7 5"/><path d="M 1022.2 162.9 Q 1061.3 166.9 1101.7 166.1 Q 1136.9 168.0 1175.8 165.5 Q 1218.6 163.3 1260.0 159.8 Q 1293.8 157.3 1332.0 157.1 Q 1334.9 179.0 1341.1 196.8 Q 1338.4 215.1 1340.2 227.5 Q 1339.9 248.2 1337.2 266.3 Q 1342.1 285.5 1342.5 302.4 Q 1303.5 303.7 1261.5 303.0 Q 1217.4 299.2 1175.2 293.1 Q 1142.0 298.4 1105.4 301.2 Q 1059.2 301.2 1018.5 303.2 Q 1022.5 282.5 1023.8 263.0 Q 1018.7 248.0 1017.9 231.1 Q 1022.6 212.1 1027.7 190.1 Z" fill="#D6A94A" fill-opacity="0.5" stroke="none"/><path d="M 1016.7 159.5 Q 1059.0 161.0 1100.9 160.2 Q 1143.2 161.5 1182.1 159.6 Q 1220.5 157.4 1256.6 156.8 Q 1299.0 157.9 1339.8 158.6 Q 1339.6 176.2 1338.3 194.5 Q 1339.5 210.0 1342.6 228.4 Q 1339.6 246.6 1337.6 268.2 Q 1336.8 282.3 1338.9 299.8 Q 1296.6 299.8 1256.6 301.9 Q 1217.1 300.4 1180.0 298.9 Q 1136.9 300.4 1096.5 300.2 Q 1056.5 300.3 1016.6 301.8 Q 1019.1 284.1 1019.4 266.1 Q 1021.2 249.8 1022.0 230.2 Q 1020.2 211.1 1021.0 191.6 Z" fill="none" stroke="#1F2933" stroke-width="3" stroke-linecap="round" stroke-linejoin="round"/><text x="1180.0" y="240.2" font-family="'Segoe Print','Bradley Hand','Comic Sans MS',cursive" font-size="29" fill="#1F2933" text-anchor="middle" font-weight="bold" opacity="1.0">Run apps</text><rect x="1018.4" y="491.2" width="320" height="140" fill="none" stroke="#8A8178" stroke-width="1.4" opacity="0.55" stroke-dasharray="7 5"/><path d="M 1018.3 488.8 Q 1057.4 490.9 1101.4 494.0 Q 1141.7 490.6 1177.0 487.3 Q 1217.2 492.8 1262.6 494.7 Q 1300.9 491.4 1337.7 488.3 Q 1336.7 511.6 1337.6 530.7 Q 1341.3 545.5 1340.0 562.4 Q 1341.4 575.5 1340.9 592.9 Q 1343.5 608.9 1340.1 625.1 Q 1301.4 628.5 1265.0 632.6 Q 1221.7 626.0 1184.4 624.5 Q 1145.5 626.4 1107.0 630.7 Q 1063.9 633.2 1021.0 629.8 Q 1020.0 612.4 1022.1 590.6 Q 1018.6 574.9 1016.2 558.1 Q 1021.5 544.0 1026.8 524.0 Z" fill="#3E5C76" fill-opacity="0.5" stroke="none"/><path d="M 1023.4 489.9 Q 1062.3 488.1 1101.1 488.0 Q 1142.3 490.1 1182.5 490.8 Q 1223.1 489.5 1261.6 488.4 Q 1300.8 490.2 1341.1 492.8 Q 1342.7 510.2 1341.7 526.9 Q 1343.0 542.7 1342.1 560.2 Q 1342.4 574.8 1342.6 592.7 Q 1338.9 612.6 1336.5 632.8 Q 1297.3 633.3 1259.9 632.3 Q 1219.7 629.7 1176.6 630.4 Q 1138.7 628.1 1099.7 626.9 Q 1058.1 629.1 1017.6 633.4 Q 1018.2 616.0 1017.7 596.4 Q 1019.0 578.8 1018.0 558.1 Q 1020.5 540.0 1020.5 522.7 Z" fill="none" stroke="#1F2933" stroke-width="3" stroke-linecap="round" stroke-linejoin="round"/><text x="1180.0" y="570.1" font-family="'Segoe Print','Bradley Hand','Comic Sans MS',cursive" font-size="29" fill="#1F2933" text-anchor="middle" font-weight="bold" opacity="1.0">Save work</text><rect x="264.7" y="485.8" width="320" height="140" fill="none" stroke="#8A8178" stroke-width="1.4" opacity="0.55" stroke-dasharray="7 5"/><path d="M 266.4 496.0 Q 305.7 492.8 339.9 490.2 Q 378.5 491.1 420.9 490.3 Q 459.8 490.3 503.1 493.7 Q 536.7 492.5 575.8 486.0 Q 574.6 501.4 574.7 522.2 Q 574.6 541.8 577.9 559.5 Q 580.6 573.3 583.3 588.8 Q 584.1 606.2 580.8 624.0 Q 540.4 629.9 500.8 633.4 Q 465.1 634.3 425.5 630.2 Q 385.3 628.3 344.3 631.6 Q 307.3 629.3 267.9 626.3 Q 263.0 609.4 258.7 590.1 Q 261.2 570.6 260.6 556.8 Q 259.6 541.7 259.6 526.1 Z" fill="#4B5563" fill-opacity="0.5" stroke="none"/><path d="M 258.6 486.9 Q 300.0 490.7 341.9 491.4 Q 378.4 493.5 416.7 492.3 Q 458.1 492.9 499.0 491.2 Q 540.3 490.9 581.4 488.1 Q 581.1 507.0 580.6 526.4 Q 578.7 541.6 576.7 560.1 Q 578.5 577.3 579.2 594.9 Q 577.6 612.3 579.4 630.6 Q 538.8 633.2 499.6 633.3 Q 462.4 632.0 422.1 628.7 Q 379.7 630.5 338.4 633.1 Q 300.1 631.0 259.7 630.5 Q 259.0 612.2 257.9 595.4 Q 258.2 576.3 259.6 557.9 Q 260.4 541.2 263.4 525.6 Z" fill="none" stroke="#1F2933" stroke-width="3" stroke-linecap="round" stroke-linejoin="round"/><text x="420.0" y="570.1" font-family="'Segoe Print','Bradley Hand','Comic Sans MS',cursive" font-size="29" fill="#1F2933" text-anchor="middle" font-weight="bold" opacity="1.0">Stop session</text><path d="M 590.0 220.0 Q 799.9 266.7 1010.0 220.0" fill="none" stroke="#1F2933" stroke-width="3.5" stroke-linecap="round"/><path d="M 1010.0 220.0 L 987.6 212.5" stroke="#1F2933" stroke-width="3.5" stroke-linecap="round" fill="none"/><path d="M 1010.0 220.0 L 993.8 235.7" stroke="#1F2933" stroke-width="3.5" stroke-linecap="round" fill="none"/><path d="M 1190.0 305.0 Q 1169.4 398.4 1190.0 485.0" fill="none" stroke="#1F2933" stroke-width="3.5" stroke-linecap="round"/><path d="M 1190.0 485.0 L 1194.5 464.7" stroke="#1F2933" stroke-width="3.5" stroke-linecap="round" fill="none"/><path d="M 1190.0 485.0 L 1174.3 469.2" stroke="#1F2933" stroke-width="3.5" stroke-linecap="round" fill="none"/><path d="M 1010.0 570.0 Q 799.6 517.8 590.0 570.0" fill="none" stroke="#1F2933" stroke-width="3.5" stroke-linecap="round"/><path d="M 590.0 570.0 L 610.9 576.4" stroke="#1F2933" stroke-width="3.5" stroke-linecap="round" fill="none"/><path d="M 590.0 570.0 L 606.5 553.1" stroke="#1F2933" stroke-width="3.5" stroke-linecap="round" fill="none"/><path d="M 410.0 485.0 Q 389.8 394.1 410.0 310.0" fill="none" stroke="#64748B" stroke-width="3.5" stroke-linecap="round" stroke-dasharray="2 10"/><path d="M 410.0 310.0 L 395.5 328.2" stroke="#64748B" stroke-width="3.5" stroke-linecap="round" fill="none"/><path d="M 410.0 310.0 L 414.3 330.7" stroke="#64748B" stroke-width="3.5" stroke-linecap="round" fill="none"/><text x="300.0" y="400.0" font-family="'Segoe Print','Bradley Hand','Comic Sans MS',cursive" font-size="24" fill="#64748B" text-anchor="middle" font-weight="normal" opacity="1.0">next time</text><rect x="678.2" y="378.6" width="260" height="120" fill="none" stroke="#8A8178" stroke-width="1.4" opacity="0.55" stroke-dasharray="7 5"/><path d="M 678.9 382.7 Q 714.8 381.6 748.7 386.0 Q 782.3 385.6 813.3 384.8 Q 842.9 388.6 869.1 387.6 Q 904.1 384.4 936.3 378.3 Q 936.2 393.2 936.0 406.0 Q 935.7 424.3 937.4 442.3 Q 936.9 451.8 936.3 463.8 Q 941.2 482.6 941.9 500.1 Q 911.4 504.1 877.9 502.2 Q 843.1 498.7 812.0 493.9 Q 777.7 495.7 741.8 496.1 Q 707.1 492.2 676.0 492.6 Q 679.6 480.1 680.7 470.3 Q 680.6 456.6 680.0 440.8 Q 681.4 425.7 681.5 411.0 Z" fill="#8A936D" fill-opacity="0.5" stroke="none"/><path d="M 680.5 379.2 Q 710.7 379.1 743.2 381.6 Q 774.8 381.9 807.6 381.7 Q 842.0 382.9 878.0 383.3 Q 909.9 379.8 941.8 379.7 Q 940.0 397.9 937.5 413.4 Q 940.1 425.1 943.3 439.1 Q 939.8 452.3 937.8 467.4 Q 936.7 485.2 937.1 499.5 Q 907.2 498.5 874.9 499.0 Q 841.1 499.8 808.8 500.5 Q 776.4 499.5 746.4 497.3 Q 710.9 498.0 676.6 501.1 Q 677.2 485.5 676.6 470.7 Q 677.6 454.0 681.1 438.0 Q 680.9 423.9 680.6 408.2 Z" fill="none" stroke="#1F2933" stroke-width="3" stroke-linecap="round" stroke-linejoin="round"/><text x="810.0" y="432.0" font-family="'Segoe Print','Bradley Hand','Comic Sans MS',cursive" font-size="26" fill="#1F2933" text-anchor="middle" font-weight="bold" opacity="1.0">Android</text><text x="810.0" y="466.0" font-family="'Segoe Print','Bradley Hand','Comic Sans MS',cursive" font-size="18" fill="#4B5563" text-anchor="middle" font-weight="normal" opacity="1.0">always right there</text><path d="M 590.0 600.0 Q 632.8 538.0 700.0 505.0" fill="none" stroke="#8A936D" stroke-width="3" stroke-linecap="round"/><path d="M 700.0 505.0 L 679.4 505.6" stroke="#8A936D" stroke-width="3" stroke-linecap="round" fill="none"/><path d="M 700.0 505.0 L 687.1 521.6" stroke="#8A936D" stroke-width="3" stroke-linecap="round" fill="none"/><text x="800.0" y="800.0" font-family="'Segoe Print','Bradley Hand','Comic Sans MS',cursive" font-size="26" fill="#4B5563" text-anchor="middle" font-weight="normal" opacity="1.0">your phone is still a phone the whole time — the session waits politely</text></svg>
