<svg xmlns="http://www.w3.org/2000/svg" viewBox="0 0 1600 900" role="img" aria-labelledby="t d" preserveAspectRatio="xMidYMid meet"><title id="t">What is proot?</title><desc id="d">proot draws a protected boundary inside Android where Ubuntu runs believing it owns the machine — no root access required.</desc><rect x="0" y="0" width="1600" height="900" fill="#F7F1E6"/><line x1="198" y1="30" x2="199" y2="870" stroke="#8A8178" stroke-width="1" opacity="0.18"/><line x1="795" y1="30" x2="801" y2="870" stroke="#8A8178" stroke-width="1" opacity="0.18"/><line x1="1399" y1="30" x2="1402" y2="870" stroke="#8A8178" stroke-width="1" opacity="0.18"/><line x1="40" y1="148" x2="1560" y2="155" stroke="#8A8178" stroke-width="1" opacity="0.18"/><line x1="40" y1="452" x2="1560" y2="454" stroke="#8A8178" stroke-width="1" opacity="0.18"/><line x1="40" y1="748" x2="1560" y2="745" stroke="#8A8178" stroke-width="1" opacity="0.18"/><line x1="70" y1="20" x2="70" y2="880" stroke="#8A8178" stroke-width="1.6" opacity="0.3"/><path d="M 30 40 L 50 40 M 40 30 L 40 50" stroke="#8A8178" stroke-width="1.3" opacity="0.4"/><path d="M 1550 40 L 1570 40 M 1560 30 L 1560 50" stroke="#8A8178" stroke-width="1.3" opacity="0.4"/><path d="M 30 860 L 50 860 M 40 850 L 40 870" stroke="#8A8178" stroke-width="1.3" opacity="0.4"/><path d="M 1550 860 L 1570 860 M 1560 850 L 1560 870" stroke="#8A8178" stroke-width="1.3" opacity="0.4"/><text x="800.0" y="84.0" font-family="'Segoe Print','Bradley Hand','Comic Sans MS',cursive" font-size="42" fill="#1F2933" text-anchor="middle" font-weight="bold" opacity="1.0">proot: a protected workspace, no root</text><path d="M 393 104 Q 800 113 1207 102" stroke="#1F2933" stroke-width="2.5" fill="none" opacity="0.75"/><rect x="197.9" y="178.0" width="1200" height="560" fill="none" stroke="#8A8178" stroke-width="1.4" opacity="0.55" stroke-dasharray="7 5"/><path d="M 199.1 186.8 Q 348.5 187.4 502.8 186.9 Q 652.4 185.0 796.5 179.7 Q 948.2 181.0 1099.0 184.1 Q 1247.1 180.0 1395.5 180.4 Q 1393.5 250.7 1393.7 324.1 Q 1391.1 392.5 1394.3 455.3 Q 1393.2 525.3 1397.0 593.2 Q 1398.7 663.6 1395.3 733.6 Q 1246.6 734.2 1096.9 736.2 Q 951.9 734.4 805.4 738.1 Q 657.4 741.3 505.0 743.1 Q 350.3 740.5 196.0 733.5 Q 202.6 664.5 203.2 596.7 Q 201.7 530.5 199.5 463.2 Q 201.0 396.7 204.4 326.7 Z" fill="#8A936D" fill-opacity="0.22" stroke="none"/><path d="M 197.5 178.2 Q 347.8 181.1 498.2 183.0 Q 648.4 184.5 796.6 183.3 Q 950.9 182.6 1103.0 183.0 Q 1250.7 181.4 1400.5 179.9 Q 1399.4 251.2 1400.6 320.9 Q 1399.3 389.9 1398.0 461.6 Q 1400.0 531.7 1400.9 598.5 Q 1401.0 669.3 1401.9 738.5 Q 1249.9 736.2 1099.2 737.1 Q 949.8 741.5 797.4 743.2 Q 650.0 742.7 499.5 741.7 Q 349.3 740.1 199.4 740.7 Q 200.4 670.9 203.3 598.1 Q 202.2 528.6 200.0 462.0 Q 200.9 391.0 200.2 318.4 Z" fill="none" stroke="#1F2933" stroke-width="3" stroke-linecap="round" stroke-linejoin="round"/><text x="320.0" y="230.0" font-family="'Segoe Print','Bradley Hand','Comic Sans MS',cursive" font-size="30" fill="#4B5563" text-anchor="start" font-weight="normal" opacity="1.0">Android</text><rect x="480" y="270" width="820" height="400" fill="none" stroke="#3E5C76" stroke-width="3" stroke-dasharray="14 10" rx="14"/><text x="580.0" y="255.0" font-family="'Segoe Print','Bradley Hand','Comic Sans MS',cursive" font-size="25" fill="#3E5C76" text-anchor="start" font-weight="normal" opacity="1.0">proot boundary</text><rect x="537.4" y="316.7" width="700" height="300" fill="none" stroke="#8A8178" stroke-width="1.4" opacity="0.55" stroke-dasharray="7 5"/><path d="M 538.6 317.9 Q 628.8 320.2 719.2 319.6 Q 803.1 319.5 887.2 316.8 Q 975.7 320.5 1065.3 320.5 Q 1152.8 320.7 1236.4 319.1 Q 1234.5 356.9 1233.1 396.2 Q 1235.0 435.4 1241.6 470.4 Q 1244.4 504.4 1241.6 538.4 Q 1239.5 583.4 1233.6 623.4 Q 1143.9 622.7 1058.6 617.4 Q 973.6 617.0 888.8 614.6 Q 800.3 615.0 711.5 621.2 Q 632.0 624.9 547.5 622.9 Q 542.4 587.4 536.2 549.1 Q 536.5 509.3 537.4 465.7 Q 539.4 428.0 543.8 394.9 Z" fill="#D8C3A5" fill-opacity="0.5" stroke="none"/><path d="M 538.8 319.0 Q 625.3 320.1 715.0 318.4 Q 800.1 319.1 887.4 321.2 Q 973.4 318.4 1061.6 318.5 Q 1151.2 321.0 1238.6 321.3 Q 1238.3 357.7 1238.0 393.7 Q 1236.7 433.5 1237.3 472.5 Q 1239.6 510.3 1239.3 544.7 Q 1241.5 580.5 1242.0 616.9 Q 1153.6 620.5 1063.1 621.2 Q 976.1 619.9 890.0 620.0 Q 801.4 617.8 712.6 618.9 Q 625.1 618.4 537.0 617.6 Q 539.1 581.6 540.9 543.9 Q 541.2 507.9 541.4 471.3 Q 540.1 434.4 538.8 396.1 Z" fill="none" stroke="#1F2933" stroke-width="3" stroke-linecap="round" stroke-linejoin="round"/><text x="890.0" y="380.0" font-family="'Segoe Print','Bradley Hand','Comic Sans MS',cursive" font-size="34" fill="#1F2933" text-anchor="middle" font-weight="bold" opacity="1.0">Ubuntu</text><text x="890.0" y="430.0" font-family="'Segoe Print','Bradley Hand','Comic Sans MS',cursive" font-size="25" fill="#4B5563" text-anchor="middle" font-weight="normal" opacity="1.0">thinks it has the whole computer:</text><text x="890.0" y="470.0" font-family="'Segoe Print','Bradley Hand','Comic Sans MS',cursive" font-size="25" fill="#4B5563" text-anchor="middle" font-weight="normal" opacity="1.0">its own / filesystem, users, packages</text><text x="890.0" y="560.0" font-family="'Segoe Print','Bradley Hand','Comic Sans MS',cursive" font-size="26" fill="#3E5C76" text-anchor="middle" font-weight="normal" opacity="1.0">proot translates every request — no root needed</text><rect x="330" y="420" width="80" height="66" rx="10" fill="#D6A94A" fill-opacity="0.6" stroke="#1F2933" stroke-width="3"/><path d="M 348 420 v-20 a 22 22 0 0 1 44 0 v20" fill="none" stroke="#1F2933" stroke-width="4"/><text x="370.0" y="530.0" font-family="'Segoe Print','Bradley Hand','Comic Sans MS',cursive" font-size="22" fill="#4B5563" text-anchor="middle" font-weight="normal" opacity="1.0">warranty</text><text x="370.0" y="558.0" font-family="'Segoe Print','Bradley Hand','Comic Sans MS',cursive" font-size="22" fill="#4B5563" text-anchor="middle" font-weight="normal" opacity="1.0">stays intact</text></svg>
