<svg xmlns="http://www.w3.org/2000/svg" viewBox="0 0 1600 900" role="img" aria-labelledby="t d" preserveAspectRatio="xMidYMid meet"><title id="t">Linux components</title><desc id="d">A Linux system: the kernel talks to hardware while userspace holds the shell, packages, desktop, apps, and your files.</desc><rect x="0" y="0" width="1600" height="900" fill="#F7F1E6"/><line x1="201" y1="30" x2="195" y2="870" stroke="#8A8178" stroke-width="1" opacity="0.18"/><line x1="795" y1="30" x2="796" y2="870" stroke="#8A8178" stroke-width="1" opacity="0.18"/><line x1="1403" y1="30" x2="1397" y2="870" stroke="#8A8178" stroke-width="1" opacity="0.18"/><line x1="40" y1="150" x2="1560" y2="146" stroke="#8A8178" stroke-width="1" opacity="0.18"/><line x1="40" y1="453" x2="1560" y2="452" stroke="#8A8178" stroke-width="1" opacity="0.18"/><line x1="40" y1="755" x2="1560" y2="755" stroke="#8A8178" stroke-width="1" opacity="0.18"/><line x1="70" y1="20" x2="70" y2="880" stroke="#8A8178" stroke-width="1.6" opacity="0.3"/><path d="M 30 40 L 50 40 M 40 30 L 40 50" stroke="#8A8178" stroke-width="1.3" opacity="0.4"/><path d="M 1550 40 L 1570 40 M 1560 30 L 1560 50" stroke="#8A8178" stroke-width="1.3" opacity="0.4"/><path d="M 30 860 L 50 860 M 40 850 L 40 870" stroke="#8A8178" stroke-width="1.3" opacity="0.4"/><path d="M 1550 860 L 1570 860 M 1560 850 L 1560 870" stroke="#8A8178" stroke-width="1.3" opacity="0.4"/><text x="800.0" y="84.0" font-family="'Segoe Print','Bradley Hand','Comic Sans MS',cursive" font-size="42" fill="#1F2933" text-anchor="middle" font-weight="bold" opacity="1.0">The parts of a Linux system</text><path d="M 503 100 Q 800 113 1097 101" stroke="#1F2933" stroke-width="2.5" fill="none" opacity="0.75"/><rect x="304.3" y="641.2" width="1000" height="130" fill="none" stroke="#8A8178" stroke-width="1.4" opacity="0.55" stroke-dasharray="7 5"/><path d="M 302.3 638.1 Q 427.1 642.0 551.9 641.5 Q 677.9 637.0 800.4 637.4 Q 924.8 635.5 1045.0 639.5 Q 1175.1 642.4 1301.5 646.8 Q 1299.0 664.0 1298.5 677.9 Q 1298.8 691.1 1302.1 705.5 Q 1299.3 724.6 1301.9 738.9 Q 1297.4 755.5 1294.8 770.6 Q 1175.1 772.9 1051.6 771.1 Q 924.8 773.3 796.0 770.6 Q 678.8 769.4 556.6 768.2 Q 426.4 769.2 299.2 773.0 Q 298.7 752.3 302.4 737.1 Q 305.9 721.6 304.7 708.5 Q 301.8 690.9 297.4 677.9 Z" fill="#1E3A5F" fill-opacity="0.35" stroke="none"/><path d="M 297.2 636.5 Q 424.4 635.4 552.7 637.5 Q 675.9 640.6 799.8 643.4 Q 924.3 640.4 1051.1 638.6 Q 1175.1 640.7 1301.8 643.2 Q 1303.7 655.4 1303.3 669.7 Q 1302.7 685.0 1300.8 703.1 Q 1301.5 720.0 1302.6 735.9 Q 1298.9 755.1 1297.5 773.5 Q 1176.4 773.8 1052.6 772.0 Q 924.6 771.1 797.2 770.0 Q 674.7 769.7 552.4 768.9 Q 427.8 768.9 300.3 768.9 Q 302.9 755.8 303.0 739.9 Q 302.1 720.3 302.1 704.0 Q 299.7 687.6 297.1 669.9 Z" fill="none" stroke="#1F2933" stroke-width="3" stroke-linecap="round" stroke-linejoin="round"/><text x="800.0" y="697.0" font-family="'Segoe Print','Bradley Hand','Comic Sans MS',cursive" font-size="30" fill="#1F2933" text-anchor="middle" font-weight="bold" opacity="1.0">Kernel</text><text x="800.0" y="731.0" font-family="'Segoe Print','Bradley Hand','Comic Sans MS',cursive" font-size="22" fill="#4B5563" text-anchor="middle" font-weight="normal" opacity="1.0">talks to the hardware</text><rect x="260" y="160" width="1080" height="440" fill="none" stroke="#8A8178" stroke-width="2" stroke-dasharray="12 8" rx="16"/><text x="340.0" y="195.0" font-family="'Segoe Print','Bradley Hand','Comic Sans MS',cursive" font-size="26" fill="#4B5563" text-anchor="start" font-weight="normal" opacity="1.0">userspace</text><rect x="316.3" y="229.7" width="300" height="150" fill="none" stroke="#8A8178" stroke-width="1.4" opacity="0.55" stroke-dasharray="7 5"/><path d="M 319.8 229.3 Q 360.0 228.2 396.7 228.9 Q 435.8 227.9 472.0 231.7 Q 512.0 232.1 548.0 237.6 Q 586.1 238.3 619.2 237.7 Q 619.6 251.2 619.6 267.2 Q 619.7 283.3 622.9 301.5 Q 618.3 319.1 618.9 337.4 Q 620.8 355.6 623.4 377.1 Q 578.6 377.2 538.4 381.7 Q 500.1 375.7 467.8 372.9 Q 432.0 377.4 398.7 379.1 Q 358.8 377.8 320.8 379.7 Q 316.8 363.7 316.1 344.5 Q 319.8 325.5 327.2 302.3 Q 325.0 284.6 325.6 267.6 Z" fill="#4B5563" fill-opacity="0.5" stroke="none"/><path d="M 320.9 232.0 Q 361.1 230.2 398.0 228.4 Q 434.5 229.0 472.4 226.6 Q 510.0 230.8 545.7 231.4 Q 582.9 231.3 620.5 232.0 Q 620.6 249.1 623.0 265.2 Q 620.6 286.1 617.0 306.3 Q 621.1 325.4 622.5 341.4 Q 621.7 363.2 622.0 383.1 Q 585.5 383.2 546.3 382.1 Q 505.6 381.6 467.8 378.9 Q 431.5 382.1 393.0 382.3 Q 356.1 378.8 320.8 376.5 Q 319.9 360.1 321.1 343.0 Q 319.8 322.4 316.9 303.3 Q 317.3 283.2 318.0 265.2 Z" fill="none" stroke="#1F2933" stroke-width="3" stroke-linecap="round" stroke-linejoin="round"/><text x="470.0" y="297.0" font-family="'Segoe Print','Bradley Hand','Comic Sans MS',cursive" font-size="28" fill="#1F2933" text-anchor="middle" font-weight="bold" opacity="1.0">Shell</text><text x="470.0" y="331.0" font-family="'Segoe Print','Bradley Hand','Comic Sans MS',cursive" font-size="20" fill="#4B5563" text-anchor="middle" font-weight="normal" opacity="1.0">you type here</text><rect x="655.1" y="228.6" width="300" height="150" fill="none" stroke="#8A8178" stroke-width="1.4" opacity="0.55" stroke-dasharray="7 5"/><path d="M 661.4 236.8 Q 700.0 233.2 733.1 228.0 Q 770.3 228.9 809.9 230.8 Q 844.3 233.0 882.5 230.2 Q 919.2 230.1 961.9 227.1 Q 961.8 251.3 956.6 270.7 Q 961.8 289.8 963.6 310.2 Q 957.2 330.3 956.0 346.9 Q 957.0 357.4 960.2 373.5 Q 924.2 378.5 886.5 381.2 Q 852.7 379.1 813.3 373.0 Q 772.3 378.2 731.0 379.9 Q 697.7 378.3 665.4 381.6 Q 665.1 358.8 663.1 335.8 Q 658.7 315.6 657.2 299.8 Q 655.9 286.8 658.1 268.9 Z" fill="#3E5C76" fill-opacity="0.5" stroke="none"/><path d="M 657.6 229.2 Q 694.9 232.4 732.7 232.8 Q 773.1 230.2 813.2 230.3 Q 848.1 229.3 885.2 230.9 Q 922.4 232.8 961.6 231.9 Q 958.6 247.8 958.3 266.5 Q 958.8 287.2 956.7 306.8 Q 956.0 323.1 958.2 341.5 Q 959.2 360.6 960.3 383.1 Q 923.1 379.7 883.9 377.8 Q 847.5 379.1 813.2 378.3 Q 774.3 377.9 735.3 380.7 Q 699.0 381.3 662.5 382.8 Q 663.0 364.7 661.2 344.4 Q 660.5 322.2 658.3 302.3 Q 656.9 286.3 656.6 267.7 Z" fill="none" stroke="#1F2933" stroke-width="3" stroke-linecap="round" stroke-linejoin="round"/><text x="810.0" y="297.0" font-family="'Segoe Print','Bradley Hand','Comic Sans MS',cursive" font-size="28" fill="#1F2933" text-anchor="middle" font-weight="bold" opacity="1.0">Packages</text><text x="810.0" y="331.0" font-family="'Segoe Print','Bradley Hand','Comic Sans MS',cursive" font-size="20" fill="#4B5563" text-anchor="middle" font-weight="normal" opacity="1.0">apt installs these</text><rect x="997.5" y="234.9" width="300" height="150" fill="none" stroke="#8A8178" stroke-width="1.4" opacity="0.55" stroke-dasharray="7 5"/><path d="M 999.5 229.7 Q 1038.8 233.1 1081.7 232.9 Q 1111.3 228.2 1146.4 229.2 Q 1187.7 232.0 1226.3 235.4 Q 1260.9 231.4 1296.3 228.2 Q 1293.7 253.2 1295.0 273.4 Q 1299.7 285.9 1300.3 303.8 Q 1298.2 318.2 1293.9 335.8 Q 1295.4 358.0 1296.1 377.9 Q 1260.2 376.2 1223.0 372.8 Q 1191.5 370.8 1155.8 372.8 Q 1116.6 374.2 1071.6 379.6 Q 1039.1 380.5 1004.6 379.0 Q 1003.6 359.7 1003.8 344.3 Q 998.8 322.2 998.4 304.9 Q 1003.4 285.8 1002.7 266.2 Z" fill="#5A9A9A" fill-opacity="0.5" stroke="none"/><path d="M 1002.5 232.8 Q 1040.8 232.0 1078.1 229.0 Q 1116.2 232.7 1151.9 233.0 Q 1188.9 232.2 1225.0 231.3 Q 1263.9 228.6 1299.6 228.0 Q 1300.9 250.0 1299.9 270.8 Q 1297.1 287.8 1296.6 301.5 Q 1300.9 325.3 1302.2 345.8 Q 1301.4 362.5 1303.4 382.1 Q 1264.2 381.8 1222.4 383.0 Q 1187.6 380.9 1152.2 382.0 Q 1111.0 381.8 1072.1 382.4 Q 1033.5 382.1 998.3 380.4 Q 1001.4 363.1 1002.5 342.8 Q 1002.0 323.5 1001.3 305.8 Q 999.1 285.7 996.5 264.4 Z" fill="none" stroke="#1F2933" stroke-width="3" stroke-linecap="round" stroke-linejoin="round"/><text x="1150.0" y="297.0" font-family="'Segoe Print','Bradley Hand','Comic Sans MS',cursive" font-size="28" fill="#1F2933" text-anchor="middle" font-weight="bold" opacity="1.0">Desktop</text><text x="1150.0" y="331.0" font-family="'Segoe Print','Bradley Hand','Comic Sans MS',cursive" font-size="20" fill="#4B5563" text-anchor="middle" font-weight="normal" opacity="1.0">XFCE draws this</text><rect x="487.1" y="417.2" width="300" height="150" fill="none" stroke="#8A8178" stroke-width="1.4" opacity="0.55" stroke-dasharray="7 5"/><path d="M 490.0 426.4 Q 525.7 420.8 567.2 417.3 Q 605.8 418.4 645.6 418.7 Q 678.9 417.7 714.9 422.1 Q 752.5 418.3 790.5 419.9 Q 787.0 437.5 786.3 460.4 Q 787.3 479.4 782.9 494.0 Q 785.6 513.3 792.2 536.8 Q 785.7 552.7 782.5 563.3 Q 749.2 567.9 715.9 567.1 Q 674.7 570.7 634.8 572.9 Q 600.7 565.8 569.9 563.1 Q 530.7 567.4 493.6 572.0 Q 491.5 554.9 488.4 537.5 Q 492.4 516.0 493.6 491.0 Q 490.3 472.9 492.7 453.7 Z" fill="#D6A94A" fill-opacity="0.5" stroke="none"/><path d="M 490.0 421.5 Q 526.8 420.7 566.6 422.1 Q 602.2 419.8 638.4 416.9 Q 675.9 419.1 712.5 421.1 Q 751.1 423.9 790.4 423.3 Q 789.9 441.0 788.0 455.1 Q 785.9 475.3 786.7 495.0 Q 788.9 514.3 788.3 532.3 Q 789.2 552.6 791.5 572.8 Q 754.8 571.5 718.5 570.3 Q 681.9 570.8 642.9 568.7 Q 605.1 567.9 564.8 567.8 Q 529.3 567.9 492.8 568.2 Q 488.9 550.7 487.0 532.1 Q 488.8 513.3 491.2 493.2 Q 489.1 476.0 489.4 457.4 Z" fill="none" stroke="#1F2933" stroke-width="3" stroke-linecap="round" stroke-linejoin="round"/><text x="640.0" y="487.0" font-family="'Segoe Print','Bradley Hand','Comic Sans MS',cursive" font-size="28" fill="#1F2933" text-anchor="middle" font-weight="bold" opacity="1.0">Apps</text><text x="640.0" y="521.0" font-family="'Segoe Print','Bradley Hand','Comic Sans MS',cursive" font-size="20" fill="#4B5563" text-anchor="middle" font-weight="normal" opacity="1.0">what you actually use</text><rect x="833.5" y="418.6" width="300" height="150" fill="none" stroke="#8A8178" stroke-width="1.4" opacity="0.55" stroke-dasharray="7 5"/><path d="M 827.4 427.1 Q 863.3 423.9 901.3 420.7 Q 945.0 420.3 985.2 422.6 Q 1018.3 421.4 1055.4 420.8 Q 1091.6 417.0 1123.0 417.4 Q 1125.3 436.8 1129.6 454.4 Q 1130.0 470.9 1131.0 492.8 Q 1126.4 513.5 1122.8 535.3 Q 1122.4 553.9 1127.1 569.2 Q 1091.8 568.0 1057.8 564.3 Q 1016.4 567.5 977.2 564.9 Q 945.5 566.9 910.8 570.6 Q 868.5 566.3 827.5 565.3 Q 831.6 545.2 831.8 529.0 Q 832.4 512.9 834.3 496.6 Q 830.1 480.3 831.1 461.8 Z" fill="#D8C3A5" fill-opacity="0.5" stroke="none"/><path d="M 829.9 422.5 Q 868.0 421.8 904.9 421.7 Q 939.6 421.0 977.1 417.9 Q 1018.9 421.4 1058.1 423.2 Q 1092.9 421.6 1130.0 418.8 Q 1130.2 437.1 1132.4 458.7 Q 1130.1 478.9 1126.6 495.7 Q 1126.8 512.6 1129.2 532.2 Q 1130.8 553.3 1130.1 571.1 Q 1092.4 568.5 1052.1 567.2 Q 1016.5 567.9 980.7 569.5 Q 940.8 572.6 903.4 572.4 Q 867.6 573.3 830.9 570.9 Q 829.3 552.1 828.3 530.4 Q 830.0 513.0 833.2 497.2 Q 831.8 476.0 828.2 455.5 Z" fill="none" stroke="#1F2933" stroke-width="3" stroke-linecap="round" stroke-linejoin="round"/><text x="980.0" y="487.0" font-family="'Segoe Print','Bradley Hand','Comic Sans MS',cursive" font-size="28" fill="#1F2933" text-anchor="middle" font-weight="bold" opacity="1.0">Your files</text><text x="980.0" y="521.0" font-family="'Segoe Print','Bradley Hand','Comic Sans MS',cursive" font-size="20" fill="#4B5563" text-anchor="middle" font-weight="normal" opacity="1.0">home directory</text><path d="M 800.0 605.0 Q 800.2 620.6 800.0 635.0" fill="none" stroke="#1F2933" stroke-width="4" stroke-linecap="round"/><path d="M 800.0 635.0 L 812.0 616.8" stroke="#1F2933" stroke-width="4" stroke-linecap="round" fill="none"/><path d="M 800.0 635.0 L 788.8 614.5" stroke="#1F2933" stroke-width="4" stroke-linecap="round" fill="none"/><path d="M 800.0 605.0 L 791.6 624.7" stroke="#1F2933" stroke-width="4" stroke-linecap="round" fill="none"/><path d="M 800.0 605.0 L 810.9 623.9" stroke="#1F2933" stroke-width="4" stroke-linecap="round" fill="none"/><text x="1180.0" y="625.0" font-family="'Segoe Print','Bradley Hand','Comic Sans MS',cursive" font-size="23" fill="#4B5563" text-anchor="start" font-weight="normal" opacity="1.0">everything above runs on the kernel</text></svg>
