<svg xmlns="http://www.w3.org/2000/svg" viewBox="0 0 1600 900" role="img" aria-labelledby="t d" preserveAspectRatio="xMidYMid meet"><title id="t">What is Termux?</title><desc id="d">Termux sits between the Android world and Linux tools, acting as the gateway that gives your phone a real Linux terminal.</desc><rect x="0" y="0" width="1600" height="900" fill="#F7F1E6"/><line x1="200" y1="30" x2="195" y2="870" stroke="#8A8178" stroke-width="1" opacity="0.18"/><line x1="804" y1="30" x2="800" y2="870" stroke="#8A8178" stroke-width="1" opacity="0.18"/><line x1="1395" y1="30" x2="1403" y2="870" stroke="#8A8178" stroke-width="1" opacity="0.18"/><line x1="40" y1="144" x2="1560" y2="154" stroke="#8A8178" stroke-width="1" opacity="0.18"/><line x1="40" y1="444" x2="1560" y2="454" stroke="#8A8178" stroke-width="1" opacity="0.18"/><line x1="40" y1="746" x2="1560" y2="748" stroke="#8A8178" stroke-width="1" opacity="0.18"/><line x1="70" y1="20" x2="70" y2="880" stroke="#8A8178" stroke-width="1.6" opacity="0.3"/><path d="M 30 40 L 50 40 M 40 30 L 40 50" stroke="#8A8178" stroke-width="1.3" opacity="0.4"/><path d="M 1550 40 L 1570 40 M 1560 30 L 1560 50" stroke="#8A8178" stroke-width="1.3" opacity="0.4"/><path d="M 30 860 L 50 860 M 40 850 L 40 870" stroke="#8A8178" stroke-width="1.3" opacity="0.4"/><path d="M 1550 860 L 1570 860 M 1560 850 L 1560 870" stroke="#8A8178" stroke-width="1.3" opacity="0.4"/><text x="800.0" y="84.0" font-family="'Segoe Print','Bradley Hand','Comic Sans MS',cursive" font-size="42" fill="#1F2933" text-anchor="middle" font-weight="bold" opacity="1.0">Termux: the gateway to Linux</text><path d="M 492 104 Q 800 112 1108 100" stroke="#1F2933" stroke-width="2.5" fill="none" opacity="0.75"/><rect x="109.0" y="223.8" width="380" height="460" fill="none" stroke="#8A8178" stroke-width="1.4" opacity="0.55" stroke-dasharray="7 5"/><path d="M 117.3 219.9 Q 163.8 220.7 205.6 217.0 Q 251.1 219.0 302.5 223.1 Q 347.5 223.4 397.0 224.9 Q 446.3 225.0 493.0 223.8 Q 491.6 274.7 492.6 331.0 Q 489.7 393.6 486.6 454.3 Q 483.5 507.7 484.6 560.2 Q 487.1 616.6 487.8 678.0 Q 442.6 677.2 397.0 677.9 Q 348.5 675.9 297.9 677.6 Q 253.5 682.6 210.6 682.7 Q 161.8 683.4 113.2 681.8 Q 117.3 627.2 117.7 567.9 Q 115.9 507.4 111.1 450.4 Q 108.8 398.3 109.5 340.6 Z" fill="#8A936D" fill-opacity="0.3" stroke="none"/><path d="M 111.0 219.2 Q 156.3 221.4 203.7 223.1 Q 252.7 221.1 302.0 220.3 Q 346.1 220.1 393.1 219.2 Q 444.7 218.9 493.1 217.5 Q 491.8 276.3 493.1 335.3 Q 492.5 395.3 489.7 451.7 Q 486.6 507.3 487.0 566.0 Q 488.2 622.3 489.9 677.5 Q 441.8 680.1 396.2 681.7 Q 348.8 681.3 300.7 682.5 Q 253.9 683.0 208.1 683.1 Q 155.7 680.7 106.6 681.2 Q 110.5 623.9 113.0 565.1 Q 111.0 507.6 108.0 451.1 Q 108.3 393.3 108.1 337.6 Z" fill="none" stroke="#1F2933" stroke-width="3" stroke-linecap="round" stroke-linejoin="round"/><text x="300.0" y="200.0" font-family="'Segoe Print','Bradley Hand','Comic Sans MS',cursive" font-size="28" fill="#4B5563" text-anchor="middle" font-weight="normal" opacity="1.0">Android world</text><rect x="164.3" y="294.6" width="120" height="100" fill="none" stroke="#8A8178" stroke-width="1.4" opacity="0.55" stroke-dasharray="7 5"/><path d="M 162.4 293.6 Q 180.2 293.4 192.8 294.7 Q 204.8 290.4 215.1 291.8 Q 232.8 292.3 248.3 296.2 Q 264.0 295.2 277.2 295.2 Q 277.2 306.9 282.8 319.5 Q 282.9 326.6 280.6 334.2 Q 283.3 353.6 282.4 369.2 Q 275.9 376.3 274.8 388.5 Q 259.9 389.6 247.3 394.0 Q 234.6 392.7 217.2 387.8 Q 206.6 385.9 195.7 390.0 Q 178.6 389.3 166.0 386.2 Q 168.4 373.6 167.9 364.9 Q 167.7 352.1 163.5 344.3 Q 164.6 326.6 162.7 310.1 Z" fill="#D0D4D6" fill-opacity="0.5" stroke="none"/><path d="M 160.0 287.5 Q 174.8 291.0 189.9 292.2 Q 203.0 289.1 219.4 287.8 Q 234.7 288.8 251.7 289.2 Q 267.3 289.9 281.5 292.5 Q 279.6 302.7 277.7 315.3 Q 279.0 326.0 282.6 337.5 Q 281.9 352.5 278.4 364.4 Q 277.5 375.9 277.6 387.7 Q 262.2 388.9 247.8 393.4 Q 233.0 392.0 220.5 389.7 Q 204.7 387.1 187.8 387.2 Q 173.1 386.9 158.1 386.9 Q 156.5 375.1 157.4 363.5 Q 157.9 353.7 161.7 341.1 Q 160.5 330.8 157.4 318.1 Z" fill="none" stroke="#1F2933" stroke-width="3" stroke-linecap="round" stroke-linejoin="round"/><text x="220.0" y="347.0" font-family="'Segoe Print','Bradley Hand','Comic Sans MS',cursive" font-size="20" fill="#1F2933" text-anchor="middle" font-weight="bold" opacity="1.0">Camera</text><rect x="310.1" y="285.9" width="120" height="100" fill="none" stroke="#8A8178" stroke-width="1.4" opacity="0.55" stroke-dasharray="7 5"/><path d="M 309.8 293.0 Q 322.3 289.7 335.9 286.7 Q 352.2 285.1 367.3 287.6 Q 384.7 289.4 397.2 286.3 Q 410.6 293.4 424.5 295.1 Q 426.6 306.4 422.9 314.4 Q 426.2 324.6 430.2 337.6 Q 429.4 349.8 431.6 359.6 Q 430.3 374.2 430.9 391.9 Q 412.5 386.5 394.3 383.3 Q 382.9 385.4 367.0 387.0 Q 351.0 388.3 340.9 386.1 Q 329.9 388.7 313.7 389.6 Q 311.6 380.3 314.8 368.0 Q 309.9 349.9 308.4 336.4 Q 311.1 326.2 310.0 319.2 Z" fill="#D0D4D6" fill-opacity="0.5" stroke="none"/><path d="M 306.5 289.1 Q 321.6 288.5 338.0 289.4 Q 354.2 288.7 373.4 286.7 Q 387.4 289.3 403.0 289.4 Q 416.4 290.5 432.5 291.9 Q 431.4 303.4 432.5 318.2 Q 431.3 328.5 431.3 341.6 Q 431.4 355.6 431.7 367.0 Q 428.6 379.3 426.7 391.6 Q 414.7 393.7 403.2 392.7 Q 387.7 389.7 371.5 388.7 Q 354.9 388.8 339.2 390.7 Q 325.3 391.2 308.9 391.6 Q 308.2 381.6 310.9 368.4 Q 309.9 353.9 308.1 336.7 Q 307.6 323.1 308.1 312.0 Z" fill="none" stroke="#1F2933" stroke-width="3" stroke-linecap="round" stroke-linejoin="round"/><text x="370.0" y="347.0" font-family="'Segoe Print','Bradley Hand','Comic Sans MS',cursive" font-size="20" fill="#1F2933" text-anchor="middle" font-weight="bold" opacity="1.0">Maps</text><rect x="164.7" y="443.4" width="120" height="100" fill="none" stroke="#8A8178" stroke-width="1.4" opacity="0.55" stroke-dasharray="7 5"/><path d="M 164.2 446.9 Q 178.0 443.9 197.0 441.8 Q 208.2 442.1 222.3 446.8 Q 236.6 444.2 251.0 437.9 Q 263.1 441.5 278.4 444.3 Q 277.1 453.1 275.9 464.8 Q 274.1 477.0 272.3 484.8 Q 277.6 497.7 281.1 511.2 Q 280.1 523.5 282.5 534.4 Q 266.6 541.9 248.5 543.6 Q 231.9 540.1 214.2 538.7 Q 201.3 539.2 193.7 540.9 Q 181.3 542.5 167.5 538.8 Q 163.7 524.1 159.3 512.0 Q 161.7 499.8 163.4 493.0 Q 162.5 476.9 167.5 461.4 Z" fill="#D0D4D6" fill-opacity="0.5" stroke="none"/><path d="M 157.2 439.6 Q 173.0 441.1 188.2 442.4 Q 204.3 443.5 218.9 441.7 Q 233.8 437.9 251.0 437.2 Q 267.2 439.6 282.3 439.6 Q 281.7 450.9 278.1 461.9 Q 277.7 476.6 280.7 488.6 Q 278.4 502.1 278.3 516.1 Q 278.8 528.8 278.6 542.1 Q 263.1 542.7 248.1 542.6 Q 234.7 542.6 220.0 539.5 Q 205.3 540.3 189.4 540.6 Q 175.6 540.1 159.7 540.4 Q 159.7 525.9 156.5 513.7 Q 156.5 501.0 158.8 490.2 Q 161.3 478.2 160.3 466.7 Z" fill="none" stroke="#1F2933" stroke-width="3" stroke-linecap="round" stroke-linejoin="round"/><text x="220.0" y="497.0" font-family="'Segoe Print','Bradley Hand','Comic Sans MS',cursive" font-size="20" fill="#1F2933" text-anchor="middle" font-weight="bold" opacity="1.0">Messages</text><rect x="310.7" y="439.7" width="120" height="100" fill="none" stroke="#8A8178" stroke-width="1.4" opacity="0.55" stroke-dasharray="7 5"/><path d="M 316.2 441.6 Q 332.4 441.8 345.1 438.6 Q 352.0 441.9 364.2 445.9 Q 383.1 448.1 402.4 447.1 Q 415.2 444.4 422.5 436.0 Q 426.1 454.5 423.8 470.7 Q 426.2 480.5 427.4 486.6 Q 426.7 502.9 430.6 514.2 Q 432.1 530.0 433.3 539.9 Q 417.7 538.2 400.2 536.9 Q 381.6 536.9 368.7 535.1 Q 350.1 536.0 335.7 539.7 Q 322.5 539.2 311.6 534.6 Q 314.0 523.8 314.1 514.2 Q 314.4 501.5 313.4 491.7 Q 311.9 478.3 310.4 460.0 Z" fill="#D0D4D6" fill-opacity="0.5" stroke="none"/><path d="M 308.8 436.9 Q 324.5 439.2 338.0 440.4 Q 352.7 439.9 369.6 438.4 Q 385.2 437.7 403.4 439.1 Q 414.0 439.5 427.7 441.1 Q 427.2 453.6 428.8 464.8 Q 428.9 475.3 426.9 488.9 Q 429.9 502.4 432.3 515.9 Q 428.7 528.9 426.6 540.3 Q 414.1 541.2 398.2 539.5 Q 384.8 540.5 368.3 542.5 Q 354.0 540.6 342.4 537.4 Q 325.7 540.5 308.2 542.4 Q 308.1 527.5 309.3 512.8 Q 308.9 501.9 307.4 493.5 Q 306.5 477.3 307.2 462.7 Z" fill="none" stroke="#1F2933" stroke-width="3" stroke-linecap="round" stroke-linejoin="round"/><text x="370.0" y="497.0" font-family="'Segoe Print','Bradley Hand','Comic Sans MS',cursive" font-size="20" fill="#1F2933" text-anchor="middle" font-weight="bold" opacity="1.0">Browser</text><rect x="639.9" y="296.5" width="320" height="300" fill="none" stroke="#8A8178" stroke-width="1.4" opacity="0.55" stroke-dasharray="7 5"/><path d="M 643.5 300.2 Q 686.4 304.2 724.7 308.0 Q 757.7 308.1 794.8 306.2 Q 841.6 302.4 882.7 302.4 Q 922.8 304.8 962.5 303.3 Q 964.6 340.0 961.8 370.8 Q 961.2 414.7 961.7 453.6 Q 958.6 486.1 959.5 521.6 Q 961.5 562.5 962.7 599.2 Q 924.0 597.8 879.7 595.6 Q 840.6 600.4 805.6 603.2 Q 760.1 598.1 717.1 598.3 Q 683.4 596.8 644.8 600.8 Q 641.3 559.6 643.8 523.2 Q 648.1 487.5 648.0 445.8 Q 644.2 410.8 636.1 381.8 Z" fill="#4B5563" fill-opacity="0.45" stroke="none"/><path d="M 637.3 302.1 Q 679.0 300.7 719.6 298.4 Q 759.7 298.5 797.1 298.5 Q 840.6 300.1 883.3 299.0 Q 922.4 298.2 958.9 300.0 Q 959.5 334.8 960.7 371.5 Q 960.9 410.2 962.1 447.1 Q 960.7 486.4 960.9 524.2 Q 959.1 562.6 960.8 597.7 Q 921.7 598.6 879.3 598.8 Q 839.0 598.6 798.5 597.7 Q 759.8 599.7 722.8 599.5 Q 682.1 602.5 642.1 603.0 Q 643.6 567.3 643.5 528.5 Q 641.4 486.9 639.4 447.6 Q 643.0 408.7 643.2 372.4 Z" fill="none" stroke="#1F2933" stroke-width="3" stroke-linecap="round" stroke-linejoin="round"/><text x="800.0" y="275.0" font-family="'Segoe Print','Bradley Hand','Comic Sans MS',cursive" font-size="34" fill="#1F2933" text-anchor="middle" font-weight="bold" opacity="1.0">Termux</text><text x="800.0" y="380.0" font-family="'Segoe Print','Bradley Hand','Comic Sans MS',cursive" font-size="52" fill="#7A9A6A" text-anchor="middle" font-weight="bold" opacity="1.0">$ _</text><text x="800.0" y="450.0" font-family="'Segoe Print','Bradley Hand','Comic Sans MS',cursive" font-size="25" fill="#F7F1E6" text-anchor="middle" font-weight="normal" opacity="1.0">a real Linux</text><text x="800.0" y="484.0" font-family="'Segoe Print','Bradley Hand','Comic Sans MS',cursive" font-size="25" fill="#F7F1E6" text-anchor="middle" font-weight="normal" opacity="1.0">terminal, as an app</text><rect x="1113.4" y="224.5" width="380" height="460" fill="none" stroke="#8A8178" stroke-width="1.4" opacity="0.55" stroke-dasharray="7 5"/><path d="M 1106.5 222.7 Q 1156.8 221.1 1207.6 217.5 Q 1250.8 220.2 1297.6 221.6 Q 1348.1 218.5 1395.0 219.8 Q 1443.8 221.3 1490.2 224.4 Q 1492.3 279.7 1490.9 334.8 Q 1490.2 394.0 1490.8 454.6 Q 1490.8 511.0 1491.7 563.6 Q 1488.8 619.7 1482.7 679.4 Q 1442.4 679.8 1398.4 677.2 Q 1348.8 679.8 1305.1 678.3 Q 1257.7 677.0 1211.5 672.2 Q 1166.4 673.6 1117.1 677.9 Q 1111.3 618.1 1109.0 559.9 Q 1110.7 504.8 1117.5 455.0 Q 1115.0 395.9 1117.9 334.3 Z" fill="#3E5C76" fill-opacity="0.25" stroke="none"/><path d="M 1110.3 221.1 Q 1157.5 219.1 1204.5 218.4 Q 1252.3 221.3 1298.1 220.8 Q 1348.0 220.1 1395.5 217.8 Q 1440.8 219.8 1487.4 220.0 Q 1488.1 276.3 1488.9 335.7 Q 1489.8 392.9 1492.9 449.5 Q 1491.8 506.1 1490.0 564.7 Q 1491.9 622.0 1491.1 681.3 Q 1442.4 683.0 1395.3 681.2 Q 1346.8 680.1 1298.5 677.8 Q 1251.5 678.9 1206.2 682.0 Q 1157.5 682.8 1108.5 680.4 Q 1108.1 622.0 1107.7 563.3 Q 1108.6 509.1 1110.1 452.3 Q 1106.9 393.2 1106.5 331.6 Z" fill="none" stroke="#1F2933" stroke-width="3" stroke-linecap="round" stroke-linejoin="round"/><text x="1300.0" y="200.0" font-family="'Segoe Print','Bradley Hand','Comic Sans MS',cursive" font-size="28" fill="#4B5563" text-anchor="middle" font-weight="normal" opacity="1.0">Linux tools</text><rect x="1155.6" y="273.0" width="130" height="90" fill="none" stroke="#8A8178" stroke-width="1.4" opacity="0.55" stroke-dasharray="7 5"/><path d="M 1165.2 276.3 Q 1177.5 274.9 1191.8 275.6 Q 1209.0 276.5 1228.4 272.7 Q 1245.0 272.3 1259.1 270.9 Q 1277.7 272.2 1293.5 272.4 Q 1290.9 283.9 1290.9 290.4 Q 1291.2 302.1 1288.6 312.9 Q 1288.8 324.4 1289.5 341.8 Q 1289.9 346.6 1289.0 354.6 Q 1273.2 352.6 1253.7 352.8 Q 1238.2 360.1 1222.6 363.5 Q 1209.0 359.4 1194.8 359.0 Q 1179.5 361.3 1167.8 363.3 Q 1164.6 350.0 1166.2 334.5 Q 1167.5 321.6 1164.8 309.8 Q 1164.4 301.7 1165.2 290.7 Z" fill="#D8C3A5" fill-opacity="0.5" stroke="none"/><path d="M 1162.2 270.0 Q 1178.0 270.5 1195.0 271.4 Q 1207.4 271.8 1222.9 269.3 Q 1238.1 268.6 1254.5 269.3 Q 1271.1 267.6 1287.7 268.3 Q 1287.8 280.9 1286.6 295.7 Q 1287.8 307.4 1290.5 316.3 Q 1290.2 327.6 1291.1 340.4 Q 1290.2 350.8 1289.8 360.8 Q 1274.3 361.6 1255.7 359.1 Q 1240.7 359.0 1225.3 361.3 Q 1208.4 361.2 1193.5 361.4 Q 1179.7 360.5 1163.3 361.8 Q 1163.6 349.8 1161.7 339.6 Q 1161.0 328.1 1160.7 313.5 Q 1158.3 304.7 1157.1 293.0 Z" fill="none" stroke="#1F2933" stroke-width="3" stroke-linecap="round" stroke-linejoin="round"/><text x="1225.0" y="322.7" font-family="'Segoe Print','Bradley Hand','Comic Sans MS',cursive" font-size="22" fill="#1F2933" text-anchor="middle" font-weight="bold" opacity="1.0">shell</text><rect x="1321.4" y="267.8" width="130" height="90" fill="none" stroke="#8A8178" stroke-width="1.4" opacity="0.55" stroke-dasharray="7 5"/><path d="M 1318.9 269.3 Q 1337.0 271.9 1353.4 275.2 Q 1368.3 270.1 1387.9 269.0 Q 1402.1 272.4 1418.1 272.2 Q 1431.7 268.4 1450.7 269.7 Q 1452.0 280.5 1448.1 295.6 Q 1449.4 305.4 1444.9 316.9 Q 1446.0 328.9 1450.1 341.5 Q 1451.4 349.4 1453.9 361.5 Q 1437.5 356.5 1417.9 354.1 Q 1400.4 356.4 1387.8 354.0 Q 1368.1 357.6 1347.7 359.0 Q 1338.4 358.2 1327.7 353.7 Q 1322.1 347.4 1319.6 342.4 Q 1322.6 333.5 1321.9 320.7 Q 1321.0 306.3 1324.6 295.6 Z" fill="#D8C3A5" fill-opacity="0.5" stroke="none"/><path d="M 1317.3 269.1 Q 1335.0 271.0 1355.0 270.2 Q 1371.1 268.3 1387.2 266.9 Q 1403.7 270.6 1420.1 271.7 Q 1434.2 272.0 1450.9 270.3 Q 1449.0 283.6 1448.6 293.5 Q 1448.9 307.3 1450.9 318.5 Q 1450.1 329.1 1449.4 337.6 Q 1449.0 349.5 1448.8 361.7 Q 1432.4 359.3 1415.4 358.1 Q 1402.3 357.6 1388.0 356.6 Q 1370.6 359.2 1350.3 363.4 Q 1333.1 361.4 1317.5 357.1 Q 1317.4 348.2 1317.4 339.2 Q 1316.5 329.0 1318.1 318.1 Q 1318.7 303.7 1319.2 290.0 Z" fill="none" stroke="#1F2933" stroke-width="3" stroke-linecap="round" stroke-linejoin="round"/><text x="1385.0" y="322.7" font-family="'Segoe Print','Bradley Hand','Comic Sans MS',cursive" font-size="22" fill="#1F2933" text-anchor="middle" font-weight="bold" opacity="1.0">packages</text><rect x="1155.8" y="396.8" width="130" height="90" fill="none" stroke="#8A8178" stroke-width="1.4" opacity="0.55" stroke-dasharray="7 5"/><path d="M 1166.1 400.5 Q 1177.0 404.0 1187.6 404.0 Q 1210.4 405.1 1228.6 401.5 Q 1242.8 397.4 1254.4 396.2 Q 1269.1 399.7 1286.1 406.7 Q 1289.7 417.8 1292.3 427.3 Q 1290.8 436.6 1284.1 448.7 Q 1285.3 454.2 1291.8 465.4 Q 1295.0 473.6 1293.6 483.2 Q 1272.3 485.9 1250.6 485.5 Q 1238.5 486.0 1225.6 489.2 Q 1209.7 489.5 1188.3 487.5 Q 1178.0 482.5 1162.8 482.2 Q 1161.8 474.7 1160.7 470.2 Q 1158.7 462.2 1157.0 450.2 Q 1157.7 439.5 1157.5 423.4 Z" fill="#D8C3A5" fill-opacity="0.5" stroke="none"/><path d="M 1159.5 400.7 Q 1176.9 401.2 1193.3 399.9 Q 1210.7 402.3 1227.4 403.5 Q 1243.6 403.1 1259.3 400.6 Q 1275.7 401.4 1290.1 401.1 Q 1290.6 412.0 1291.0 419.5 Q 1293.6 433.9 1293.0 446.8 Q 1293.0 455.4 1293.4 464.4 Q 1288.9 477.5 1286.7 492.3 Q 1270.9 492.1 1255.4 493.4 Q 1241.2 492.4 1227.9 490.6 Q 1212.5 491.5 1195.5 492.3 Q 1178.5 492.2 1162.6 489.6 Q 1163.8 479.2 1162.6 470.3 Q 1162.5 458.7 1159.6 445.0 Q 1161.9 435.9 1163.4 424.4 Z" fill="none" stroke="#1F2933" stroke-width="3" stroke-linecap="round" stroke-linejoin="round"/><text x="1225.0" y="452.7" font-family="'Segoe Print','Bradley Hand','Comic Sans MS',cursive" font-size="22" fill="#1F2933" text-anchor="middle" font-weight="bold" opacity="1.0">python</text><rect x="1320.8" y="402.3" width="130" height="90" fill="none" stroke="#8A8178" stroke-width="1.4" opacity="0.55" stroke-dasharray="7 5"/><path d="M 1320.9 402.8 Q 1333.3 404.9 1349.2 402.7 Q 1368.2 403.0 1383.4 398.7 Q 1396.7 399.4 1413.7 405.2 Q 1428.8 399.1 1448.9 399.1 Q 1445.9 409.4 1448.8 422.5 Q 1444.4 436.1 1445.0 448.8 Q 1448.9 455.1 1449.9 466.1 Q 1448.8 478.7 1446.9 487.7 Q 1432.8 486.1 1413.5 485.6 Q 1396.5 485.9 1381.6 486.4 Q 1367.4 487.8 1355.6 491.9 Q 1343.2 488.7 1324.9 485.2 Q 1322.0 475.4 1319.8 471.6 Q 1319.4 458.6 1317.2 440.8 Q 1323.3 428.9 1323.8 422.2 Z" fill="#D8C3A5" fill-opacity="0.5" stroke="none"/><path d="M 1321.6 398.8 Q 1336.0 397.6 1349.1 399.1 Q 1367.4 400.0 1382.6 398.1 Q 1398.2 396.7 1415.2 396.9 Q 1430.4 397.2 1447.0 399.4 Q 1448.2 410.2 1448.7 424.4 Q 1446.0 437.6 1446.6 447.7 Q 1446.1 458.0 1448.0 469.3 Q 1447.1 480.0 1448.6 490.1 Q 1435.0 491.1 1418.2 488.7 Q 1401.6 488.1 1388.2 490.0 Q 1369.7 487.5 1353.4 488.2 Q 1336.9 488.1 1318.6 487.4 Q 1318.5 476.4 1321.0 466.6 Q 1319.1 456.1 1316.9 443.1 Q 1318.5 435.1 1319.2 424.4 Z" fill="none" stroke="#1F2933" stroke-width="3" stroke-linecap="round" stroke-linejoin="round"/><text x="1385.0" y="452.7" font-family="'Segoe Print','Bradley Hand','Comic Sans MS',cursive" font-size="22" fill="#1F2933" text-anchor="middle" font-weight="bold" opacity="1.0">git</text><rect x="1159.5" y="534.1" width="130" height="90" fill="none" stroke="#8A8178" stroke-width="1.4" opacity="0.55" stroke-dasharray="7 5"/><path d="M 1160.8 529.7 Q 1179.6 529.2 1192.7 534.0 Q 1204.2 533.8 1221.6 527.8 Q 1241.5 532.0 1262.1 534.2 Q 1278.1 535.5 1292.2 537.8 Q 1290.9 549.2 1290.4 558.1 Q 1289.3 566.4 1293.9 578.1 Q 1291.4 592.0 1290.5 601.4 Q 1287.9 609.8 1285.9 612.6 Q 1275.0 613.4 1259.6 617.7 Q 1238.7 618.8 1220.5 616.5 Q 1205.1 616.8 1191.3 612.8 Q 1177.4 616.6 1166.2 623.2 Q 1167.1 614.5 1167.0 600.4 Q 1162.3 588.2 1161.1 578.3 Q 1163.3 567.8 1162.3 559.0 Z" fill="#D8C3A5" fill-opacity="0.5" stroke="none"/><path d="M 1158.3 531.7 Q 1175.0 530.9 1190.6 532.9 Q 1210.8 531.9 1228.0 531.9 Q 1244.1 531.2 1259.8 530.8 Q 1275.0 531.0 1292.8 532.8 Q 1292.9 543.2 1292.0 550.5 Q 1289.6 564.3 1290.2 576.8 Q 1290.0 588.1 1289.6 600.5 Q 1291.2 611.9 1291.2 620.8 Q 1275.5 622.3 1260.2 622.7 Q 1241.7 621.0 1224.8 620.4 Q 1208.5 619.6 1189.6 617.2 Q 1177.1 618.0 1163.1 619.9 Q 1162.9 607.2 1162.8 597.0 Q 1162.7 586.7 1161.9 574.3 Q 1160.6 563.3 1156.5 553.0 Z" fill="none" stroke="#1F2933" stroke-width="3" stroke-linecap="round" stroke-linejoin="round"/><text x="1225.0" y="582.7" font-family="'Segoe Print','Bradley Hand','Comic Sans MS',cursive" font-size="22" fill="#1F2933" text-anchor="middle" font-weight="bold" opacity="1.0">ssh</text><rect x="1317.7" y="532.3" width="130" height="90" fill="none" stroke="#8A8178" stroke-width="1.4" opacity="0.55" stroke-dasharray="7 5"/><path d="M 1319.7 526.7 Q 1338.5 527.4 1352.2 531.0 Q 1373.2 529.7 1389.4 526.1 Q 1398.2 525.5 1412.9 526.5 Q 1429.6 532.4 1442.8 535.1 Q 1448.9 540.9 1449.3 551.7 Q 1449.1 559.2 1443.2 570.5 Q 1447.8 580.3 1449.4 595.7 Q 1448.1 604.4 1442.4 614.4 Q 1433.4 618.9 1420.0 620.6 Q 1402.5 619.9 1382.2 620.1 Q 1363.5 616.3 1350.7 615.8 Q 1335.6 611.8 1323.7 613.1 Q 1321.3 605.7 1317.6 601.8 Q 1317.8 585.8 1321.4 572.4 Q 1323.8 566.2 1326.2 556.5 Z" fill="#D8C3A5" fill-opacity="0.5" stroke="none"/><path d="M 1317.5 530.3 Q 1337.0 531.5 1353.2 532.3 Q 1369.9 531.0 1387.8 530.3 Q 1401.5 530.4 1417.3 533.0 Q 1432.2 531.1 1448.8 527.1 Q 1452.4 541.0 1453.2 555.8 Q 1448.8 567.8 1446.5 576.2 Q 1448.3 585.2 1451.2 597.6 Q 1450.1 608.5 1448.4 621.3 Q 1434.0 617.8 1419.4 616.8 Q 1401.1 616.3 1383.1 617.5 Q 1368.5 616.3 1351.1 617.5 Q 1336.2 618.3 1320.7 619.9 Q 1319.3 608.8 1320.1 600.1 Q 1320.0 587.7 1316.5 574.9 Q 1317.8 563.6 1319.1 552.5 Z" fill="none" stroke="#1F2933" stroke-width="3" stroke-linecap="round" stroke-linejoin="round"/><text x="1385.0" y="582.7" font-family="'Segoe Print','Bradley Hand','Comic Sans MS',cursive" font-size="22" fill="#1F2933" text-anchor="middle" font-weight="bold" opacity="1.0">editors</text><path d="M 495.0 450.0 Q 567.4 466.9 635.0 450.0" fill="none" stroke="#1F2933" stroke-width="4" stroke-linecap="round"/><path d="M 635.0 450.0 L 613.8 445.1" stroke="#1F2933" stroke-width="4" stroke-linecap="round" fill="none"/><path d="M 635.0 450.0 L 620.0 463.2" stroke="#1F2933" stroke-width="4" stroke-linecap="round" fill="none"/><path d="M 965.0 450.0 Q 1031.8 463.1 1105.0 450.0" fill="none" stroke="#1F2933" stroke-width="4" stroke-linecap="round"/><path d="M 1105.0 450.0 L 1083.2 442.9" stroke="#1F2933" stroke-width="4" stroke-linecap="round" fill="none"/><path d="M 1105.0 450.0 L 1087.2 465.8" stroke="#1F2933" stroke-width="4" stroke-linecap="round" fill="none"/><text x="800.0" y="750.0" font-family="'Segoe Print','Bradley Hand','Comic Sans MS',cursive" font-size="27" fill="#4B5563" text-anchor="middle" font-weight="normal" opacity="1.0">one app on your phone opens the whole Linux toolbox</text></svg>
