<svg xmlns="http://www.w3.org/2000/svg" viewBox="0 0 1600 900" role="img" aria-labelledby="t d" preserveAspectRatio="xMidYMid meet"><title id="t">What is a desktop environment?</title><desc id="d">XFCE sits between the user and Linux applications, translating clicks and keystrokes into windows, menus, and running apps.</desc><rect x="0" y="0" width="1600" height="900" fill="#F7F1E6"/><line x1="202" y1="30" x2="194" y2="870" stroke="#8A8178" stroke-width="1" opacity="0.18"/><line x1="801" y1="30" x2="804" y2="870" stroke="#8A8178" stroke-width="1" opacity="0.18"/><line x1="1400" y1="30" x2="1400" y2="870" stroke="#8A8178" stroke-width="1" opacity="0.18"/><line x1="40" y1="145" x2="1560" y2="146" stroke="#8A8178" stroke-width="1" opacity="0.18"/><line x1="40" y1="447" x2="1560" y2="445" stroke="#8A8178" stroke-width="1" opacity="0.18"/><line x1="40" y1="749" x2="1560" y2="749" stroke="#8A8178" stroke-width="1" opacity="0.18"/><line x1="70" y1="20" x2="70" y2="880" stroke="#8A8178" stroke-width="1.6" opacity="0.3"/><path d="M 30 40 L 50 40 M 40 30 L 40 50" stroke="#8A8178" stroke-width="1.3" opacity="0.4"/><path d="M 1550 40 L 1570 40 M 1560 30 L 1560 50" stroke="#8A8178" stroke-width="1.3" opacity="0.4"/><path d="M 30 860 L 50 860 M 40 850 L 40 870" stroke="#8A8178" stroke-width="1.3" opacity="0.4"/><path d="M 1550 860 L 1570 860 M 1560 850 L 1560 870" stroke="#8A8178" stroke-width="1.3" opacity="0.4"/><text x="800.0" y="84.0" font-family="'Segoe Print','Bradley Hand','Comic Sans MS',cursive" font-size="42" fill="#1F2933" text-anchor="middle" font-weight="bold" opacity="1.0">XFCE: the layer you touch</text><path d="M 525 99 Q 800 110 1075 101" stroke="#1F2933" stroke-width="2.5" fill="none" opacity="0.75"/><circle cx="290" cy="330" r="42" fill="#D0D4D6" fill-opacity="0.6" stroke="#1F2933" stroke-width="3"/><path d="M 230 460 q 60 -70 120 0 l -8 60 q -52 30 -104 0 z" fill="#D0D4D6" fill-opacity="0.6" stroke="#1F2933" stroke-width="3"/><text x="290.0" y="570.0" font-family="'Segoe Print','Bradley Hand','Comic Sans MS',cursive" font-size="28" fill="#1F2933" text-anchor="middle" font-weight="normal" opacity="1.0">You</text><path d="M 390.0 400.0 Q 466.2 419.4 550.0 400.0" fill="none" stroke="#1F2933" stroke-width="4" stroke-linecap="round"/><path d="M 550.0 400.0 L 530.0 393.8" stroke="#1F2933" stroke-width="4" stroke-linecap="round" fill="none"/><path d="M 550.0 400.0 L 535.3 416.1" stroke="#1F2933" stroke-width="4" stroke-linecap="round" fill="none"/><path d="M 390.0 400.0 L 407.4 416.6" stroke="#1F2933" stroke-width="4" stroke-linecap="round" fill="none"/><path d="M 390.0 400.0 L 411.3 393.5" stroke="#1F2933" stroke-width="4" stroke-linecap="round" fill="none"/><text x="470.0" y="370.0" font-family="'Segoe Print','Bradley Hand','Comic Sans MS',cursive" font-size="22" fill="#4B5563" text-anchor="middle" font-weight="normal" opacity="1.0">click, drag, type</text><rect x="560.8" y="253.1" width="460" height="330" fill="none" stroke="#8A8178" stroke-width="1.4" opacity="0.55" stroke-dasharray="7 5"/><path d="M 567.8 255.2 Q 625.0 253.9 678.6 256.6 Q 735.5 252.4 794.3 249.8 Q 845.7 250.2 903.0 247.2 Q 961.6 250.5 1023.3 255.1 Q 1024.1 293.1 1021.9 334.4 Q 1022.9 379.5 1018.4 419.6 Q 1022.3 456.7 1021.3 492.0 Q 1019.0 534.0 1014.9 580.4 Q 961.4 577.1 906.0 575.4 Q 845.2 573.4 789.9 575.0 Q 733.3 579.9 675.1 581.6 Q 620.9 576.6 563.3 574.8 Q 562.3 534.2 563.1 499.4 Q 565.0 455.3 566.9 416.9 Q 565.3 373.0 565.9 332.7 Z" fill="#5A9A9A" fill-opacity="0.4" stroke="none"/><path d="M 560.9 251.7 Q 617.9 249.8 671.7 250.4 Q 733.0 250.8 793.4 252.2 Q 850.0 251.3 908.0 248.7 Q 962.3 248.7 1019.0 250.9 Q 1018.3 293.0 1018.2 332.2 Q 1019.9 370.6 1018.8 411.8 Q 1017.7 453.6 1018.4 496.9 Q 1018.6 539.5 1020.4 581.6 Q 965.5 580.3 907.6 582.0 Q 847.8 578.4 787.9 577.3 Q 731.8 577.7 674.1 578.3 Q 617.9 582.1 561.4 583.4 Q 560.1 539.1 559.4 496.6 Q 558.7 454.7 559.5 415.0 Q 559.4 373.8 556.6 331.6 Z" fill="none" stroke="#1F2933" stroke-width="3" stroke-linecap="round" stroke-linejoin="round"/><text x="790.0" y="300.0" font-family="'Segoe Print','Bradley Hand','Comic Sans MS',cursive" font-size="32" fill="#1F2933" text-anchor="middle" font-weight="bold" opacity="1.0">XFCE desktop</text><rect x="601.1" y="330.2" width="180" height="90" fill="none" stroke="#8A8178" stroke-width="1.4" opacity="0.55" stroke-dasharray="7 5"/><path d="M 603.3 337.0 Q 621.7 333.8 642.4 329.1 Q 663.4 329.7 689.4 328.7 Q 708.0 331.1 732.1 332.6 Q 756.6 327.7 775.7 327.6 Q 779.9 340.7 781.0 355.1 Q 783.3 363.2 783.7 373.2 Q 776.0 382.4 772.1 393.5 Q 773.8 408.6 775.0 418.1 Q 752.6 419.3 731.4 416.8 Q 709.9 415.5 691.0 413.7 Q 670.8 417.4 645.4 417.3 Q 621.4 415.6 603.0 414.0 Q 601.0 406.2 600.4 395.4 Q 603.1 387.0 606.9 374.2 Q 604.3 362.9 603.4 351.6 Z" fill="#F7F1E6" fill-opacity="0.5" stroke="none"/><path d="M 600.1 329.6 Q 623.1 329.4 644.4 327.8 Q 669.0 329.9 690.7 329.4 Q 713.6 327.6 735.7 328.1 Q 758.3 329.6 782.4 331.3 Q 781.3 340.9 780.6 353.6 Q 783.2 366.6 782.4 376.6 Q 781.6 388.2 780.5 400.6 Q 779.6 410.1 779.6 418.2 Q 755.6 419.6 735.0 422.1 Q 710.2 421.8 687.5 423.0 Q 664.6 423.0 644.1 419.9 Q 620.0 422.0 598.6 421.8 Q 599.1 409.3 598.0 394.9 Q 598.0 382.4 599.3 372.8 Q 599.0 364.2 600.1 353.4 Z" fill="none" stroke="#1F2933" stroke-width="3" stroke-linecap="round" stroke-linejoin="round"/><text x="690.0" y="382.7" font-family="'Segoe Print','Bradley Hand','Comic Sans MS',cursive" font-size="22" fill="#1F2933" text-anchor="middle" font-weight="bold" opacity="1.0">panel</text><rect x="800.5" y="335.0" width="180" height="90" fill="none" stroke="#8A8178" stroke-width="1.4" opacity="0.55" stroke-dasharray="7 5"/><path d="M 801.4 327.3 Q 824.7 334.3 849.3 335.8 Q 869.4 336.1 886.4 331.8 Q 908.2 330.8 932.5 334.3 Q 954.3 333.1 981.3 326.5 Q 982.1 338.0 980.2 348.4 Q 975.4 363.6 976.5 373.5 Q 977.9 384.6 975.4 400.1 Q 979.0 408.6 980.0 417.2 Q 956.9 417.9 934.7 421.7 Q 916.3 425.5 895.2 423.4 Q 868.2 418.0 840.9 418.1 Q 819.4 417.1 801.3 418.6 Q 799.9 409.2 799.2 398.1 Q 797.3 386.0 797.6 371.7 Q 802.2 365.0 803.6 352.8 Z" fill="#F7F1E6" fill-opacity="0.5" stroke="none"/><path d="M 797.9 328.7 Q 819.4 329.2 842.7 329.2 Q 867.0 327.5 889.6 327.9 Q 912.2 327.0 932.0 328.8 Q 955.6 329.2 981.9 331.7 Q 978.4 342.5 976.8 350.6 Q 977.0 359.8 979.1 372.2 Q 979.5 386.0 979.6 396.6 Q 981.4 408.4 980.4 421.8 Q 956.5 423.4 934.7 422.4 Q 911.5 420.4 890.0 419.0 Q 870.1 417.4 848.1 418.2 Q 824.0 418.9 798.6 418.1 Q 796.8 409.1 796.9 396.9 Q 797.8 386.0 801.4 376.3 Q 800.0 363.0 798.3 352.6 Z" fill="none" stroke="#1F2933" stroke-width="3" stroke-linecap="round" stroke-linejoin="round"/><text x="890.0" y="382.7" font-family="'Segoe Print','Bradley Hand','Comic Sans MS',cursive" font-size="22" fill="#1F2933" text-anchor="middle" font-weight="bold" opacity="1.0">windows</text><rect x="605.0" y="441.9" width="180" height="90" fill="none" stroke="#8A8178" stroke-width="1.4" opacity="0.55" stroke-dasharray="7 5"/><path d="M 600.8 447.7 Q 620.9 443.8 642.7 445.0 Q 664.9 442.2 687.1 442.8 Q 712.9 439.8 733.6 438.9 Q 758.5 444.9 778.5 447.1 Q 777.2 452.4 779.7 462.6 Q 778.4 478.0 783.1 487.4 Q 781.5 494.1 779.4 503.7 Q 780.7 517.4 782.3 533.2 Q 754.1 527.6 728.2 526.2 Q 710.0 525.0 686.8 527.0 Q 668.2 526.9 648.8 522.4 Q 629.4 524.5 604.7 529.6 Q 603.7 512.3 600.9 500.9 Q 599.5 492.9 599.2 479.2 Q 599.7 470.5 601.6 465.8 Z" fill="#F7F1E6" fill-opacity="0.5" stroke="none"/><path d="M 598.1 443.3 Q 622.7 440.7 645.3 436.9 Q 667.6 440.2 691.6 442.4 Q 713.2 442.1 733.2 442.7 Q 756.5 441.7 779.1 442.8 Q 780.9 451.7 783.3 462.8 Q 783.3 473.8 780.0 484.8 Q 780.7 497.3 780.0 507.7 Q 780.7 518.8 782.3 532.6 Q 759.6 529.6 737.3 527.2 Q 713.9 527.6 693.2 529.0 Q 670.8 528.9 647.2 530.1 Q 626.0 533.4 601.5 533.4 Q 601.7 522.8 600.1 508.7 Q 600.1 496.5 599.3 481.9 Q 599.0 473.8 601.9 463.6 Z" fill="none" stroke="#1F2933" stroke-width="3" stroke-linecap="round" stroke-linejoin="round"/><text x="690.0" y="492.7" font-family="'Segoe Print','Bradley Hand','Comic Sans MS',cursive" font-size="22" fill="#1F2933" text-anchor="middle" font-weight="bold" opacity="1.0">menus</text><rect x="803.1" y="436.6" width="180" height="90" fill="none" stroke="#8A8178" stroke-width="1.4" opacity="0.55" stroke-dasharray="7 5"/><path d="M 801.7 444.5 Q 820.5 438.9 842.9 436.1 Q 864.2 439.5 887.3 436.9 Q 913.8 439.6 936.0 437.3 Q 957.8 438.3 983.2 442.1 Q 977.7 453.4 974.3 460.1 Q 972.2 476.1 975.2 486.3 Q 975.5 499.6 976.6 507.4 Q 977.6 521.4 979.4 532.8 Q 953.0 527.0 930.6 524.7 Q 911.5 525.8 892.2 527.3 Q 868.2 530.0 848.6 530.6 Q 825.2 527.1 799.4 528.6 Q 797.8 516.6 798.8 503.8 Q 797.7 494.2 799.7 489.4 Q 801.3 479.4 804.6 467.9 Z" fill="#F7F1E6" fill-opacity="0.5" stroke="none"/><path d="M 797.4 442.9 Q 819.4 442.3 843.8 441.5 Q 864.7 438.8 887.6 439.1 Q 910.3 442.3 935.9 443.1 Q 958.8 442.7 980.0 439.7 Q 979.8 450.0 978.2 462.2 Q 981.1 472.0 983.3 482.3 Q 981.9 496.1 982.6 510.9 Q 980.2 517.7 977.4 526.8 Q 953.7 529.0 933.4 533.2 Q 909.1 531.7 886.9 526.9 Q 865.0 526.4 845.5 526.8 Q 822.1 527.9 797.3 532.3 Q 798.2 520.1 799.6 509.6 Q 798.8 495.7 798.0 481.6 Q 800.1 472.0 799.6 462.4 Z" fill="none" stroke="#1F2933" stroke-width="3" stroke-linecap="round" stroke-linejoin="round"/><text x="890.0" y="492.7" font-family="'Segoe Print','Bradley Hand','Comic Sans MS',cursive" font-size="22" fill="#1F2933" text-anchor="middle" font-weight="bold" opacity="1.0">file manager</text><path d="M 1025.0 400.0 Q 1100.8 381.9 1180.0 400.0" fill="none" stroke="#1F2933" stroke-width="4" stroke-linecap="round"/><path d="M 1180.0 400.0 L 1162.4 386.8" stroke="#1F2933" stroke-width="4" stroke-linecap="round" fill="none"/><path d="M 1180.0 400.0 L 1159.8 407.7" stroke="#1F2933" stroke-width="4" stroke-linecap="round" fill="none"/><path d="M 1025.0 400.0 L 1046.5 404.2" stroke="#1F2933" stroke-width="4" stroke-linecap="round" fill="none"/><path d="M 1025.0 400.0 L 1040.5 385.2" stroke="#1F2933" stroke-width="4" stroke-linecap="round" fill="none"/><text x="1100.0" y="370.0" font-family="'Segoe Print','Bradley Hand','Comic Sans MS',cursive" font-size="22" fill="#4B5563" text-anchor="middle" font-weight="normal" opacity="1.0">launches, draws</text><rect x="1186.5" y="249.4" width="300" height="330" fill="none" stroke="#8A8178" stroke-width="1.4" opacity="0.55" stroke-dasharray="7 5"/><path d="M 1186.6 250.8 Q 1222.5 251.2 1263.0 246.7 Q 1300.0 245.1 1339.8 248.0 Q 1372.0 251.8 1409.7 254.5 Q 1447.6 255.2 1482.6 252.4 Q 1481.7 292.1 1485.4 336.4 Q 1491.6 372.4 1492.4 411.7 Q 1487.7 453.6 1484.9 494.8 Q 1487.8 535.0 1489.8 576.4 Q 1450.0 573.6 1413.4 576.8 Q 1375.9 576.4 1340.0 576.7 Q 1304.2 577.8 1268.8 578.8 Q 1230.2 582.0 1186.5 583.2 Q 1184.1 537.2 1187.4 494.4 Q 1189.4 453.8 1192.6 411.1 Q 1192.0 372.0 1188.8 330.6 Z" fill="#D6A94A" fill-opacity="0.35" stroke="none"/><path d="M 1193.3 250.0 Q 1230.9 252.5 1268.3 252.7 Q 1302.3 250.4 1339.5 248.0 Q 1377.6 250.2 1417.5 250.8 Q 1454.1 248.6 1487.8 247.2 Q 1486.6 291.6 1487.8 335.1 Q 1487.7 373.8 1488.7 415.9 Q 1487.6 456.4 1488.5 494.5 Q 1488.4 537.5 1486.8 580.9 Q 1450.2 581.8 1416.2 579.5 Q 1377.0 578.7 1340.7 580.4 Q 1301.8 581.9 1264.3 581.9 Q 1228.9 580.4 1190.5 580.2 Q 1189.8 539.2 1188.6 495.6 Q 1188.9 453.4 1188.4 413.9 Q 1190.7 372.4 1189.7 330.3 Z" fill="none" stroke="#1F2933" stroke-width="3" stroke-linecap="round" stroke-linejoin="round"/><text x="1340.0" y="300.0" font-family="'Segoe Print','Bradley Hand','Comic Sans MS',cursive" font-size="28" fill="#1F2933" text-anchor="middle" font-weight="bold" opacity="1.0">Linux apps</text><rect x="1233.8" y="329.9" width="220" height="64" fill="none" stroke="#8A8178" stroke-width="1.4" opacity="0.55" stroke-dasharray="7 5"/><path d="M 1229.2 329.9 Q 1260.6 330.5 1289.5 332.8 Q 1313.0 331.8 1338.3 334.4 Q 1362.1 331.6 1388.9 330.8 Q 1418.9 334.5 1451.0 333.9 Q 1451.3 339.8 1451.6 347.5 Q 1447.0 350.2 1446.3 356.9 Q 1445.8 369.0 1445.5 379.4 Q 1447.6 386.7 1451.1 397.9 Q 1424.8 391.0 1399.6 389.2 Q 1371.2 392.2 1345.0 389.7 Q 1317.2 386.4 1284.6 387.7 Q 1260.5 387.1 1234.4 392.0 Q 1230.9 383.5 1230.1 380.6 Q 1233.5 369.3 1235.2 356.2 Q 1230.7 349.8 1229.7 341.8 Z" fill="#F7F1E6" fill-opacity="0.5" stroke="none"/><path d="M 1228.3 329.7 Q 1258.9 332.3 1286.4 331.9 Q 1313.9 332.6 1341.7 329.8 Q 1367.9 330.7 1395.0 330.5 Q 1421.7 330.5 1450.8 332.7 Q 1450.0 339.4 1449.1 344.9 Q 1448.5 355.2 1448.5 362.5 Q 1451.3 370.6 1450.6 375.4 Q 1450.9 385.6 1450.3 394.8 Q 1423.0 395.3 1392.5 394.0 Q 1364.1 395.9 1339.0 397.5 Q 1312.7 396.7 1285.0 396.9 Q 1257.1 396.1 1228.9 397.0 Q 1227.3 387.2 1227.8 376.8 Q 1226.7 368.4 1229.0 358.6 Q 1229.4 351.6 1229.6 344.7 Z" fill="none" stroke="#1F2933" stroke-width="3" stroke-linecap="round" stroke-linejoin="round"/><text x="1340.0" y="369.7" font-family="'Segoe Print','Bradley Hand','Comic Sans MS',cursive" font-size="22" fill="#1F2933" text-anchor="middle" font-weight="bold" opacity="1.0">Firefox</text><rect x="1227.6" y="406.4" width="220" height="64" fill="none" stroke="#8A8178" stroke-width="1.4" opacity="0.55" stroke-dasharray="7 5"/><path d="M 1231.0 410.8 Q 1258.9 412.7 1287.4 412.3 Q 1313.9 414.8 1345.3 415.8 Q 1371.6 418.9 1399.2 416.0 Q 1424.3 413.5 1446.3 413.7 Q 1446.8 420.2 1446.0 429.8 Q 1449.1 434.1 1447.3 441.9 Q 1445.9 449.6 1447.7 453.8 Q 1449.7 465.3 1452.2 472.4 Q 1420.7 469.0 1394.2 469.5 Q 1371.4 470.9 1343.1 471.4 Q 1313.7 470.3 1283.1 467.9 Q 1255.3 468.4 1226.0 470.5 Q 1230.7 464.1 1233.3 462.8 Q 1231.8 455.3 1231.2 445.6 Q 1228.9 436.5 1227.8 422.9 Z" fill="#F7F1E6" fill-opacity="0.5" stroke="none"/><path d="M 1227.1 407.4 Q 1256.3 408.0 1284.5 409.3 Q 1313.9 410.7 1341.2 413.4 Q 1370.4 411.7 1397.8 407.5 Q 1423.5 408.4 1450.5 411.0 Q 1447.2 417.4 1447.2 425.1 Q 1449.8 433.2 1451.7 442.0 Q 1451.4 450.3 1450.2 456.8 Q 1450.6 465.8 1451.1 473.2 Q 1425.6 473.4 1398.3 472.3 Q 1367.9 473.1 1337.8 473.6 Q 1309.8 475.3 1283.4 477.5 Q 1258.1 476.3 1231.5 474.3 Q 1232.2 465.4 1233.4 455.2 Q 1230.7 447.3 1230.5 442.0 Q 1232.4 435.1 1232.5 426.0 Z" fill="none" stroke="#1F2933" stroke-width="3" stroke-linecap="round" stroke-linejoin="round"/><text x="1340.0" y="449.7" font-family="'Segoe Print','Bradley Hand','Comic Sans MS',cursive" font-size="22" fill="#1F2933" text-anchor="middle" font-weight="bold" opacity="1.0">editor</text><rect x="1228.4" y="490.7" width="220" height="64" fill="none" stroke="#8A8178" stroke-width="1.4" opacity="0.55" stroke-dasharray="7 5"/><path d="M 1230.3 487.6 Q 1257.7 488.4 1287.7 489.8 Q 1312.3 489.2 1336.8 494.2 Q 1367.7 494.2 1394.0 492.5 Q 1422.9 495.3 1446.5 492.6 Q 1450.1 502.0 1449.2 512.3 Q 1449.9 520.8 1449.5 524.5 Q 1449.9 528.0 1447.6 535.0 Q 1448.6 542.0 1451.2 547.2 Q 1421.0 553.8 1392.8 557.9 Q 1368.6 558.4 1341.7 556.4 Q 1315.9 556.3 1291.4 550.8 Q 1265.9 548.2 1235.0 547.7 Q 1236.9 544.8 1233.8 536.7 Q 1230.6 529.2 1231.2 518.5 Q 1230.6 512.9 1229.5 503.6 Z" fill="#F7F1E6" fill-opacity="0.5" stroke="none"/><path d="M 1229.2 486.8 Q 1256.7 487.2 1282.9 486.6 Q 1313.4 491.0 1343.1 492.5 Q 1366.4 493.4 1393.0 492.6 Q 1420.8 490.3 1447.7 488.6 Q 1448.9 497.2 1447.8 507.5 Q 1449.0 515.2 1449.4 520.3 Q 1451.7 527.2 1451.8 536.6 Q 1451.2 546.7 1451.5 554.8 Q 1423.2 554.6 1392.4 552.5 Q 1367.7 553.0 1342.1 556.0 Q 1315.3 552.4 1286.4 550.7 Q 1256.7 551.8 1228.1 556.1 Q 1228.2 545.0 1229.8 537.0 Q 1233.0 530.8 1233.3 525.2 Q 1232.1 514.6 1232.2 503.9 Z" fill="none" stroke="#1F2933" stroke-width="3" stroke-linecap="round" stroke-linejoin="round"/><text x="1340.0" y="529.7" font-family="'Segoe Print','Bradley Hand','Comic Sans MS',cursive" font-size="22" fill="#1F2933" text-anchor="middle" font-weight="bold" opacity="1.0">terminal</text><text x="800.0" y="720.0" font-family="'Segoe Print','Bradley Hand','Comic Sans MS',cursive" font-size="27" fill="#4B5563" text-anchor="middle" font-weight="normal" opacity="1.0">the desktop environment translates between you and the software</text></svg>
