<svg xmlns="http://www.w3.org/2000/svg" viewBox="0 0 1600 900" role="img" aria-labelledby="t d" preserveAspectRatio="xMidYMid meet"><title id="t">Application lifecycle</title><desc id="d">Clicking an app icon triggers the desktop launcher, a Linux process starts, the window appears, and the user interacts.</desc><rect x="0" y="0" width="1600" height="900" fill="#F7F1E6"/><line x1="203" y1="30" x2="199" y2="870" stroke="#8A8178" stroke-width="1" opacity="0.18"/><line x1="796" y1="30" x2="798" y2="870" stroke="#8A8178" stroke-width="1" opacity="0.18"/><line x1="1401" y1="30" x2="1394" y2="870" stroke="#8A8178" stroke-width="1" opacity="0.18"/><line x1="40" y1="150" x2="1560" y2="149" stroke="#8A8178" stroke-width="1" opacity="0.18"/><line x1="40" y1="450" x2="1560" y2="447" stroke="#8A8178" stroke-width="1" opacity="0.18"/><line x1="40" y1="748" x2="1560" y2="753" stroke="#8A8178" stroke-width="1" opacity="0.18"/><line x1="70" y1="20" x2="70" y2="880" stroke="#8A8178" stroke-width="1.6" opacity="0.3"/><path d="M 30 40 L 50 40 M 40 30 L 40 50" stroke="#8A8178" stroke-width="1.3" opacity="0.4"/><path d="M 1550 40 L 1570 40 M 1560 30 L 1560 50" stroke="#8A8178" stroke-width="1.3" opacity="0.4"/><path d="M 30 860 L 50 860 M 40 850 L 40 870" stroke="#8A8178" stroke-width="1.3" opacity="0.4"/><path d="M 1550 860 L 1570 860 M 1560 850 L 1560 870" stroke="#8A8178" stroke-width="1.3" opacity="0.4"/><text x="800.0" y="84.0" font-family="'Segoe Print','Bradley Hand','Comic Sans MS',cursive" font-size="42" fill="#1F2933" text-anchor="middle" font-weight="bold" opacity="1.0">What happens when you open an app</text><path d="M 437 103 Q 800 108 1163 101" stroke="#1F2933" stroke-width="2.5" fill="none" opacity="0.75"/><rect x="87.6" y="367.9" width="255" height="160" fill="none" stroke="#8A8178" stroke-width="1.4" opacity="0.55" stroke-dasharray="7 5"/><path d="M 92.5 373.9 Q 120.6 371.8 151.2 369.2 Q 182.5 373.4 211.2 374.4 Q 245.2 373.4 279.5 373.0 Q 307.7 373.7 341.3 371.3 Q 335.7 392.4 333.8 408.7 Q 337.1 430.8 335.0 447.2 Q 339.5 470.1 338.9 489.5 Q 338.2 510.6 338.1 528.3 Q 306.3 526.3 274.5 528.4 Q 243.4 526.0 210.4 525.4 Q 179.0 528.8 145.5 534.0 Q 112.7 531.5 84.6 529.9 Q 86.4 509.9 89.2 486.8 Q 82.8 466.3 81.4 445.7 Q 79.5 428.5 82.5 407.7 Z" fill="#5AB8FF" fill-opacity="0.5" stroke="none"/><path d="M 85.3 366.6 Q 116.8 369.0 147.8 373.3 Q 179.8 372.6 212.7 369.9 Q 245.6 367.3 277.6 367.0 Q 307.9 370.6 337.8 370.9 Q 339.1 388.9 340.6 409.8 Q 339.8 431.4 340.0 451.9 Q 340.3 472.2 342.2 490.2 Q 344.0 508.3 343.5 529.5 Q 310.5 526.5 277.7 526.7 Q 245.8 527.3 212.0 527.4 Q 183.0 528.0 151.6 527.8 Q 117.4 527.3 83.3 528.3 Q 82.1 509.1 84.3 486.5 Q 83.3 466.7 85.8 448.5 Q 87.6 430.6 87.2 409.3 Z" fill="none" stroke="#1F2933" stroke-width="3" stroke-linecap="round" stroke-linejoin="round"/><text x="212.5" y="459.1" font-family="'Segoe Print','Bradley Hand','Comic Sans MS',cursive" font-size="26" fill="#1F2933" text-anchor="middle" font-weight="bold" opacity="1.0">You click the icon</text><path d="M 345.0 450.0 Q 365.8 443.2 385.0 450.0" fill="none" stroke="#1F2933" stroke-width="3.5" stroke-linecap="round"/><path d="M 385.0 450.0 L 370.2 432.3" stroke="#1F2933" stroke-width="3.5" stroke-linecap="round" fill="none"/><path d="M 385.0 450.0 L 361.6 455.3" stroke="#1F2933" stroke-width="3.5" stroke-linecap="round" fill="none"/><rect x="385.0" y="367.4" width="255" height="160" fill="none" stroke="#8A8178" stroke-width="1.4" opacity="0.55" stroke-dasharray="7 5"/><path d="M 397.4 373.9 Q 423.5 369.1 452.6 366.0 Q 482.2 372.4 514.6 375.6 Q 547.9 377.4 578.1 376.6 Q 611.1 373.5 647.0 371.7 Q 644.4 390.8 637.8 411.6 Q 640.8 431.8 646.2 450.4 Q 649.0 472.2 646.4 490.7 Q 640.7 513.0 637.4 532.7 Q 608.5 527.7 575.0 525.5 Q 546.5 528.3 513.0 533.5 Q 484.6 534.9 454.4 530.8 Q 421.7 526.2 390.3 525.4 Q 388.3 509.7 388.4 492.5 Q 391.4 470.3 396.8 450.3 Q 397.4 433.0 393.7 416.4 Z" fill="#5A9A9A" fill-opacity="0.5" stroke="none"/><path d="M 390.1 373.1 Q 421.4 372.4 455.5 369.5 Q 485.3 371.3 515.3 371.2 Q 548.1 367.7 580.5 366.5 Q 612.6 367.2 646.1 367.8 Q 646.5 390.5 645.8 410.4 Q 647.6 430.8 648.3 449.0 Q 646.5 469.6 647.0 490.3 Q 645.3 509.6 645.1 528.7 Q 613.8 527.6 584.3 527.0 Q 552.2 529.9 520.3 530.6 Q 489.1 528.6 455.7 526.7 Q 421.4 529.7 389.3 530.0 Q 389.5 510.6 389.1 492.1 Q 391.2 471.6 390.6 448.9 Q 390.6 429.5 389.4 409.9 Z" fill="none" stroke="#1F2933" stroke-width="3" stroke-linecap="round" stroke-linejoin="round"/><text x="517.5" y="459.1" font-family="'Segoe Print','Bradley Hand','Comic Sans MS',cursive" font-size="26" fill="#1F2933" text-anchor="middle" font-weight="bold" opacity="1.0">Desktop launcher</text><path d="M 650.0 450.0 Q 667.9 454.9 690.0 450.0" fill="none" stroke="#1F2933" stroke-width="3.5" stroke-linecap="round"/><path d="M 690.0 450.0 L 669.1 444.4" stroke="#1F2933" stroke-width="3.5" stroke-linecap="round" fill="none"/><path d="M 690.0 450.0 L 672.5 462.9" stroke="#1F2933" stroke-width="3.5" stroke-linecap="round" fill="none"/><rect x="690.9" y="368.1" width="255" height="160" fill="none" stroke="#8A8178" stroke-width="1.4" opacity="0.55" stroke-dasharray="7 5"/><path d="M 693.2 372.3 Q 727.5 369.7 760.7 367.9 Q 791.9 370.5 827.2 373.0 Q 853.3 372.2 881.1 369.3 Q 913.0 366.9 945.1 368.3 Q 950.3 392.0 953.0 413.1 Q 950.8 425.9 947.6 444.1 Q 952.2 465.4 953.7 484.7 Q 948.1 504.1 943.8 528.6 Q 913.0 526.6 879.5 526.4 Q 853.7 529.2 823.9 529.0 Q 793.8 523.8 758.9 523.7 Q 724.1 525.9 693.0 524.6 Q 696.0 509.7 694.8 490.0 Q 692.4 468.9 694.1 447.3 Q 695.0 427.4 700.7 413.3 Z" fill="#3E5C76" fill-opacity="0.5" stroke="none"/><path d="M 695.0 369.1 Q 727.2 372.1 760.0 372.8 Q 792.5 373.3 823.4 371.1 Q 854.7 369.2 885.9 366.5 Q 918.6 368.5 953.0 372.2 Q 953.8 389.5 953.0 408.3 Q 949.6 431.0 948.0 453.5 Q 948.7 471.0 949.5 490.7 Q 948.5 510.4 949.1 532.2 Q 919.1 530.4 887.0 530.5 Q 853.2 529.9 819.2 528.2 Q 788.6 531.5 757.4 531.7 Q 724.9 530.4 691.9 531.5 Q 692.9 510.9 693.6 487.5 Q 692.9 469.3 693.3 448.1 Q 695.6 428.5 698.1 409.5 Z" fill="none" stroke="#1F2933" stroke-width="3" stroke-linecap="round" stroke-linejoin="round"/><text x="822.5" y="459.1" font-family="'Segoe Print','Bradley Hand','Comic Sans MS',cursive" font-size="26" fill="#1F2933" text-anchor="middle" font-weight="bold" opacity="1.0">Linux process starts</text><path d="M 955.0 450.0 Q 971.5 446.3 995.0 450.0" fill="none" stroke="#1F2933" stroke-width="3.5" stroke-linecap="round"/><path d="M 995.0 450.0 L 978.9 435.1" stroke="#1F2933" stroke-width="3.5" stroke-linecap="round" fill="none"/><path d="M 995.0 450.0 L 973.1 458.4" stroke="#1F2933" stroke-width="3.5" stroke-linecap="round" fill="none"/><rect x="997.5" y="366.2" width="255" height="160" fill="none" stroke="#8A8178" stroke-width="1.4" opacity="0.55" stroke-dasharray="7 5"/><path d="M 1005.5 366.1 Q 1033.1 365.9 1063.8 370.4 Q 1097.2 369.3 1126.1 367.6 Q 1162.1 374.8 1195.2 377.9 Q 1225.0 376.3 1258.1 371.7 Q 1257.9 387.9 1255.2 405.9 Q 1252.5 428.7 1253.4 452.0 Q 1252.9 470.5 1247.3 493.6 Q 1254.1 508.7 1255.5 524.2 Q 1223.4 525.6 1190.9 528.5 Q 1161.4 531.7 1129.9 530.3 Q 1099.7 529.4 1065.1 525.6 Q 1034.7 526.3 1007.6 531.4 Q 1005.5 509.1 1000.0 488.1 Q 1004.2 466.9 1002.5 448.7 Q 1003.7 430.8 1007.1 415.5 Z" fill="#D8C3A5" fill-opacity="0.5" stroke="none"/><path d="M 1003.4 367.8 Q 1034.0 367.3 1066.1 366.5 Q 1097.0 367.9 1128.4 369.1 Q 1160.3 370.5 1190.2 370.9 Q 1221.2 371.5 1253.8 371.3 Q 1254.0 391.5 1253.9 411.5 Q 1254.1 430.9 1256.2 447.7 Q 1254.7 471.2 1255.6 492.5 Q 1253.4 513.7 1254.4 532.4 Q 1222.8 532.7 1192.1 531.0 Q 1159.1 529.0 1127.2 530.0 Q 1097.1 527.0 1064.8 527.2 Q 1032.8 528.9 999.5 532.6 Q 1002.7 511.9 1002.8 489.8 Q 1000.3 469.9 997.8 446.9 Q 999.1 428.5 998.6 409.2 Z" fill="none" stroke="#1F2933" stroke-width="3" stroke-linecap="round" stroke-linejoin="round"/><text x="1127.5" y="459.1" font-family="'Segoe Print','Bradley Hand','Comic Sans MS',cursive" font-size="26" fill="#1F2933" text-anchor="middle" font-weight="bold" opacity="1.0">Window appears</text><path d="M 1260.0 450.0 Q 1277.4 454.7 1300.0 450.0" fill="none" stroke="#1F2933" stroke-width="3.5" stroke-linecap="round"/><path d="M 1300.0 450.0 L 1278.9 445.6" stroke="#1F2933" stroke-width="3.5" stroke-linecap="round" fill="none"/><path d="M 1300.0 450.0 L 1284.1 463.5" stroke="#1F2933" stroke-width="3.5" stroke-linecap="round" fill="none"/><rect x="1303.2" y="367.4" width="255" height="160" fill="none" stroke="#8A8178" stroke-width="1.4" opacity="0.55" stroke-dasharray="7 5"/><path d="M 1309.7 375.1 Q 1340.7 372.8 1372.1 370.7 Q 1397.9 371.1 1427.1 375.1 Q 1457.5 373.2 1491.2 375.2 Q 1523.6 373.0 1560.0 374.1 Q 1562.4 390.0 1559.7 406.4 Q 1559.4 425.7 1560.8 445.2 Q 1556.3 470.4 1555.5 494.5 Q 1556.8 512.5 1556.8 532.5 Q 1526.0 531.7 1497.2 528.8 Q 1464.4 527.6 1431.8 529.2 Q 1400.4 529.9 1369.6 528.7 Q 1341.9 523.4 1310.3 523.8 Q 1310.1 504.7 1311.0 485.3 Q 1310.1 466.3 1308.2 448.1 Q 1305.2 429.9 1307.5 408.5 Z" fill="#7A9A6A" fill-opacity="0.5" stroke="none"/><path d="M 1302.0 367.7 Q 1334.3 369.3 1365.7 372.2 Q 1396.7 371.4 1429.1 371.3 Q 1462.8 369.2 1496.5 370.0 Q 1528.2 370.2 1558.9 371.9 Q 1556.5 391.6 1556.6 411.0 Q 1555.7 433.1 1557.0 452.9 Q 1560.0 473.2 1560.5 490.3 Q 1557.6 512.4 1558.0 532.8 Q 1525.7 530.5 1493.9 528.6 Q 1462.7 531.1 1433.4 533.3 Q 1399.3 530.1 1368.4 530.3 Q 1337.0 531.9 1306.1 531.5 Q 1304.4 510.3 1302.4 488.5 Q 1306.5 470.0 1308.3 450.3 Q 1306.8 429.1 1302.8 408.5 Z" fill="none" stroke="#1F2933" stroke-width="3" stroke-linecap="round" stroke-linejoin="round"/><text x="1432.5" y="459.1" font-family="'Segoe Print','Bradley Hand','Comic Sans MS',cursive" font-size="26" fill="#1F2933" text-anchor="middle" font-weight="bold" opacity="1.0">You interact</text><text x="800.0" y="640.0" font-family="'Segoe Print','Bradley Hand','Comic Sans MS',cursive" font-size="27" fill="#4B5563" text-anchor="middle" font-weight="normal" opacity="1.0">from tap to running app in about a second</text></svg>
