<svg xmlns="http://www.w3.org/2000/svg" viewBox="0 0 1200 90" role="img" aria-labelledby="t" preserveAspectRatio="xMidYMid meet"><title id="t">Blueprint measurement divider</title><path d="M 60 38 Q 597.6 40.4 1140 40" fill="none" stroke="#1E3A5F" stroke-width="3" stroke-linecap="round" opacity="1.0"/><path d="M 60 54 Q 597.4 51.2 1140 52" fill="none" stroke="#1E3A5F" stroke-width="1.6" stroke-linecap="round" opacity="0.7"/><path d="M 160 28 Q 157.1 44.2 160 64" fill="none" stroke="#1E3A5F" stroke-width="2" stroke-linecap="round" opacity="0.8"/><path d="M 420 28 Q 421.6 45.4 420 64" fill="none" stroke="#1E3A5F" stroke-width="2" stroke-linecap="round" opacity="0.8"/><path d="M 680 28 Q 679.4 48.1 680 64" fill="none" stroke="#1E3A5F" stroke-width="2" stroke-linecap="round" opacity="0.8"/><path d="M 940 28 Q 937.5 45.4 940 64" fill="none" stroke="#1E3A5F" stroke-width="2" stroke-linecap="round" opacity="0.8"/><path d="M 168 74 L 152 74 M 158 70 L 152 74 L 158 78" stroke="#1E3A5F" stroke-width="2" fill="none"/><path d="M 932 74 L 948 74 M 942 70 L 948 74 L 942 78" stroke="#1E3A5F" stroke-width="2" fill="none"/><path d="M 168 74 Q 551.6 73.1 932 74" fill="none" stroke="#1E3A5F" stroke-width="1.4" stroke-linecap="round" opacity="0.6" stroke-dasharray="10 8"/></svg>
