<svg xmlns="http://www.w3.org/2000/svg" viewBox="0 0 1200 90" role="img" aria-labelledby="t" preserveAspectRatio="xMidYMid meet"><title id="t">Circuit trace divider</title><path d="M 60 45 Q 231.7 47.5 400 45" fill="none" stroke="#64748B" stroke-width="3" stroke-linecap="round" opacity="1.0"/><path d="M 409.3 46.0 a 8.1 9.8 0 1 1 19.3 -0.5 a 10.3 8.7 0 1 1 -17.5 -0.7" fill="#5AB8FF" fill-opacity="0.4" stroke="#64748B" stroke-width="3" stroke-linecap="round"/><path d="M 440 45 Q 500.6 42.6 560 45" fill="none" stroke="#64748B" stroke-width="3" stroke-linecap="round" opacity="1.0"/><path d="M 560 45 Q 577.6 30.2 590 20" fill="none" stroke="#64748B" stroke-width="3" stroke-linecap="round" opacity="1.0"/><path d="M 590 20 Q 643.0 19.9 700 20" fill="none" stroke="#64748B" stroke-width="3" stroke-linecap="round" opacity="1.0"/><path d="M 700 20 Q 713.7 35.4 730 45" fill="none" stroke="#64748B" stroke-width="3" stroke-linecap="round" opacity="1.0"/><path d="M 739.8 44.2 a 8.4 7.5 0 1 1 18.2 1.8 a 10.4 8.3 0 1 1 -16.1 1.8" fill="#5A9A9A" fill-opacity="0.4" stroke="#64748B" stroke-width="3" stroke-linecap="round"/><path d="M 770 45 Q 954.9 47.6 1140 45" fill="none" stroke="#64748B" stroke-width="3" stroke-linecap="round" opacity="1.0"/><path d="M 193.6 45.8 a 4.5 5.9 0 1 1 8.1 1.5 a 5.4 3.3 0 1 1 -10.9 1.6" fill="#64748B" fill-opacity="0.7" stroke="#64748B" stroke-width="2" stroke-linecap="round"/><path d="M 943.8 45.4 a 4.8 5.8 0 1 1 10.9 -0.2 a 3.5 5.5 0 1 1 -9.0 0.5" fill="#64748B" fill-opacity="0.7" stroke="#64748B" stroke-width="2" stroke-linecap="round"/><path d="M 1046.6 46.3 a 4.6 3.4 0 1 1 10.1 1.9 a 5.9 4.1 0 1 1 -9.4 -1.2" fill="#64748B" fill-opacity="0.7" stroke="#64748B" stroke-width="2" stroke-linecap="round"/></svg>
