<svg xmlns="http://www.w3.org/2000/svg" viewBox="0 0 1600 900" role="img" aria-labelledby="t d" preserveAspectRatio="xMidYMid meet"><title id="t">Permission troubleshooting flow</title><desc id="d">Permission denied: grant storage access, check Android app settings, rerun the command, and verify folder access.</desc><rect x="0" y="0" width="1600" height="900" fill="#F7F1E6"/><line x1="194" y1="30" x2="200" y2="870" stroke="#8A8178" stroke-width="1" opacity="0.18"/><line x1="794" y1="30" x2="806" y2="870" stroke="#8A8178" stroke-width="1" opacity="0.18"/><line x1="1396" y1="30" x2="1399" y2="870" stroke="#8A8178" stroke-width="1" opacity="0.18"/><line x1="40" y1="146" x2="1560" y2="144" stroke="#8A8178" stroke-width="1" opacity="0.18"/><line x1="40" y1="447" x2="1560" y2="448" stroke="#8A8178" stroke-width="1" opacity="0.18"/><line x1="40" y1="755" x2="1560" y2="747" stroke="#8A8178" stroke-width="1" opacity="0.18"/><line x1="70" y1="20" x2="70" y2="880" stroke="#8A8178" stroke-width="1.6" opacity="0.3"/><path d="M 30 40 L 50 40 M 40 30 L 40 50" stroke="#8A8178" stroke-width="1.3" opacity="0.4"/><path d="M 1550 40 L 1570 40 M 1560 30 L 1560 50" stroke="#8A8178" stroke-width="1.3" opacity="0.4"/><path d="M 30 860 L 50 860 M 40 850 L 40 870" stroke="#8A8178" stroke-width="1.3" opacity="0.4"/><path d="M 1550 860 L 1570 860 M 1560 850 L 1560 870" stroke="#8A8178" stroke-width="1.3" opacity="0.4"/><text x="800.0" y="84.0" font-family="'Segoe Print','Bradley Hand','Comic Sans MS',cursive" font-size="42" fill="#1F2933" text-anchor="middle" font-weight="bold" opacity="1.0">Permission denied?</text><path d="M 602 104 Q 800 114 998 101" stroke="#1F2933" stroke-width="2.5" fill="none" opacity="0.75"/><rect x="92.5" y="298.2" width="270" height="140" fill="none" stroke="#8A8178" stroke-width="1.4" opacity="0.55" stroke-dasharray="7 5"/><path d="M 90.2 304.9 Q 121.2 301.0 158.1 300.6 Q 191.6 298.8 228.7 298.4 Q 256.7 300.6 288.4 306.8 Q 326.5 307.9 360.4 305.9 Q 361.1 320.3 360.1 333.8 Q 355.6 352.6 356.0 369.7 Q 358.2 384.5 362.4 399.0 Q 355.8 415.2 353.2 434.3 Q 320.5 436.2 291.5 432.8 Q 258.9 435.3 228.1 433.7 Q 189.3 435.6 156.3 438.7 Q 123.3 441.1 91.1 443.1 Q 92.2 427.0 90.0 407.2 Q 89.8 392.8 93.1 373.6 Q 91.2 357.3 94.2 341.1 Z" fill="#B85C5C" fill-opacity="0.5" stroke="none"/><path d="M 92.9 300.1 Q 122.5 301.2 154.5 301.7 Q 189.3 300.1 226.8 300.6 Q 258.6 298.3 291.2 297.7 Q 327.3 298.3 360.8 300.3 Q 357.9 318.1 357.8 338.0 Q 358.5 354.9 360.5 370.7 Q 359.2 388.3 356.9 403.8 Q 357.8 422.6 360.0 441.5 Q 324.9 440.1 291.8 437.5 Q 259.8 436.4 228.4 437.3 Q 194.6 439.1 158.4 438.8 Q 121.9 438.6 87.2 438.3 Q 88.9 421.6 89.4 406.4 Q 91.7 390.5 92.5 372.7 Q 93.7 355.5 91.7 336.3 Z" fill="none" stroke="#1F2933" stroke-width="3" stroke-linecap="round" stroke-linejoin="round"/><text x="225.0" y="379.8" font-family="'Segoe Print','Bradley Hand','Comic Sans MS',cursive" font-size="28" fill="#1F2933" text-anchor="middle" font-weight="bold" opacity="1.0">Permission denied</text><rect x="438.2" y="295.2" width="280" height="140" fill="none" stroke="#8A8178" stroke-width="1.4" opacity="0.55" stroke-dasharray="7 5"/><path d="M 437.2 307.4 Q 472.5 300.3 507.7 296.2 Q 545.7 301.2 582.0 304.8 Q 615.1 303.8 649.4 307.7 Q 686.9 306.0 720.8 307.0 Q 720.5 319.8 715.2 337.5 Q 719.4 353.8 720.2 365.0 Q 720.3 379.6 715.9 398.1 Q 721.0 416.1 721.7 435.0 Q 691.1 431.3 654.5 432.7 Q 615.6 430.4 581.4 432.6 Q 544.8 432.2 512.3 435.2 Q 480.7 434.8 444.1 440.0 Q 442.8 416.7 444.3 399.2 Q 443.3 384.5 445.3 370.6 Q 441.2 350.8 442.8 333.8 Z" fill="#3E5C76" fill-opacity="0.5" stroke="none"/><path d="M 438.2 298.2 Q 473.4 297.6 511.0 297.2 Q 544.2 295.8 578.7 296.9 Q 613.6 298.1 649.2 298.6 Q 683.5 299.9 719.2 300.3 Q 719.4 319.4 718.2 337.6 Q 718.5 353.9 718.2 371.0 Q 717.6 389.3 716.9 408.2 Q 719.8 424.7 721.1 442.4 Q 684.7 441.7 650.9 443.1 Q 615.6 440.6 578.8 437.8 Q 544.0 438.1 506.5 438.0 Q 473.3 439.7 438.3 438.0 Q 437.3 423.9 438.5 408.4 Q 437.7 387.9 437.6 369.1 Q 436.1 352.9 437.5 335.9 Z" fill="none" stroke="#1F2933" stroke-width="3" stroke-linecap="round" stroke-linejoin="round"/><text x="580.0" y="379.1" font-family="'Segoe Print','Bradley Hand','Comic Sans MS',cursive" font-size="26" fill="#1F2933" text-anchor="middle" font-weight="bold" opacity="1.0">Grant storage</text><path d="M 365.0 370.0 Q 400.0 358.2 435.0 370.0" fill="none" stroke="#1F2933" stroke-width="3.5" stroke-linecap="round"/><path d="M 435.0 370.0 L 420.6 353.9" stroke="#1F2933" stroke-width="3.5" stroke-linecap="round" fill="none"/><path d="M 435.0 370.0 L 413.1 374.6" stroke="#1F2933" stroke-width="3.5" stroke-linecap="round" fill="none"/><rect x="803.0" y="298.9" width="280" height="140" fill="none" stroke="#8A8178" stroke-width="1.4" opacity="0.55" stroke-dasharray="7 5"/><path d="M 804.0 301.1 Q 843.4 300.7 880.1 301.0 Q 912.2 305.7 946.9 307.0 Q 977.6 304.8 1014.0 304.2 Q 1045.1 304.2 1082.0 302.2 Q 1085.6 320.6 1083.5 336.6 Q 1083.1 351.0 1084.4 365.5 Q 1083.6 383.2 1083.4 399.1 Q 1082.2 413.7 1082.0 433.7 Q 1046.8 434.9 1009.6 435.1 Q 981.0 438.4 948.1 436.3 Q 913.8 434.1 875.9 432.5 Q 844.6 435.3 812.9 443.7 Q 810.4 426.0 802.3 405.3 Q 803.3 390.8 809.9 373.6 Q 808.8 356.5 808.1 337.2 Z" fill="#5A9A9A" fill-opacity="0.5" stroke="none"/><path d="M 808.1 302.7 Q 843.5 300.9 876.3 302.3 Q 909.8 301.4 942.7 301.9 Q 977.9 299.8 1014.7 297.6 Q 1049.3 299.3 1084.5 301.3 Q 1086.3 319.1 1088.1 338.2 Q 1086.9 351.4 1083.5 367.5 Q 1083.4 387.2 1084.8 408.5 Q 1085.3 424.2 1085.7 440.2 Q 1052.2 439.3 1016.7 437.9 Q 978.7 436.1 942.1 437.5 Q 909.6 438.1 878.0 439.7 Q 842.0 437.6 805.0 438.2 Q 805.8 423.8 804.4 406.0 Q 805.1 389.2 804.2 370.5 Q 804.4 350.5 803.6 332.2 Z" fill="none" stroke="#1F2933" stroke-width="3" stroke-linecap="round" stroke-linejoin="round"/><text x="945.0" y="379.1" font-family="'Segoe Print','Bradley Hand','Comic Sans MS',cursive" font-size="26" fill="#1F2933" text-anchor="middle" font-weight="bold" opacity="1.0">Check Android app settings</text><path d="M 725.0 370.0 Q 762.9 363.8 800.0 370.0" fill="none" stroke="#1F2933" stroke-width="3.5" stroke-linecap="round"/><path d="M 800.0 370.0 L 783.2 357.1" stroke="#1F2933" stroke-width="3.5" stroke-linecap="round" fill="none"/><path d="M 800.0 370.0 L 779.8 376.0" stroke="#1F2933" stroke-width="3.5" stroke-linecap="round" fill="none"/><rect x="1167.8" y="300.6" width="280" height="140" fill="none" stroke="#8A8178" stroke-width="1.4" opacity="0.55" stroke-dasharray="7 5"/><path d="M 1167.2 298.0 Q 1201.0 304.9 1235.7 307.7 Q 1274.1 304.7 1312.5 297.6 Q 1346.0 301.1 1379.3 306.4 Q 1417.7 308.2 1451.0 306.0 Q 1449.3 323.1 1446.4 340.2 Q 1446.6 357.8 1445.1 370.8 Q 1446.5 387.0 1443.6 404.5 Q 1447.1 423.1 1453.2 440.9 Q 1415.9 441.4 1378.3 436.7 Q 1340.7 433.0 1304.2 433.3 Q 1275.7 432.6 1242.5 432.5 Q 1207.6 434.2 1169.2 434.0 Q 1172.9 418.2 1176.8 406.0 Q 1177.4 392.4 1177.9 374.1 Q 1174.2 355.2 1174.1 339.5 Z" fill="#3E5C76" fill-opacity="0.5" stroke="none"/><path d="M 1168.4 298.3 Q 1204.9 299.1 1238.1 301.8 Q 1272.3 302.0 1306.9 303.4 Q 1343.0 300.4 1378.3 298.3 Q 1414.7 299.3 1451.6 298.2 Q 1451.4 319.6 1452.7 337.9 Q 1450.3 353.0 1447.2 367.0 Q 1450.7 385.8 1450.9 407.2 Q 1451.1 423.8 1448.0 442.2 Q 1411.9 439.9 1376.7 436.6 Q 1345.4 436.9 1311.0 438.1 Q 1277.1 438.6 1240.5 441.9 Q 1204.0 439.5 1167.2 436.6 Q 1168.6 421.8 1167.0 403.9 Q 1170.9 388.2 1173.1 372.1 Q 1171.8 354.0 1168.3 334.6 Z" fill="none" stroke="#1F2933" stroke-width="3" stroke-linecap="round" stroke-linejoin="round"/><text x="1310.0" y="379.1" font-family="'Segoe Print','Bradley Hand','Comic Sans MS',cursive" font-size="26" fill="#1F2933" text-anchor="middle" font-weight="bold" opacity="1.0">Rerun command</text><path d="M 1090.0 370.0 Q 1127.0 362.1 1165.0 370.0" fill="none" stroke="#1F2933" stroke-width="3.5" stroke-linecap="round"/><path d="M 1165.0 370.0 L 1149.9 357.2" stroke="#1F2933" stroke-width="3.5" stroke-linecap="round" fill="none"/><path d="M 1165.0 370.0 L 1142.0 375.5" stroke="#1F2933" stroke-width="3.5" stroke-linecap="round" fill="none"/><path d="M 1315.0 445.0 Q 1321.9 504.6 1280.0 555.0" fill="none" stroke="#1F2933" stroke-width="3.5" stroke-linecap="round"/><path d="M 1280.0 555.0 L 1299.8 548.3" stroke="#1F2933" stroke-width="3.5" stroke-linecap="round" fill="none"/><path d="M 1280.0 555.0 L 1283.2 532.3" stroke="#1F2933" stroke-width="3.5" stroke-linecap="round" fill="none"/><rect x="1137.2" y="559.8" width="280" height="140" fill="none" stroke="#8A8178" stroke-width="1.4" opacity="0.55" stroke-dasharray="7 5"/><path d="M 1131.5 567.2 Q 1171.4 565.9 1205.8 563.3 Q 1237.4 565.4 1270.6 567.9 Q 1306.7 566.4 1348.1 561.5 Q 1379.5 560.3 1410.7 559.1 Q 1411.1 577.4 1414.2 593.1 Q 1413.4 606.5 1411.3 625.4 Q 1413.5 643.4 1414.0 658.2 Q 1410.0 679.5 1411.4 697.4 Q 1378.8 697.3 1348.9 700.0 Q 1313.3 700.4 1277.7 695.1 Q 1237.0 694.4 1200.9 692.0 Q 1168.6 693.8 1138.8 700.8 Q 1135.1 682.1 1132.6 658.3 Q 1136.7 649.1 1142.4 635.3 Q 1139.4 615.4 1136.5 592.3 Z" fill="#5A9A9A" fill-opacity="0.5" stroke="none"/><path d="M 1134.5 561.8 Q 1169.4 561.2 1201.5 561.6 Q 1237.2 559.7 1275.9 557.9 Q 1311.3 557.8 1346.1 558.2 Q 1378.1 559.9 1412.7 563.1 Q 1411.5 582.2 1413.7 598.0 Q 1415.4 613.6 1414.1 627.1 Q 1413.9 647.6 1415.6 666.9 Q 1414.9 685.3 1415.0 700.5 Q 1379.7 698.3 1345.7 697.4 Q 1311.6 695.7 1276.8 697.4 Q 1242.3 698.6 1206.4 698.9 Q 1171.1 700.1 1138.2 703.4 Q 1136.6 682.7 1136.2 663.1 Q 1136.9 648.9 1138.3 631.8 Q 1136.7 613.6 1133.8 596.5 Z" fill="none" stroke="#1F2933" stroke-width="3" stroke-linecap="round" stroke-linejoin="round"/><text x="1275.0" y="639.1" font-family="'Segoe Print','Bradley Hand','Comic Sans MS',cursive" font-size="26" fill="#1F2933" text-anchor="middle" font-weight="bold" opacity="1.0">Verify folder access</text><path d="M 1130.0 630.0 Q 1124.9 625.2 1115.0 630.0" fill="none" stroke="#1F2933" stroke-width="3.5" stroke-linecap="round"/><path d="M 1115.0 630.0 L 1138.2 631.1" stroke="#1F2933" stroke-width="3.5" stroke-linecap="round" fill="none"/><path d="M 1115.0 630.0 L 1129.8 612.5" stroke="#1F2933" stroke-width="3.5" stroke-linecap="round" fill="none"/><rect x="831.0" y="563.7" width="280" height="140" fill="none" stroke="#8A8178" stroke-width="1.4" opacity="0.55" stroke-dasharray="7 5"/><path d="M 836.9 556.5 Q 863.3 563.1 895.3 568.0 Q 933.2 563.5 967.2 563.3 Q 1003.9 561.7 1034.8 558.6 Q 1071.1 557.8 1103.7 560.1 Q 1105.8 575.4 1113.9 594.4 Q 1108.5 616.2 1106.3 634.8 Q 1111.0 647.4 1111.6 660.2 Q 1110.5 679.8 1105.3 700.6 Q 1071.3 700.0 1039.2 694.3 Q 1005.0 699.8 973.6 701.2 Q 940.2 702.1 902.3 700.5 Q 866.8 698.6 833.0 695.2 Q 834.7 675.0 831.8 660.5 Q 828.4 647.1 826.4 628.9 Q 823.7 609.7 826.7 594.5 Z" fill="#7A9A6A" fill-opacity="0.5" stroke="none"/><path d="M 826.5 557.3 Q 863.5 558.5 902.2 557.0 Q 933.2 557.9 966.6 561.0 Q 1004.4 558.6 1039.7 556.5 Q 1075.8 556.3 1109.2 557.7 Q 1110.8 579.0 1112.1 597.7 Q 1109.8 616.7 1109.5 633.3 Q 1111.5 652.0 1110.4 667.8 Q 1108.2 683.3 1107.4 701.8 Q 1073.3 699.1 1038.7 697.7 Q 1004.4 701.0 967.0 700.9 Q 934.5 702.8 900.7 701.2 Q 864.9 699.1 830.2 699.9 Q 829.3 681.0 828.2 664.3 Q 827.1 643.9 826.5 626.7 Q 829.0 613.2 831.2 597.0 Z" fill="none" stroke="#1F2933" stroke-width="3" stroke-linecap="round" stroke-linejoin="round"/><text x="970.0" y="639.5" font-family="'Segoe Print','Bradley Hand','Comic Sans MS',cursive" font-size="27" fill="#1F2933" text-anchor="middle" font-weight="bold" opacity="1.0">Access granted</text></svg>
