<svg xmlns="http://www.w3.org/2000/svg" viewBox="0 0 1600 900" role="img" aria-labelledby="t d" preserveAspectRatio="xMidYMid meet"><title id="t">Installation troubleshooting flow</title><desc id="d">Command failed: check internet, update packages, check free storage, retry, and reinstall the component if needed.</desc><rect x="0" y="0" width="1600" height="900" fill="#F7F1E6"/><line x1="202" y1="30" x2="202" y2="870" stroke="#8A8178" stroke-width="1" opacity="0.18"/><line x1="800" y1="30" x2="797" y2="870" stroke="#8A8178" stroke-width="1" opacity="0.18"/><line x1="1398" y1="30" x2="1399" y2="870" stroke="#8A8178" stroke-width="1" opacity="0.18"/><line x1="40" y1="151" x2="1560" y2="155" stroke="#8A8178" stroke-width="1" opacity="0.18"/><line x1="40" y1="453" x2="1560" y2="449" stroke="#8A8178" stroke-width="1" opacity="0.18"/><line x1="40" y1="749" x2="1560" y2="750" stroke="#8A8178" stroke-width="1" opacity="0.18"/><line x1="70" y1="20" x2="70" y2="880" stroke="#8A8178" stroke-width="1.6" opacity="0.3"/><path d="M 30 40 L 50 40 M 40 30 L 40 50" stroke="#8A8178" stroke-width="1.3" opacity="0.4"/><path d="M 1550 40 L 1570 40 M 1560 30 L 1560 50" stroke="#8A8178" stroke-width="1.3" opacity="0.4"/><path d="M 30 860 L 50 860 M 40 850 L 40 870" stroke="#8A8178" stroke-width="1.3" opacity="0.4"/><path d="M 1550 860 L 1570 860 M 1560 850 L 1560 870" stroke="#8A8178" stroke-width="1.3" opacity="0.4"/><text x="800.0" y="84.0" font-family="'Segoe Print','Bradley Hand','Comic Sans MS',cursive" font-size="42" fill="#1F2933" text-anchor="middle" font-weight="bold" opacity="1.0">When a command fails</text><path d="M 580 105 Q 800 109 1020 103" stroke="#1F2933" stroke-width="2.5" fill="none" opacity="0.75"/><rect x="93.7" y="295.7" width="270" height="140" fill="none" stroke="#8A8178" stroke-width="1.4" opacity="0.55" stroke-dasharray="7 5"/><path d="M 97.5 306.9 Q 126.6 301.7 161.6 301.8 Q 197.8 298.0 228.7 299.2 Q 261.5 296.8 294.9 298.4 Q 325.6 299.7 361.4 302.5 Q 364.6 318.5 364.0 333.5 Q 356.6 352.0 353.0 374.9 Q 354.4 393.5 352.2 409.7 Q 356.5 424.4 355.1 442.3 Q 323.8 437.0 292.0 433.6 Q 258.5 437.3 228.7 435.1 Q 193.6 437.6 161.6 439.0 Q 123.1 443.5 90.4 443.2 Q 88.9 425.7 92.3 406.6 Q 89.6 388.8 92.5 365.4 Q 91.4 346.8 88.6 331.8 Z" fill="#B85C5C" fill-opacity="0.5" stroke="none"/><path d="M 88.3 299.5 Q 123.3 298.2 158.2 297.1 Q 193.3 301.4 225.9 303.4 Q 261.7 299.5 294.4 298.6 Q 325.7 298.9 360.2 301.9 Q 359.8 315.3 357.6 331.7 Q 358.1 349.9 356.7 368.8 Q 360.8 388.3 362.8 407.6 Q 360.9 424.0 358.8 439.0 Q 325.2 441.0 294.4 443.2 Q 259.6 440.3 227.8 437.6 Q 192.3 438.7 158.7 441.1 Q 124.4 441.0 87.0 443.1 Q 87.7 421.5 89.1 403.2 Q 87.7 387.2 89.4 372.6 Q 88.0 351.7 87.5 333.8 Z" fill="none" stroke="#1F2933" stroke-width="3" stroke-linecap="round" stroke-linejoin="round"/><text x="225.0" y="379.8" font-family="'Segoe Print','Bradley Hand','Comic Sans MS',cursive" font-size="28" fill="#1F2933" text-anchor="middle" font-weight="bold" opacity="1.0">Command failed</text><rect x="444.6" y="299.8" width="280" height="140" fill="none" stroke="#8A8178" stroke-width="1.4" opacity="0.55" stroke-dasharray="7 5"/><path d="M 447.0 296.5 Q 476.4 299.9 507.8 307.3 Q 542.7 300.1 576.8 296.8 Q 609.3 302.1 647.1 306.7 Q 684.1 305.5 720.7 307.8 Q 719.3 321.8 716.0 332.8 Q 715.0 349.8 715.9 367.5 Q 715.0 388.7 714.4 407.8 Q 717.2 421.8 723.8 432.0 Q 684.8 434.3 649.2 441.7 Q 613.1 443.8 579.4 440.8 Q 545.5 440.4 516.9 441.0 Q 477.9 438.9 437.7 441.9 Q 439.4 419.2 446.6 399.3 Q 445.8 384.7 443.0 369.9 Q 439.8 351.7 442.2 336.4 Z" fill="#3E5C76" fill-opacity="0.5" stroke="none"/><path d="M 439.1 301.4 Q 474.2 298.4 511.7 298.7 Q 547.2 298.9 580.5 297.2 Q 615.2 296.4 652.3 298.4 Q 686.2 299.4 722.8 301.2 Q 723.1 319.4 723.5 338.3 Q 720.6 356.0 719.2 372.5 Q 719.5 390.1 722.8 408.4 Q 719.3 422.7 718.2 439.3 Q 682.4 440.0 647.7 440.7 Q 615.6 439.4 581.9 438.0 Q 548.6 439.0 512.8 443.4 Q 477.9 442.9 441.9 442.3 Q 441.7 423.7 442.4 404.3 Q 442.1 387.9 442.4 373.2 Q 439.4 351.8 437.6 333.7 Z" fill="none" stroke="#1F2933" stroke-width="3" stroke-linecap="round" stroke-linejoin="round"/><text x="580.0" y="379.1" font-family="'Segoe Print','Bradley Hand','Comic Sans MS',cursive" font-size="26" fill="#1F2933" text-anchor="middle" font-weight="bold" opacity="1.0">Check internet</text><path d="M 365.0 370.0 Q 399.7 375.2 435.0 370.0" fill="none" stroke="#1F2933" stroke-width="3.5" stroke-linecap="round"/><path d="M 435.0 370.0 L 415.6 362.4" stroke="#1F2933" stroke-width="3.5" stroke-linecap="round" fill="none"/><path d="M 435.0 370.0 L 416.5 381.8" stroke="#1F2933" stroke-width="3.5" stroke-linecap="round" fill="none"/><rect x="805.4" y="296.2" width="280" height="140" fill="none" stroke="#8A8178" stroke-width="1.4" opacity="0.55" stroke-dasharray="7 5"/><path d="M 803.4 307.8 Q 839.9 305.1 871.5 300.1 Q 908.3 301.3 947.3 307.4 Q 979.5 305.9 1010.6 307.9 Q 1044.8 304.5 1078.2 297.8 Q 1080.7 316.5 1084.6 331.5 Q 1082.1 350.3 1085.1 370.8 Q 1088.8 386.1 1086.8 404.9 Q 1088.3 423.9 1089.0 438.7 Q 1050.7 439.6 1011.6 436.9 Q 981.2 438.9 948.4 440.8 Q 912.7 439.2 880.1 437.1 Q 843.5 440.6 801.9 443.7 Q 805.0 420.3 802.8 398.3 Q 801.6 384.8 806.2 371.2 Q 806.4 353.6 803.2 332.0 Z" fill="#5A9A9A" fill-opacity="0.5" stroke="none"/><path d="M 806.6 301.0 Q 841.3 300.6 875.3 297.8 Q 912.5 298.3 946.2 299.1 Q 983.0 298.4 1018.4 300.5 Q 1050.9 301.1 1083.4 300.6 Q 1085.5 316.1 1084.8 332.4 Q 1086.7 350.4 1085.4 369.7 Q 1084.7 387.7 1084.4 404.6 Q 1084.3 423.2 1084.7 443.3 Q 1047.6 441.0 1013.4 442.1 Q 981.0 444.1 946.5 443.4 Q 911.1 439.4 872.7 436.8 Q 836.0 440.9 801.9 442.1 Q 801.2 424.8 802.4 404.4 Q 802.5 387.5 804.0 369.6 Q 802.5 349.3 801.7 332.0 Z" fill="none" stroke="#1F2933" stroke-width="3" stroke-linecap="round" stroke-linejoin="round"/><text x="945.0" y="379.1" font-family="'Segoe Print','Bradley Hand','Comic Sans MS',cursive" font-size="26" fill="#1F2933" text-anchor="middle" font-weight="bold" opacity="1.0">Update packages</text><path d="M 725.0 370.0 Q 762.8 364.8 800.0 370.0" fill="none" stroke="#1F2933" stroke-width="3.5" stroke-linecap="round"/><path d="M 800.0 370.0 L 783.4 356.6" stroke="#1F2933" stroke-width="3.5" stroke-linecap="round" fill="none"/><path d="M 800.0 370.0 L 778.3 379.2" stroke="#1F2933" stroke-width="3.5" stroke-linecap="round" fill="none"/><rect x="1173.8" y="297.5" width="280" height="140" fill="none" stroke="#8A8178" stroke-width="1.4" opacity="0.55" stroke-dasharray="7 5"/><path d="M 1167.9 301.9 Q 1203.1 301.2 1239.3 300.8 Q 1278.1 299.9 1314.4 297.2 Q 1345.6 298.0 1379.2 299.3 Q 1410.1 299.3 1442.6 303.6 Q 1446.0 319.4 1449.6 336.5 Q 1449.5 355.8 1446.1 372.8 Q 1445.7 392.2 1448.0 406.2 Q 1445.0 422.0 1447.4 441.1 Q 1417.4 441.0 1382.7 437.8 Q 1341.5 435.7 1305.6 438.7 Q 1269.6 437.7 1235.3 432.0 Q 1207.6 438.0 1177.1 440.6 Q 1176.4 424.3 1174.1 402.8 Q 1170.9 387.1 1171.9 365.7 Q 1169.6 349.0 1166.3 333.1 Z" fill="#3E5C76" fill-opacity="0.5" stroke="none"/><path d="M 1169.5 300.8 Q 1203.2 303.4 1236.6 303.4 Q 1272.2 299.0 1310.3 296.5 Q 1342.6 300.0 1378.1 303.2 Q 1413.0 301.7 1447.3 298.4 Q 1449.5 317.9 1452.1 335.9 Q 1454.2 354.1 1453.5 369.9 Q 1448.7 386.0 1447.2 405.1 Q 1447.1 422.8 1447.6 443.3 Q 1412.5 441.4 1379.1 437.9 Q 1346.8 441.4 1313.2 443.4 Q 1274.3 441.4 1236.9 439.4 Q 1204.4 439.7 1169.8 438.9 Q 1171.8 422.9 1171.8 404.2 Q 1173.1 387.2 1171.6 368.3 Q 1173.3 351.2 1172.6 332.6 Z" fill="none" stroke="#1F2933" stroke-width="3" stroke-linecap="round" stroke-linejoin="round"/><text x="1310.0" y="379.1" font-family="'Segoe Print','Bradley Hand','Comic Sans MS',cursive" font-size="26" fill="#1F2933" text-anchor="middle" font-weight="bold" opacity="1.0">Check storage</text><path d="M 1090.0 370.0 Q 1124.3 381.8 1165.0 370.0" fill="none" stroke="#1F2933" stroke-width="3.5" stroke-linecap="round"/><path d="M 1165.0 370.0 L 1143.5 365.1" stroke="#1F2933" stroke-width="3.5" stroke-linecap="round" fill="none"/><path d="M 1165.0 370.0 L 1150.6 386.7" stroke="#1F2933" stroke-width="3.5" stroke-linecap="round" fill="none"/><path d="M 1315.0 445.0 Q 1273.5 496.9 1280.0 555.0" fill="none" stroke="#1F2933" stroke-width="3.5" stroke-linecap="round"/><path d="M 1280.0 555.0 L 1288.1 536.3" stroke="#1F2933" stroke-width="3.5" stroke-linecap="round" fill="none"/><path d="M 1280.0 555.0 L 1269.1 536.2" stroke="#1F2933" stroke-width="3.5" stroke-linecap="round" fill="none"/><rect x="1133.1" y="559.5" width="280" height="140" fill="none" stroke="#8A8178" stroke-width="1.4" opacity="0.55" stroke-dasharray="7 5"/><path d="M 1140.0 559.4 Q 1175.2 560.5 1204.6 564.0 Q 1239.8 564.2 1276.7 564.9 Q 1306.9 564.3 1339.7 563.2 Q 1377.1 563.4 1410.5 560.2 Q 1408.9 578.0 1407.4 593.1 Q 1409.7 607.4 1413.2 627.7 Q 1412.1 644.7 1417.0 667.3 Q 1413.7 680.1 1410.7 693.8 Q 1374.5 693.4 1339.5 695.2 Q 1310.1 699.1 1278.1 698.5 Q 1241.0 700.8 1207.6 700.5 Q 1177.9 699.7 1142.6 699.4 Q 1137.6 681.0 1136.9 667.6 Q 1135.8 646.0 1138.2 625.4 Q 1138.3 609.3 1133.4 590.4 Z" fill="#5A9A9A" fill-opacity="0.5" stroke="none"/><path d="M 1133.2 560.0 Q 1169.8 558.5 1207.8 557.9 Q 1238.8 561.7 1272.7 562.6 Q 1311.7 562.5 1348.4 560.9 Q 1380.7 559.8 1412.4 559.4 Q 1412.2 577.5 1415.3 596.6 Q 1413.6 611.7 1414.0 629.6 Q 1412.5 645.8 1411.9 665.1 Q 1413.8 680.3 1415.5 696.6 Q 1379.9 698.4 1343.4 698.3 Q 1310.5 697.1 1278.4 699.0 Q 1240.4 699.2 1204.4 701.3 Q 1169.2 699.9 1131.7 699.9 Q 1135.7 682.2 1137.1 662.2 Q 1136.0 646.4 1133.4 629.8 Q 1134.2 612.3 1133.0 597.4 Z" fill="none" stroke="#1F2933" stroke-width="3" stroke-linecap="round" stroke-linejoin="round"/><text x="1275.0" y="639.1" font-family="'Segoe Print','Bradley Hand','Comic Sans MS',cursive" font-size="26" fill="#1F2933" text-anchor="middle" font-weight="bold" opacity="1.0">Retry</text><rect x="770.6" y="559.7" width="280" height="140" fill="none" stroke="#8A8178" stroke-width="1.4" opacity="0.55" stroke-dasharray="7 5"/><path d="M 772.0 558.5 Q 803.2 562.4 837.6 562.7 Q 872.1 558.2 905.5 556.3 Q 942.3 559.5 976.6 560.7 Q 1014.6 562.5 1052.1 561.4 Q 1050.4 582.4 1047.8 599.3 Q 1049.9 611.2 1054.0 627.0 Q 1049.5 644.3 1045.9 660.4 Q 1048.3 680.9 1049.8 700.0 Q 1012.8 697.8 975.6 694.7 Q 941.3 694.2 909.1 692.8 Q 871.9 692.7 837.5 698.2 Q 809.4 692.8 775.9 693.4 Q 776.3 673.3 773.2 658.8 Q 776.1 642.8 776.9 625.6 Q 776.6 612.5 771.0 594.2 Z" fill="#3E5C76" fill-opacity="0.5" stroke="none"/><path d="M 771.9 563.1 Q 804.1 561.0 837.7 558.5 Q 875.9 561.3 911.0 563.0 Q 942.9 561.0 977.8 559.0 Q 1013.6 559.8 1046.7 561.1 Q 1048.6 577.9 1047.5 596.9 Q 1049.3 612.9 1049.9 630.6 Q 1050.5 647.8 1053.4 661.6 Q 1051.8 679.9 1046.6 699.4 Q 1011.8 699.4 978.8 698.6 Q 944.1 700.9 909.5 703.4 Q 874.1 698.7 838.0 697.2 Q 803.6 696.9 768.5 698.4 Q 766.5 684.4 767.6 668.3 Q 769.9 649.7 772.0 629.5 Q 771.2 615.5 772.5 598.5 Z" fill="none" stroke="#1F2933" stroke-width="3" stroke-linecap="round" stroke-linejoin="round"/><text x="910.0" y="639.1" font-family="'Segoe Print','Bradley Hand','Comic Sans MS',cursive" font-size="26" fill="#1F2933" text-anchor="middle" font-weight="bold" opacity="1.0">Reinstall component</text><path d="M 1135.0 630.0 Q 1096.2 618.9 1055.0 630.0" fill="none" stroke="#1F2933" stroke-width="3.5" stroke-linecap="round"/><path d="M 1055.0 630.0 L 1077.0 634.3" stroke="#1F2933" stroke-width="3.5" stroke-linecap="round" fill="none"/><path d="M 1055.0 630.0 L 1070.7 612.9" stroke="#1F2933" stroke-width="3.5" stroke-linecap="round" fill="none"/><path d="M 765.0 630.0 Q 756.3 629.4 750.0 630.0" fill="none" stroke="#1F2933" stroke-width="3.5" stroke-linecap="round"/><path d="M 750.0 630.0 L 768.9 638.7" stroke="#1F2933" stroke-width="3.5" stroke-linecap="round" fill="none"/><path d="M 750.0 630.0 L 767.9 618.9" stroke="#1F2933" stroke-width="3.5" stroke-linecap="round" fill="none"/><rect x="462.7" y="561.7" width="280" height="140" fill="none" stroke="#8A8178" stroke-width="1.4" opacity="0.55" stroke-dasharray="7 5"/><path d="M 461.4 557.0 Q 496.4 556.7 530.1 559.3 Q 564.7 561.9 602.9 567.1 Q 639.1 564.4 670.4 562.6 Q 703.9 558.1 742.9 556.7 Q 741.2 579.2 739.0 601.8 Q 742.9 613.9 747.2 627.2 Q 742.0 643.5 742.6 660.6 Q 740.4 678.7 741.7 698.5 Q 707.8 695.2 673.4 696.9 Q 636.4 696.0 601.1 698.7 Q 566.3 695.8 532.0 696.4 Q 503.7 699.9 470.4 699.9 Q 464.1 681.9 462.0 666.8 Q 466.8 646.6 473.0 630.1 Q 469.7 612.3 461.7 596.1 Z" fill="#7A9A6A" fill-opacity="0.5" stroke="none"/><path d="M 462.6 563.2 Q 500.3 562.1 536.7 562.4 Q 571.1 563.7 608.2 562.3 Q 640.3 563.3 674.4 562.5 Q 710.5 561.3 744.8 559.8 Q 746.9 575.1 748.2 592.3 Q 747.7 610.9 746.7 628.0 Q 747.1 648.2 747.6 668.4 Q 746.0 683.5 742.9 698.5 Q 708.2 698.2 674.8 697.1 Q 639.3 699.2 606.1 700.7 Q 572.3 701.6 538.0 699.2 Q 504.6 698.5 468.2 701.1 Q 466.6 683.3 464.9 665.2 Q 463.6 648.0 461.8 627.5 Q 463.3 612.2 463.2 597.1 Z" fill="none" stroke="#1F2933" stroke-width="3" stroke-linecap="round" stroke-linejoin="round"/><text x="605.0" y="639.5" font-family="'Segoe Print','Bradley Hand','Comic Sans MS',cursive" font-size="27" fill="#1F2933" text-anchor="middle" font-weight="bold" opacity="1.0">Working again</text></svg>
