<svg xmlns="http://www.w3.org/2000/svg" viewBox="0 0 1600 900" role="img" aria-labelledby="t d" preserveAspectRatio="xMidYMid meet"><title id="t">Display troubleshooting flow</title><desc id="d">No display: check the cable, dock, monitor input, desktop mode, then Termux:X11 until the display works.</desc><rect x="0" y="0" width="1600" height="900" fill="#F7F1E6"/><line x1="202" y1="30" x2="198" y2="870" stroke="#8A8178" stroke-width="1" opacity="0.18"/><line x1="797" y1="30" x2="800" y2="870" stroke="#8A8178" stroke-width="1" opacity="0.18"/><line x1="1400" y1="30" x2="1399" y2="870" stroke="#8A8178" stroke-width="1" opacity="0.18"/><line x1="40" y1="153" x2="1560" y2="146" stroke="#8A8178" stroke-width="1" opacity="0.18"/><line x1="40" y1="446" x2="1560" y2="456" stroke="#8A8178" stroke-width="1" opacity="0.18"/><line x1="40" y1="751" x2="1560" y2="745" stroke="#8A8178" stroke-width="1" opacity="0.18"/><line x1="70" y1="20" x2="70" y2="880" stroke="#8A8178" stroke-width="1.6" opacity="0.3"/><path d="M 30 40 L 50 40 M 40 30 L 40 50" stroke="#8A8178" stroke-width="1.3" opacity="0.4"/><path d="M 1550 40 L 1570 40 M 1560 30 L 1560 50" stroke="#8A8178" stroke-width="1.3" opacity="0.4"/><path d="M 30 860 L 50 860 M 40 850 L 40 870" stroke="#8A8178" stroke-width="1.3" opacity="0.4"/><path d="M 1550 860 L 1570 860 M 1560 850 L 1560 870" stroke="#8A8178" stroke-width="1.3" opacity="0.4"/><text x="800.0" y="84.0" font-family="'Segoe Print','Bradley Hand','Comic Sans MS',cursive" font-size="42" fill="#1F2933" text-anchor="middle" font-weight="bold" opacity="1.0">No picture? Check in this order</text><path d="M 459 105 Q 800 107 1141 103" stroke="#1F2933" stroke-width="2.5" fill="none" opacity="0.75"/><rect x="88.1" y="295.7" width="270" height="140" fill="none" stroke="#8A8178" stroke-width="1.4" opacity="0.55" stroke-dasharray="7 5"/><path d="M 90.2 307.5 Q 123.9 309.3 154.7 306.8 Q 188.3 302.8 226.3 298.0 Q 255.2 296.9 289.1 296.5 Q 322.6 300.5 354.8 299.3 Q 358.7 321.4 361.7 339.2 Q 359.6 356.1 363.0 370.7 Q 359.7 386.9 356.0 408.9 Q 357.7 427.7 364.0 440.8 Q 330.3 438.9 291.0 432.0 Q 258.8 440.6 226.6 443.2 Q 189.2 440.6 153.7 443.2 Q 122.3 439.1 95.4 432.2 Q 91.4 414.4 92.8 399.4 Q 93.2 387.5 95.6 373.8 Q 94.2 351.7 96.8 332.8 Z" fill="#B85C5C" fill-opacity="0.5" stroke="none"/><path d="M 88.8 300.4 Q 122.9 301.9 157.1 303.3 Q 189.2 302.1 224.8 301.0 Q 256.6 299.3 291.9 300.8 Q 327.4 300.9 362.1 300.6 Q 361.3 317.6 361.2 337.3 Q 361.0 355.2 359.0 371.8 Q 359.3 386.3 359.6 402.8 Q 359.3 418.3 358.2 436.7 Q 324.9 436.6 294.0 438.3 Q 259.5 440.2 226.2 439.7 Q 194.6 439.1 159.7 437.4 Q 124.0 435.7 89.3 437.3 Q 89.1 421.6 91.2 404.0 Q 88.1 387.7 86.8 373.1 Q 87.3 353.9 89.1 334.0 Z" fill="none" stroke="#1F2933" stroke-width="3" stroke-linecap="round" stroke-linejoin="round"/><text x="225.0" y="379.8" font-family="'Segoe Print','Bradley Hand','Comic Sans MS',cursive" font-size="28" fill="#1F2933" text-anchor="middle" font-weight="bold" opacity="1.0">No display</text><rect x="437.8" y="304.2" width="280" height="140" fill="none" stroke="#8A8178" stroke-width="1.4" opacity="0.55" stroke-dasharray="7 5"/><path d="M 439.6 303.8 Q 475.3 302.3 514.4 301.1 Q 547.0 298.6 582.1 301.5 Q 615.9 302.0 654.1 299.8 Q 689.3 306.0 719.3 306.5 Q 715.7 322.9 717.2 341.5 Q 716.2 353.9 717.8 364.5 Q 720.4 381.9 719.5 404.5 Q 721.7 417.4 719.5 433.5 Q 686.0 434.2 649.4 435.0 Q 614.4 438.2 581.7 438.3 Q 544.0 438.6 510.3 435.0 Q 476.6 438.6 437.6 444.0 Q 445.6 425.0 448.0 401.0 Q 439.4 385.5 436.2 372.1 Q 435.4 353.4 439.7 334.8 Z" fill="#3E5C76" fill-opacity="0.5" stroke="none"/><path d="M 440.5 299.5 Q 474.3 299.9 510.4 298.1 Q 546.8 301.6 582.9 302.4 Q 615.4 301.6 646.9 299.4 Q 684.2 299.9 718.4 297.6 Q 717.9 318.4 718.7 338.2 Q 721.0 354.0 723.5 368.1 Q 723.6 386.0 720.3 406.6 Q 721.6 422.7 721.7 441.6 Q 688.3 439.7 652.0 440.3 Q 617.1 438.4 579.6 439.6 Q 544.3 442.4 507.7 441.9 Q 473.5 442.4 440.2 442.3 Q 441.5 422.3 439.7 405.0 Q 438.5 389.4 436.8 372.2 Q 438.7 355.0 443.3 335.7 Z" fill="none" stroke="#1F2933" stroke-width="3" stroke-linecap="round" stroke-linejoin="round"/><text x="580.0" y="379.1" font-family="'Segoe Print','Bradley Hand','Comic Sans MS',cursive" font-size="26" fill="#1F2933" text-anchor="middle" font-weight="bold" opacity="1.0">Check cable</text><path d="M 365.0 370.0 Q 400.4 375.8 435.0 370.0" fill="none" stroke="#1F2933" stroke-width="3.5" stroke-linecap="round"/><path d="M 435.0 370.0 L 413.8 364.7" stroke="#1F2933" stroke-width="3.5" stroke-linecap="round" fill="none"/><path d="M 435.0 370.0 L 415.9 382.4" stroke="#1F2933" stroke-width="3.5" stroke-linecap="round" fill="none"/><rect x="808.3" y="297.4" width="280" height="140" fill="none" stroke="#8A8178" stroke-width="1.4" opacity="0.55" stroke-dasharray="7 5"/><path d="M 803.4 299.4 Q 840.1 298.1 873.7 301.0 Q 912.4 300.3 948.6 304.9 Q 981.9 304.0 1016.6 303.1 Q 1053.0 299.1 1087.1 298.0 Q 1084.6 317.6 1087.9 339.6 Q 1087.5 356.6 1081.7 373.6 Q 1078.1 388.1 1079.8 400.0 Q 1080.2 416.9 1084.3 432.9 Q 1046.9 433.2 1013.8 433.2 Q 984.5 436.6 950.3 442.5 Q 910.7 442.7 872.4 439.6 Q 834.9 435.7 803.2 433.8 Q 805.8 420.1 811.7 409.1 Q 814.4 391.7 812.3 372.7 Q 806.8 355.1 806.9 337.9 Z" fill="#5A9A9A" fill-opacity="0.5" stroke="none"/><path d="M 801.5 302.5 Q 836.2 299.9 873.8 298.5 Q 909.2 297.7 944.0 300.2 Q 977.9 298.2 1012.8 297.5 Q 1049.3 298.5 1084.8 302.0 Q 1082.4 321.2 1082.0 337.1 Q 1083.6 354.4 1086.7 368.6 Q 1084.5 387.7 1084.4 408.4 Q 1088.0 426.8 1088.2 442.5 Q 1053.7 439.3 1017.4 437.3 Q 981.4 437.7 946.5 439.3 Q 910.3 439.1 876.6 438.9 Q 837.8 439.7 801.6 443.1 Q 802.0 424.1 804.9 402.7 Q 805.5 384.6 807.2 369.5 Q 808.2 350.1 808.2 331.8 Z" fill="none" stroke="#1F2933" stroke-width="3" stroke-linecap="round" stroke-linejoin="round"/><text x="945.0" y="379.1" font-family="'Segoe Print','Bradley Hand','Comic Sans MS',cursive" font-size="26" fill="#1F2933" text-anchor="middle" font-weight="bold" opacity="1.0">Check dock</text><path d="M 725.0 370.0 Q 766.3 379.0 800.0 370.0" fill="none" stroke="#1F2933" stroke-width="3.5" stroke-linecap="round"/><path d="M 800.0 370.0 L 779.6 362.9" stroke="#1F2933" stroke-width="3.5" stroke-linecap="round" fill="none"/><path d="M 800.0 370.0 L 785.2 385.7" stroke="#1F2933" stroke-width="3.5" stroke-linecap="round" fill="none"/><rect x="1167.1" y="303.1" width="280" height="140" fill="none" stroke="#8A8178" stroke-width="1.4" opacity="0.55" stroke-dasharray="7 5"/><path d="M 1177.9 307.6 Q 1209.0 306.6 1241.6 304.4 Q 1275.1 299.7 1309.5 298.3 Q 1343.4 304.1 1374.5 305.5 Q 1414.7 305.8 1451.9 301.5 Q 1448.4 322.6 1442.8 341.1 Q 1441.1 354.4 1444.2 373.7 Q 1447.3 387.8 1446.5 398.4 Q 1444.6 420.0 1446.1 442.1 Q 1412.8 440.0 1380.9 440.9 Q 1344.0 437.9 1310.2 434.7 Q 1274.7 435.3 1241.3 434.5 Q 1210.4 435.6 1175.9 432.9 Q 1171.3 423.2 1171.7 408.3 Q 1171.3 385.5 1172.8 364.8 Q 1171.7 349.4 1170.5 333.9 Z" fill="#3E5C76" fill-opacity="0.5" stroke="none"/><path d="M 1171.0 301.6 Q 1206.9 301.0 1242.8 300.3 Q 1276.2 297.6 1307.2 296.7 Q 1342.8 299.9 1380.2 301.7 Q 1417.1 298.1 1453.4 297.4 Q 1450.0 316.0 1449.5 336.0 Q 1449.0 354.1 1451.8 369.4 Q 1451.6 385.5 1450.4 403.6 Q 1451.0 423.7 1453.0 443.2 Q 1416.1 443.3 1380.2 441.6 Q 1346.4 440.2 1311.2 440.8 Q 1275.2 440.3 1236.6 439.3 Q 1203.4 439.6 1168.7 438.9 Q 1169.2 424.4 1170.2 406.5 Q 1172.0 386.6 1171.4 367.2 Q 1170.5 351.4 1168.2 334.0 Z" fill="none" stroke="#1F2933" stroke-width="3" stroke-linecap="round" stroke-linejoin="round"/><text x="1310.0" y="379.1" font-family="'Segoe Print','Bradley Hand','Comic Sans MS',cursive" font-size="26" fill="#1F2933" text-anchor="middle" font-weight="bold" opacity="1.0">Check monitor input</text><path d="M 1090.0 370.0 Q 1124.9 362.0 1165.0 370.0" fill="none" stroke="#1F2933" stroke-width="3.5" stroke-linecap="round"/><path d="M 1165.0 370.0 L 1148.3 354.5" stroke="#1F2933" stroke-width="3.5" stroke-linecap="round" fill="none"/><path d="M 1165.0 370.0 L 1143.6 376.3" stroke="#1F2933" stroke-width="3.5" stroke-linecap="round" fill="none"/><path d="M 1315.0 445.0 Q 1318.9 504.0 1280.0 555.0" fill="none" stroke="#1F2933" stroke-width="3.5" stroke-linecap="round"/><path d="M 1280.0 555.0 L 1300.3 544.5" stroke="#1F2933" stroke-width="3.5" stroke-linecap="round" fill="none"/><path d="M 1280.0 555.0 L 1282.2 534.7" stroke="#1F2933" stroke-width="3.5" stroke-linecap="round" fill="none"/><rect x="1139.2" y="558.1" width="280" height="140" fill="none" stroke="#8A8178" stroke-width="1.4" opacity="0.55" stroke-dasharray="7 5"/><path d="M 1141.0 560.3 Q 1174.6 563.1 1205.9 565.0 Q 1240.1 564.6 1269.0 563.1 Q 1307.0 565.8 1346.8 564.5 Q 1378.4 560.3 1415.1 557.6 Q 1414.8 577.3 1416.3 592.0 Q 1417.2 612.7 1417.0 631.0 Q 1414.5 647.6 1409.2 658.4 Q 1411.1 678.0 1409.1 692.6 Q 1375.7 693.9 1339.7 696.5 Q 1309.6 696.0 1279.2 697.3 Q 1241.9 696.0 1202.3 696.9 Q 1168.5 695.8 1131.9 697.7 Q 1137.0 680.6 1141.3 660.2 Q 1137.5 645.9 1138.5 629.6 Q 1137.3 611.6 1138.1 595.0 Z" fill="#5A9A9A" fill-opacity="0.5" stroke="none"/><path d="M 1137.1 563.3 Q 1170.1 561.6 1206.4 562.0 Q 1242.5 561.1 1275.5 560.6 Q 1309.8 560.0 1342.8 559.6 Q 1379.7 561.1 1417.0 559.7 Q 1413.9 577.0 1411.6 596.8 Q 1412.4 616.4 1413.0 632.9 Q 1414.2 649.0 1412.9 668.1 Q 1415.0 683.6 1417.0 701.9 Q 1382.7 701.2 1345.5 699.2 Q 1310.8 699.4 1276.9 701.8 Q 1240.7 701.7 1201.9 702.5 Q 1168.4 699.9 1132.9 700.3 Q 1132.2 680.6 1133.2 664.1 Q 1134.5 648.5 1137.2 629.5 Q 1137.0 612.1 1136.5 594.2 Z" fill="none" stroke="#1F2933" stroke-width="3" stroke-linecap="round" stroke-linejoin="round"/><text x="1275.0" y="639.1" font-family="'Segoe Print','Bradley Hand','Comic Sans MS',cursive" font-size="26" fill="#1F2933" text-anchor="middle" font-weight="bold" opacity="1.0">Check desktop mode</text><rect x="770.7" y="559.6" width="280" height="140" fill="none" stroke="#8A8178" stroke-width="1.4" opacity="0.55" stroke-dasharray="7 5"/><path d="M 768.2 562.5 Q 805.1 566.9 840.6 566.2 Q 873.3 565.3 905.6 560.2 Q 942.0 562.9 974.5 565.1 Q 1013.8 562.6 1050.3 557.4 Q 1050.6 580.0 1051.2 598.0 Q 1049.4 615.6 1051.0 627.8 Q 1055.1 646.8 1053.6 665.7 Q 1051.6 681.7 1050.8 701.9 Q 1015.9 699.7 981.3 696.7 Q 945.5 699.5 912.0 703.9 Q 875.3 697.8 844.1 696.0 Q 810.4 697.0 775.0 694.1 Q 769.3 675.4 769.3 659.6 Q 773.0 646.4 776.5 627.2 Q 774.6 612.1 771.2 598.1 Z" fill="#3E5C76" fill-opacity="0.5" stroke="none"/><path d="M 769.5 557.5 Q 802.8 557.5 837.5 559.4 Q 873.3 558.6 909.5 556.8 Q 942.2 557.0 977.5 557.2 Q 1014.7 557.7 1049.1 561.1 Q 1049.7 578.4 1053.1 596.9 Q 1051.6 612.4 1047.7 629.5 Q 1048.7 648.9 1048.0 666.3 Q 1047.7 685.6 1048.6 702.1 Q 1016.1 699.6 982.0 697.9 Q 946.3 699.9 910.6 702.9 Q 874.8 701.1 838.0 697.0 Q 803.5 698.5 769.1 697.9 Q 768.9 680.1 771.4 661.7 Q 770.9 644.8 769.7 628.2 Q 771.6 611.0 772.2 596.1 Z" fill="none" stroke="#1F2933" stroke-width="3" stroke-linecap="round" stroke-linejoin="round"/><text x="910.0" y="639.1" font-family="'Segoe Print','Bradley Hand','Comic Sans MS',cursive" font-size="26" fill="#1F2933" text-anchor="middle" font-weight="bold" opacity="1.0">Check Termux:X11</text><path d="M 1135.0 630.0 Q 1095.3 617.8 1055.0 630.0" fill="none" stroke="#1F2933" stroke-width="3.5" stroke-linecap="round"/><path d="M 1055.0 630.0 L 1078.3 635.4" stroke="#1F2933" stroke-width="3.5" stroke-linecap="round" fill="none"/><path d="M 1055.0 630.0 L 1071.8 612.7" stroke="#1F2933" stroke-width="3.5" stroke-linecap="round" fill="none"/><path d="M 765.0 630.0 Q 757.9 629.1 750.0 630.0" fill="none" stroke="#1F2933" stroke-width="3.5" stroke-linecap="round"/><path d="M 750.0 630.0 L 770.4 637.1" stroke="#1F2933" stroke-width="3.5" stroke-linecap="round" fill="none"/><path d="M 750.0 630.0 L 766.6 617.1" stroke="#1F2933" stroke-width="3.5" stroke-linecap="round" fill="none"/><rect x="463.5" y="564.7" width="280" height="140" fill="none" stroke="#8A8178" stroke-width="1.4" opacity="0.55" stroke-dasharray="7 5"/><path d="M 470.2 562.8 Q 503.7 562.8 541.2 566.7 Q 575.1 563.1 606.2 564.2 Q 640.8 559.7 676.9 559.0 Q 715.5 557.4 748.5 556.4 Q 748.5 573.0 747.7 591.7 Q 743.6 614.1 744.0 632.8 Q 741.7 647.6 737.7 662.5 Q 737.3 681.4 737.0 702.5 Q 708.5 695.6 679.9 693.3 Q 646.4 696.5 607.3 696.9 Q 574.2 696.8 538.8 692.5 Q 503.7 696.6 470.8 698.3 Q 470.3 684.2 470.4 664.6 Q 472.4 649.5 469.3 630.4 Q 465.6 610.4 463.4 594.1 Z" fill="#7A9A6A" fill-opacity="0.5" stroke="none"/><path d="M 467.2 558.5 Q 499.1 558.9 533.7 559.7 Q 569.0 562.1 603.0 561.2 Q 642.1 562.2 678.3 561.7 Q 712.7 559.9 747.8 558.4 Q 747.3 577.0 745.2 597.5 Q 744.8 614.2 746.1 633.3 Q 745.4 650.1 743.1 664.0 Q 745.1 682.5 747.4 702.6 Q 709.8 701.8 674.9 703.0 Q 640.4 698.2 605.4 696.9 Q 568.1 697.8 533.9 701.9 Q 497.3 701.0 464.2 697.2 Q 462.3 681.2 462.0 663.8 Q 464.4 644.5 467.8 627.7 Q 465.5 612.6 466.3 595.3 Z" fill="none" stroke="#1F2933" stroke-width="3" stroke-linecap="round" stroke-linejoin="round"/><text x="605.0" y="639.5" font-family="'Segoe Print','Bradley Hand','Comic Sans MS',cursive" font-size="27" fill="#1F2933" text-anchor="middle" font-weight="bold" opacity="1.0">Display works</text></svg>
