<svg xmlns="http://www.w3.org/2000/svg" viewBox="0 0 1600 900" role="img" aria-labelledby="t d" preserveAspectRatio="xMidYMid meet"><title id="t">Performance troubleshooting flow</title><desc id="d">Slow desktop: close apps, check RAM, reduce desktop effects, reboot, and switch to lighter components if needed.</desc><rect x="0" y="0" width="1600" height="900" fill="#F7F1E6"/><line x1="198" y1="30" x2="202" y2="870" stroke="#8A8178" stroke-width="1" opacity="0.18"/><line x1="796" y1="30" x2="797" y2="870" stroke="#8A8178" stroke-width="1" opacity="0.18"/><line x1="1404" y1="30" x2="1401" y2="870" stroke="#8A8178" stroke-width="1" opacity="0.18"/><line x1="40" y1="145" x2="1560" y2="147" stroke="#8A8178" stroke-width="1" opacity="0.18"/><line x1="40" y1="449" x2="1560" y2="452" stroke="#8A8178" stroke-width="1" opacity="0.18"/><line x1="40" y1="746" x2="1560" y2="752" stroke="#8A8178" stroke-width="1" opacity="0.18"/><line x1="70" y1="20" x2="70" y2="880" stroke="#8A8178" stroke-width="1.6" opacity="0.3"/><path d="M 30 40 L 50 40 M 40 30 L 40 50" stroke="#8A8178" stroke-width="1.3" opacity="0.4"/><path d="M 1550 40 L 1570 40 M 1560 30 L 1560 50" stroke="#8A8178" stroke-width="1.3" opacity="0.4"/><path d="M 30 860 L 50 860 M 40 850 L 40 870" stroke="#8A8178" stroke-width="1.3" opacity="0.4"/><path d="M 1550 860 L 1570 860 M 1560 850 L 1560 870" stroke="#8A8178" stroke-width="1.3" opacity="0.4"/><text x="800.0" y="84.0" font-family="'Segoe Print','Bradley Hand','Comic Sans MS',cursive" font-size="42" fill="#1F2933" text-anchor="middle" font-weight="bold" opacity="1.0">Desktop feeling slow?</text><path d="M 569 102 Q 800 107 1031 103" stroke="#1F2933" stroke-width="2.5" fill="none" opacity="0.75"/><rect x="89.0" y="297.8" width="270" height="140" fill="none" stroke="#8A8178" stroke-width="1.4" opacity="0.55" stroke-dasharray="7 5"/><path d="M 89.6 298.9 Q 124.7 299.3 161.5 296.1 Q 197.0 299.1 228.7 305.7 Q 262.9 309.6 295.4 308.0 Q 326.0 303.8 352.1 303.3 Q 355.5 323.4 360.4 339.7 Q 361.0 356.8 356.0 373.1 Q 357.0 390.5 353.4 403.9 Q 357.4 420.8 361.8 439.0 Q 330.1 436.9 293.3 437.9 Q 259.3 442.2 222.3 441.6 Q 188.0 442.0 157.3 437.6 Q 124.0 437.6 92.8 432.1 Q 97.1 416.9 98.0 403.6 Q 98.9 391.1 93.9 374.9 Q 98.1 360.9 96.4 340.9 Z" fill="#B85C5C" fill-opacity="0.5" stroke="none"/><path d="M 87.3 301.1 Q 124.8 301.7 158.9 302.2 Q 191.9 301.5 223.3 297.5 Q 259.3 300.7 293.7 301.7 Q 328.4 300.9 360.8 298.8 Q 361.0 316.5 363.2 332.2 Q 361.5 350.2 362.4 369.8 Q 361.2 384.6 357.2 402.7 Q 357.8 422.0 361.6 438.6 Q 328.0 438.5 292.9 440.9 Q 257.3 439.0 224.4 440.2 Q 189.6 440.2 156.3 438.9 Q 123.3 439.0 92.3 437.2 Q 91.0 419.5 92.8 404.2 Q 91.8 385.9 92.5 370.3 Q 90.7 352.3 88.0 335.6 Z" fill="none" stroke="#1F2933" stroke-width="3" stroke-linecap="round" stroke-linejoin="round"/><text x="225.0" y="379.8" font-family="'Segoe Print','Bradley Hand','Comic Sans MS',cursive" font-size="28" fill="#1F2933" text-anchor="middle" font-weight="bold" opacity="1.0">Slow desktop</text><rect x="441.3" y="295.7" width="280" height="140" fill="none" stroke="#8A8178" stroke-width="1.4" opacity="0.55" stroke-dasharray="7 5"/><path d="M 442.0 299.1 Q 478.2 298.7 512.0 300.8 Q 548.9 301.7 583.5 304.3 Q 615.0 301.9 651.0 296.1 Q 683.2 302.5 716.9 306.1 Q 714.3 320.7 714.4 331.2 Q 720.3 352.5 721.0 372.9 Q 718.0 390.8 714.5 409.2 Q 713.7 421.5 716.2 439.3 Q 678.4 438.0 643.1 433.1 Q 609.7 434.5 578.1 437.2 Q 543.9 440.3 511.5 437.5 Q 475.7 435.2 437.6 432.8 Q 435.4 420.4 436.9 409.3 Q 440.2 388.9 437.8 373.7 Q 437.7 352.1 442.0 330.2 Z" fill="#3E5C76" fill-opacity="0.5" stroke="none"/><path d="M 438.8 303.3 Q 472.1 302.2 506.9 298.3 Q 542.7 298.7 579.0 302.5 Q 614.6 301.3 647.2 299.5 Q 685.0 300.0 721.8 302.3 Q 722.2 317.1 720.9 332.0 Q 721.0 350.8 718.1 367.0 Q 718.4 387.3 720.3 406.7 Q 719.3 423.0 721.1 438.4 Q 684.7 440.3 646.7 439.6 Q 612.6 441.4 577.7 440.0 Q 541.6 441.0 508.1 441.3 Q 474.2 439.4 436.9 439.2 Q 439.4 421.5 439.6 403.9 Q 439.7 384.3 441.1 367.7 Q 442.8 352.3 442.5 338.5 Z" fill="none" stroke="#1F2933" stroke-width="3" stroke-linecap="round" stroke-linejoin="round"/><text x="580.0" y="379.1" font-family="'Segoe Print','Bradley Hand','Comic Sans MS',cursive" font-size="26" fill="#1F2933" text-anchor="middle" font-weight="bold" opacity="1.0">Close apps</text><path d="M 365.0 370.0 Q 398.1 361.2 435.0 370.0" fill="none" stroke="#1F2933" stroke-width="3.5" stroke-linecap="round"/><path d="M 435.0 370.0 L 418.9 354.8" stroke="#1F2933" stroke-width="3.5" stroke-linecap="round" fill="none"/><path d="M 435.0 370.0 L 415.4 376.8" stroke="#1F2933" stroke-width="3.5" stroke-linecap="round" fill="none"/><rect x="805.3" y="297.1" width="280" height="140" fill="none" stroke="#8A8178" stroke-width="1.4" opacity="0.55" stroke-dasharray="7 5"/><path d="M 810.8 302.7 Q 844.5 298.6 876.4 299.6 Q 909.4 300.5 939.7 296.0 Q 977.9 300.3 1015.3 307.2 Q 1049.1 301.6 1082.5 301.9 Q 1080.1 320.2 1082.6 338.8 Q 1079.5 354.4 1078.4 367.2 Q 1081.8 383.8 1085.7 398.2 Q 1085.4 418.4 1079.4 439.3 Q 1046.7 441.3 1014.3 443.5 Q 981.9 441.1 944.1 439.2 Q 909.8 439.3 876.7 438.4 Q 840.4 437.2 809.1 434.5 Q 809.9 417.4 804.8 400.8 Q 806.0 389.8 803.0 375.6 Q 806.3 355.9 811.8 336.0 Z" fill="#5A9A9A" fill-opacity="0.5" stroke="none"/><path d="M 804.1 297.7 Q 840.3 299.3 875.5 300.7 Q 908.6 302.5 942.3 301.0 Q 977.7 301.5 1011.5 300.8 Q 1047.7 301.8 1084.5 299.8 Q 1084.7 314.7 1081.8 331.7 Q 1082.3 349.6 1085.3 367.7 Q 1087.1 388.5 1085.9 405.9 Q 1085.8 421.8 1085.6 439.2 Q 1050.1 442.3 1011.8 441.9 Q 977.4 439.0 942.4 438.1 Q 907.9 437.6 872.0 438.3 Q 838.7 440.0 804.2 438.6 Q 803.7 420.9 803.4 403.1 Q 802.0 385.0 803.1 367.5 Q 806.2 350.7 806.3 331.9 Z" fill="none" stroke="#1F2933" stroke-width="3" stroke-linecap="round" stroke-linejoin="round"/><text x="945.0" y="379.1" font-family="'Segoe Print','Bradley Hand','Comic Sans MS',cursive" font-size="26" fill="#1F2933" text-anchor="middle" font-weight="bold" opacity="1.0">Check RAM</text><path d="M 725.0 370.0 Q 761.2 364.5 800.0 370.0" fill="none" stroke="#1F2933" stroke-width="3.5" stroke-linecap="round"/><path d="M 800.0 370.0 L 784.2 357.4" stroke="#1F2933" stroke-width="3.5" stroke-linecap="round" fill="none"/><path d="M 800.0 370.0 L 780.5 377.6" stroke="#1F2933" stroke-width="3.5" stroke-linecap="round" fill="none"/><rect x="1173.3" y="304.6" width="280" height="140" fill="none" stroke="#8A8178" stroke-width="1.4" opacity="0.55" stroke-dasharray="7 5"/><path d="M 1174.5 307.1 Q 1204.9 303.7 1240.6 305.3 Q 1270.4 304.2 1304.9 303.7 Q 1342.1 298.9 1373.3 298.2 Q 1409.2 300.7 1446.1 298.5 Q 1448.1 314.4 1451.7 332.2 Q 1449.5 350.1 1452.3 367.3 Q 1451.8 385.5 1449.4 404.8 Q 1452.3 426.1 1451.6 441.7 Q 1417.9 437.0 1381.0 434.5 Q 1342.3 441.7 1308.1 443.0 Q 1271.2 438.6 1237.9 437.6 Q 1207.2 432.7 1177.0 432.1 Q 1176.6 418.7 1171.6 400.6 Q 1173.7 386.3 1177.9 375.9 Q 1176.2 353.7 1171.9 337.1 Z" fill="#3E5C76" fill-opacity="0.5" stroke="none"/><path d="M 1171.7 299.9 Q 1207.6 299.7 1242.5 299.1 Q 1276.0 299.5 1310.6 300.0 Q 1348.7 299.7 1383.3 296.6 Q 1415.8 296.4 1446.6 296.5 Q 1450.7 314.9 1452.3 332.8 Q 1450.7 348.6 1447.0 367.4 Q 1446.7 384.1 1449.0 403.1 Q 1449.0 421.6 1452.4 442.1 Q 1414.3 440.1 1379.3 438.4 Q 1342.6 436.8 1309.2 437.0 Q 1273.6 439.0 1239.7 440.7 Q 1204.5 437.8 1172.2 437.9 Q 1169.9 421.0 1169.9 404.2 Q 1169.2 385.7 1168.2 368.6 Q 1169.1 351.0 1168.4 335.2 Z" fill="none" stroke="#1F2933" stroke-width="3" stroke-linecap="round" stroke-linejoin="round"/><text x="1310.0" y="379.1" font-family="'Segoe Print','Bradley Hand','Comic Sans MS',cursive" font-size="26" fill="#1F2933" text-anchor="middle" font-weight="bold" opacity="1.0">Reduce desktop effects</text><path d="M 1090.0 370.0 Q 1131.1 357.3 1165.0 370.0" fill="none" stroke="#1F2933" stroke-width="3.5" stroke-linecap="round"/><path d="M 1165.0 370.0 L 1152.6 353.2" stroke="#1F2933" stroke-width="3.5" stroke-linecap="round" fill="none"/><path d="M 1165.0 370.0 L 1143.8 373.5" stroke="#1F2933" stroke-width="3.5" stroke-linecap="round" fill="none"/><path d="M 1315.0 445.0 Q 1276.2 494.6 1280.0 555.0" fill="none" stroke="#1F2933" stroke-width="3.5" stroke-linecap="round"/><path d="M 1280.0 555.0 L 1290.9 536.4" stroke="#1F2933" stroke-width="3.5" stroke-linecap="round" fill="none"/><path d="M 1280.0 555.0 L 1268.3 537.3" stroke="#1F2933" stroke-width="3.5" stroke-linecap="round" fill="none"/><rect x="1133.7" y="559.3" width="280" height="140" fill="none" stroke="#8A8178" stroke-width="1.4" opacity="0.55" stroke-dasharray="7 5"/><path d="M 1136.2 561.9 Q 1169.9 562.2 1207.5 564.0 Q 1243.7 563.8 1279.0 566.5 Q 1311.6 567.8 1345.2 564.9 Q 1383.2 561.4 1416.4 560.1 Q 1416.3 579.9 1412.9 596.2 Q 1414.2 612.4 1417.1 633.6 Q 1414.0 650.7 1412.3 664.5 Q 1413.0 685.7 1414.0 701.4 Q 1384.2 700.7 1348.6 699.7 Q 1310.8 695.9 1274.2 697.7 Q 1243.0 701.0 1206.8 699.5 Q 1176.5 694.4 1142.3 693.1 Q 1141.7 680.7 1142.7 664.1 Q 1143.2 644.5 1139.8 630.2 Q 1136.6 612.0 1131.9 596.0 Z" fill="#5A9A9A" fill-opacity="0.5" stroke="none"/><path d="M 1135.3 559.1 Q 1172.2 560.0 1205.9 562.8 Q 1237.6 561.9 1272.4 560.3 Q 1309.2 560.1 1345.4 559.2 Q 1378.5 561.2 1412.2 562.3 Q 1416.4 579.3 1418.3 593.5 Q 1413.6 611.3 1411.9 630.8 Q 1413.2 647.6 1416.7 662.5 Q 1416.3 681.8 1417.0 701.4 Q 1382.9 701.1 1345.6 700.3 Q 1310.7 700.3 1278.1 701.9 Q 1244.0 701.8 1206.4 702.1 Q 1170.8 698.5 1136.2 697.8 Q 1132.9 683.8 1132.1 666.5 Q 1134.2 649.5 1135.1 630.0 Q 1133.8 614.7 1134.5 598.5 Z" fill="none" stroke="#1F2933" stroke-width="3" stroke-linecap="round" stroke-linejoin="round"/><text x="1275.0" y="639.1" font-family="'Segoe Print','Bradley Hand','Comic Sans MS',cursive" font-size="26" fill="#1F2933" text-anchor="middle" font-weight="bold" opacity="1.0">Reboot</text><rect x="770.4" y="563.3" width="280" height="140" fill="none" stroke="#8A8178" stroke-width="1.4" opacity="0.55" stroke-dasharray="7 5"/><path d="M 772.9 564.7 Q 809.1 559.0 845.8 557.6 Q 879.1 560.2 908.1 562.1 Q 948.1 560.8 984.7 558.8 Q 1015.0 560.9 1049.1 567.1 Q 1051.7 581.7 1049.1 590.7 Q 1047.3 611.6 1051.6 634.1 Q 1050.4 650.1 1044.2 666.4 Q 1043.9 683.9 1046.9 702.2 Q 1011.7 699.2 978.0 700.3 Q 943.7 698.2 906.4 696.6 Q 874.2 692.8 843.2 694.0 Q 805.0 690.9 768.2 693.1 Q 769.1 677.4 773.1 665.0 Q 774.8 646.4 775.2 629.8 Q 770.9 612.8 771.2 595.1 Z" fill="#3E5C76" fill-opacity="0.5" stroke="none"/><path d="M 768.4 561.5 Q 804.7 560.4 842.2 561.4 Q 874.3 560.9 907.7 561.4 Q 943.0 561.6 976.8 558.6 Q 1014.0 562.1 1051.2 562.7 Q 1052.2 576.2 1050.8 591.6 Q 1048.6 611.9 1047.1 630.3 Q 1048.4 646.0 1048.9 662.1 Q 1048.6 683.0 1046.6 700.9 Q 1015.8 699.3 983.0 697.3 Q 947.4 698.8 911.4 699.8 Q 875.3 701.0 837.2 701.7 Q 802.3 700.2 769.4 698.6 Q 771.4 682.8 770.3 664.2 Q 771.4 647.6 770.5 632.5 Q 770.5 616.2 767.4 597.3 Z" fill="none" stroke="#1F2933" stroke-width="3" stroke-linecap="round" stroke-linejoin="round"/><text x="910.0" y="639.1" font-family="'Segoe Print','Bradley Hand','Comic Sans MS',cursive" font-size="26" fill="#1F2933" text-anchor="middle" font-weight="bold" opacity="1.0">Use lighter components</text><path d="M 1135.0 630.0 Q 1094.9 638.1 1055.0 630.0" fill="none" stroke="#1F2933" stroke-width="3.5" stroke-linecap="round"/><path d="M 1055.0 630.0 L 1070.4 643.6" stroke="#1F2933" stroke-width="3.5" stroke-linecap="round" fill="none"/><path d="M 1055.0 630.0 L 1075.0 623.1" stroke="#1F2933" stroke-width="3.5" stroke-linecap="round" fill="none"/><path d="M 765.0 630.0 Q 759.9 630.5 750.0 630.0" fill="none" stroke="#1F2933" stroke-width="3.5" stroke-linecap="round"/><path d="M 750.0 630.0 L 770.0 639.9" stroke="#1F2933" stroke-width="3.5" stroke-linecap="round" fill="none"/><path d="M 750.0 630.0 L 771.1 621.0" stroke="#1F2933" stroke-width="3.5" stroke-linecap="round" fill="none"/><rect x="460.5" y="561.7" width="280" height="140" fill="none" stroke="#8A8178" stroke-width="1.4" opacity="0.55" stroke-dasharray="7 5"/><path d="M 466.5 562.4 Q 500.5 559.3 536.3 558.1 Q 565.2 560.2 599.8 566.0 Q 638.0 562.3 671.1 560.8 Q 710.9 560.4 748.0 561.5 Q 745.3 578.0 739.2 599.1 Q 736.4 612.4 738.1 626.7 Q 746.3 640.8 748.9 658.0 Q 745.3 673.8 740.0 694.0 Q 705.1 697.8 671.1 701.2 Q 641.5 699.3 607.2 694.8 Q 575.5 696.5 537.7 697.1 Q 504.4 697.9 468.5 695.7 Q 466.9 680.5 464.9 662.2 Q 468.2 648.5 472.4 631.9 Q 468.5 615.2 461.7 601.6 Z" fill="#7A9A6A" fill-opacity="0.5" stroke="none"/><path d="M 468.1 561.2 Q 503.3 558.6 535.8 558.2 Q 570.8 562.0 604.7 563.3 Q 639.3 562.0 674.0 560.8 Q 711.2 557.3 747.1 557.2 Q 747.7 574.1 745.5 592.8 Q 747.6 612.8 747.7 631.9 Q 747.2 648.9 743.8 665.5 Q 746.1 684.1 747.2 701.4 Q 710.2 702.0 675.9 702.2 Q 640.6 700.8 604.1 701.7 Q 570.2 701.1 535.0 703.4 Q 501.9 699.9 468.2 699.5 Q 465.9 683.2 466.7 664.3 Q 467.5 646.1 465.0 628.0 Q 468.2 611.0 468.4 596.3 Z" fill="none" stroke="#1F2933" stroke-width="3" stroke-linecap="round" stroke-linejoin="round"/><text x="605.0" y="639.5" font-family="'Segoe Print','Bradley Hand','Comic Sans MS',cursive" font-size="27" fill="#1F2933" text-anchor="middle" font-weight="bold" opacity="1.0">Smooth again</text></svg>
