<svg xmlns="http://www.w3.org/2000/svg" viewBox="0 0 1600 900" role="img" aria-labelledby="t d" preserveAspectRatio="xMidYMid meet"><title id="t">Package troubleshooting flow</title><desc id="d">Package error: update package lists, fix broken packages, clear the cache, and retry the install.</desc><rect x="0" y="0" width="1600" height="900" fill="#F7F1E6"/><line x1="205" y1="30" x2="204" y2="870" stroke="#8A8178" stroke-width="1" opacity="0.18"/><line x1="795" y1="30" x2="798" y2="870" stroke="#8A8178" stroke-width="1" opacity="0.18"/><line x1="1401" y1="30" x2="1397" y2="870" stroke="#8A8178" stroke-width="1" opacity="0.18"/><line x1="40" y1="146" x2="1560" y2="146" stroke="#8A8178" stroke-width="1" opacity="0.18"/><line x1="40" y1="454" x2="1560" y2="445" stroke="#8A8178" stroke-width="1" opacity="0.18"/><line x1="40" y1="750" x2="1560" y2="745" stroke="#8A8178" stroke-width="1" opacity="0.18"/><line x1="70" y1="20" x2="70" y2="880" stroke="#8A8178" stroke-width="1.6" opacity="0.3"/><path d="M 30 40 L 50 40 M 40 30 L 40 50" stroke="#8A8178" stroke-width="1.3" opacity="0.4"/><path d="M 1550 40 L 1570 40 M 1560 30 L 1560 50" stroke="#8A8178" stroke-width="1.3" opacity="0.4"/><path d="M 30 860 L 50 860 M 40 850 L 40 870" stroke="#8A8178" stroke-width="1.3" opacity="0.4"/><path d="M 1550 860 L 1570 860 M 1560 850 L 1560 870" stroke="#8A8178" stroke-width="1.3" opacity="0.4"/><text x="800.0" y="84.0" font-family="'Segoe Print','Bradley Hand','Comic Sans MS',cursive" font-size="42" fill="#1F2933" text-anchor="middle" font-weight="bold" opacity="1.0">Package errors</text><path d="M 646 101 Q 800 106 954 100" stroke="#1F2933" stroke-width="2.5" fill="none" opacity="0.75"/><rect x="87.2" y="298.1" width="270" height="140" fill="none" stroke="#8A8178" stroke-width="1.4" opacity="0.55" stroke-dasharray="7 5"/><path d="M 94.8 304.9 Q 124.4 303.6 158.9 297.3 Q 193.3 303.1 229.9 304.9 Q 260.4 306.3 294.3 303.5 Q 321.5 302.2 352.6 296.0 Q 358.0 316.5 358.0 331.0 Q 359.0 351.1 360.4 368.7 Q 359.9 386.4 353.6 401.7 Q 356.1 424.2 359.2 440.8 Q 324.4 439.7 293.9 443.2 Q 256.1 438.4 220.6 432.3 Q 190.3 436.4 155.7 436.6 Q 119.5 439.3 86.8 440.2 Q 88.2 417.7 86.8 400.4 Q 92.6 383.7 94.1 371.9 Q 92.9 357.0 91.9 336.6 Z" fill="#B85C5C" fill-opacity="0.5" stroke="none"/><path d="M 87.5 301.1 Q 123.0 301.0 155.9 299.1 Q 188.9 301.6 221.5 302.3 Q 257.7 299.3 293.6 298.5 Q 329.0 299.3 361.1 302.9 Q 362.5 321.9 361.6 337.8 Q 362.2 356.0 360.9 370.9 Q 359.6 390.8 358.6 407.8 Q 357.8 425.9 359.2 441.6 Q 326.8 442.6 293.9 442.7 Q 258.6 441.3 226.1 436.6 Q 192.0 438.7 160.3 442.5 Q 127.0 443.0 93.1 441.2 Q 91.3 422.2 89.7 402.6 Q 87.5 387.5 86.6 369.8 Q 86.9 353.2 89.4 337.0 Z" fill="none" stroke="#1F2933" stroke-width="3" stroke-linecap="round" stroke-linejoin="round"/><text x="225.0" y="379.8" font-family="'Segoe Print','Bradley Hand','Comic Sans MS',cursive" font-size="28" fill="#1F2933" text-anchor="middle" font-weight="bold" opacity="1.0">Package error</text><rect x="438.8" y="299.7" width="280" height="140" fill="none" stroke="#8A8178" stroke-width="1.4" opacity="0.55" stroke-dasharray="7 5"/><path d="M 436.3 298.7 Q 472.2 296.6 509.6 297.5 Q 546.7 301.8 581.9 302.2 Q 615.8 303.2 653.8 300.6 Q 685.0 301.3 713.1 297.4 Q 715.7 318.7 723.6 337.5 Q 725.9 352.1 722.9 370.8 Q 721.1 388.1 718.1 400.4 Q 721.6 418.2 720.2 433.9 Q 684.7 432.2 646.8 433.9 Q 614.0 438.3 582.5 442.5 Q 547.4 442.2 509.4 442.7 Q 475.9 439.8 445.2 438.8 Q 440.9 425.7 437.9 407.1 Q 440.6 389.1 440.2 367.5 Q 442.5 351.3 439.3 339.3 Z" fill="#3E5C76" fill-opacity="0.5" stroke="none"/><path d="M 440.7 297.1 Q 477.5 298.8 511.6 299.4 Q 543.7 300.0 578.0 303.1 Q 615.5 302.2 650.5 299.8 Q 688.0 300.6 723.3 300.5 Q 720.9 318.0 719.4 333.9 Q 719.4 352.4 718.8 367.9 Q 721.7 386.7 721.4 403.3 Q 720.7 421.3 721.7 440.0 Q 683.7 439.2 647.7 438.3 Q 613.6 438.4 582.3 440.6 Q 547.0 439.7 509.3 438.8 Q 472.5 438.2 439.0 436.8 Q 436.3 422.3 437.0 407.5 Q 435.9 388.3 437.3 368.5 Q 437.0 352.7 437.7 333.5 Z" fill="none" stroke="#1F2933" stroke-width="3" stroke-linecap="round" stroke-linejoin="round"/><text x="580.0" y="379.1" font-family="'Segoe Print','Bradley Hand','Comic Sans MS',cursive" font-size="26" fill="#1F2933" text-anchor="middle" font-weight="bold" opacity="1.0">Update package lists</text><path d="M 365.0 370.0 Q 400.8 358.7 435.0 370.0" fill="none" stroke="#1F2933" stroke-width="3.5" stroke-linecap="round"/><path d="M 435.0 370.0 L 419.1 354.5" stroke="#1F2933" stroke-width="3.5" stroke-linecap="round" fill="none"/><path d="M 435.0 370.0 L 412.9 372.7" stroke="#1F2933" stroke-width="3.5" stroke-linecap="round" fill="none"/><rect x="805.1" y="303.4" width="280" height="140" fill="none" stroke="#8A8178" stroke-width="1.4" opacity="0.55" stroke-dasharray="7 5"/><path d="M 811.9 299.2 Q 844.4 299.0 872.6 299.1 Q 910.4 301.8 943.8 298.8 Q 984.4 301.0 1019.7 307.5 Q 1053.1 307.2 1087.6 306.3 Q 1082.1 324.4 1080.4 340.5 Q 1086.1 354.3 1086.1 370.4 Q 1088.1 388.3 1087.8 400.8 Q 1085.1 418.0 1080.7 434.6 Q 1048.3 439.9 1016.9 440.8 Q 982.4 438.4 950.2 440.0 Q 915.3 438.1 876.9 434.9 Q 841.2 432.7 801.5 436.4 Q 801.7 424.6 805.0 408.8 Q 805.5 388.8 805.8 370.2 Q 808.5 350.5 811.1 335.9 Z" fill="#5A9A9A" fill-opacity="0.5" stroke="none"/><path d="M 806.3 300.5 Q 840.2 297.6 874.4 297.2 Q 911.4 296.7 947.0 298.2 Q 980.8 296.9 1013.8 296.5 Q 1049.5 295.7 1084.9 298.1 Q 1084.6 315.0 1085.4 333.9 Q 1086.2 349.3 1084.5 367.2 Q 1084.6 384.8 1081.8 405.0 Q 1082.8 422.3 1086.2 438.6 Q 1049.4 440.6 1012.2 439.5 Q 979.9 439.2 945.4 437.4 Q 911.9 438.4 875.0 442.1 Q 840.0 443.8 802.3 443.2 Q 802.0 424.6 802.1 404.7 Q 802.4 384.9 804.4 367.1 Q 804.9 349.2 803.6 334.0 Z" fill="none" stroke="#1F2933" stroke-width="3" stroke-linecap="round" stroke-linejoin="round"/><text x="945.0" y="379.1" font-family="'Segoe Print','Bradley Hand','Comic Sans MS',cursive" font-size="26" fill="#1F2933" text-anchor="middle" font-weight="bold" opacity="1.0">Fix broken packages</text><path d="M 725.0 370.0 Q 764.3 360.2 800.0 370.0" fill="none" stroke="#1F2933" stroke-width="3.5" stroke-linecap="round"/><path d="M 800.0 370.0 L 784.5 354.6" stroke="#1F2933" stroke-width="3.5" stroke-linecap="round" fill="none"/><path d="M 800.0 370.0 L 780.1 374.9" stroke="#1F2933" stroke-width="3.5" stroke-linecap="round" fill="none"/><rect x="1165.2" y="296.1" width="280" height="140" fill="none" stroke="#8A8178" stroke-width="1.4" opacity="0.55" stroke-dasharray="7 5"/><path d="M 1168.8 303.6 Q 1203.0 301.4 1237.4 305.2 Q 1272.1 301.8 1312.0 298.3 Q 1345.8 302.4 1379.8 302.3 Q 1411.5 299.3 1443.6 297.8 Q 1443.9 322.3 1442.3 341.8 Q 1444.7 355.2 1443.8 365.1 Q 1449.7 385.8 1452.5 401.3 Q 1452.4 421.2 1450.3 440.7 Q 1413.6 438.3 1382.2 440.9 Q 1347.3 435.4 1312.4 434.2 Q 1278.7 436.0 1246.8 443.8 Q 1210.1 437.3 1169.3 435.4 Q 1173.9 418.8 1176.9 403.1 Q 1169.5 384.8 1168.0 370.2 Q 1169.4 353.9 1175.1 332.6 Z" fill="#3E5C76" fill-opacity="0.5" stroke="none"/><path d="M 1167.4 301.2 Q 1200.7 298.7 1236.6 297.0 Q 1272.1 297.7 1309.5 297.9 Q 1345.6 297.9 1383.1 300.9 Q 1418.8 299.1 1452.9 300.1 Q 1453.5 318.2 1452.5 336.1 Q 1451.7 353.2 1451.9 373.5 Q 1449.7 386.9 1446.9 402.8 Q 1447.3 422.3 1450.3 442.9 Q 1414.0 442.7 1377.4 442.7 Q 1342.7 444.0 1310.8 442.1 Q 1273.5 439.2 1238.7 436.5 Q 1204.9 437.7 1172.5 439.5 Q 1172.3 422.5 1172.5 405.6 Q 1170.1 387.2 1166.9 371.9 Q 1168.0 354.0 1171.3 333.8 Z" fill="none" stroke="#1F2933" stroke-width="3" stroke-linecap="round" stroke-linejoin="round"/><text x="1310.0" y="379.1" font-family="'Segoe Print','Bradley Hand','Comic Sans MS',cursive" font-size="26" fill="#1F2933" text-anchor="middle" font-weight="bold" opacity="1.0">Clear cache</text><path d="M 1090.0 370.0 Q 1129.7 380.2 1165.0 370.0" fill="none" stroke="#1F2933" stroke-width="3.5" stroke-linecap="round"/><path d="M 1165.0 370.0 L 1143.3 364.0" stroke="#1F2933" stroke-width="3.5" stroke-linecap="round" fill="none"/><path d="M 1165.0 370.0 L 1147.9 384.5" stroke="#1F2933" stroke-width="3.5" stroke-linecap="round" fill="none"/><path d="M 1315.0 445.0 Q 1278.4 492.8 1280.0 555.0" fill="none" stroke="#1F2933" stroke-width="3.5" stroke-linecap="round"/><path d="M 1280.0 555.0 L 1291.1 534.5" stroke="#1F2933" stroke-width="3.5" stroke-linecap="round" fill="none"/><path d="M 1280.0 555.0 L 1270.4 535.3" stroke="#1F2933" stroke-width="3.5" stroke-linecap="round" fill="none"/><rect x="1138.4" y="563.9" width="280" height="140" fill="none" stroke="#8A8178" stroke-width="1.4" opacity="0.55" stroke-dasharray="7 5"/><path d="M 1137.4 567.3 Q 1175.2 565.5 1209.6 559.2 Q 1240.4 559.6 1272.4 558.5 Q 1308.2 563.0 1341.3 567.6 Q 1378.1 565.3 1410.5 561.5 Q 1415.4 574.1 1419.0 591.9 Q 1412.2 606.5 1408.7 626.9 Q 1412.5 649.6 1413.9 668.9 Q 1409.2 680.0 1407.8 693.4 Q 1372.3 695.1 1340.4 700.8 Q 1308.0 694.2 1276.9 693.1 Q 1241.1 694.6 1201.3 692.6 Q 1170.3 691.9 1142.9 697.1 Q 1140.5 682.3 1136.8 662.8 Q 1135.9 647.3 1131.2 633.3 Q 1134.8 613.6 1137.8 598.6 Z" fill="#5A9A9A" fill-opacity="0.5" stroke="none"/><path d="M 1134.1 560.1 Q 1167.1 562.5 1203.2 562.5 Q 1239.7 561.1 1278.1 562.1 Q 1312.5 562.1 1347.4 561.5 Q 1382.4 561.2 1416.1 557.5 Q 1414.9 575.5 1414.4 592.9 Q 1412.5 609.9 1413.5 627.5 Q 1412.7 647.9 1413.0 666.3 Q 1411.7 686.3 1412.4 703.2 Q 1378.0 701.5 1346.3 699.3 Q 1310.1 697.0 1273.2 697.5 Q 1239.3 698.4 1204.8 701.6 Q 1172.3 699.9 1137.7 697.9 Q 1135.3 679.7 1135.7 661.5 Q 1135.8 645.0 1135.8 629.3 Q 1134.5 612.9 1131.5 593.8 Z" fill="none" stroke="#1F2933" stroke-width="3" stroke-linecap="round" stroke-linejoin="round"/><text x="1275.0" y="639.1" font-family="'Segoe Print','Bradley Hand','Comic Sans MS',cursive" font-size="26" fill="#1F2933" text-anchor="middle" font-weight="bold" opacity="1.0">Retry install</text><path d="M 1130.0 630.0 Q 1118.8 626.8 1115.0 630.0" fill="none" stroke="#1F2933" stroke-width="3.5" stroke-linecap="round"/><path d="M 1115.0 630.0 L 1137.7 624.8" stroke="#1F2933" stroke-width="3.5" stroke-linecap="round" fill="none"/><path d="M 1115.0 630.0 L 1121.7 608.1" stroke="#1F2933" stroke-width="3.5" stroke-linecap="round" fill="none"/><rect x="831.0" y="561.2" width="280" height="140" fill="none" stroke="#8A8178" stroke-width="1.4" opacity="0.55" stroke-dasharray="7 5"/><path d="M 827.2 564.7 Q 866.3 567.3 903.4 564.2 Q 935.5 565.1 970.7 561.8 Q 1008.3 559.9 1044.6 561.3 Q 1079.0 560.0 1107.7 559.6 Q 1107.8 578.7 1104.5 602.0 Q 1103.5 618.4 1102.3 630.0 Q 1105.3 650.6 1111.1 668.8 Q 1114.9 688.2 1114.0 702.1 Q 1075.1 699.9 1036.3 701.0 Q 1004.8 695.8 973.9 693.5 Q 936.8 695.3 896.8 701.3 Q 864.4 700.4 836.6 701.3 Q 839.4 679.5 837.1 661.6 Q 836.4 648.1 833.5 630.2 Q 837.4 608.6 837.2 592.7 Z" fill="#7A9A6A" fill-opacity="0.5" stroke="none"/><path d="M 830.3 560.6 Q 866.4 559.6 903.4 559.2 Q 935.6 560.8 969.1 560.2 Q 1004.7 559.5 1042.5 559.7 Q 1078.3 560.1 1111.1 561.1 Q 1110.2 577.6 1108.4 592.6 Q 1111.4 609.8 1113.4 628.5 Q 1112.1 647.2 1109.7 665.0 Q 1108.4 681.7 1108.0 701.4 Q 1077.1 700.4 1043.5 696.7 Q 1009.1 696.3 972.9 698.8 Q 937.9 698.9 899.7 701.8 Q 866.2 699.0 830.1 697.8 Q 832.2 682.6 833.4 668.1 Q 833.4 649.3 832.2 629.2 Q 831.0 611.9 831.8 597.7 Z" fill="none" stroke="#1F2933" stroke-width="3" stroke-linecap="round" stroke-linejoin="round"/><text x="970.0" y="639.5" font-family="'Segoe Print','Bradley Hand','Comic Sans MS',cursive" font-size="27" fill="#1F2933" text-anchor="middle" font-weight="bold" opacity="1.0">Installed</text></svg>
