<svg xmlns="http://www.w3.org/2000/svg" viewBox="0 0 1600 900" role="img" aria-labelledby="t d" preserveAspectRatio="xMidYMid meet"><title id="t">Troubleshooting triage</title><desc id="d">A problem fans out to five troubleshooting lanes: display, install, performance, permissions, and packages.</desc><rect x="0" y="0" width="1600" height="900" fill="#F7F1E6"/><line x1="197" y1="30" x2="204" y2="870" stroke="#8A8178" stroke-width="1" opacity="0.18"/><line x1="796" y1="30" x2="797" y2="870" stroke="#8A8178" stroke-width="1" opacity="0.18"/><line x1="1403" y1="30" x2="1404" y2="870" stroke="#8A8178" stroke-width="1" opacity="0.18"/><line x1="40" y1="150" x2="1560" y2="148" stroke="#8A8178" stroke-width="1" opacity="0.18"/><line x1="40" y1="456" x2="1560" y2="455" stroke="#8A8178" stroke-width="1" opacity="0.18"/><line x1="40" y1="751" x2="1560" y2="753" stroke="#8A8178" stroke-width="1" opacity="0.18"/><line x1="70" y1="20" x2="70" y2="880" stroke="#8A8178" stroke-width="1.6" opacity="0.3"/><path d="M 30 40 L 50 40 M 40 30 L 40 50" stroke="#8A8178" stroke-width="1.3" opacity="0.4"/><path d="M 1550 40 L 1570 40 M 1560 30 L 1560 50" stroke="#8A8178" stroke-width="1.3" opacity="0.4"/><path d="M 30 860 L 50 860 M 40 850 L 40 870" stroke="#8A8178" stroke-width="1.3" opacity="0.4"/><path d="M 1550 860 L 1570 860 M 1560 850 L 1560 870" stroke="#8A8178" stroke-width="1.3" opacity="0.4"/><text x="800.0" y="84.0" font-family="'Segoe Print','Bradley Hand','Comic Sans MS',cursive" font-size="42" fill="#1F2933" text-anchor="middle" font-weight="bold" opacity="1.0">Where is the problem?</text><path d="M 569 101 Q 800 108 1031 100" stroke="#1F2933" stroke-width="2.5" fill="none" opacity="0.75"/><rect x="624.7" y="185.3" width="360" height="150" fill="none" stroke="#8A8178" stroke-width="1.4" opacity="0.55" stroke-dasharray="7 5"/><path d="M 620.5 195.1 Q 669.0 190.9 716.8 187.2 Q 757.1 191.6 795.9 196.2 Q 844.0 195.2 887.6 192.9 Q 933.1 196.1 982.0 195.9 Q 983.8 215.6 981.8 233.1 Q 979.1 245.4 972.2 261.5 Q 973.2 286.9 976.1 307.1 Q 977.1 322.7 972.7 332.7 Q 929.9 335.9 883.8 341.7 Q 840.6 345.0 801.9 343.3 Q 757.4 340.7 714.2 339.8 Q 668.0 337.6 617.6 336.8 Q 620.5 320.6 627.2 306.0 Q 625.6 281.7 619.2 260.7 Q 618.6 242.3 616.1 227.6 Z" fill="#B85C5C" fill-opacity="0.5" stroke="none"/><path d="M 622.7 190.0 Q 666.7 190.3 710.8 193.0 Q 754.8 192.3 800.2 192.2 Q 845.8 189.2 892.6 189.6 Q 934.2 190.6 978.6 190.3 Q 978.7 209.0 976.9 225.4 Q 977.2 242.8 980.6 262.5 Q 979.6 283.3 978.5 301.3 Q 978.8 320.7 976.7 337.3 Q 934.1 339.3 890.7 340.5 Q 846.7 339.4 800.3 337.7 Q 756.4 340.5 711.7 343.1 Q 666.5 339.8 618.1 337.0 Q 617.7 321.7 617.3 304.6 Q 618.3 281.7 622.4 261.7 Q 619.8 244.6 620.3 226.2 Z" fill="none" stroke="#1F2933" stroke-width="3" stroke-linecap="round" stroke-linejoin="round"/><text x="800.0" y="257.0" font-family="'Segoe Print','Bradley Hand','Comic Sans MS',cursive" font-size="32" fill="#1F2933" text-anchor="middle" font-weight="bold" opacity="1.0">Something's wrong</text><text x="800.0" y="291.0" font-family="'Segoe Print','Bradley Hand','Comic Sans MS',cursive" font-size="24" fill="#4B5563" text-anchor="middle" font-weight="normal" opacity="1.0">start here</text><rect x="122.7" y="557.6" width="260" height="140" fill="none" stroke="#8A8178" stroke-width="1.4" opacity="0.55" stroke-dasharray="7 5"/><path d="M 121.1 567.8 Q 155.7 565.1 190.2 564.4 Q 223.5 567.3 252.8 565.3 Q 287.0 566.3 319.3 562.4 Q 343.6 559.7 372.9 561.3 Q 376.1 576.8 377.7 590.1 Q 376.6 614.0 377.6 632.4 Q 378.5 644.1 381.3 660.5 Q 383.7 683.7 381.9 702.0 Q 349.3 701.0 312.5 699.2 Q 278.7 701.6 244.1 703.9 Q 216.4 705.6 184.6 702.9 Q 152.4 699.6 119.2 692.8 Q 120.0 677.0 118.8 664.0 Q 122.3 648.8 121.2 627.7 Q 125.1 610.9 127.9 595.7 Z" fill="#5A9A9A" fill-opacity="0.5" stroke="none"/><path d="M 119.5 560.0 Q 150.6 560.8 185.0 560.6 Q 216.8 560.9 248.7 558.4 Q 280.2 559.8 312.5 562.8 Q 346.2 561.8 377.2 561.4 Q 379.5 577.3 381.3 595.6 Q 381.5 612.9 382.6 627.7 Q 379.4 646.6 377.1 665.1 Q 376.2 684.4 378.9 701.6 Q 347.0 702.0 316.6 702.2 Q 284.2 700.4 253.1 699.5 Q 219.1 697.7 185.7 699.3 Q 154.5 700.7 120.6 702.7 Q 121.1 684.8 118.2 663.9 Q 119.6 647.9 123.1 633.5 Q 121.0 613.0 120.0 595.4 Z" fill="none" stroke="#1F2933" stroke-width="3" stroke-linecap="round" stroke-linejoin="round"/><text x="250.0" y="640.1" font-family="'Segoe Print','Bradley Hand','Comic Sans MS',cursive" font-size="29" fill="#1F2933" text-anchor="middle" font-weight="bold" opacity="1.0">Display</text><path d="M 800.0 345.0 Q 546.4 516.9 250.0 555.0" fill="none" stroke="#64748B" stroke-width="3.5" stroke-linecap="round"/><path d="M 250.0 555.0 L 270.3 562.9" stroke="#64748B" stroke-width="3.5" stroke-linecap="round" fill="none"/><path d="M 250.0 555.0 L 267.4 541.5" stroke="#64748B" stroke-width="3.5" stroke-linecap="round" fill="none"/><rect x="421.9" y="559.1" width="260" height="140" fill="none" stroke="#8A8178" stroke-width="1.4" opacity="0.55" stroke-dasharray="7 5"/><path d="M 417.8 563.4 Q 454.0 565.0 486.7 561.5 Q 517.8 565.5 547.7 565.8 Q 578.3 566.7 610.4 567.3 Q 643.5 562.3 675.4 558.1 Q 678.9 578.5 682.7 601.7 Q 679.6 614.0 676.1 626.7 Q 681.1 641.4 683.9 661.4 Q 681.4 677.9 676.8 698.6 Q 644.5 697.3 608.5 694.1 Q 581.1 694.9 555.5 701.2 Q 524.3 697.6 490.8 698.4 Q 456.9 698.9 417.9 699.1 Q 422.9 682.0 424.8 659.3 Q 428.4 644.8 426.1 635.9 Q 427.0 617.2 423.6 597.1 Z" fill="#3E5C76" fill-opacity="0.5" stroke="none"/><path d="M 418.7 557.5 Q 452.0 561.3 484.0 562.6 Q 517.1 558.3 547.3 556.9 Q 581.8 558.3 614.7 559.8 Q 644.8 559.1 677.9 558.1 Q 679.7 577.1 678.4 597.2 Q 676.9 611.6 678.6 629.2 Q 678.8 649.0 681.9 666.9 Q 681.0 682.8 676.9 700.5 Q 646.5 699.6 616.4 697.0 Q 584.4 700.4 550.6 701.5 Q 515.5 700.1 483.4 701.1 Q 452.4 700.9 421.8 698.1 Q 418.6 681.3 416.7 665.5 Q 420.0 645.8 421.0 627.7 Q 422.0 610.1 420.6 592.2 Z" fill="none" stroke="#1F2933" stroke-width="3" stroke-linecap="round" stroke-linejoin="round"/><text x="550.0" y="640.1" font-family="'Segoe Print','Bradley Hand','Comic Sans MS',cursive" font-size="29" fill="#1F2933" text-anchor="middle" font-weight="bold" opacity="1.0">Install</text><path d="M 800.0 345.0 Q 650.8 419.1 550.0 555.0" fill="none" stroke="#64748B" stroke-width="3.5" stroke-linecap="round"/><path d="M 550.0 555.0 L 570.8 546.4" stroke="#64748B" stroke-width="3.5" stroke-linecap="round" fill="none"/><path d="M 550.0 555.0 L 554.6 534.6" stroke="#64748B" stroke-width="3.5" stroke-linecap="round" fill="none"/><rect x="718.0" y="555.2" width="260" height="140" fill="none" stroke="#8A8178" stroke-width="1.4" opacity="0.55" stroke-dasharray="7 5"/><path d="M 718.5 561.1 Q 748.7 565.1 782.3 565.2 Q 814.8 563.6 849.3 565.4 Q 880.3 558.5 916.8 556.8 Q 944.7 559.2 976.2 563.2 Q 976.4 576.2 982.5 590.1 Q 980.0 611.2 982.5 632.5 Q 982.5 646.6 980.0 663.6 Q 978.8 681.9 982.1 698.4 Q 948.5 698.4 915.6 698.5 Q 884.3 701.7 849.4 700.6 Q 813.1 695.8 781.5 694.6 Q 750.7 694.0 718.8 694.7 Q 718.6 684.4 720.4 668.1 Q 725.8 650.2 726.8 627.9 Q 725.0 613.6 718.4 602.0 Z" fill="#D6A94A" fill-opacity="0.5" stroke="none"/><path d="M 721.6 558.7 Q 753.1 559.4 783.5 562.0 Q 814.9 560.5 849.3 560.8 Q 880.3 562.5 913.2 563.3 Q 946.2 559.9 979.7 558.8 Q 979.1 579.1 978.3 598.1 Q 979.1 613.5 982.2 626.7 Q 981.8 646.5 981.7 668.5 Q 982.8 684.3 981.3 700.0 Q 946.6 700.0 913.3 697.7 Q 883.7 700.8 852.8 702.3 Q 820.6 701.7 786.5 700.4 Q 752.8 700.8 721.6 700.3 Q 718.8 682.1 717.2 664.6 Q 717.9 646.8 721.1 630.6 Q 719.3 613.5 720.8 594.1 Z" fill="none" stroke="#1F2933" stroke-width="3" stroke-linecap="round" stroke-linejoin="round"/><text x="850.0" y="640.1" font-family="'Segoe Print','Bradley Hand','Comic Sans MS',cursive" font-size="29" fill="#1F2933" text-anchor="middle" font-weight="bold" opacity="1.0">Performance</text><path d="M 800.0 345.0 Q 796.2 454.7 850.0 555.0" fill="none" stroke="#64748B" stroke-width="3.5" stroke-linecap="round"/><path d="M 850.0 555.0 L 849.1 532.3" stroke="#64748B" stroke-width="3.5" stroke-linecap="round" fill="none"/><path d="M 850.0 555.0 L 830.1 544.3" stroke="#64748B" stroke-width="3.5" stroke-linecap="round" fill="none"/><rect x="1019.0" y="557.1" width="260" height="140" fill="none" stroke="#8A8178" stroke-width="1.4" opacity="0.55" stroke-dasharray="7 5"/><path d="M 1018.5 558.8 Q 1051.7 565.4 1086.7 566.1 Q 1117.2 563.5 1146.7 558.5 Q 1181.6 565.1 1215.1 566.9 Q 1241.6 564.1 1273.8 566.9 Q 1276.1 580.6 1280.7 597.0 Q 1277.8 610.1 1280.0 627.6 Q 1276.4 646.2 1274.5 666.9 Q 1275.9 680.9 1275.3 694.8 Q 1241.5 695.6 1210.2 701.3 Q 1182.5 703.1 1150.3 699.6 Q 1117.5 698.2 1082.1 698.8 Q 1048.6 699.8 1016.0 695.5 Q 1021.1 677.5 1023.3 658.4 Q 1023.9 644.7 1024.1 626.5 Q 1024.8 611.6 1023.5 600.2 Z" fill="#D8C3A5" fill-opacity="0.5" stroke="none"/><path d="M 1020.9 560.6 Q 1055.8 560.7 1087.8 562.2 Q 1119.5 560.7 1149.2 561.2 Q 1184.5 560.3 1217.1 556.9 Q 1250.7 559.6 1281.6 562.0 Q 1280.3 578.4 1276.7 592.3 Q 1278.6 610.6 1278.5 632.0 Q 1277.9 650.5 1279.6 668.5 Q 1278.6 683.3 1280.0 698.2 Q 1247.3 696.5 1212.7 697.7 Q 1182.9 699.3 1152.3 700.6 Q 1117.4 698.2 1083.8 697.6 Q 1050.7 698.1 1018.8 701.8 Q 1020.1 684.5 1020.6 667.9 Q 1020.7 650.9 1020.5 631.0 Q 1020.2 612.7 1020.5 592.6 Z" fill="none" stroke="#1F2933" stroke-width="3" stroke-linecap="round" stroke-linejoin="round"/><text x="1150.0" y="640.1" font-family="'Segoe Print','Bradley Hand','Comic Sans MS',cursive" font-size="29" fill="#1F2933" text-anchor="middle" font-weight="bold" opacity="1.0">Permissions</text><path d="M 800.0 345.0 Q 1003.8 412.0 1150.0 555.0" fill="none" stroke="#64748B" stroke-width="3.5" stroke-linecap="round"/><path d="M 1150.0 555.0 L 1141.8 532.8" stroke="#64748B" stroke-width="3.5" stroke-linecap="round" fill="none"/><path d="M 1150.0 555.0 L 1127.3 548.8" stroke="#64748B" stroke-width="3.5" stroke-linecap="round" fill="none"/><rect x="1321.5" y="558.3" width="260" height="140" fill="none" stroke="#8A8178" stroke-width="1.4" opacity="0.55" stroke-dasharray="7 5"/><path d="M 1316.2 566.2 Q 1352.2 559.9 1385.1 556.7 Q 1420.7 556.5 1450.9 561.6 Q 1486.6 559.5 1518.0 559.4 Q 1548.4 560.5 1582.2 563.5 Q 1579.4 579.4 1576.4 592.0 Q 1575.4 611.8 1576.7 630.4 Q 1576.0 646.8 1577.9 669.0 Q 1576.9 681.7 1576.4 697.6 Q 1542.9 699.1 1508.6 703.7 Q 1476.3 699.5 1447.4 700.8 Q 1414.0 700.7 1381.3 697.0 Q 1349.2 700.3 1320.5 703.1 Q 1319.3 687.4 1320.3 668.4 Q 1321.5 648.3 1317.2 625.0 Q 1323.0 609.6 1323.0 595.5 Z" fill="#8A936D" fill-opacity="0.5" stroke="none"/><path d="M 1321.8 558.4 Q 1354.0 561.2 1384.0 562.5 Q 1418.4 558.4 1449.4 556.6 Q 1483.0 559.7 1517.0 560.1 Q 1547.2 561.3 1577.3 560.0 Q 1577.0 577.4 1579.3 597.9 Q 1581.4 613.6 1581.1 628.4 Q 1580.4 646.5 1582.5 667.4 Q 1582.2 683.2 1580.2 696.7 Q 1550.5 698.2 1517.4 701.0 Q 1484.8 701.1 1452.0 702.0 Q 1416.0 703.1 1382.7 700.6 Q 1353.6 700.6 1321.1 702.5 Q 1321.3 684.2 1319.4 667.1 Q 1319.9 646.8 1318.4 626.9 Q 1316.5 612.5 1318.1 598.5 Z" fill="none" stroke="#1F2933" stroke-width="3" stroke-linecap="round" stroke-linejoin="round"/><text x="1450.0" y="640.1" font-family="'Segoe Print','Bradley Hand','Comic Sans MS',cursive" font-size="29" fill="#1F2933" text-anchor="middle" font-weight="bold" opacity="1.0">Packages</text><path d="M 800.0 345.0 Q 1146.8 374.2 1450.0 555.0" fill="none" stroke="#64748B" stroke-width="3.5" stroke-linecap="round"/><path d="M 1450.0 555.0 L 1440.4 536.5" stroke="#64748B" stroke-width="3.5" stroke-linecap="round" fill="none"/><path d="M 1450.0 555.0 L 1426.2 553.6" stroke="#64748B" stroke-width="3.5" stroke-linecap="round" fill="none"/><text x="800.0" y="800.0" font-family="'Segoe Print','Bradley Hand','Comic Sans MS',cursive" font-size="27" fill="#4B5563" text-anchor="middle" font-weight="normal" opacity="1.0">match the symptom to a lane, then follow that guide</text></svg>
