<svg xmlns="http://www.w3.org/2000/svg" viewBox="0 0 1600 900" role="img" aria-labelledby="t d" preserveAspectRatio="xMidYMid meet"><title id="t">Bluetooth input flow</title><desc id="d">A keyboard and mouse combo connects over Bluetooth to the phone, and input flows into the Linux desktop session.</desc><rect x="0" y="0" width="1600" height="900" fill="#F7F1E6"/><line x1="197" y1="30" x2="201" y2="870" stroke="#8A8178" stroke-width="1" opacity="0.18"/><line x1="802" y1="30" x2="802" y2="870" stroke="#8A8178" stroke-width="1" opacity="0.18"/><line x1="1395" y1="30" x2="1396" y2="870" stroke="#8A8178" stroke-width="1" opacity="0.18"/><line x1="40" y1="145" x2="1560" y2="155" stroke="#8A8178" stroke-width="1" opacity="0.18"/><line x1="40" y1="446" x2="1560" y2="450" stroke="#8A8178" stroke-width="1" opacity="0.18"/><line x1="40" y1="746" x2="1560" y2="746" stroke="#8A8178" stroke-width="1" opacity="0.18"/><line x1="70" y1="20" x2="70" y2="880" stroke="#8A8178" stroke-width="1.6" opacity="0.3"/><path d="M 30 40 L 50 40 M 40 30 L 40 50" stroke="#8A8178" stroke-width="1.3" opacity="0.4"/><path d="M 1550 40 L 1570 40 M 1560 30 L 1560 50" stroke="#8A8178" stroke-width="1.3" opacity="0.4"/><path d="M 30 860 L 50 860 M 40 850 L 40 870" stroke="#8A8178" stroke-width="1.3" opacity="0.4"/><path d="M 1550 860 L 1570 860 M 1560 850 L 1560 870" stroke="#8A8178" stroke-width="1.3" opacity="0.4"/><text x="800.0" y="84.0" font-family="'Segoe Print','Bradley Hand','Comic Sans MS',cursive" font-size="42" fill="#1F2933" text-anchor="middle" font-weight="bold" opacity="1.0">Wireless input</text><path d="M 646 103 Q 800 107 954 98" stroke="#1F2933" stroke-width="2.5" fill="none" opacity="0.75"/><rect x="147.0" y="379.0" width="210" height="64" fill="none" stroke="#8A8178" stroke-width="1.4" opacity="0.55" stroke-dasharray="7 5"/><path d="M 146.1 377.3 Q 170.7 381.9 198.7 383.4 Q 228.6 380.2 260.4 378.0 Q 283.0 382.9 303.2 383.9 Q 332.3 379.9 357.6 376.1 Q 354.4 388.5 354.6 402.7 Q 353.1 405.1 356.2 412.1 Q 360.0 417.8 359.7 421.5 Q 356.1 428.8 353.1 440.1 Q 331.2 438.3 305.8 440.0 Q 277.8 442.0 251.1 446.9 Q 225.4 443.9 202.5 443.0 Q 173.2 439.9 148.1 440.2 Q 155.2 434.2 157.1 424.7 Q 151.3 418.8 147.1 407.6 Q 152.4 401.5 157.5 396.1 Z" fill="#D0D4D6" fill-opacity="0.55" stroke="none"/><path d="M 148.8 377.4 Q 176.2 381.1 205.3 383.0 Q 228.7 382.4 254.5 379.2 Q 279.2 378.5 304.8 381.0 Q 330.8 379.8 359.5 378.8 Q 361.6 389.3 361.7 399.1 Q 361.0 407.3 360.2 413.1 Q 360.2 422.6 361.8 428.6 Q 360.9 438.2 360.2 446.1 Q 335.5 447.0 308.0 444.9 Q 283.1 443.5 258.1 443.4 Q 228.2 442.3 200.6 443.5 Q 174.4 443.1 149.4 445.6 Q 152.1 436.6 151.8 427.2 Q 150.5 418.0 148.4 409.0 Q 149.6 402.9 149.2 396.2 Z" fill="none" stroke="#1F2933" stroke-width="3" stroke-linecap="round" stroke-linejoin="round"/><rect x="166" y="392" width="20" height="14" rx="3" fill="none" stroke="#4B5563" stroke-width="1.4" opacity="0.8"/><rect x="196" y="392" width="20" height="14" rx="3" fill="none" stroke="#4B5563" stroke-width="1.4" opacity="0.8"/><rect x="226" y="392" width="20" height="14" rx="3" fill="none" stroke="#4B5563" stroke-width="1.4" opacity="0.8"/><rect x="256" y="392" width="20" height="14" rx="3" fill="none" stroke="#4B5563" stroke-width="1.4" opacity="0.8"/><rect x="286" y="392" width="20" height="14" rx="3" fill="none" stroke="#4B5563" stroke-width="1.4" opacity="0.8"/><rect x="316" y="392" width="20" height="14" rx="3" fill="none" stroke="#4B5563" stroke-width="1.4" opacity="0.8"/><rect x="166" y="414" width="20" height="14" rx="3" fill="none" stroke="#4B5563" stroke-width="1.4" opacity="0.8"/><rect x="196" y="414" width="20" height="14" rx="3" fill="none" stroke="#4B5563" stroke-width="1.4" opacity="0.8"/><rect x="226" y="414" width="20" height="14" rx="3" fill="none" stroke="#4B5563" stroke-width="1.4" opacity="0.8"/><rect x="256" y="414" width="20" height="14" rx="3" fill="none" stroke="#4B5563" stroke-width="1.4" opacity="0.8"/><rect x="286" y="414" width="20" height="14" rx="3" fill="none" stroke="#4B5563" stroke-width="1.4" opacity="0.8"/><rect x="316" y="414" width="20" height="14" rx="3" fill="none" stroke="#4B5563" stroke-width="1.4" opacity="0.8"/><ellipse cx="398" cy="416.0" rx="20" ry="28" fill="#D0D4D6" fill-opacity="0.55" stroke="#1F2933" stroke-width="2.5"/><line x1="398" y1="392.0" x2="398" y2="410.0" stroke="#1F2933" stroke-width="1.6"/><text x="285.0" y="478.0" font-family="'Segoe Print','Bradley Hand','Comic Sans MS',cursive" font-size="26" fill="#1F2933" text-anchor="middle" font-weight="normal" opacity="1.0">Keyboard + mouse</text><path d="M 560 410.0 q 40 20.0 0 40" fill="none" stroke="#5AB8FF" stroke-width="3.5" stroke-linecap="round" opacity="0.9"/><path d="M 568 395.0 q 70 35.0 0 70" fill="none" stroke="#5AB8FF" stroke-width="3.5" stroke-linecap="round" opacity="0.65"/><path d="M 576 380.0 q 100 50.0 0 100" fill="none" stroke="#5AB8FF" stroke-width="3.5" stroke-linecap="round" opacity="0.4"/><text x="600.0" y="560.0" font-family="'Segoe Print','Bradley Hand','Comic Sans MS',cursive" font-size="26" fill="#5AB8FF" text-anchor="middle" font-weight="normal" opacity="1.0">Bluetooth</text><rect x="761.4" y="302.1" width="120" height="210" fill="none" stroke="#8A8178" stroke-width="1.4" opacity="0.55" stroke-dasharray="7 5"/><path d="M 757.5 299.4 Q 773.7 301.5 787.2 305.2 Q 801.3 306.3 814.2 307.7 Q 832.9 304.3 853.7 305.8 Q 864.6 301.5 876.1 299.2 Q 880.8 324.7 880.3 353.2 Q 876.7 381.4 876.7 406.8 Q 874.7 431.2 877.1 456.2 Q 876.9 480.2 877.0 503.3 Q 864.6 505.5 850.4 512.9 Q 837.9 509.4 820.6 509.0 Q 807.3 510.3 788.8 509.0 Q 771.4 508.5 756.3 505.7 Q 756.3 486.3 759.4 461.3 Q 762.6 431.6 767.8 407.2 Q 768.2 382.0 764.2 357.4 Z" fill="#D0D4D6" fill-opacity="0.6" stroke="none"/><path d="M 760.7 297.8 Q 775.0 300.1 786.8 301.3 Q 802.6 299.6 818.2 297.7 Q 832.0 299.4 848.3 297.8 Q 863.8 298.4 880.3 300.2 Q 880.5 324.8 878.5 351.6 Q 879.5 380.7 878.2 407.8 Q 880.9 435.6 882.6 460.7 Q 880.9 487.5 880.5 512.6 Q 867.9 510.5 852.9 508.3 Q 835.9 507.4 818.4 507.1 Q 804.2 510.2 786.5 509.9 Q 774.4 510.2 762.8 513.0 Q 761.7 486.7 760.7 457.7 Q 757.7 428.6 756.6 401.7 Q 755.2 379.1 756.8 353.2 Z" fill="none" stroke="#1F2933" stroke-width="3" stroke-linecap="round" stroke-linejoin="round"/><path d="M 772.1 313.6 Q 784.2 315.0 795.4 315.8 Q 807.8 314.2 820.7 314.7 Q 834.0 314.0 845.8 315.2 Q 857.2 316.5 868.3 316.9 Q 870.6 336.0 870.4 353.6 Q 870.5 372.7 869.7 394.1 Q 868.3 413.4 869.2 434.8 Q 869.6 454.7 870.3 474.2 Q 857.2 472.5 842.3 473.2 Q 832.7 473.7 822.3 473.6 Q 809.1 472.6 795.9 472.8 Q 783.8 474.4 770.0 475.2 Q 771.2 455.1 771.8 436.8 Q 773.0 417.2 774.0 395.5 Q 774.9 375.4 774.0 356.7 Z" fill="#5AB8FF" fill-opacity="0.35" stroke="#1F2933" stroke-width="2"/><line x1="806.0" y1="490" x2="834.0" y2="491" stroke="#1F2933" stroke-width="3" stroke-linecap="round"/><text x="820.0" y="546.0" font-family="'Segoe Print','Bradley Hand','Comic Sans MS',cursive" font-size="26" fill="#1F2933" text-anchor="middle" font-weight="normal" opacity="1.0">Phone</text><path d="M 885.0 405.0 Q 984.4 425.8 1090.0 405.0" fill="none" stroke="#64748B" stroke-width="4" stroke-linecap="round"/><path d="M 1090.0 405.0 L 1069.6 399.7" stroke="#64748B" stroke-width="4" stroke-linecap="round" fill="none"/><path d="M 1090.0 405.0 L 1075.0 418.6" stroke="#64748B" stroke-width="4" stroke-linecap="round" fill="none"/><rect x="1096.3" y="324.9" width="360" height="180" fill="none" stroke="#8A8178" stroke-width="1.4" opacity="0.55" stroke-dasharray="7 5"/><path d="M 1105.7 325.7 Q 1149.2 325.4 1191.6 325.0 Q 1236.3 321.3 1279.0 317.5 Q 1328.1 322.6 1371.4 325.8 Q 1416.3 327.2 1462.6 324.6 Q 1459.9 344.2 1455.9 363.0 Q 1456.9 388.8 1456.8 409.0 Q 1455.7 431.1 1455.3 448.1 Q 1458.8 478.4 1461.1 502.6 Q 1417.0 500.8 1371.9 495.5 Q 1324.3 498.0 1278.9 495.1 Q 1238.7 499.7 1197.0 502.7 Q 1144.9 500.6 1097.6 496.4 Q 1100.1 476.5 1106.3 459.5 Q 1108.5 432.4 1105.2 405.7 Q 1105.3 388.1 1104.0 370.2 Z" fill="#5A9A9A" fill-opacity="0.5" stroke="none"/><path d="M 1099.9 318.3 Q 1144.6 320.7 1187.8 319.7 Q 1233.6 321.9 1282.5 323.0 Q 1325.1 322.2 1371.2 323.2 Q 1413.7 320.1 1456.6 319.9 Q 1459.3 345.8 1458.6 368.2 Q 1459.8 387.6 1463.0 407.6 Q 1460.7 433.0 1457.5 455.4 Q 1459.8 477.5 1462.0 500.1 Q 1416.6 497.6 1368.8 496.7 Q 1323.4 499.0 1279.5 499.8 Q 1234.9 499.2 1192.8 502.0 Q 1146.1 501.8 1101.3 501.4 Q 1100.9 476.9 1097.8 454.2 Q 1100.3 431.6 1101.2 411.8 Q 1100.7 390.4 1103.2 367.3 Z" fill="none" stroke="#1F2933" stroke-width="3" stroke-linecap="round" stroke-linejoin="round"/><text x="1280.0" y="402.0" font-family="'Segoe Print','Bradley Hand','Comic Sans MS',cursive" font-size="29" fill="#1F2933" text-anchor="middle" font-weight="bold" opacity="1.0">Desktop session</text><text x="1280.0" y="436.0" font-family="'Segoe Print','Bradley Hand','Comic Sans MS',cursive" font-size="21" fill="#4B5563" text-anchor="middle" font-weight="normal" opacity="1.0">keys + clicks arrive in XFCE</text></svg>
