<svg xmlns="http://www.w3.org/2000/svg" viewBox="0 0 1600 900" role="img" aria-labelledby="t d" preserveAspectRatio="xMidYMid meet"><title id="t">USB-C workstation workflow</title><desc id="d">A phone connects through a USB-C dock to a monitor, keyboard and mouse, and external SSD, with power delivered into the dock.</desc><rect x="0" y="0" width="1600" height="900" fill="#F7F1E6"/><line x1="205" y1="30" x2="202" y2="870" stroke="#8A8178" stroke-width="1" opacity="0.18"/><line x1="795" y1="30" x2="804" y2="870" stroke="#8A8178" stroke-width="1" opacity="0.18"/><line x1="1396" y1="30" x2="1399" y2="870" stroke="#8A8178" stroke-width="1" opacity="0.18"/><line x1="40" y1="146" x2="1560" y2="152" stroke="#8A8178" stroke-width="1" opacity="0.18"/><line x1="40" y1="451" x2="1560" y2="445" stroke="#8A8178" stroke-width="1" opacity="0.18"/><line x1="40" y1="749" x2="1560" y2="754" stroke="#8A8178" stroke-width="1" opacity="0.18"/><line x1="70" y1="20" x2="70" y2="880" stroke="#8A8178" stroke-width="1.6" opacity="0.3"/><path d="M 30 40 L 50 40 M 40 30 L 40 50" stroke="#8A8178" stroke-width="1.3" opacity="0.4"/><path d="M 1550 40 L 1570 40 M 1560 30 L 1560 50" stroke="#8A8178" stroke-width="1.3" opacity="0.4"/><path d="M 30 860 L 50 860 M 40 850 L 40 870" stroke="#8A8178" stroke-width="1.3" opacity="0.4"/><path d="M 1550 860 L 1570 860 M 1560 850 L 1560 870" stroke="#8A8178" stroke-width="1.3" opacity="0.4"/><text x="800.0" y="84.0" font-family="'Segoe Print','Bradley Hand','Comic Sans MS',cursive" font-size="42" fill="#1F2933" text-anchor="middle" font-weight="bold" opacity="1.0">One cable, whole desk</text><path d="M 569 105 Q 800 110 1031 101" stroke="#1F2933" stroke-width="2.5" fill="none" opacity="0.75"/><rect x="165.7" y="325.0" width="120" height="210" fill="none" stroke="#8A8178" stroke-width="1.4" opacity="0.55" stroke-dasharray="7 5"/><path d="M 172.1 337.0 Q 183.9 336.5 201.2 330.1 Q 216.6 329.5 228.3 332.3 Q 247.1 334.2 263.6 337.1 Q 278.5 338.2 289.7 334.3 Q 290.0 357.7 286.9 377.6 Q 286.4 407.0 287.6 437.9 Q 287.7 458.2 283.0 482.7 Q 283.1 512.1 288.9 542.1 Q 274.6 541.4 263.0 537.2 Q 246.8 540.1 229.7 542.9 Q 214.6 538.6 201.8 532.3 Q 188.0 535.9 170.3 542.4 Q 172.2 513.9 169.3 482.5 Q 168.8 455.5 169.1 433.6 Q 165.9 408.1 167.4 377.8 Z" fill="#D0D4D6" fill-opacity="0.6" stroke="none"/><path d="M 170.0 332.4 Q 186.3 333.1 202.5 333.5 Q 216.2 333.8 233.3 330.8 Q 246.3 332.0 262.8 331.4 Q 279.6 332.1 293.4 330.6 Q 293.5 354.3 292.2 381.1 Q 290.7 407.1 292.0 435.7 Q 293.2 459.8 292.5 484.3 Q 293.5 509.8 292.6 538.6 Q 274.1 538.6 258.5 538.7 Q 246.2 541.5 231.7 542.8 Q 215.9 542.9 200.7 541.5 Q 184.6 542.8 166.7 541.3 Q 168.8 515.6 170.8 488.1 Q 171.6 462.0 172.0 435.6 Q 170.8 407.4 169.5 382.2 Z" fill="none" stroke="#1F2933" stroke-width="3" stroke-linecap="round" stroke-linejoin="round"/><path d="M 181.7 346.9 Q 193.1 346.6 204.1 347.4 Q 218.5 344.6 231.5 343.9 Q 241.6 343.6 252.9 345.8 Q 265.2 346.8 278.5 345.8 Q 277.0 366.0 277.8 387.6 Q 278.9 406.2 277.9 422.6 Q 279.5 443.3 279.2 464.5 Q 277.1 485.7 276.2 505.9 Q 265.1 506.8 255.0 505.6 Q 242.9 505.0 229.5 502.2 Q 217.5 503.1 206.8 505.6 Q 192.7 505.5 179.9 503.6 Q 179.9 484.2 182.0 462.4 Q 182.1 443.5 182.1 423.3 Q 181.5 403.9 181.4 383.6 Z" fill="#5AB8FF" fill-opacity="0.35" stroke="#1F2933" stroke-width="2"/><line x1="216.0" y1="520" x2="244.0" y2="521" stroke="#1F2933" stroke-width="3" stroke-linecap="round"/><text x="230.0" y="576.0" font-family="'Segoe Print','Bradley Hand','Comic Sans MS',cursive" font-size="26" fill="#1F2933" text-anchor="middle" font-weight="normal" opacity="1.0">Phone</text><rect x="621.5" y="397.5" width="190" height="70" fill="none" stroke="#8A8178" stroke-width="1.4" opacity="0.55" stroke-dasharray="7 5"/><path d="M 624.6 405.7 Q 648.9 404.2 668.4 397.4 Q 687.7 398.3 712.8 402.4 Q 740.8 400.8 763.1 401.9 Q 784.4 397.9 806.8 399.3 Q 808.8 408.1 806.8 422.6 Q 805.0 429.1 806.0 431.4 Q 810.3 445.0 810.5 454.2 Q 808.0 457.7 808.4 467.1 Q 784.5 468.1 757.7 470.1 Q 738.4 469.2 716.7 462.5 Q 692.3 468.8 671.0 473.8 Q 651.5 472.0 627.9 474.0 Q 623.7 465.1 624.6 454.9 Q 627.8 442.7 626.1 433.7 Q 624.5 425.0 624.0 419.7 Z" fill="#B8C0C2" fill-opacity="0.55" stroke="none"/><path d="M 620.5 400.6 Q 643.7 402.1 664.6 400.3 Q 688.0 401.6 712.4 401.4 Q 737.3 401.4 762.4 398.5 Q 785.2 400.4 807.0 401.6 Q 808.4 409.6 810.5 420.2 Q 810.3 428.2 809.4 435.1 Q 808.3 444.1 808.0 450.8 Q 810.3 460.6 811.9 467.6 Q 789.6 468.1 764.1 471.0 Q 738.0 470.5 711.6 469.3 Q 688.9 470.3 666.4 473.4 Q 640.9 471.9 618.5 469.0 Q 618.8 459.0 620.5 451.9 Q 619.8 442.7 622.4 436.4 Q 618.8 428.2 617.6 417.2 Z" fill="none" stroke="#1F2933" stroke-width="3" stroke-linecap="round" stroke-linejoin="round"/><rect x="642" y="428.0" width="24" height="14" rx="3" fill="none" stroke="#1F2933" stroke-width="2"/><rect x="682" y="428.0" width="24" height="14" rx="3" fill="none" stroke="#1F2933" stroke-width="2"/><rect x="722" y="428.0" width="24" height="14" rx="3" fill="none" stroke="#1F2933" stroke-width="2"/><text x="715.0" y="504.0" font-family="'Segoe Print','Bradley Hand','Comic Sans MS',cursive" font-size="26" fill="#1F2933" text-anchor="middle" font-weight="normal" opacity="1.0">USB-C dock</text><path d="M 295.0 435.0 Q 456.3 397.1 615.0 435.0" fill="none" stroke="#1E3A5F" stroke-width="4" stroke-linecap="round"/><path d="M 615.0 435.0 L 597.6 419.5" stroke="#1E3A5F" stroke-width="4" stroke-linecap="round" fill="none"/><path d="M 615.0 435.0 L 593.0 440.2" stroke="#1E3A5F" stroke-width="4" stroke-linecap="round" fill="none"/><text x="450.0" y="410.0" font-family="'Segoe Print','Bradley Hand','Comic Sans MS',cursive" font-size="26" fill="#1E3A5F" text-anchor="middle" font-weight="normal" opacity="1.0">USB-C</text><rect x="1077.4" y="126.3" width="340" height="230" fill="none" stroke="#8A8178" stroke-width="1.4" opacity="0.55" stroke-dasharray="7 5"/><path d="M 1084.7 126.4 Q 1125.7 126.5 1167.2 128.6 Q 1210.5 132.9 1248.5 136.0 Q 1287.0 135.0 1330.0 137.1 Q 1374.0 134.1 1417.2 135.9 Q 1413.3 162.4 1413.7 186.5 Q 1415.6 219.5 1420.4 246.7 Q 1421.6 271.3 1417.2 300.4 Q 1421.7 332.5 1421.6 360.3 Q 1378.9 363.4 1337.3 363.7 Q 1294.7 358.8 1250.1 359.8 Q 1206.5 360.8 1163.3 359.2 Q 1125.6 355.0 1082.1 356.7 Q 1082.1 326.8 1080.3 299.1 Q 1081.9 269.2 1080.3 239.4 Q 1081.4 216.2 1086.2 190.9 Z" fill="#B8C0C2" fill-opacity="0.45" stroke="none"/><path d="M 1081.7 128.6 Q 1125.2 126.5 1167.2 126.5 Q 1209.2 131.4 1251.6 133.0 Q 1294.4 130.5 1337.4 127.8 Q 1376.4 127.7 1418.8 127.7 Q 1418.5 157.9 1421.6 190.2 Q 1422.5 218.8 1422.9 247.5 Q 1421.0 273.2 1421.7 300.9 Q 1419.3 329.9 1419.3 357.0 Q 1375.0 355.6 1331.8 356.6 Q 1292.9 356.1 1251.4 357.9 Q 1208.4 361.6 1168.1 363.1 Q 1125.1 359.9 1079.6 358.3 Q 1081.0 331.4 1079.3 302.4 Q 1081.3 276.0 1081.5 246.3 Q 1080.0 219.3 1080.7 190.1 Z" fill="none" stroke="#1F2933" stroke-width="3" stroke-linecap="round" stroke-linejoin="round"/><path d="M 1091.6 141.0 Q 1131.9 143.6 1174.2 144.7 Q 1211.4 143.9 1250.6 145.0 Q 1290.9 144.8 1328.5 141.6 Q 1366.2 140.9 1405.2 142.6 Q 1404.5 167.3 1403.3 190.4 Q 1404.3 210.7 1407.4 232.4 Q 1407.4 255.9 1407.1 278.7 Q 1406.5 301.3 1403.5 324.2 Q 1367.2 324.4 1328.6 324.2 Q 1289.4 324.9 1250.9 323.2 Q 1212.0 322.4 1174.7 319.7 Q 1133.5 320.6 1093.0 321.4 Q 1096.1 300.5 1096.7 280.2 Q 1097.2 258.4 1096.8 234.8 Q 1094.7 212.1 1094.6 188.7 Z" fill="#5A9A9A" fill-opacity="0.30" stroke="#1F2933" stroke-width="2"/><rect x="1100" y="148" width="300" height="10" fill="#3E5C76" opacity="0.6"/><path d="M 1108.7 172.6 Q 1126.8 173.0 1144.2 171.6 Q 1161.6 172.3 1178.6 171.5 Q 1196.8 171.8 1216.5 170.5 Q 1232.0 171.7 1249.3 171.6 Q 1250.2 187.6 1250.8 203.2 Q 1249.5 216.7 1248.0 231.8 Q 1249.6 247.4 1251.9 261.7 Q 1251.2 276.4 1248.7 290.6 Q 1232.2 290.2 1215.0 290.1 Q 1197.6 291.8 1181.6 293.1 Q 1162.1 293.0 1144.5 291.0 Q 1128.8 292.4 1111.7 293.9 Q 1109.5 278.1 1108.1 261.6 Q 1107.9 244.9 1108.3 230.0 Q 1108.8 214.9 1109.8 201.3 Z" fill="#F7F1E6" stroke="#1F2933" stroke-width="1.6"/><path d="M 1258.4 189.3 Q 1271.1 188.7 1285.2 187.5 Q 1300.3 188.7 1315.1 189.9 Q 1329.1 189.3 1341.5 188.3 Q 1354.2 189.2 1365.2 189.3 Q 1367.4 201.5 1367.5 212.9 Q 1366.5 225.9 1364.8 239.0 Q 1365.0 250.5 1366.2 263.8 Q 1366.7 275.2 1367.6 286.1 Q 1353.6 286.7 1340.2 288.2 Q 1326.6 288.9 1312.1 288.1 Q 1298.9 288.4 1285.6 286.8 Q 1272.6 286.7 1261.5 286.8 Q 1262.4 273.0 1261.4 261.1 Q 1260.2 249.9 1259.9 237.3 Q 1258.6 224.2 1258.1 212.4 Z" fill="#F7F1E6" stroke="#1F2933" stroke-width="1.6"/><path d="M 1242.0 360 L 1246.0 390 M 1258.0 360 L 1255.0 390" stroke="#1F2933" stroke-width="3"/><line x1="1204.0" y1="392" x2="1296.0" y2="394" stroke="#1F2933" stroke-width="3.5" stroke-linecap="round"/><text x="1250.0" y="426.0" font-family="'Segoe Print','Bradley Hand','Comic Sans MS',cursive" font-size="26" fill="#1F2933" text-anchor="middle" font-weight="normal" opacity="1.0">Monitor</text><rect x="1094.4" y="469.0" width="210" height="64" fill="none" stroke="#8A8178" stroke-width="1.4" opacity="0.55" stroke-dasharray="7 5"/><path d="M 1088.4 467.6 Q 1118.8 473.2 1147.3 477.7 Q 1168.9 475.7 1196.2 470.5 Q 1220.5 472.4 1243.6 468.6 Q 1274.0 468.0 1302.1 468.4 Q 1297.0 480.7 1296.9 491.9 Q 1297.9 496.3 1293.5 497.6 Q 1293.6 509.1 1292.8 521.9 Q 1295.7 527.5 1299.3 531.9 Q 1272.4 536.4 1245.3 537.3 Q 1223.6 536.1 1198.9 531.4 Q 1171.9 531.9 1142.6 536.0 Q 1118.7 537.7 1091.0 534.1 Q 1090.3 525.5 1088.9 518.5 Q 1093.8 505.7 1093.3 498.5 Q 1092.0 492.8 1094.6 491.5 Z" fill="#D0D4D6" fill-opacity="0.55" stroke="none"/><path d="M 1088.2 470.9 Q 1116.0 470.4 1145.8 467.2 Q 1170.3 468.6 1194.2 472.5 Q 1219.6 471.0 1246.1 470.3 Q 1276.2 472.5 1303.1 471.5 Q 1302.0 478.3 1301.7 483.6 Q 1300.6 490.8 1299.5 499.0 Q 1300.8 508.7 1299.9 518.6 Q 1298.9 526.1 1299.0 531.8 Q 1274.2 532.8 1246.8 532.4 Q 1222.2 534.2 1194.6 536.3 Q 1166.3 535.4 1139.5 531.0 Q 1116.7 533.6 1093.0 536.6 Q 1089.2 527.2 1088.0 517.6 Q 1090.6 511.3 1092.8 505.2 Q 1092.1 494.9 1092.8 485.9 Z" fill="none" stroke="#1F2933" stroke-width="3" stroke-linecap="round" stroke-linejoin="round"/><rect x="1106" y="482" width="20" height="14" rx="3" fill="none" stroke="#4B5563" stroke-width="1.4" opacity="0.8"/><rect x="1136" y="482" width="20" height="14" rx="3" fill="none" stroke="#4B5563" stroke-width="1.4" opacity="0.8"/><rect x="1166" y="482" width="20" height="14" rx="3" fill="none" stroke="#4B5563" stroke-width="1.4" opacity="0.8"/><rect x="1196" y="482" width="20" height="14" rx="3" fill="none" stroke="#4B5563" stroke-width="1.4" opacity="0.8"/><rect x="1226" y="482" width="20" height="14" rx="3" fill="none" stroke="#4B5563" stroke-width="1.4" opacity="0.8"/><rect x="1256" y="482" width="20" height="14" rx="3" fill="none" stroke="#4B5563" stroke-width="1.4" opacity="0.8"/><rect x="1106" y="504" width="20" height="14" rx="3" fill="none" stroke="#4B5563" stroke-width="1.4" opacity="0.8"/><rect x="1136" y="504" width="20" height="14" rx="3" fill="none" stroke="#4B5563" stroke-width="1.4" opacity="0.8"/><rect x="1166" y="504" width="20" height="14" rx="3" fill="none" stroke="#4B5563" stroke-width="1.4" opacity="0.8"/><rect x="1196" y="504" width="20" height="14" rx="3" fill="none" stroke="#4B5563" stroke-width="1.4" opacity="0.8"/><rect x="1226" y="504" width="20" height="14" rx="3" fill="none" stroke="#4B5563" stroke-width="1.4" opacity="0.8"/><rect x="1256" y="504" width="20" height="14" rx="3" fill="none" stroke="#4B5563" stroke-width="1.4" opacity="0.8"/><ellipse cx="1338" cy="506.0" rx="20" ry="28" fill="#D0D4D6" fill-opacity="0.55" stroke="#1F2933" stroke-width="2.5"/><line x1="1338" y1="482.0" x2="1338" y2="500.0" stroke="#1F2933" stroke-width="1.6"/><text x="1225.0" y="568.0" font-family="'Segoe Print','Bradley Hand','Comic Sans MS',cursive" font-size="26" fill="#1F2933" text-anchor="middle" font-weight="normal" opacity="1.0">Keyboard + mouse</text><rect x="1128.0" y="661.4" width="130" height="76" fill="none" stroke="#8A8178" stroke-width="1.4" opacity="0.55" stroke-dasharray="7 5"/><path d="M 1126.1 656.5 Q 1145.9 655.5 1167.6 659.6 Q 1183.1 660.4 1193.1 659.4 Q 1211.0 660.6 1225.9 659.6 Q 1238.0 661.8 1256.0 667.6 Q 1256.6 677.0 1255.0 684.3 Q 1255.7 693.3 1259.7 703.8 Q 1257.6 708.9 1256.0 716.4 Q 1253.6 724.8 1253.3 729.5 Q 1239.2 732.3 1224.4 730.0 Q 1207.3 732.3 1191.0 731.6 Q 1174.2 731.4 1158.9 728.0 Q 1148.4 729.6 1136.3 733.3 Q 1130.2 722.1 1129.8 714.7 Q 1133.7 703.6 1132.2 692.1 Q 1134.6 684.5 1132.0 678.0 Z" fill="#4B5563" fill-opacity="0.35" stroke="none"/><path d="M 1128.6 658.2 Q 1146.7 661.4 1164.7 662.4 Q 1177.3 658.8 1193.2 656.9 Q 1213.4 657.7 1230.5 661.5 Q 1244.6 657.8 1257.2 656.6 Q 1258.8 666.4 1258.1 675.9 Q 1260.6 685.2 1263.1 694.9 Q 1263.0 706.3 1262.1 714.7 Q 1260.1 728.1 1258.8 738.8 Q 1246.0 738.3 1230.1 737.0 Q 1210.8 737.1 1192.0 734.2 Q 1176.7 737.9 1163.7 738.7 Q 1146.9 737.1 1131.9 738.6 Q 1130.5 727.4 1128.3 713.6 Q 1127.2 705.5 1128.4 696.6 Q 1131.8 688.4 1133.1 679.3 Z" fill="none" stroke="#1F2933" stroke-width="3" stroke-linecap="round" stroke-linejoin="round"/><text x="1195.0" y="707.0" font-family="'Segoe Print','Bradley Hand','Comic Sans MS',cursive" font-size="26" fill="#1F2933" text-anchor="middle" font-weight="bold" opacity="1.0">SSD</text><text x="1195.0" y="768.0" font-family="'Segoe Print','Bradley Hand','Comic Sans MS',cursive" font-size="24" fill="#1F2933" text-anchor="middle" font-weight="normal" opacity="1.0">External SSD</text><path d="M 815.0 405.0 Q 930.5 299.2 1075.0 260.0" fill="none" stroke="#64748B" stroke-width="3.5" stroke-linecap="round"/><path d="M 1075.0 260.0 L 1052.9 253.5" stroke="#64748B" stroke-width="3.5" stroke-linecap="round" fill="none"/><path d="M 1075.0 260.0 L 1060.1 275.8" stroke="#64748B" stroke-width="3.5" stroke-linecap="round" fill="none"/><path d="M 815.0 435.0 Q 956.2 440.2 1085.0 505.0" fill="none" stroke="#64748B" stroke-width="3.5" stroke-linecap="round"/><path d="M 1085.0 505.0 L 1074.0 486.0" stroke="#64748B" stroke-width="3.5" stroke-linecap="round" fill="none"/><path d="M 1085.0 505.0 L 1063.4 506.7" stroke="#64748B" stroke-width="3.5" stroke-linecap="round" fill="none"/><path d="M 815.0 465.0 Q 1000.0 540.2 1125.0 690.0" fill="none" stroke="#64748B" stroke-width="3.5" stroke-linecap="round"/><path d="M 1125.0 690.0 L 1120.8 666.9" stroke="#64748B" stroke-width="3.5" stroke-linecap="round" fill="none"/><path d="M 1125.0 690.0 L 1105.2 682.6" stroke="#64748B" stroke-width="3.5" stroke-linecap="round" fill="none"/><path d="M 620 640 l 19.599999999999998 -42.0 l -5.6 25.2 l 22.4 -5.6 l -36.4 47.599999999999994 l 8.399999999999999 -28.0 z" fill="#D6A94A" fill-opacity="0.75" stroke="#1F2933" stroke-width="2" stroke-linejoin="round"/><text x="560.0" y="700.0" font-family="'Segoe Print','Bradley Hand','Comic Sans MS',cursive" font-size="26" fill="#4B5563" text-anchor="middle" font-weight="normal" opacity="1.0">power in</text><path d="M 640.0 590.0 Q 663.7 539.5 660.0 478.0" fill="none" stroke="#D6A94A" stroke-width="4" stroke-linecap="round"/><path d="M 660.0 478.0 L 651.3 499.1" stroke="#D6A94A" stroke-width="4" stroke-linecap="round" fill="none"/><path d="M 660.0 478.0 L 671.4 494.6" stroke="#D6A94A" stroke-width="4" stroke-linecap="round" fill="none"/></svg>
