<svg xmlns="http://www.w3.org/2000/svg" viewBox="0 0 1600 900" role="img" aria-labelledby="t d" preserveAspectRatio="xMidYMid meet"><title id="t">Display output path</title><desc id="d">Video travels from the phone over USB-C DisplayPort Alt Mode into the dock, out over HDMI to the monitor, which shows desktop mode.</desc><rect x="0" y="0" width="1600" height="900" fill="#F7F1E6"/><line x1="200" y1="30" x2="201" y2="870" stroke="#8A8178" stroke-width="1" opacity="0.18"/><line x1="797" y1="30" x2="802" y2="870" stroke="#8A8178" stroke-width="1" opacity="0.18"/><line x1="1403" y1="30" x2="1399" y2="870" stroke="#8A8178" stroke-width="1" opacity="0.18"/><line x1="40" y1="155" x2="1560" y2="154" stroke="#8A8178" stroke-width="1" opacity="0.18"/><line x1="40" y1="451" x2="1560" y2="453" stroke="#8A8178" stroke-width="1" opacity="0.18"/><line x1="40" y1="744" x2="1560" y2="751" stroke="#8A8178" stroke-width="1" opacity="0.18"/><line x1="70" y1="20" x2="70" y2="880" stroke="#8A8178" stroke-width="1.6" opacity="0.3"/><path d="M 30 40 L 50 40 M 40 30 L 40 50" stroke="#8A8178" stroke-width="1.3" opacity="0.4"/><path d="M 1550 40 L 1570 40 M 1560 30 L 1560 50" stroke="#8A8178" stroke-width="1.3" opacity="0.4"/><path d="M 30 860 L 50 860 M 40 850 L 40 870" stroke="#8A8178" stroke-width="1.3" opacity="0.4"/><path d="M 1550 860 L 1570 860 M 1560 850 L 1560 870" stroke="#8A8178" stroke-width="1.3" opacity="0.4"/><text x="800.0" y="84.0" font-family="'Segoe Print','Bradley Hand','Comic Sans MS',cursive" font-size="42" fill="#1F2933" text-anchor="middle" font-weight="bold" opacity="1.0">How video reaches the monitor</text><path d="M 481 100 Q 800 106 1119 102" stroke="#1F2933" stroke-width="2.5" fill="none" opacity="0.75"/><rect x="135.5" y="325.0" width="120" height="210" fill="none" stroke="#8A8178" stroke-width="1.4" opacity="0.55" stroke-dasharray="7 5"/><path d="M 137.1 326.5 Q 152.9 329.0 173.0 327.6 Q 189.4 322.5 200.8 318.9 Q 213.0 324.6 227.8 327.0 Q 243.5 321.7 261.5 317.6 Q 260.6 341.1 258.0 369.6 Q 258.3 397.2 261.7 425.4 Q 260.2 449.0 261.2 473.5 Q 257.6 502.4 258.3 527.6 Q 241.2 528.6 228.0 531.7 Q 215.9 531.2 205.2 528.9 Q 192.5 532.8 176.6 532.5 Q 157.7 533.4 136.1 532.0 Q 140.0 501.5 140.2 476.6 Q 139.8 447.1 140.0 421.1 Q 140.5 398.4 143.7 372.7 Z" fill="#D0D4D6" fill-opacity="0.6" stroke="none"/><path d="M 139.8 323.1 Q 155.4 323.6 169.3 321.6 Q 184.3 320.0 202.6 320.5 Q 214.3 320.1 228.4 322.1 Q 245.8 323.9 262.2 322.2 Q 261.2 346.4 257.7 370.9 Q 259.1 400.0 257.6 427.5 Q 259.5 452.9 261.4 477.3 Q 259.3 503.1 257.6 530.7 Q 244.6 528.0 228.4 527.4 Q 214.5 530.2 198.1 532.2 Q 186.7 533.2 172.4 532.6 Q 156.3 532.6 143.4 531.0 Q 139.8 503.4 136.8 476.6 Q 139.2 449.4 143.4 422.0 Q 143.4 395.4 140.7 369.5 Z" fill="none" stroke="#1F2933" stroke-width="3" stroke-linecap="round" stroke-linejoin="round"/><path d="M 150.5 336.5 Q 162.9 336.5 174.4 338.1 Q 187.1 339.1 200.6 338.0 Q 213.2 336.0 226.0 335.7 Q 237.2 334.8 248.3 334.0 Q 248.4 355.4 248.2 376.9 Q 248.0 394.5 249.8 413.1 Q 247.2 433.5 246.4 456.3 Q 248.8 475.8 249.2 496.2 Q 236.6 496.3 225.6 495.5 Q 213.9 494.7 200.9 491.7 Q 188.3 494.2 175.4 496.4 Q 162.9 495.2 152.3 494.4 Q 153.2 475.9 153.1 455.3 Q 153.1 433.8 151.0 413.5 Q 151.6 393.1 150.9 375.1 Z" fill="#5AB8FF" fill-opacity="0.35" stroke="#1F2933" stroke-width="2"/><line x1="186.0" y1="510" x2="214.0" y2="511" stroke="#1F2933" stroke-width="3" stroke-linecap="round"/><text x="200.0" y="566.0" font-family="'Segoe Print','Bradley Hand','Comic Sans MS',cursive" font-size="26" fill="#1F2933" text-anchor="middle" font-weight="normal" opacity="1.0">Phone</text><path d="M 265.0 425.0 Q 405.7 392.8 540.0 425.0" fill="none" stroke="#1E3A5F" stroke-width="4" stroke-linecap="round"/><path d="M 540.0 425.0 L 523.7 410.3" stroke="#1E3A5F" stroke-width="4" stroke-linecap="round" fill="none"/><path d="M 540.0 425.0 L 520.5 429.1" stroke="#1E3A5F" stroke-width="4" stroke-linecap="round" fill="none"/><text x="400.0" y="395.0" font-family="'Segoe Print','Bradley Hand','Comic Sans MS',cursive" font-size="25" fill="#1E3A5F" text-anchor="middle" font-weight="normal" opacity="1.0">DisplayPort Alt Mode</text><text x="400.0" y="460.0" font-family="'Segoe Print','Bradley Hand','Comic Sans MS',cursive" font-size="23" fill="#4B5563" text-anchor="middle" font-weight="normal" opacity="1.0">over USB-C</text><rect x="546.3" y="388.2" width="190" height="70" fill="none" stroke="#8A8178" stroke-width="1.4" opacity="0.55" stroke-dasharray="7 5"/><path d="M 554.9 392.6 Q 577.2 387.5 602.4 387.4 Q 622.6 393.6 641.4 396.5 Q 668.1 392.7 695.7 390.0 Q 715.0 393.5 733.4 396.4 Q 737.3 397.1 738.0 402.7 Q 741.3 409.5 738.9 421.9 Q 741.6 431.3 738.7 441.3 Q 734.6 451.5 735.6 460.3 Q 717.6 461.1 694.1 463.9 Q 669.0 460.7 644.1 461.6 Q 623.6 464.5 598.2 463.4 Q 575.5 464.5 551.1 463.7 Q 552.2 451.5 554.5 435.9 Q 556.2 429.9 554.5 420.1 Q 551.9 410.4 550.8 405.6 Z" fill="#B8C0C2" fill-opacity="0.55" stroke="none"/><path d="M 551.7 393.3 Q 575.0 391.3 595.8 388.1 Q 620.1 392.3 643.6 392.9 Q 667.8 391.8 691.7 391.8 Q 717.2 392.2 740.6 392.1 Q 738.7 401.4 738.7 407.2 Q 739.0 415.5 741.7 424.8 Q 741.3 431.2 742.0 440.1 Q 741.2 450.9 743.3 460.3 Q 719.8 458.6 693.3 459.7 Q 669.6 457.5 643.3 458.2 Q 621.6 459.3 598.4 460.6 Q 573.9 460.4 550.0 458.1 Q 551.0 451.7 552.5 443.6 Q 551.7 436.3 548.0 427.5 Q 548.7 418.4 547.1 408.3 Z" fill="none" stroke="#1F2933" stroke-width="3" stroke-linecap="round" stroke-linejoin="round"/><rect x="572" y="418.0" width="24" height="14" rx="3" fill="none" stroke="#1F2933" stroke-width="2"/><rect x="612" y="418.0" width="24" height="14" rx="3" fill="none" stroke="#1F2933" stroke-width="2"/><rect x="652" y="418.0" width="24" height="14" rx="3" fill="none" stroke="#1F2933" stroke-width="2"/><text x="645.0" y="494.0" font-family="'Segoe Print','Bradley Hand','Comic Sans MS',cursive" font-size="26" fill="#1F2933" text-anchor="middle" font-weight="normal" opacity="1.0">USB-C dock</text><path d="M 745.0 425.0 Q 867.2 398.1 990.0 425.0" fill="none" stroke="#1E3A5F" stroke-width="4" stroke-linecap="round"/><path d="M 990.0 425.0 L 972.2 408.7" stroke="#1E3A5F" stroke-width="4" stroke-linecap="round" fill="none"/><path d="M 990.0 425.0 L 968.8 430.3" stroke="#1E3A5F" stroke-width="4" stroke-linecap="round" fill="none"/><text x="865.0" y="398.0" font-family="'Segoe Print','Bradley Hand','Comic Sans MS',cursive" font-size="25" fill="#1E3A5F" text-anchor="middle" font-weight="normal" opacity="1.0">HDMI</text><rect x="1002.5" y="279.7" width="400" height="280" fill="none" stroke="#8A8178" stroke-width="1.4" opacity="0.55" stroke-dasharray="7 5"/><path d="M 998.3 283.7 Q 1050.4 286.8 1099.5 284.1 Q 1150.4 280.1 1202.1 278.1 Q 1250.1 283.1 1296.1 282.2 Q 1343.5 280.5 1393.8 279.5 Q 1395.7 318.0 1399.7 355.7 Q 1397.5 385.0 1394.2 419.6 Q 1394.5 458.0 1399.5 491.8 Q 1399.4 526.9 1399.5 559.7 Q 1350.3 558.4 1300.9 554.4 Q 1250.8 556.4 1202.2 558.0 Q 1152.3 557.9 1103.6 554.4 Q 1058.5 551.2 1007.3 552.4 Q 1004.6 521.3 1000.3 488.7 Q 999.1 455.2 1003.3 424.5 Q 1003.5 387.7 1002.5 353.8 Z" fill="#B8C0C2" fill-opacity="0.45" stroke="none"/><path d="M 998.8 277.9 Q 1049.6 278.1 1103.4 280.9 Q 1152.0 279.7 1201.9 278.0 Q 1252.5 280.1 1300.6 282.3 Q 1351.1 283.1 1399.4 280.7 Q 1399.1 315.3 1400.3 352.3 Q 1398.7 387.5 1400.2 421.8 Q 1397.9 454.2 1398.5 488.7 Q 1398.7 524.3 1398.5 558.8 Q 1347.3 556.9 1299.5 556.6 Q 1251.9 558.3 1202.4 559.1 Q 1150.0 557.1 1100.9 557.5 Q 1049.7 561.6 997.4 563.3 Q 997.5 524.8 998.0 488.8 Q 998.6 452.2 997.6 417.2 Q 998.9 385.4 1003.0 353.1 Z" fill="none" stroke="#1F2933" stroke-width="3" stroke-linecap="round" stroke-linejoin="round"/><path d="M 1015.7 293.4 Q 1061.4 293.5 1106.7 293.5 Q 1152.8 294.8 1200.0 295.4 Q 1246.4 295.4 1295.1 294.2 Q 1339.6 295.9 1383.8 294.7 Q 1385.0 323.8 1384.9 352.4 Q 1385.3 380.6 1386.8 409.9 Q 1385.1 437.2 1385.6 465.8 Q 1387.7 492.8 1387.6 521.1 Q 1337.5 523.3 1290.3 523.2 Q 1242.8 521.7 1197.0 522.4 Q 1154.4 520.5 1109.8 519.4 Q 1062.6 519.5 1015.4 521.3 Q 1014.9 493.9 1011.5 466.8 Q 1014.8 438.4 1016.7 410.4 Q 1015.7 380.0 1016.5 352.1 Z" fill="#5A9A9A" fill-opacity="0.30" stroke="#1F2933" stroke-width="2"/><rect x="1020" y="298" width="360" height="10" fill="#3E5C76" opacity="0.6"/><path d="M 1028.5 323.3 Q 1052.0 323.0 1073.6 322.2 Q 1094.7 321.4 1115.4 322.1 Q 1136.5 321.0 1156.6 320.8 Q 1178.6 321.2 1200.8 320.4 Q 1200.8 342.3 1201.7 362.6 Q 1200.6 383.9 1200.7 407.0 Q 1199.8 427.7 1199.1 447.6 Q 1198.2 471.1 1199.3 493.2 Q 1178.4 492.6 1157.0 493.7 Q 1136.6 493.5 1116.3 493.5 Q 1095.1 493.0 1072.3 492.8 Q 1050.5 492.0 1030.4 490.0 Q 1030.5 469.6 1032.0 450.1 Q 1031.5 428.6 1032.0 408.6 Q 1031.5 387.1 1031.1 366.2 Z" fill="#F7F1E6" stroke="#1F2933" stroke-width="1.6"/><path d="M 1208.3 338.4 Q 1225.9 338.1 1243.6 336.4 Q 1259.1 337.0 1272.9 336.9 Q 1288.6 338.3 1305.8 339.4 Q 1321.0 339.6 1338.1 339.3 Q 1338.3 357.5 1339.5 375.9 Q 1338.9 392.9 1338.7 411.6 Q 1340.0 430.5 1340.7 450.4 Q 1338.9 469.3 1337.9 488.2 Q 1322.9 488.2 1307.5 489.7 Q 1291.9 489.1 1276.5 488.2 Q 1258.2 487.5 1241.3 488.4 Q 1225.6 488.0 1211.3 487.7 Q 1210.2 469.5 1208.3 451.1 Q 1209.1 433.3 1210.9 413.5 Q 1211.8 393.7 1211.2 375.7 Z" fill="#F7F1E6" stroke="#1F2933" stroke-width="1.6"/><path d="M 1192.0 560 L 1196.0 590 M 1208.0 560 L 1205.0 590" stroke="#1F2933" stroke-width="3"/><line x1="1154.0" y1="592" x2="1246.0" y2="594" stroke="#1F2933" stroke-width="3.5" stroke-linecap="round"/><text x="1200.0" y="626.0" font-family="'Segoe Print','Bradley Hand','Comic Sans MS',cursive" font-size="26" fill="#1F2933" text-anchor="middle" font-weight="normal" opacity="1.0">Monitor</text><text x="1200.0" y="660.0" font-family="'Segoe Print','Bradley Hand','Comic Sans MS',cursive" font-size="27" fill="#4B5563" text-anchor="middle" font-weight="normal" opacity="1.0">desktop mode fills the screen</text><rect x="1056.4" y="691.4" width="290" height="80" fill="none" stroke="#8A8178" stroke-width="1.4" opacity="0.55" stroke-dasharray="7 5"/><path d="M 1056.8 691.8 Q 1100.8 690.4 1138.7 690.2 Q 1175.5 685.3 1210.1 686.1 Q 1247.5 689.6 1279.6 687.1 Q 1309.6 689.4 1343.5 689.7 Q 1349.6 703.1 1353.8 714.4 Q 1353.4 722.1 1347.9 733.8 Q 1349.0 740.5 1349.0 747.0 Q 1347.9 758.3 1352.7 767.1 Q 1309.3 768.5 1271.7 768.2 Q 1242.1 770.9 1208.2 773.8 Q 1175.1 774.3 1138.4 771.7 Q 1100.4 772.8 1067.2 773.4 Q 1065.0 759.9 1065.2 749.4 Q 1059.9 736.9 1057.0 727.7 Q 1055.9 721.4 1058.9 711.7 Z" fill="#7A9A6A" fill-opacity="0.5" stroke="none"/><path d="M 1057.8 691.1 Q 1094.4 690.0 1134.1 687.5 Q 1167.8 690.2 1204.3 692.9 Q 1241.0 693.1 1274.7 691.9 Q 1311.8 691.8 1351.6 690.5 Q 1352.2 701.8 1351.8 712.4 Q 1348.1 723.1 1346.8 730.9 Q 1346.7 737.6 1350.1 746.6 Q 1350.4 758.4 1347.4 767.2 Q 1312.8 769.6 1279.8 770.8 Q 1243.2 771.6 1204.7 771.5 Q 1168.8 771.8 1132.0 771.6 Q 1094.6 772.0 1059.4 772.0 Q 1060.3 761.7 1063.0 748.0 Q 1062.2 736.5 1062.0 728.4 Q 1063.3 720.6 1062.6 713.2 Z" fill="none" stroke="#1F2933" stroke-width="3" stroke-linecap="round" stroke-linejoin="round"/><text x="1205.0" y="739.5" font-family="'Segoe Print','Bradley Hand','Comic Sans MS',cursive" font-size="27" fill="#1F2933" text-anchor="middle" font-weight="bold" opacity="1.0">Desktop mode ✓</text></svg>
