<svg xmlns="http://www.w3.org/2000/svg" viewBox="0 0 1600 900" role="img" aria-labelledby="t d" preserveAspectRatio="xMidYMid meet"><title id="t">Complete ADL workstation</title><desc id="d">A full workstation: phone, USB-C dock, monitor, keyboard and mouse combo, and external SSD connected with a USB-C cable on a desk.</desc><rect x="0" y="0" width="1600" height="900" fill="#F7F1E6"/><line x1="194" y1="30" x2="205" y2="870" stroke="#8A8178" stroke-width="1" opacity="0.18"/><line x1="800" y1="30" x2="795" y2="870" stroke="#8A8178" stroke-width="1" opacity="0.18"/><line x1="1399" y1="30" x2="1405" y2="870" stroke="#8A8178" stroke-width="1" opacity="0.18"/><line x1="40" y1="153" x2="1560" y2="155" stroke="#8A8178" stroke-width="1" opacity="0.18"/><line x1="40" y1="451" x2="1560" y2="448" stroke="#8A8178" stroke-width="1" opacity="0.18"/><line x1="40" y1="746" x2="1560" y2="749" stroke="#8A8178" stroke-width="1" opacity="0.18"/><line x1="70" y1="20" x2="70" y2="880" stroke="#8A8178" stroke-width="1.6" opacity="0.3"/><path d="M 30 40 L 50 40 M 40 30 L 40 50" stroke="#8A8178" stroke-width="1.3" opacity="0.4"/><path d="M 1550 40 L 1570 40 M 1560 30 L 1560 50" stroke="#8A8178" stroke-width="1.3" opacity="0.4"/><path d="M 30 860 L 50 860 M 40 850 L 40 870" stroke="#8A8178" stroke-width="1.3" opacity="0.4"/><path d="M 1550 860 L 1570 860 M 1560 850 L 1560 870" stroke="#8A8178" stroke-width="1.3" opacity="0.4"/><text x="800.0" y="84.0" font-family="'Segoe Print','Bradley Hand','Comic Sans MS',cursive" font-size="42" fill="#1F2933" text-anchor="middle" font-weight="bold" opacity="1.0">The complete ADL workstation</text><path d="M 492 105 Q 800 109 1108 99" stroke="#1F2933" stroke-width="2.5" fill="none" opacity="0.75"/><path d="M 90 740 Q 800 730 1510 742" stroke="#1F2933" stroke-width="4" fill="none" stroke-linecap="round"/><rect x="560.9" y="215.5" width="460" height="300" fill="none" stroke="#8A8178" stroke-width="1.4" opacity="0.55" stroke-dasharray="7 5"/><path d="M 557.5 217.7 Q 615.3 221.0 673.1 221.9 Q 730.0 221.8 789.4 222.4 Q 847.3 220.2 906.1 223.2 Q 964.4 223.9 1018.1 219.2 Q 1018.8 255.8 1020.2 298.2 Q 1016.2 330.2 1014.9 368.1 Q 1016.6 407.8 1018.3 442.4 Q 1021.8 480.0 1021.2 523.4 Q 960.6 519.2 904.4 515.1 Q 847.3 515.6 791.8 512.8 Q 732.9 514.8 678.4 518.1 Q 618.7 517.6 558.0 517.8 Q 563.9 480.6 566.9 439.3 Q 566.2 409.1 564.7 375.9 Q 567.0 332.4 564.2 290.5 Z" fill="#B8C0C2" fill-opacity="0.45" stroke="none"/><path d="M 558.5 219.3 Q 617.8 220.4 676.8 221.7 Q 732.3 218.7 788.9 217.4 Q 848.2 219.0 908.2 220.6 Q 963.0 218.2 1018.9 216.6 Q 1022.1 255.7 1022.1 298.0 Q 1020.6 334.8 1020.5 370.8 Q 1020.4 409.4 1018.9 446.2 Q 1020.2 483.8 1018.5 520.9 Q 962.3 522.6 906.7 520.8 Q 847.3 523.0 788.9 523.0 Q 729.7 519.5 672.8 518.3 Q 615.9 520.5 560.7 519.5 Q 558.2 482.2 558.0 446.0 Q 559.4 406.3 558.5 367.9 Q 557.4 332.7 557.7 297.1 Z" fill="none" stroke="#1F2933" stroke-width="3" stroke-linecap="round" stroke-linejoin="round"/><path d="M 575.8 235.8 Q 630.5 235.9 683.9 234.9 Q 736.7 233.3 788.2 231.9 Q 845.6 233.7 901.0 233.1 Q 952.0 231.7 1005.2 232.2 Q 1005.6 263.7 1004.2 295.3 Q 1004.7 326.5 1005.4 358.3 Q 1007.3 388.9 1007.4 419.3 Q 1006.8 452.2 1003.4 482.6 Q 951.9 484.0 899.2 484.3 Q 843.0 484.2 789.6 482.1 Q 734.2 481.4 679.5 480.5 Q 626.1 480.5 571.9 483.0 Q 574.6 449.9 575.4 418.4 Q 576.4 388.1 576.4 357.5 Q 576.8 326.2 575.1 296.6 Z" fill="#5A9A9A" fill-opacity="0.30" stroke="#1F2933" stroke-width="2"/><rect x="580" y="238" width="420" height="10" fill="#3E5C76" opacity="0.6"/><path d="M 589.3 263.7 Q 613.0 263.6 638.7 264.0 Q 662.4 261.7 688.0 260.8 Q 715.0 260.9 741.2 260.3 Q 765.8 260.0 791.1 260.8 Q 790.6 285.6 789.4 309.1 Q 791.4 333.4 791.8 356.6 Q 790.6 380.2 790.2 405.1 Q 789.9 428.5 790.0 450.8 Q 766.0 450.2 741.9 450.4 Q 715.2 451.5 689.8 451.6 Q 664.5 451.2 640.4 450.1 Q 614.6 451.3 589.1 453.8 Q 589.8 429.3 590.7 406.4 Q 590.0 381.4 590.9 356.3 Q 590.6 332.8 591.3 309.8 Z" fill="#F7F1E6" stroke="#1F2933" stroke-width="1.6"/><path d="M 799.6 279.3 Q 819.5 279.1 838.3 279.9 Q 857.1 278.6 875.3 276.5 Q 892.8 277.2 912.2 278.4 Q 933.3 278.6 954.0 279.1 Q 951.2 300.0 950.1 319.2 Q 949.8 341.6 950.6 362.4 Q 950.1 382.9 950.2 404.3 Q 951.7 426.0 951.7 447.3 Q 933.2 447.5 913.0 448.3 Q 894.9 446.7 876.6 446.9 Q 857.5 446.0 838.4 446.6 Q 818.6 446.6 798.5 447.2 Q 799.9 426.1 799.6 405.8 Q 800.5 385.7 800.0 363.8 Q 800.1 342.5 800.4 321.3 Z" fill="#F7F1E6" stroke="#1F2933" stroke-width="1.6"/><path d="M 782.0 520 L 786.0 550 M 798.0 520 L 795.0 550" stroke="#1F2933" stroke-width="3"/><line x1="744.0" y1="552" x2="836.0" y2="554" stroke="#1F2933" stroke-width="3.5" stroke-linecap="round"/><text x="1060.0" y="380.0" font-family="'Segoe Print','Bradley Hand','Comic Sans MS',cursive" font-size="26" fill="#1F2933" text-anchor="start" font-weight="normal" opacity="1.0">Monitor</text><rect x="199.2" y="520.5" width="110" height="200" fill="none" stroke="#8A8178" stroke-width="1.4" opacity="0.55" stroke-dasharray="7 5"/><path d="M 199.5 516.7 Q 213.3 519.3 224.2 526.8 Q 241.6 528.5 256.0 526.3 Q 269.2 522.4 276.5 517.3 Q 291.1 519.9 306.0 520.4 Q 307.8 543.0 311.1 565.8 Q 312.0 595.9 312.5 624.9 Q 309.5 642.0 312.1 663.6 Q 309.8 691.3 305.9 715.6 Q 297.4 718.8 282.9 722.0 Q 268.5 721.3 249.9 720.8 Q 242.4 720.4 233.5 720.0 Q 219.6 719.9 205.7 715.1 Q 199.4 695.2 196.5 670.2 Q 198.7 642.7 196.9 616.3 Q 202.5 598.8 207.7 576.7 Z" fill="#D0D4D6" fill-opacity="0.6" stroke="none"/><path d="M 201.0 521.4 Q 214.3 519.5 227.2 518.1 Q 242.9 518.1 256.7 519.5 Q 268.2 520.7 279.7 518.6 Q 296.2 521.2 311.8 520.9 Q 310.7 544.5 307.3 571.5 Q 309.0 593.3 312.1 617.8 Q 309.0 645.1 309.4 673.1 Q 310.0 694.4 308.8 717.7 Q 295.7 719.3 279.6 723.5 Q 265.6 720.2 252.6 718.5 Q 238.8 718.0 226.9 719.9 Q 213.3 720.8 200.6 720.6 Q 201.8 693.8 200.3 666.9 Q 199.4 645.1 201.6 621.7 Q 200.3 596.6 197.0 570.2 Z" fill="none" stroke="#1F2933" stroke-width="3" stroke-linecap="round" stroke-linejoin="round"/><path d="M 209.7 534.9 Q 219.8 535.1 232.2 535.3 Q 242.5 536.2 254.4 538.4 Q 266.5 537.8 277.1 537.8 Q 288.5 536.0 299.0 535.0 Q 297.7 555.8 297.6 574.5 Q 296.5 592.1 297.9 608.5 Q 297.1 627.4 295.7 645.5 Q 297.2 664.3 297.1 684.3 Q 285.6 683.0 276.3 682.9 Q 264.1 682.5 254.3 682.0 Q 245.1 683.4 233.6 683.1 Q 223.4 684.1 211.0 686.4 Q 210.6 666.0 210.5 647.3 Q 212.4 629.8 214.0 612.4 Q 213.3 593.5 214.1 572.2 Z" fill="#5AB8FF" fill-opacity="0.35" stroke="#1F2933" stroke-width="2"/><line x1="241.0" y1="700" x2="269.0" y2="701" stroke="#1F2933" stroke-width="3" stroke-linecap="round"/><text x="255.0" y="790.0" font-family="'Segoe Print','Bradley Hand','Comic Sans MS',cursive" font-size="26" fill="#1F2933" text-anchor="middle" font-weight="normal" opacity="1.0">Phone</text><rect x="397.9" y="672.5" width="150" height="56" fill="none" stroke="#8A8178" stroke-width="1.4" opacity="0.55" stroke-dasharray="7 5"/><path d="M 407.6 676.0 Q 425.7 673.4 438.9 668.9 Q 456.5 670.6 471.7 674.7 Q 488.1 674.8 506.2 677.4 Q 525.8 679.3 542.4 675.4 Q 545.3 684.3 544.0 687.6 Q 546.6 689.4 551.5 695.5 Q 547.2 702.6 543.7 715.3 Q 542.8 722.9 544.4 727.7 Q 528.8 728.0 507.4 731.3 Q 490.6 727.3 479.9 720.9 Q 461.9 719.5 442.0 722.9 Q 418.0 723.2 396.7 728.8 Q 400.7 717.6 405.1 708.5 Q 399.9 709.5 398.9 705.6 Q 397.1 700.3 398.4 692.2 Z" fill="#B8C0C2" fill-opacity="0.55" stroke="none"/><path d="M 400.3 671.9 Q 416.6 673.0 435.8 674.0 Q 456.8 672.3 474.6 673.5 Q 495.2 670.3 513.3 670.4 Q 532.4 671.3 549.3 670.7 Q 549.9 678.6 547.5 687.0 Q 549.6 696.0 548.7 703.3 Q 549.7 709.7 553.3 713.6 Q 551.1 721.2 549.1 726.4 Q 529.7 726.9 511.6 730.3 Q 495.3 729.2 478.4 727.5 Q 458.3 728.8 437.4 728.0 Q 421.4 727.6 402.3 726.8 Q 399.2 717.3 397.1 710.9 Q 398.9 704.9 401.5 698.8 Q 401.7 693.4 402.3 687.4 Z" fill="none" stroke="#1F2933" stroke-width="3" stroke-linecap="round" stroke-linejoin="round"/><rect x="422" y="693.0" width="24" height="14" rx="3" fill="none" stroke="#1F2933" stroke-width="2"/><rect x="462" y="693.0" width="24" height="14" rx="3" fill="none" stroke="#1F2933" stroke-width="2"/><rect x="502" y="693.0" width="24" height="14" rx="3" fill="none" stroke="#1F2933" stroke-width="2"/><text x="475.0" y="790.0" font-family="'Segoe Print','Bradley Hand','Comic Sans MS',cursive" font-size="26" fill="#1F2933" text-anchor="middle" font-weight="normal" opacity="1.0">Dock</text><rect x="655.7" y="661.7" width="190" height="58" fill="none" stroke="#8A8178" stroke-width="1.4" opacity="0.55" stroke-dasharray="7 5"/><path d="M 667.1 665.7 Q 683.3 660.9 704.7 656.1 Q 733.0 659.0 757.4 663.0 Q 779.3 664.2 796.8 663.6 Q 827.0 664.3 851.5 665.7 Q 850.8 672.0 850.5 672.4 Q 848.8 678.8 849.8 683.8 Q 852.2 692.2 849.2 701.6 Q 850.9 711.5 846.9 717.5 Q 820.5 720.3 799.1 720.7 Q 777.6 718.9 757.1 718.8 Q 731.7 717.7 708.4 718.8 Q 682.2 718.7 660.1 715.7 Q 663.1 705.6 662.6 700.7 Q 663.6 692.4 659.7 683.6 Q 662.3 678.5 661.4 678.6 Z" fill="#D0D4D6" fill-opacity="0.55" stroke="none"/><path d="M 661.1 661.1 Q 684.1 662.0 704.1 662.9 Q 729.1 661.2 754.8 656.9 Q 779.1 659.1 803.8 661.9 Q 825.4 661.2 848.3 659.3 Q 848.3 667.4 848.0 677.8 Q 847.3 684.0 849.7 689.3 Q 850.1 695.4 849.3 701.9 Q 851.5 708.6 851.8 718.1 Q 830.1 718.4 805.6 716.2 Q 780.6 719.3 753.9 719.5 Q 730.2 718.7 709.7 717.2 Q 684.3 720.1 657.4 720.4 Q 660.1 709.4 661.3 700.5 Q 660.1 694.1 660.2 688.2 Q 660.0 683.1 657.4 674.9 Z" fill="none" stroke="#1F2933" stroke-width="3" stroke-linecap="round" stroke-linejoin="round"/><rect x="676" y="672" width="20" height="14" rx="3" fill="none" stroke="#4B5563" stroke-width="1.4" opacity="0.8"/><rect x="706" y="672" width="20" height="14" rx="3" fill="none" stroke="#4B5563" stroke-width="1.4" opacity="0.8"/><rect x="736" y="672" width="20" height="14" rx="3" fill="none" stroke="#4B5563" stroke-width="1.4" opacity="0.8"/><rect x="766" y="672" width="20" height="14" rx="3" fill="none" stroke="#4B5563" stroke-width="1.4" opacity="0.8"/><rect x="796" y="672" width="20" height="14" rx="3" fill="none" stroke="#4B5563" stroke-width="1.4" opacity="0.8"/><rect x="826" y="672" width="20" height="14" rx="3" fill="none" stroke="#4B5563" stroke-width="1.4" opacity="0.8"/><rect x="676" y="694" width="20" height="14" rx="3" fill="none" stroke="#4B5563" stroke-width="1.4" opacity="0.8"/><rect x="706" y="694" width="20" height="14" rx="3" fill="none" stroke="#4B5563" stroke-width="1.4" opacity="0.8"/><rect x="736" y="694" width="20" height="14" rx="3" fill="none" stroke="#4B5563" stroke-width="1.4" opacity="0.8"/><rect x="766" y="694" width="20" height="14" rx="3" fill="none" stroke="#4B5563" stroke-width="1.4" opacity="0.8"/><rect x="796" y="694" width="20" height="14" rx="3" fill="none" stroke="#4B5563" stroke-width="1.4" opacity="0.8"/><rect x="826" y="694" width="20" height="14" rx="3" fill="none" stroke="#4B5563" stroke-width="1.4" opacity="0.8"/><ellipse cx="888" cy="693.0" rx="20" ry="28" fill="#D0D4D6" fill-opacity="0.55" stroke="#1F2933" stroke-width="2.5"/><line x1="888" y1="669.0" x2="888" y2="687.0" stroke="#1F2933" stroke-width="1.6"/><text x="775.0" y="790.0" font-family="'Segoe Print','Bradley Hand','Comic Sans MS',cursive" font-size="26" fill="#1F2933" text-anchor="middle" font-weight="normal" opacity="1.0">Keyboard + mouse</text><rect x="1126.3" y="650.9" width="110" height="66" fill="none" stroke="#8A8178" stroke-width="1.4" opacity="0.55" stroke-dasharray="7 5"/><path d="M 1132.0 651.4 Q 1145.8 653.2 1153.8 655.9 Q 1168.0 659.6 1182.6 657.3 Q 1199.5 657.0 1214.6 658.0 Q 1224.8 653.1 1233.0 654.0 Q 1230.1 664.8 1232.2 677.7 Q 1234.5 679.4 1238.0 683.5 Q 1236.3 694.3 1239.5 707.7 Q 1242.1 708.4 1241.7 714.1 Q 1223.1 719.8 1206.7 720.5 Q 1194.4 716.9 1187.1 719.0 Q 1170.8 719.9 1159.4 717.4 Q 1146.0 718.7 1131.6 723.1 Q 1131.5 713.5 1130.0 707.3 Q 1129.8 702.1 1133.7 692.9 Q 1136.7 688.5 1136.5 678.4 Z" fill="#4B5563" fill-opacity="0.35" stroke="none"/><path d="M 1131.5 655.5 Q 1142.8 652.8 1155.3 653.1 Q 1172.5 654.4 1187.2 658.5 Q 1201.2 654.8 1215.1 652.2 Q 1225.8 653.8 1238.0 654.5 Q 1239.0 661.8 1242.1 670.7 Q 1240.9 677.4 1239.4 684.7 Q 1240.2 695.6 1243.4 704.0 Q 1238.7 713.0 1236.6 719.3 Q 1224.3 717.2 1209.9 718.2 Q 1198.2 720.3 1185.3 719.9 Q 1171.7 719.4 1155.0 720.6 Q 1143.2 723.6 1130.3 723.6 Q 1130.6 711.8 1128.7 702.3 Q 1128.3 695.5 1130.3 688.6 Q 1129.4 681.2 1132.0 673.0 Z" fill="none" stroke="#1F2933" stroke-width="3" stroke-linecap="round" stroke-linejoin="round"/><text x="1185.0" y="697.0" font-family="'Segoe Print','Bradley Hand','Comic Sans MS',cursive" font-size="26" fill="#1F2933" text-anchor="middle" font-weight="bold" opacity="1.0">SSD</text><text x="1185.0" y="790.0" font-family="'Segoe Print','Bradley Hand','Comic Sans MS',cursive" font-size="26" fill="#1F2933" text-anchor="middle" font-weight="normal" opacity="1.0">SSD</text><path d="M 312 690 Q 356 706 398 698" stroke="#1E3A5F" stroke-width="3.5" fill="none" stroke-linecap="round"/><path d="M 552 694 Q 720 716 786 558" stroke="#1E3A5F" stroke-width="3.5" fill="none" stroke-linecap="round"/><text x="340.0" y="640.0" font-family="'Segoe Print','Bradley Hand','Comic Sans MS',cursive" font-size="24" fill="#1E3A5F" text-anchor="middle" font-weight="normal" opacity="1.0">USB-C cable</text><path d="M 1175 650 Q 1130 590 555 700" stroke="#64748B" stroke-width="2.5" fill="none" stroke-dasharray="8 6"/><text x="1300.0" y="260.0" font-family="'Segoe Print','Bradley Hand','Comic Sans MS',cursive" font-size="27" fill="#4B5563" text-anchor="start" font-weight="normal" opacity="1.0">everything runs</text><text x="1300.0" y="296.0" font-family="'Segoe Print','Bradley Hand','Comic Sans MS',cursive" font-size="27" fill="#4B5563" text-anchor="start" font-weight="normal" opacity="1.0">from your pocket</text></svg>
