<svg xmlns="http://www.w3.org/2000/svg" viewBox="0 0 1600 900" role="img" aria-labelledby="t d" preserveAspectRatio="xMidYMid meet"><title id="t">External storage flow</title><desc id="d">The phone, dock, external SSD, and Linux shared folder connect in a chain with data flowing in both directions.</desc><rect x="0" y="0" width="1600" height="900" fill="#F7F1E6"/><line x1="206" y1="30" x2="206" y2="870" stroke="#8A8178" stroke-width="1" opacity="0.18"/><line x1="795" y1="30" x2="804" y2="870" stroke="#8A8178" stroke-width="1" opacity="0.18"/><line x1="1401" y1="30" x2="1401" y2="870" stroke="#8A8178" stroke-width="1" opacity="0.18"/><line x1="40" y1="152" x2="1560" y2="151" stroke="#8A8178" stroke-width="1" opacity="0.18"/><line x1="40" y1="455" x2="1560" y2="449" stroke="#8A8178" stroke-width="1" opacity="0.18"/><line x1="40" y1="750" x2="1560" y2="754" stroke="#8A8178" stroke-width="1" opacity="0.18"/><line x1="70" y1="20" x2="70" y2="880" stroke="#8A8178" stroke-width="1.6" opacity="0.3"/><path d="M 30 40 L 50 40 M 40 30 L 40 50" stroke="#8A8178" stroke-width="1.3" opacity="0.4"/><path d="M 1550 40 L 1570 40 M 1560 30 L 1560 50" stroke="#8A8178" stroke-width="1.3" opacity="0.4"/><path d="M 30 860 L 50 860 M 40 850 L 40 870" stroke="#8A8178" stroke-width="1.3" opacity="0.4"/><path d="M 1550 860 L 1570 860 M 1560 850 L 1560 870" stroke="#8A8178" stroke-width="1.3" opacity="0.4"/><text x="800.0" y="84.0" font-family="'Segoe Print','Bradley Hand','Comic Sans MS',cursive" font-size="42" fill="#1F2933" text-anchor="middle" font-weight="bold" opacity="1.0">External storage flow</text><path d="M 569 100 Q 800 107 1031 101" stroke="#1F2933" stroke-width="2.5" fill="none" opacity="0.75"/><rect x="166.5" y="318.4" width="120" height="210" fill="none" stroke="#8A8178" stroke-width="1.4" opacity="0.55" stroke-dasharray="7 5"/><path d="M 168.5 318.1 Q 186.0 322.5 200.4 326.9 Q 214.9 323.8 230.0 326.1 Q 245.1 327.2 254.7 325.2 Q 273.9 327.3 291.9 326.3 Q 292.9 352.6 290.7 373.2 Q 288.7 403.9 288.4 429.6 Q 291.3 452.2 291.9 470.5 Q 287.7 502.2 282.4 530.6 Q 273.8 534.7 261.2 533.9 Q 243.6 528.6 225.9 523.4 Q 208.6 522.0 196.6 522.5 Q 183.3 529.0 168.5 531.5 Q 171.4 502.1 172.4 473.0 Q 169.7 448.3 168.0 425.5 Q 170.5 397.7 167.6 372.0 Z" fill="#D0D4D6" fill-opacity="0.6" stroke="none"/><path d="M 168.1 319.2 Q 184.1 322.6 197.1 323.0 Q 214.2 320.9 230.2 320.9 Q 244.5 321.0 258.2 321.3 Q 273.7 323.5 291.2 323.3 Q 292.1 349.0 290.5 373.2 Q 292.4 397.9 290.8 422.2 Q 290.6 450.3 290.0 480.0 Q 290.8 505.2 293.2 527.7 Q 275.7 528.5 259.8 528.0 Q 244.9 528.5 230.6 529.8 Q 215.0 528.4 201.9 529.8 Q 184.8 531.2 167.3 531.0 Q 170.2 503.0 171.8 478.6 Q 170.0 450.9 170.3 422.5 Q 169.1 397.6 169.6 375.1 Z" fill="none" stroke="#1F2933" stroke-width="3" stroke-linecap="round" stroke-linejoin="round"/><path d="M 181.6 335.2 Q 193.6 335.1 205.1 335.6 Q 218.4 337.8 231.4 338.2 Q 241.7 337.5 252.0 337.4 Q 266.8 335.3 279.8 334.4 Q 277.5 356.8 277.4 377.2 Q 277.5 396.5 278.9 416.3 Q 279.2 435.0 278.5 454.5 Q 278.3 473.6 276.2 493.4 Q 263.5 493.8 253.0 493.5 Q 240.2 494.0 228.3 494.7 Q 217.7 495.8 206.7 495.2 Q 192.8 492.7 181.3 491.7 Q 180.9 474.6 181.5 456.5 Q 181.8 436.6 183.7 417.4 Q 182.9 395.5 182.1 373.4 Z" fill="#5AB8FF" fill-opacity="0.35" stroke="#1F2933" stroke-width="2"/><line x1="216.0" y1="510" x2="244.0" y2="511" stroke="#1F2933" stroke-width="3" stroke-linecap="round"/><text x="230.0" y="566.0" font-family="'Segoe Print','Bradley Hand','Comic Sans MS',cursive" font-size="26" fill="#1F2933" text-anchor="middle" font-weight="normal" opacity="1.0">Phone</text><rect x="564.7" y="388.8" width="190" height="70" fill="none" stroke="#8A8178" stroke-width="1.4" opacity="0.55" stroke-dasharray="7 5"/><path d="M 558.1 388.2 Q 582.6 394.9 602.5 396.5 Q 626.2 397.6 651.2 393.2 Q 671.3 395.4 696.3 393.2 Q 722.8 390.4 749.2 386.2 Q 751.2 396.9 753.2 404.9 Q 748.9 417.9 742.4 429.3 Q 746.3 431.6 751.2 439.2 Q 753.5 452.3 753.7 464.0 Q 727.6 460.3 700.4 461.5 Q 681.5 458.4 659.1 452.2 Q 635.8 457.3 609.8 461.0 Q 584.6 460.7 560.2 455.6 Q 562.0 450.8 566.6 444.4 Q 566.0 432.8 561.2 421.9 Q 562.3 417.0 558.0 408.6 Z" fill="#B8C0C2" fill-opacity="0.55" stroke="none"/><path d="M 561.6 386.5 Q 583.4 388.1 608.1 390.9 Q 633.3 390.3 657.9 387.6 Q 679.3 387.7 702.2 390.1 Q 725.3 389.5 751.4 389.7 Q 750.4 399.4 748.0 409.0 Q 746.5 418.9 748.3 427.4 Q 748.4 437.7 752.0 445.5 Q 750.6 455.4 750.9 461.8 Q 727.5 461.1 703.9 460.5 Q 680.2 457.8 655.6 457.5 Q 630.1 458.2 606.2 456.6 Q 581.2 459.9 558.3 462.8 Q 558.1 454.0 559.7 444.6 Q 557.6 433.6 559.0 422.3 Q 558.7 412.8 558.2 405.0 Z" fill="none" stroke="#1F2933" stroke-width="3" stroke-linecap="round" stroke-linejoin="round"/><rect x="582" y="418.0" width="24" height="14" rx="3" fill="none" stroke="#1F2933" stroke-width="2"/><rect x="622" y="418.0" width="24" height="14" rx="3" fill="none" stroke="#1F2933" stroke-width="2"/><rect x="662" y="418.0" width="24" height="14" rx="3" fill="none" stroke="#1F2933" stroke-width="2"/><text x="655.0" y="494.0" font-family="'Segoe Print','Bradley Hand','Comic Sans MS',cursive" font-size="26" fill="#1F2933" text-anchor="middle" font-weight="normal" opacity="1.0">USB-C dock</text><rect x="990.9" y="381.4" width="130" height="76" fill="none" stroke="#8A8178" stroke-width="1.4" opacity="0.55" stroke-dasharray="7 5"/><path d="M 986.3 381.4 Q 1004.9 382.2 1019.3 383.9 Q 1034.4 381.5 1051.4 384.3 Q 1069.7 385.5 1089.3 386.4 Q 1103.9 385.8 1123.3 387.1 Q 1117.8 393.3 1113.6 400.9 Q 1117.9 412.3 1119.5 422.4 Q 1118.8 428.1 1118.8 433.9 Q 1119.5 444.2 1118.8 459.2 Q 1106.3 456.1 1090.8 452.3 Q 1076.1 457.3 1057.0 459.2 Q 1044.8 456.4 1028.3 458.9 Q 1007.3 462.2 986.4 459.9 Q 988.7 444.4 991.4 434.6 Q 989.2 428.1 986.6 422.1 Q 985.8 413.6 988.3 404.3 Z" fill="#4B5563" fill-opacity="0.35" stroke="none"/><path d="M 990.0 382.1 Q 1006.0 379.7 1023.5 377.0 Q 1041.1 377.0 1057.3 378.4 Q 1070.9 379.1 1087.0 378.0 Q 1105.4 378.7 1121.3 378.4 Q 1120.5 387.5 1118.6 395.7 Q 1120.2 409.5 1122.8 420.2 Q 1121.0 426.0 1121.6 433.9 Q 1121.9 445.3 1121.2 456.8 Q 1103.6 453.2 1088.2 453.1 Q 1071.9 454.6 1055.9 457.5 Q 1038.5 456.3 1022.4 453.2 Q 1006.0 456.2 992.6 456.0 Q 991.1 445.7 986.8 436.9 Q 989.0 425.4 989.3 416.8 Q 991.0 407.9 990.5 397.9 Z" fill="none" stroke="#1F2933" stroke-width="3" stroke-linecap="round" stroke-linejoin="round"/><text x="1055.0" y="427.0" font-family="'Segoe Print','Bradley Hand','Comic Sans MS',cursive" font-size="26" fill="#1F2933" text-anchor="middle" font-weight="bold" opacity="1.0">SSD</text><text x="1055.0" y="488.0" font-family="'Segoe Print','Bradley Hand','Comic Sans MS',cursive" font-size="24" fill="#1F2933" text-anchor="middle" font-weight="normal" opacity="1.0">External SSD</text><rect x="1287.9" y="345.5" width="250" height="160" fill="none" stroke="#8A8178" stroke-width="1.4" opacity="0.55" stroke-dasharray="7 5"/><path d="M 1297.6 351.2 Q 1326.2 352.6 1348.9 349.6 Q 1379.1 347.8 1410.6 351.5 Q 1442.5 356.6 1479.5 356.8 Q 1504.6 357.7 1533.3 356.1 Q 1534.1 374.1 1534.2 393.9 Q 1536.2 416.7 1535.4 435.0 Q 1540.0 453.0 1543.5 466.2 Q 1541.1 486.1 1538.7 511.1 Q 1506.9 509.4 1472.7 509.9 Q 1443.0 507.0 1410.2 504.6 Q 1383.4 506.2 1353.4 509.3 Q 1322.9 509.0 1289.0 509.4 Q 1290.3 488.2 1290.5 468.8 Q 1290.8 449.1 1294.0 424.8 Q 1291.5 410.4 1290.9 392.6 Z" fill="#5A9A9A" fill-opacity="0.5" stroke="none"/><path d="M 1287.7 351.7 Q 1319.0 353.1 1349.4 351.2 Q 1383.3 350.5 1418.2 346.7 Q 1448.6 348.2 1480.2 352.8 Q 1510.4 351.4 1539.6 348.3 Q 1537.4 368.6 1537.3 389.6 Q 1538.8 409.3 1538.8 431.0 Q 1541.2 450.6 1542.7 471.1 Q 1538.9 489.7 1537.6 507.2 Q 1510.0 506.8 1479.5 508.7 Q 1445.8 509.7 1415.3 508.3 Q 1382.6 507.1 1351.0 509.4 Q 1319.2 510.4 1288.0 509.4 Q 1286.6 489.8 1287.0 472.8 Q 1287.4 451.6 1287.4 428.8 Q 1291.1 410.7 1293.0 389.7 Z" fill="none" stroke="#1F2933" stroke-width="3" stroke-linecap="round" stroke-linejoin="round"/><text x="1415.0" y="439.1" font-family="'Segoe Print','Bradley Hand','Comic Sans MS',cursive" font-size="26" fill="#1F2933" text-anchor="middle" font-weight="bold" opacity="1.0">Linux shared folder</text><path d="M 295.0 430.0 Q 422.3 465.1 555.0 430.0" fill="none" stroke="#1E3A5F" stroke-width="4" stroke-linecap="round"/><path d="M 555.0 430.0 L 534.1 426.0" stroke="#1E3A5F" stroke-width="4" stroke-linecap="round" fill="none"/><path d="M 555.0 430.0 L 540.7 443.9" stroke="#1E3A5F" stroke-width="4" stroke-linecap="round" fill="none"/><path d="M 295.0 430.0 L 312.3 445.9" stroke="#1E3A5F" stroke-width="4" stroke-linecap="round" fill="none"/><path d="M 295.0 430.0 L 316.4 426.6" stroke="#1E3A5F" stroke-width="4" stroke-linecap="round" fill="none"/><path d="M 755.0 430.0 Q 873.2 453.8 985.0 430.0" fill="none" stroke="#64748B" stroke-width="4" stroke-linecap="round"/><path d="M 985.0 430.0 L 963.7 422.8" stroke="#64748B" stroke-width="4" stroke-linecap="round" fill="none"/><path d="M 985.0 430.0 L 966.9 442.9" stroke="#64748B" stroke-width="4" stroke-linecap="round" fill="none"/><path d="M 755.0 430.0 L 770.6 442.5" stroke="#64748B" stroke-width="4" stroke-linecap="round" fill="none"/><path d="M 755.0 430.0 L 777.5 423.0" stroke="#64748B" stroke-width="4" stroke-linecap="round" fill="none"/><path d="M 1125.0 430.0 Q 1205.7 451.6 1285.0 430.0" fill="none" stroke="#64748B" stroke-width="4" stroke-linecap="round"/><path d="M 1285.0 430.0 L 1262.5 426.7" stroke="#64748B" stroke-width="4" stroke-linecap="round" fill="none"/><path d="M 1285.0 430.0 L 1267.7 444.5" stroke="#64748B" stroke-width="4" stroke-linecap="round" fill="none"/><path d="M 1125.0 430.0 L 1140.6 443.9" stroke="#64748B" stroke-width="4" stroke-linecap="round" fill="none"/><path d="M 1125.0 430.0 L 1146.9 426.0" stroke="#64748B" stroke-width="4" stroke-linecap="round" fill="none"/><text x="800.0" y="640.0" font-family="'Segoe Print','Bradley Hand','Comic Sans MS',cursive" font-size="27" fill="#4B5563" text-anchor="middle" font-weight="normal" opacity="1.0">files move both ways — the SSD appears as a folder inside Linux</text></svg>
