<svg xmlns="http://www.w3.org/2000/svg" viewBox="0 0 64 64" role="img" aria-labelledby="t" preserveAspectRatio="xMidYMid meet"><title id="t">Dock icon</title><path d="M 5.4 23.4 Q 11.4 23.0 17.1 23.3 Q 22.5 23.2 29.0 23.5 Q 34.5 23.8 41.1 24.1 Q 46.8 23.3 53.3 23.8 Q 53.0 26.5 52.8 28.6 Q 53.0 31.8 52.9 33.9 Q 53.1 35.3 53.5 36.8 Q 53.8 40.2 54.9 43.1 Q 49.2 41.7 42.9 41.1 Q 37.2 42.1 31.2 42.9 Q 24.7 42.3 17.8 42.3 Q 11.8 43.1 6.5 42.8 Q 6.2 40.2 7.0 38.5 Q 7.4 35.1 7.1 32.7 Q 6.7 30.8 5.8 28.1 Z" fill="#B8C0C2" fill-opacity="0.5" stroke="#1F2933" stroke-width="2.6" stroke-linecap="round" stroke-linejoin="round"/><rect x="14" y="30.0" width="8" height="6" rx="1.5" fill="none" stroke="#1F2933" stroke-width="1.8" transform="rotate(-1.5 18 33)"/><rect x="26" y="30.8" width="8" height="6" rx="1.5" fill="none" stroke="#1F2933" stroke-width="1.8" transform="rotate(0.0 30 33)"/><rect x="38" y="30.0" width="8" height="6" rx="1.5" fill="none" stroke="#1F2933" stroke-width="1.8" transform="rotate(1.5 42 33)"/><path d="M 54 33 Q 57.0 31.7 60 33" fill="none" stroke="#1F2933" stroke-width="2.6" stroke-linecap="round" opacity="1.0"/></svg>
