<svg xmlns="http://www.w3.org/2000/svg" viewBox="0 0 64 64" role="img" aria-labelledby="t" preserveAspectRatio="xMidYMid meet"><title id="t">Keyboard icon</title><path d="M 5.1 18.2 Q 11.8 17.5 18.0 17.3 Q 24.6 17.1 31.9 17.1 Q 39.7 18.1 46.7 18.8 Q 53.3 17.5 58.9 17.0 Q 59.3 20.9 60.6 24.9 Q 60.2 27.9 60.5 32.0 Q 60.5 35.1 59.8 38.1 Q 60.1 42.4 60.7 46.8 Q 52.7 46.1 45.1 46.3 Q 39.0 45.8 33.0 45.7 Q 26.2 45.5 18.9 46.0 Q 12.5 45.2 4.8 45.3 Q 4.4 42.1 4.0 40.0 Q 3.3 36.0 3.3 30.9 Q 3.3 28.9 3.8 26.0 Z" fill="#D0D4D6" fill-opacity="0.4" stroke="#1F2933" stroke-width="2.6" stroke-linecap="round" stroke-linejoin="round"/><rect x="10" y="23" width="7" height="6" rx="1.5" fill="none" stroke="#4B5563" stroke-width="1.4" transform="rotate(-2 13.5 26)"/><rect x="20" y="23" width="7" height="6" rx="1.5" fill="none" stroke="#4B5563" stroke-width="1.4" transform="rotate(0 23.5 26)"/><rect x="30" y="23" width="7" height="6" rx="1.5" fill="none" stroke="#4B5563" stroke-width="1.4" transform="rotate(2 33.5 26)"/><rect x="40" y="23" width="7" height="6" rx="1.5" fill="none" stroke="#4B5563" stroke-width="1.4" transform="rotate(-2 43.5 26)"/><rect x="50" y="23" width="7" height="6" rx="1.5" fill="none" stroke="#4B5563" stroke-width="1.4" transform="rotate(0 53.5 26)"/><rect x="10" y="32" width="7" height="6" rx="1.5" fill="none" stroke="#4B5563" stroke-width="1.4" transform="rotate(0 13.5 35)"/><rect x="20" y="32" width="7" height="6" rx="1.5" fill="none" stroke="#4B5563" stroke-width="1.4" transform="rotate(2 23.5 35)"/><rect x="30" y="32" width="7" height="6" rx="1.5" fill="none" stroke="#4B5563" stroke-width="1.4" transform="rotate(-2 33.5 35)"/><rect x="40" y="32" width="7" height="6" rx="1.5" fill="none" stroke="#4B5563" stroke-width="1.4" transform="rotate(0 43.5 35)"/><rect x="50" y="32" width="7" height="6" rx="1.5" fill="none" stroke="#4B5563" stroke-width="1.4" transform="rotate(2 53.5 35)"/><rect x="18" y="39" width="28" height="4" rx="1.5" fill="none" stroke="#4B5563" stroke-width="1.4" transform="rotate(-1 32 41)"/></svg>
