<svg xmlns="http://www.w3.org/2000/svg" viewBox="0 0 64 64" role="img" aria-labelledby="t" preserveAspectRatio="xMidYMid meet"><title id="t">Linux penguin icon</title><path d="M 32 6 q 15 0 15 17 q 0 8 4 16 q 4 9 -3 14 q -7 5 -16 5 q -9 0 -16 -5 q -7 -5 -3 -14 q 4 -8 4 -16 q 0 -17 15 -17 Z" fill="#4B5563" fill-opacity="0.55" stroke="#1F2933" stroke-width="3"/><path d="M 32 30 q 9 0 10 11 q 1 11 -10 11 q -11 0 -10 -11 q 1 -11 10 -11 Z" fill="#F7F1E6" fill-opacity="0.9" stroke="none"/><path d="M 23.8 18.5 a 1.3 0.8 0 1 1 5.5 -1.1 a 1.3 1.0 0 1 1 -4.9 0.4" fill="#1F2933" fill-opacity="1" stroke="#1F2933" stroke-width="2" stroke-linecap="round"/><path d="M 34.3 21.3 a 1.6 1.8 0 1 1 6.4 -1.5 a 2.6 2.0 0 1 1 -5.2 1.7" fill="#1F2933" fill-opacity="1" stroke="#1F2933" stroke-width="2" stroke-linecap="round"/><path d="M 28 26 L 32 30 L 36 26 Q 32 23 28 26 Z" fill="#D6A94A" fill-opacity="0.8" stroke="#1F2933" stroke-width="2" stroke-linejoin="round"/><path d="M 22 56 l -4 3 l 8 1 Z M 42 56 l 4 3 l -8 1 Z" fill="#D6A94A" fill-opacity="0.8" stroke="#1F2933" stroke-width="2" stroke-linejoin="round"/></svg>
