<svg xmlns="http://www.w3.org/2000/svg" viewBox="0 0 64 64" role="img" aria-labelledby="t" preserveAspectRatio="xMidYMid meet"><title id="t">Monitor icon</title><path d="M 6.0 8.1 Q 11.2 8.9 16.6 11.6 Q 24.2 10.8 30.9 10.6 Q 37.4 9.1 44.7 7.6 Q 50.4 9.0 56.5 10.5 Q 56.9 15.2 58.3 18.3 Q 59.1 23.2 58.7 25.8 Q 57.5 29.6 58.8 33.4 Q 58.2 37.2 57.6 42.1 Q 50.9 42.8 43.3 43.1 Q 37.6 43.5 34.2 43.0 Q 27.1 43.0 20.9 42.1 Q 12.7 44.2 6.9 45.8 Q 5.1 39.0 4.9 33.4 Q 4.1 28.2 4.1 25.4 Q 4.2 22.1 6.0 19.2 Z" fill="#5A9A9A" fill-opacity="0.25" stroke="#1F2933" stroke-width="3" stroke-linecap="round" stroke-linejoin="round"/><path d="M 32 45 Q 33.4 50.0 32 52" fill="none" stroke="#1F2933" stroke-width="3" stroke-linecap="round" opacity="1.0"/><path d="M 20 55 Q 34.5 58.1 44 56" fill="none" stroke="#1F2933" stroke-width="3.5" stroke-linecap="round" opacity="1.0"/></svg>
