<svg xmlns="http://www.w3.org/2000/svg" viewBox="0 0 64 64" role="img" aria-labelledby="t" preserveAspectRatio="xMidYMid meet"><title id="t">Settings gear icon</title><path d="M 48.87774680951573 34.03510752391163 Q 55.1 36.1 56.82021589634665 34.99280518222298" fill="none" stroke="#1F2933" stroke-width="4" stroke-linecap="round" opacity="1.0"/><path d="M 42.49533088955651 45.373407550759865 Q 44.8 49.1 47.434310131700755 51.66677580994097" fill="none" stroke="#1F2933" stroke-width="4" stroke-linecap="round" opacity="1.0"/><path d="M 29.96489247608837 48.87774680951573 Q 30.5 53.1 29.007194817777016 56.82021589634665" fill="none" stroke="#1F2933" stroke-width="4" stroke-linecap="round" opacity="1.0"/><path d="M 18.626592449240135 42.49533088955651 Q 13.8 45.4 12.333224190059024 47.434310131700755" fill="none" stroke="#1F2933" stroke-width="4" stroke-linecap="round" opacity="1.0"/><path d="M 15.122253190484273 29.964892476088373 Q 11.6 31.8 7.179784103653343 29.007194817777016" fill="none" stroke="#1F2933" stroke-width="4" stroke-linecap="round" opacity="1.0"/><path d="M 21.504669110443487 18.626592449240135 Q 16.8 13.8 16.56568986829925 12.333224190059024" fill="none" stroke="#1F2933" stroke-width="4" stroke-linecap="round" opacity="1.0"/><path d="M 34.03510752391163 15.122253190484273 Q 33.4 10.1 34.99280518222298 7.179784103653343" fill="none" stroke="#1F2933" stroke-width="4" stroke-linecap="round" opacity="1.0"/><path d="M 45.373407550759865 21.504669110443487 Q 50.5 17.3 51.66677580994097 16.56568986829925" fill="none" stroke="#1F2933" stroke-width="4" stroke-linecap="round" opacity="1.0"/><path d="M 15.8 33.2 a 15.0 15.9 0 1 1 33.4 -0.7 a 15.4 16.4 0 1 1 -33.4 1.1" fill="#64748B" fill-opacity="0.25" stroke="#1F2933" stroke-width="3" stroke-linecap="round"/><path d="M 24.6 30.7 a 6.1 5.4 0 1 1 12.2 -0.2 a 6.5 5.4 0 1 1 -10.9 -0.1" fill="#F7F1E6" fill-opacity="0.9" stroke="#1F2933" stroke-width="3" stroke-linecap="round"/></svg>
