<svg xmlns="http://www.w3.org/2000/svg" viewBox="0 0 64 64" role="img" aria-labelledby="t" preserveAspectRatio="xMidYMid meet"><title id="t">Terminal icon</title><path d="M 5.5 11.0 Q 12.5 11.4 20.6 11.0 Q 25.8 10.0 32.2 8.6 Q 39.9 8.1 45.3 8.4 Q 51.6 9.5 60.3 8.4 Q 60.2 15.0 60.4 22.9 Q 58.9 28.6 58.3 34.0 Q 57.8 38.6 58.9 42.2 Q 59.6 47.4 58.5 53.2 Q 50.5 53.8 42.9 52.2 Q 38.1 53.8 32.2 53.6 Q 26.4 53.1 19.8 52.6 Q 13.5 51.3 6.4 52.5 Q 5.5 48.7 5.4 45.4 Q 4.6 37.8 4.2 32.4 Q 7.2 26.6 7.9 20.7 Z" fill="#4B5563" fill-opacity="0.15" stroke="#1F2933" stroke-width="3" stroke-linecap="round" stroke-linejoin="round"/><path d="M 15 26 L 24 33 L 15 40" fill="none" stroke="#7A9A6A" stroke-width="3.5" stroke-linecap="round" stroke-linejoin="round"/><path d="M 29 42 Q 37.8 39.4 42 42" fill="none" stroke="#7A9A6A" stroke-width="3.5" stroke-linecap="round" opacity="1.0"/></svg>
