<svg xmlns="http://www.w3.org/2000/svg" viewBox="0 0 64 64" role="img" aria-labelledby="t" preserveAspectRatio="xMidYMid meet"><title id="t">USB plug icon</title><path d="M 20.3 8.9 Q 22.2 8.2 25.0 7.6 Q 28.0 7.9 32.2 9.2 Q 35.2 9.4 38.3 9.1 Q 41.8 9.1 44.4 8.2 Q 44.7 10.8 44.0 14.4 Q 44.4 17.6 43.7 21.8 Q 43.5 25.9 43.4 30.9 Q 43.5 34.8 43.4 37.6 Q 40.4 38.3 37.4 38.7 Q 34.7 38.9 32.0 38.5 Q 28.9 38.4 25.2 37.4 Q 22.3 37.7 19.3 38.2 Q 19.3 34.3 19.1 31.5 Q 20.2 27.4 21.0 23.4 Q 20.5 19.9 19.6 15.4 Z" fill="#D0D4D6" fill-opacity="0.5" stroke="#1F2933" stroke-width="2.8" stroke-linecap="round" stroke-linejoin="round"/><rect x="27" y="14" width="10" height="6" rx="3" fill="none" stroke="#1F2933" stroke-width="1.8" transform="rotate(-2 32 17)"/><path d="M 32 38 Q 34.0 45.8 32 56" fill="none" stroke="#1F2933" stroke-width="3.2" stroke-linecap="round" opacity="1.0"/><path d="M 32 56 q 0 4 5 4" fill="none" stroke="#1F2933" stroke-width="3.2" stroke-linecap="round"/></svg>
