<svg xmlns="http://www.w3.org/2000/svg" viewBox="0 0 1600 900" role="img" aria-labelledby="t d" preserveAspectRatio="xMidYMid meet"><title id="t">Update and maintenance loop</title><desc id="d">A repeating loop: check repositories, download package lists, upgrade packages, and clean unused files.</desc><rect x="0" y="0" width="1600" height="900" fill="#F7F1E6"/><line x1="203" y1="30" x2="194" y2="870" stroke="#8A8178" stroke-width="1" opacity="0.18"/><line x1="795" y1="30" x2="795" y2="870" stroke="#8A8178" stroke-width="1" opacity="0.18"/><line x1="1402" y1="30" x2="1399" y2="870" stroke="#8A8178" stroke-width="1" opacity="0.18"/><line x1="40" y1="150" x2="1560" y2="151" stroke="#8A8178" stroke-width="1" opacity="0.18"/><line x1="40" y1="451" x2="1560" y2="451" stroke="#8A8178" stroke-width="1" opacity="0.18"/><line x1="40" y1="747" x2="1560" y2="746" stroke="#8A8178" stroke-width="1" opacity="0.18"/><line x1="70" y1="20" x2="70" y2="880" stroke="#8A8178" stroke-width="1.6" opacity="0.3"/><path d="M 30 40 L 50 40 M 40 30 L 40 50" stroke="#8A8178" stroke-width="1.3" opacity="0.4"/><path d="M 1550 40 L 1570 40 M 1560 30 L 1560 50" stroke="#8A8178" stroke-width="1.3" opacity="0.4"/><path d="M 30 860 L 50 860 M 40 850 L 40 870" stroke="#8A8178" stroke-width="1.3" opacity="0.4"/><path d="M 1550 860 L 1570 860 M 1560 850 L 1560 870" stroke="#8A8178" stroke-width="1.3" opacity="0.4"/><text x="800.0" y="84.0" font-family="'Segoe Print','Bradley Hand','Comic Sans MS',cursive" font-size="42" fill="#1F2933" text-anchor="middle" font-weight="bold" opacity="1.0">Keeping your system healthy</text><path d="M 503 99 Q 800 113 1097 103" stroke="#1F2933" stroke-width="2.5" fill="none" opacity="0.75"/><rect x="626.3" y="100.1" width="340" height="130" fill="none" stroke="#8A8178" stroke-width="1.4" opacity="0.55" stroke-dasharray="7 5"/><path d="M 636.4 107.5 Q 673.8 106.9 713.7 106.5 Q 756.2 101.6 800.9 102.0 Q 842.8 103.0 890.0 109.4 Q 929.5 105.8 973.8 103.4 Q 968.9 122.5 967.5 139.5 Q 967.9 153.8 970.3 172.3 Q 969.6 184.8 970.6 198.7 Q 969.8 215.8 965.2 237.5 Q 921.1 237.9 882.2 234.0 Q 840.3 231.5 796.5 234.6 Q 751.9 231.6 710.9 231.7 Q 670.9 234.4 632.6 232.4 Q 633.2 217.6 637.4 206.9 Q 636.5 183.7 632.7 164.1 Q 630.9 152.7 634.6 142.5 Z" fill="#3E5C76" fill-opacity="0.5" stroke="none"/><path d="M 628.0 104.1 Q 674.0 102.6 717.0 103.4 Q 757.5 101.9 799.5 102.6 Q 842.5 105.5 883.0 107.1 Q 927.5 107.4 968.9 106.7 Q 966.8 122.7 966.6 136.9 Q 969.6 156.3 971.7 173.4 Q 969.2 190.1 969.1 205.9 Q 968.8 217.3 968.5 231.7 Q 927.3 231.6 887.7 232.0 Q 845.5 232.9 803.1 231.5 Q 759.5 234.5 717.9 234.6 Q 674.5 232.2 628.2 233.3 Q 626.1 215.7 626.6 201.3 Q 627.9 186.0 628.8 170.4 Q 631.1 153.3 631.9 135.2 Z" fill="none" stroke="#1F2933" stroke-width="3" stroke-linecap="round" stroke-linejoin="round"/><text x="800.0" y="179.8" font-family="'Segoe Print','Bradley Hand','Comic Sans MS',cursive" font-size="28" fill="#1F2933" text-anchor="middle" font-weight="bold" opacity="1.0">Check repos</text><rect x="1013.0" y="358.4" width="340" height="130" fill="none" stroke="#8A8178" stroke-width="1.4" opacity="0.55" stroke-dasharray="7 5"/><path d="M 1008.7 353.3 Q 1054.3 358.3 1098.2 360.5 Q 1139.5 358.7 1184.5 360.9 Q 1224.1 358.5 1268.1 356.6 Q 1307.5 361.1 1351.2 361.1 Q 1348.7 371.1 1345.6 386.7 Q 1344.2 401.5 1345.9 416.7 Q 1349.5 432.3 1352.7 446.1 Q 1355.0 464.2 1351.6 479.3 Q 1304.8 479.0 1260.6 484.0 Q 1220.0 480.8 1177.4 477.8 Q 1139.2 483.1 1098.2 483.9 Q 1056.5 483.2 1017.6 480.4 Q 1018.4 466.2 1014.3 455.3 Q 1014.6 437.1 1012.4 422.0 Q 1014.1 407.2 1017.4 393.6 Z" fill="#5A9A9A" fill-opacity="0.5" stroke="none"/><path d="M 1012.1 358.3 Q 1055.3 355.9 1095.9 355.3 Q 1137.1 356.7 1177.2 355.7 Q 1219.6 357.0 1264.7 357.1 Q 1306.6 354.5 1350.4 354.1 Q 1348.6 371.2 1350.0 385.9 Q 1348.0 400.9 1346.6 418.9 Q 1348.6 436.0 1348.4 450.3 Q 1347.9 465.1 1349.3 482.2 Q 1305.9 484.5 1263.0 485.9 Q 1223.6 484.4 1183.2 485.5 Q 1140.3 488.1 1096.2 488.3 Q 1055.3 487.0 1011.0 483.7 Q 1012.5 465.6 1013.1 450.3 Q 1011.9 435.1 1010.2 421.8 Q 1009.0 406.5 1009.9 388.0 Z" fill="none" stroke="#1F2933" stroke-width="3" stroke-linecap="round" stroke-linejoin="round"/><text x="1180.0" y="429.8" font-family="'Segoe Print','Bradley Hand','Comic Sans MS',cursive" font-size="28" fill="#1F2933" text-anchor="middle" font-weight="bold" opacity="1.0">Download package lists</text><rect x="628.8" y="581.2" width="340" height="130" fill="none" stroke="#8A8178" stroke-width="1.4" opacity="0.55" stroke-dasharray="7 5"/><path d="M 627.0 592.1 Q 671.8 592.3 711.1 588.8 Q 757.2 586.2 800.6 586.0 Q 844.0 587.4 883.4 589.2 Q 925.4 587.9 966.4 588.5 Q 969.8 602.7 969.8 616.9 Q 969.1 630.4 971.9 649.4 Q 968.5 664.6 968.3 679.5 Q 967.6 699.9 966.6 718.0 Q 921.4 716.8 878.1 711.8 Q 840.7 712.7 797.6 715.9 Q 753.7 715.4 711.2 715.1 Q 673.0 715.7 633.4 716.7 Q 634.6 697.3 631.6 677.6 Q 630.5 659.1 628.3 645.1 Q 630.1 631.3 636.4 618.0 Z" fill="#7A9A6A" fill-opacity="0.5" stroke="none"/><path d="M 626.9 585.1 Q 671.9 583.3 713.5 584.5 Q 755.3 584.9 799.1 587.4 Q 843.3 586.4 884.5 588.3 Q 929.6 587.0 973.4 583.9 Q 970.5 602.5 969.7 619.9 Q 973.1 636.2 973.1 650.2 Q 969.8 664.2 969.9 681.4 Q 971.8 699.9 971.5 715.4 Q 928.8 715.2 888.4 713.5 Q 842.7 716.4 797.0 716.1 Q 758.0 714.1 715.5 713.3 Q 670.4 713.3 626.6 714.7 Q 626.6 698.2 627.2 681.5 Q 629.2 665.6 628.4 647.9 Q 630.7 634.6 629.7 620.3 Z" fill="none" stroke="#1F2933" stroke-width="3" stroke-linecap="round" stroke-linejoin="round"/><text x="800.0" y="659.8" font-family="'Segoe Print','Bradley Hand','Comic Sans MS',cursive" font-size="28" fill="#1F2933" text-anchor="middle" font-weight="bold" opacity="1.0">Upgrade packages</text><rect x="251.7" y="359.8" width="340" height="130" fill="none" stroke="#8A8178" stroke-width="1.4" opacity="0.55" stroke-dasharray="7 5"/><path d="M 251.6 359.0 Q 291.8 360.5 335.6 362.5 Q 377.0 362.7 420.4 361.0 Q 461.1 359.4 499.4 354.9 Q 544.4 355.2 584.4 354.6 Q 587.2 368.1 589.9 387.1 Q 593.9 402.9 592.1 415.0 Q 593.0 432.6 589.6 456.1 Q 587.1 470.5 586.0 483.6 Q 545.0 479.5 505.8 478.4 Q 460.1 483.1 417.6 486.7 Q 378.6 480.6 336.4 479.2 Q 290.3 479.5 248.5 482.7 Q 249.3 464.9 252.0 450.3 Q 255.8 440.1 254.2 425.7 Q 254.2 410.6 255.1 391.3 Z" fill="#D8C3A5" fill-opacity="0.5" stroke="none"/><path d="M 247.7 357.7 Q 291.5 355.2 337.5 352.3 Q 378.6 352.4 420.9 354.0 Q 463.4 356.6 503.4 358.5 Q 546.9 356.2 592.5 352.9 Q 590.9 368.6 587.2 386.6 Q 591.1 405.7 592.5 423.1 Q 591.4 436.4 589.7 451.6 Q 590.0 467.3 587.9 481.7 Q 548.1 483.7 504.8 483.3 Q 460.6 484.2 418.2 484.4 Q 376.1 482.1 334.0 483.3 Q 291.9 484.4 249.9 486.6 Q 250.2 471.4 248.8 455.1 Q 250.5 435.5 251.2 417.3 Q 248.6 401.3 248.5 385.0 Z" fill="none" stroke="#1F2933" stroke-width="3" stroke-linecap="round" stroke-linejoin="round"/><text x="420.0" y="429.8" font-family="'Segoe Print','Bradley Hand','Comic Sans MS',cursive" font-size="28" fill="#1F2933" text-anchor="middle" font-weight="bold" opacity="1.0">Clean unused files</text><path d="M 990.0 250.0 Q 1044.3 334.3 1150.0 360.0" fill="none" stroke="#1F2933" stroke-width="3.5" stroke-linecap="round"/><path d="M 1150.0 360.0 L 1133.6 344.0" stroke="#1F2933" stroke-width="3.5" stroke-linecap="round" fill="none"/><path d="M 1150.0 360.0 L 1130.2 366.3" stroke="#1F2933" stroke-width="3.5" stroke-linecap="round" fill="none"/><path d="M 1130.0 500.0 Q 1083.1 583.5 990.0 610.0" fill="none" stroke="#1F2933" stroke-width="3.5" stroke-linecap="round"/><path d="M 990.0 610.0 L 1012.7 613.7" stroke="#1F2933" stroke-width="3.5" stroke-linecap="round" fill="none"/><path d="M 990.0 610.0 L 1006.4 594.5" stroke="#1F2933" stroke-width="3.5" stroke-linecap="round" fill="none"/><path d="M 615.0 620.0 Q 567.5 531.0 470.0 500.0" fill="none" stroke="#1F2933" stroke-width="3.5" stroke-linecap="round"/><path d="M 470.0 500.0 L 485.8 517.7" stroke="#1F2933" stroke-width="3.5" stroke-linecap="round" fill="none"/><path d="M 470.0 500.0 L 491.4 494.2" stroke="#1F2933" stroke-width="3.5" stroke-linecap="round" fill="none"/><path d="M 465.0 350.0 Q 514.9 271.8 610.0 245.0" fill="none" stroke="#1F2933" stroke-width="3.5" stroke-linecap="round"/><path d="M 610.0 245.0 L 587.9 238.5" stroke="#1F2933" stroke-width="3.5" stroke-linecap="round" fill="none"/><path d="M 610.0 245.0 L 595.0 259.8" stroke="#1F2933" stroke-width="3.5" stroke-linecap="round" fill="none"/><text x="800.0" y="435.0" font-family="'Segoe Print','Bradley Hand','Comic Sans MS',cursive" font-size="30" fill="#4B5563" text-anchor="middle" font-weight="normal" opacity="1.0">repeat weekly</text></svg>
