<svg xmlns="http://www.w3.org/2000/svg" viewBox="0 0 1600 900" role="img" aria-labelledby="t d" preserveAspectRatio="xMidYMid meet"><title id="t">ADL installation roadmap</title><desc id="d">Seven installation steps: prepare Android, install Termux, install Termux:X11, install Ubuntu, install XFCE, launch the desktop, install apps.</desc><rect x="0" y="0" width="1600" height="900" fill="#F7F1E6"/><line x1="200" y1="30" x2="201" y2="870" stroke="#8A8178" stroke-width="1" opacity="0.18"/><line x1="804" y1="30" x2="805" y2="870" stroke="#8A8178" stroke-width="1" opacity="0.18"/><line x1="1397" y1="30" x2="1401" y2="870" stroke="#8A8178" stroke-width="1" opacity="0.18"/><line x1="40" y1="151" x2="1560" y2="155" stroke="#8A8178" stroke-width="1" opacity="0.18"/><line x1="40" y1="451" x2="1560" y2="453" stroke="#8A8178" stroke-width="1" opacity="0.18"/><line x1="40" y1="746" x2="1560" y2="747" stroke="#8A8178" stroke-width="1" opacity="0.18"/><line x1="70" y1="20" x2="70" y2="880" stroke="#8A8178" stroke-width="1.6" opacity="0.3"/><path d="M 30 40 L 50 40 M 40 30 L 40 50" stroke="#8A8178" stroke-width="1.3" opacity="0.4"/><path d="M 1550 40 L 1570 40 M 1560 30 L 1560 50" stroke="#8A8178" stroke-width="1.3" opacity="0.4"/><path d="M 30 860 L 50 860 M 40 850 L 40 870" stroke="#8A8178" stroke-width="1.3" opacity="0.4"/><path d="M 1550 860 L 1570 860 M 1560 850 L 1560 870" stroke="#8A8178" stroke-width="1.3" opacity="0.4"/><text x="800.0" y="84.0" font-family="'Segoe Print','Bradley Hand','Comic Sans MS',cursive" font-size="42" fill="#1F2933" text-anchor="middle" font-weight="bold" opacity="1.0">Installation roadmap</text><path d="M 580 101 Q 800 111 1020 97" stroke="#1F2933" stroke-width="2.5" fill="none" opacity="0.75"/><rect x="102.3" y="237.2" width="300" height="140" fill="none" stroke="#8A8178" stroke-width="1.4" opacity="0.55" stroke-dasharray="7 5"/><path d="M 105.4 239.4 Q 136.4 240.3 173.0 239.8 Q 212.2 240.6 255.4 245.8 Q 289.2 238.9 324.4 237.4 Q 360.9 239.3 402.0 239.7 Q 405.0 257.0 402.7 270.2 Q 402.6 288.3 399.7 307.7 Q 399.4 328.0 394.8 349.6 Q 397.1 362.3 399.2 374.1 Q 364.7 375.4 324.2 382.6 Q 290.8 384.8 255.5 383.5 Q 221.5 382.2 181.8 375.2 Q 141.3 374.2 105.6 372.9 Q 102.5 360.4 104.6 345.3 Q 103.8 327.9 101.2 307.8 Q 98.8 293.6 102.3 277.5 Z" fill="#8A936D" fill-opacity="0.5" stroke="none"/><path d="M 103.1 242.1 Q 138.1 241.4 171.5 242.2 Q 207.8 240.3 246.7 241.9 Q 288.9 243.1 327.7 243.1 Q 365.1 242.8 403.4 241.9 Q 402.9 256.2 402.4 273.4 Q 400.7 290.5 400.2 309.5 Q 398.9 329.4 399.7 348.3 Q 399.2 363.3 398.7 380.8 Q 361.6 378.0 327.0 376.7 Q 290.6 377.1 253.4 380.4 Q 215.1 378.4 177.9 376.9 Q 139.8 377.1 100.5 377.6 Q 97.1 362.5 97.0 347.7 Q 96.8 326.4 97.0 307.3 Q 96.8 290.0 97.9 274.2 Z" fill="none" stroke="#1F2933" stroke-width="3" stroke-linecap="round" stroke-linejoin="round"/><text x="250.0" y="319.4" font-family="'Segoe Print','Bradley Hand','Comic Sans MS',cursive" font-size="27" fill="#1F2933" text-anchor="middle" font-weight="bold" opacity="1.0">1. Prepare Android</text><path d="M 405.0 310.0 Q 428.2 319.9 455.0 310.0" fill="none" stroke="#1F2933" stroke-width="3.5" stroke-linecap="round"/><path d="M 455.0 310.0 L 432.4 307.0" stroke="#1F2933" stroke-width="3.5" stroke-linecap="round" fill="none"/><path d="M 455.0 310.0 L 439.7 325.9" stroke="#1F2933" stroke-width="3.5" stroke-linecap="round" fill="none"/><rect x="461.6" y="237.2" width="300" height="140" fill="none" stroke="#8A8178" stroke-width="1.4" opacity="0.55" stroke-dasharray="7 5"/><path d="M 463.9 243.6 Q 494.5 242.7 530.1 236.8 Q 570.4 236.3 605.5 237.7 Q 647.9 242.9 684.8 243.8 Q 723.3 243.3 757.4 242.1 Q 757.5 259.9 760.7 273.4 Q 759.7 291.8 753.1 314.4 Q 756.1 327.8 754.4 340.9 Q 754.1 357.1 756.5 375.9 Q 723.5 377.0 684.6 373.3 Q 649.6 376.0 615.9 379.9 Q 581.7 377.8 541.6 373.8 Q 501.8 378.0 467.1 379.6 Q 463.2 363.1 457.7 341.0 Q 463.6 326.9 466.3 315.6 Q 464.9 298.4 462.3 281.3 Z" fill="#4B5563" fill-opacity="0.5" stroke="none"/><path d="M 461.2 243.0 Q 496.9 240.6 535.0 237.5 Q 571.9 239.5 607.4 241.0 Q 645.4 239.7 686.1 240.8 Q 724.0 242.4 760.5 241.6 Q 762.8 256.6 762.4 272.8 Q 758.7 291.3 758.3 307.4 Q 759.9 327.7 759.5 347.2 Q 760.1 363.1 761.2 377.0 Q 725.3 376.6 686.3 377.2 Q 650.5 375.4 612.0 376.9 Q 574.4 378.0 537.5 377.9 Q 499.7 379.8 463.3 378.7 Q 461.9 361.1 461.0 346.8 Q 458.1 327.7 458.2 308.4 Q 457.9 291.2 460.1 272.3 Z" fill="none" stroke="#1F2933" stroke-width="3" stroke-linecap="round" stroke-linejoin="round"/><text x="610.0" y="319.4" font-family="'Segoe Print','Bradley Hand','Comic Sans MS',cursive" font-size="27" fill="#1F2933" text-anchor="middle" font-weight="bold" opacity="1.0">2. Install Termux</text><path d="M 765.0 310.0 Q 789.0 305.3 815.0 310.0" fill="none" stroke="#1F2933" stroke-width="3.5" stroke-linecap="round"/><path d="M 815.0 310.0 L 797.1 296.3" stroke="#1F2933" stroke-width="3.5" stroke-linecap="round" fill="none"/><path d="M 815.0 310.0 L 793.6 315.9" stroke="#1F2933" stroke-width="3.5" stroke-linecap="round" fill="none"/><rect x="817.5" y="239.6" width="300" height="140" fill="none" stroke="#8A8178" stroke-width="1.4" opacity="0.55" stroke-dasharray="7 5"/><path d="M 826.5 246.3 Q 857.1 240.2 890.6 236.6 Q 929.0 238.3 966.5 236.6 Q 1006.4 235.7 1048.7 239.6 Q 1079.2 244.4 1112.4 245.2 Q 1119.0 262.8 1123.6 277.9 Q 1121.9 289.8 1114.6 307.5 Q 1118.5 330.5 1119.1 349.5 Q 1122.8 367.0 1121.1 381.3 Q 1082.5 379.5 1046.2 383.6 Q 1004.2 382.5 965.1 377.4 Q 934.8 380.0 899.6 380.5 Q 856.6 375.6 818.8 375.5 Q 825.5 362.9 827.4 346.8 Q 826.2 326.8 821.6 312.4 Q 820.8 292.9 822.8 273.0 Z" fill="#3E5C76" fill-opacity="0.5" stroke="none"/><path d="M 818.5 238.6 Q 857.0 239.6 895.7 241.6 Q 933.7 243.6 971.6 242.3 Q 1008.5 239.3 1042.4 238.7 Q 1079.4 238.9 1119.2 236.7 Q 1122.2 255.5 1123.2 274.0 Q 1122.8 295.0 1121.8 313.5 Q 1122.8 328.8 1123.5 347.6 Q 1120.9 363.9 1116.5 377.9 Q 1082.4 376.8 1047.9 377.6 Q 1009.3 378.9 969.5 382.2 Q 930.9 382.0 893.4 380.3 Q 856.3 379.4 820.3 378.9 Q 821.1 364.1 821.7 346.1 Q 819.3 327.2 816.6 308.0 Q 818.9 292.7 819.8 277.2 Z" fill="none" stroke="#1F2933" stroke-width="3" stroke-linecap="round" stroke-linejoin="round"/><text x="970.0" y="319.4" font-family="'Segoe Print','Bradley Hand','Comic Sans MS',cursive" font-size="27" fill="#1F2933" text-anchor="middle" font-weight="bold" opacity="1.0">3. Install Termux:X11</text><path d="M 1125.0 310.0 Q 1147.7 301.5 1175.0 310.0" fill="none" stroke="#1F2933" stroke-width="3.5" stroke-linecap="round"/><path d="M 1175.0 310.0 L 1159.5 292.7" stroke="#1F2933" stroke-width="3.5" stroke-linecap="round" fill="none"/><path d="M 1175.0 310.0 L 1152.9 312.7" stroke="#1F2933" stroke-width="3.5" stroke-linecap="round" fill="none"/><rect x="1178.8" y="243.3" width="300" height="140" fill="none" stroke="#8A8178" stroke-width="1.4" opacity="0.55" stroke-dasharray="7 5"/><path d="M 1177.3 240.2 Q 1220.3 242.7 1257.8 245.7 Q 1291.2 243.3 1327.6 243.7 Q 1366.7 244.9 1403.5 240.9 Q 1440.4 243.2 1473.9 241.7 Q 1475.7 256.6 1475.3 270.6 Q 1478.2 291.6 1483.6 315.7 Q 1478.7 334.1 1476.7 349.7 Q 1479.2 368.7 1476.5 382.8 Q 1442.4 382.0 1405.9 380.6 Q 1368.3 376.5 1333.4 372.5 Q 1293.9 375.4 1253.7 383.0 Q 1213.6 384.1 1176.4 380.3 Q 1176.5 360.2 1182.4 342.5 Q 1187.4 324.1 1187.2 308.7 Q 1180.5 292.2 1177.2 272.8 Z" fill="#D8C3A5" fill-opacity="0.5" stroke="none"/><path d="M 1182.5 238.1 Q 1218.6 238.4 1253.5 241.9 Q 1290.1 241.0 1327.1 241.6 Q 1366.2 241.0 1406.7 240.2 Q 1443.2 240.6 1477.6 241.9 Q 1478.2 259.3 1477.4 274.5 Q 1476.9 294.9 1478.8 312.9 Q 1478.8 328.6 1482.2 346.1 Q 1481.4 364.3 1482.0 381.2 Q 1445.1 377.8 1406.5 377.1 Q 1368.3 377.2 1329.9 379.2 Q 1290.6 380.4 1251.5 378.7 Q 1217.5 380.7 1181.2 381.4 Q 1181.1 363.0 1182.0 342.1 Q 1179.4 325.7 1177.6 308.3 Q 1178.2 292.1 1180.5 274.0 Z" fill="none" stroke="#1F2933" stroke-width="3" stroke-linecap="round" stroke-linejoin="round"/><text x="1330.0" y="319.4" font-family="'Segoe Print','Bradley Hand','Comic Sans MS',cursive" font-size="27" fill="#1F2933" text-anchor="middle" font-weight="bold" opacity="1.0">4. Install Ubuntu</text><path d="M 1330.0 385.0 Q 1317.9 434.9 1330.0 490.0" fill="none" stroke="#1F2933" stroke-width="3.5" stroke-linecap="round"/><path d="M 1330.0 490.0 L 1337.3 467.9" stroke="#1F2933" stroke-width="3.5" stroke-linecap="round" fill="none"/><path d="M 1330.0 490.0 L 1317.0 472.1" stroke="#1F2933" stroke-width="3.5" stroke-linecap="round" fill="none"/><rect x="1176.5" y="516.7" width="300" height="140" fill="none" stroke="#8A8178" stroke-width="1.4" opacity="0.55" stroke-dasharray="7 5"/><path d="M 1182.6 518.2 Q 1221.3 520.9 1260.5 519.5 Q 1294.1 522.2 1331.8 524.9 Q 1369.2 526.8 1409.6 525.8 Q 1441.4 521.7 1475.5 517.2 Q 1472.9 536.1 1475.0 559.4 Q 1476.6 572.5 1478.8 584.8 Q 1475.2 603.3 1472.8 618.9 Q 1476.4 641.7 1474.5 662.9 Q 1442.3 658.1 1407.4 658.1 Q 1367.6 663.2 1325.6 663.7 Q 1289.4 657.8 1257.7 655.3 Q 1217.0 652.6 1178.0 655.8 Q 1184.5 637.4 1186.9 619.4 Q 1182.7 602.0 1176.0 585.7 Q 1181.4 573.6 1187.7 559.4 Z" fill="#5A9A9A" fill-opacity="0.5" stroke="none"/><path d="M 1179.5 517.7 Q 1217.5 517.8 1256.3 520.5 Q 1293.2 519.4 1333.3 519.7 Q 1369.4 520.6 1404.7 523.2 Q 1443.8 523.5 1480.3 522.8 Q 1480.1 537.1 1478.8 552.8 Q 1479.1 570.4 1481.0 589.9 Q 1481.8 609.1 1482.7 626.1 Q 1482.3 643.2 1480.8 663.0 Q 1441.0 661.3 1403.8 661.3 Q 1367.1 663.0 1331.4 661.5 Q 1290.7 660.0 1252.3 661.5 Q 1215.9 661.6 1180.2 660.0 Q 1179.1 640.0 1178.2 622.8 Q 1178.7 607.2 1176.7 588.3 Q 1178.2 571.8 1178.4 556.1 Z" fill="none" stroke="#1F2933" stroke-width="3" stroke-linecap="round" stroke-linejoin="round"/><text x="1330.0" y="599.5" font-family="'Segoe Print','Bradley Hand','Comic Sans MS',cursive" font-size="27" fill="#1F2933" text-anchor="middle" font-weight="bold" opacity="1.0">5. Install XFCE</text><path d="M 1175.0 590.0 Q 1149.2 586.1 1130.0 590.0" fill="none" stroke="#1F2933" stroke-width="3.5" stroke-linecap="round"/><path d="M 1130.0 590.0 L 1152.2 596.0" stroke="#1F2933" stroke-width="3.5" stroke-linecap="round" fill="none"/><path d="M 1130.0 590.0 L 1147.2 577.5" stroke="#1F2933" stroke-width="3.5" stroke-linecap="round" fill="none"/><rect x="820.5" y="522.3" width="300" height="140" fill="none" stroke="#8A8178" stroke-width="1.4" opacity="0.55" stroke-dasharray="7 5"/><path d="M 822.4 516.2 Q 862.2 516.7 896.9 520.8 Q 931.7 518.8 966.2 519.4 Q 1001.5 524.3 1038.9 526.4 Q 1081.0 527.0 1121.0 524.3 Q 1124.4 542.5 1122.5 560.2 Q 1116.2 573.8 1113.4 588.8 Q 1118.4 602.9 1123.2 618.2 Q 1120.7 633.8 1123.4 653.6 Q 1079.5 656.3 1040.5 660.9 Q 1003.4 661.0 964.1 660.6 Q 929.2 656.4 890.3 655.0 Q 851.7 656.6 818.0 652.5 Q 815.0 635.3 817.2 619.5 Q 819.0 605.6 820.7 590.8 Q 822.6 573.1 823.9 558.8 Z" fill="#5AB8FF" fill-opacity="0.5" stroke="none"/><path d="M 817.4 522.0 Q 854.9 519.4 894.7 518.9 Q 930.4 521.3 968.8 520.4 Q 1008.1 519.5 1047.7 519.4 Q 1086.1 517.5 1122.4 518.0 Q 1123.7 535.7 1123.3 554.4 Q 1119.8 570.5 1117.8 589.6 Q 1117.9 605.2 1116.7 622.0 Q 1116.3 640.8 1116.6 661.3 Q 1079.9 661.9 1046.6 659.7 Q 1007.2 660.3 967.7 660.3 Q 931.5 658.1 894.2 657.0 Q 858.3 659.9 823.1 662.8 Q 820.5 642.9 820.9 621.5 Q 822.7 605.5 822.8 588.9 Q 822.3 575.1 821.1 558.3 Z" fill="none" stroke="#1F2933" stroke-width="3" stroke-linecap="round" stroke-linejoin="round"/><text x="970.0" y="599.5" font-family="'Segoe Print','Bradley Hand','Comic Sans MS',cursive" font-size="27" fill="#1F2933" text-anchor="middle" font-weight="bold" opacity="1.0">6. Launch desktop</text><path d="M 815.0 590.0 Q 792.1 582.5 770.0 590.0" fill="none" stroke="#1F2933" stroke-width="3.5" stroke-linecap="round"/><path d="M 770.0 590.0 L 792.7 592.3" stroke="#1F2933" stroke-width="3.5" stroke-linecap="round" fill="none"/><path d="M 770.0 590.0 L 786.0 575.7" stroke="#1F2933" stroke-width="3.5" stroke-linecap="round" fill="none"/><rect x="455.5" y="524.3" width="300" height="140" fill="none" stroke="#8A8178" stroke-width="1.4" opacity="0.55" stroke-dasharray="7 5"/><path d="M 458.2 517.0 Q 495.6 521.3 537.9 521.0 Q 570.8 522.1 606.0 523.8 Q 645.8 524.1 683.5 525.0 Q 717.6 519.6 755.3 516.6 Q 757.9 537.8 761.2 557.0 Q 760.2 570.7 756.6 588.6 Q 754.9 605.6 753.0 620.0 Q 756.4 637.4 759.2 660.5 Q 720.3 662.4 678.6 658.9 Q 641.3 660.5 609.4 661.8 Q 572.0 660.5 534.0 660.9 Q 498.4 656.1 457.0 652.2 Q 460.2 634.9 459.6 622.7 Q 463.8 607.9 465.6 591.2 Q 464.2 575.0 465.8 558.7 Z" fill="#D6A94A" fill-opacity="0.5" stroke="none"/><path d="M 463.2 518.0 Q 500.7 518.3 538.1 519.5 Q 573.5 518.9 611.1 520.0 Q 648.7 522.2 688.5 522.9 Q 720.9 524.2 756.6 522.5 Q 758.4 540.5 758.5 555.7 Q 757.7 570.7 760.2 587.3 Q 758.9 608.5 757.4 626.7 Q 756.8 643.0 756.6 661.6 Q 718.1 659.1 682.4 660.0 Q 645.9 659.0 607.9 661.1 Q 572.2 662.6 534.4 662.0 Q 496.0 662.4 457.4 660.8 Q 460.1 642.6 461.1 622.5 Q 459.9 607.0 458.1 588.8 Q 458.5 572.0 457.9 554.4 Z" fill="none" stroke="#1F2933" stroke-width="3" stroke-linecap="round" stroke-linejoin="round"/><text x="610.0" y="599.5" font-family="'Segoe Print','Bradley Hand','Comic Sans MS',cursive" font-size="27" fill="#1F2933" text-anchor="middle" font-weight="bold" opacity="1.0">7. Install apps</text><text x="800.0" y="780.0" font-family="'Segoe Print','Bradley Hand','Comic Sans MS',cursive" font-size="28" fill="#4B5563" text-anchor="middle" font-weight="normal" opacity="1.0">about 30–45 minutes end to end — most of it is download time</text></svg>
