<svg xmlns="http://www.w3.org/2000/svg" viewBox="0 0 1600 900" role="img" aria-labelledby="t d" preserveAspectRatio="xMidYMid meet"><title id="t">ADL directory layout</title><desc id="d">The phone holds Termux home, the Ubuntu root filesystem, and shared storage with downloads and backups folders visible from both Linux and Android.</desc><rect x="0" y="0" width="1600" height="900" fill="#F7F1E6"/><line x1="204" y1="30" x2="198" y2="870" stroke="#8A8178" stroke-width="1" opacity="0.18"/><line x1="797" y1="30" x2="800" y2="870" stroke="#8A8178" stroke-width="1" opacity="0.18"/><line x1="1406" y1="30" x2="1400" y2="870" stroke="#8A8178" stroke-width="1" opacity="0.18"/><line x1="40" y1="155" x2="1560" y2="146" stroke="#8A8178" stroke-width="1" opacity="0.18"/><line x1="40" y1="454" x2="1560" y2="453" stroke="#8A8178" stroke-width="1" opacity="0.18"/><line x1="40" y1="752" x2="1560" y2="752" stroke="#8A8178" stroke-width="1" opacity="0.18"/><line x1="70" y1="20" x2="70" y2="880" stroke="#8A8178" stroke-width="1.6" opacity="0.3"/><path d="M 30 40 L 50 40 M 40 30 L 40 50" stroke="#8A8178" stroke-width="1.3" opacity="0.4"/><path d="M 1550 40 L 1570 40 M 1560 30 L 1560 50" stroke="#8A8178" stroke-width="1.3" opacity="0.4"/><path d="M 30 860 L 50 860 M 40 850 L 40 870" stroke="#8A8178" stroke-width="1.3" opacity="0.4"/><path d="M 1550 860 L 1570 860 M 1560 850 L 1560 870" stroke="#8A8178" stroke-width="1.3" opacity="0.4"/><text x="800.0" y="84.0" font-family="'Segoe Print','Bradley Hand','Comic Sans MS',cursive" font-size="42" fill="#1F2933" text-anchor="middle" font-weight="bold" opacity="1.0">Directory layout</text><path d="M 624 103 Q 800 112 976 99" stroke="#1F2933" stroke-width="2.5" fill="none" opacity="0.75"/><rect x="561.2" y="146.4" width="480" height="120" fill="none" stroke="#8A8178" stroke-width="1.4" opacity="0.55" stroke-dasharray="7 5"/><path d="M 565.1 152.7 Q 625.7 152.3 680.6 154.1 Q 739.6 154.7 795.6 156.1 Q 856.2 152.2 917.3 150.0 Q 980.3 152.5 1043.8 149.7 Q 1036.7 164.6 1034.4 178.2 Q 1032.4 189.2 1033.3 206.2 Q 1033.0 221.3 1037.4 235.8 Q 1036.0 255.7 1039.2 270.9 Q 975.9 266.8 917.8 268.1 Q 860.5 271.4 800.0 271.8 Q 744.6 272.6 686.9 272.5 Q 627.6 272.5 566.3 268.4 Q 567.8 252.5 563.8 242.5 Q 558.1 227.1 556.4 208.8 Q 557.0 200.4 563.3 186.9 Z" fill="#D0D4D6" fill-opacity="0.5" stroke="none"/><path d="M 559.7 153.4 Q 616.4 153.3 676.6 149.9 Q 738.6 150.7 798.8 149.2 Q 858.9 148.8 918.8 149.8 Q 980.9 150.8 1041.1 151.3 Q 1037.8 166.0 1037.2 182.4 Q 1039.4 193.3 1041.6 207.0 Q 1042.9 224.0 1041.2 242.6 Q 1042.7 258.5 1043.5 273.4 Q 980.0 271.9 919.8 271.2 Q 861.0 273.2 801.9 273.4 Q 739.1 273.6 677.7 271.7 Q 620.7 271.6 561.7 273.4 Q 560.1 255.3 557.5 237.2 Q 558.6 223.2 556.9 210.8 Q 558.7 197.0 557.4 182.1 Z" fill="none" stroke="#1F2933" stroke-width="3" stroke-linecap="round" stroke-linejoin="round"/><text x="800.0" y="221.2" font-family="'Segoe Print','Bradley Hand','Comic Sans MS',cursive" font-size="32" fill="#1F2933" text-anchor="middle" font-weight="bold" opacity="1.0">Your phone</text><rect x="126.6" y="396.4" width="330" height="150" fill="none" stroke="#8A8178" stroke-width="1.4" opacity="0.55" stroke-dasharray="7 5"/><path d="M 127.4 404.7 Q 169.0 405.1 208.7 406.8 Q 254.2 402.1 299.2 397.8 Q 335.2 399.0 372.3 397.6 Q 414.1 401.8 454.3 405.0 Q 458.0 418.6 460.5 437.7 Q 460.9 453.5 462.0 473.0 Q 459.4 487.8 460.0 508.3 Q 461.6 533.2 462.1 553.9 Q 419.0 547.8 378.2 546.8 Q 332.5 545.4 291.8 550.0 Q 256.0 548.8 216.3 549.8 Q 171.0 551.5 131.6 553.1 Q 135.7 537.6 136.6 516.2 Q 135.1 496.6 138.0 473.8 Q 135.6 455.1 134.8 439.0 Z" fill="#4B5563" fill-opacity="0.5" stroke="none"/><path d="M 127.6 397.7 Q 170.4 398.1 216.0 398.4 Q 255.5 400.6 291.6 399.4 Q 335.2 400.4 377.0 398.8 Q 419.4 400.5 462.5 401.9 Q 460.4 419.2 458.9 439.3 Q 462.1 458.3 462.7 477.8 Q 462.0 496.7 457.9 515.8 Q 457.0 534.8 457.9 552.7 Q 415.5 551.1 375.6 548.2 Q 336.2 551.1 294.0 552.5 Q 252.4 550.2 211.8 550.2 Q 173.0 549.3 130.7 551.2 Q 129.7 531.3 131.6 514.7 Q 132.5 493.4 132.6 472.2 Q 131.2 455.3 128.2 439.5 Z" fill="none" stroke="#1F2933" stroke-width="3" stroke-linecap="round" stroke-linejoin="round"/><text x="295.0" y="467.0" font-family="'Segoe Print','Bradley Hand','Comic Sans MS',cursive" font-size="28" fill="#1F2933" text-anchor="middle" font-weight="bold" opacity="1.0">Termux home</text><text x="295.0" y="501.0" font-family="'Segoe Print','Bradley Hand','Comic Sans MS',cursive" font-size="20" fill="#4B5563" text-anchor="middle" font-weight="normal" opacity="1.0">scripts + launchers</text><path d="M 800.0 275.0 Q 534.5 276.3 295.0 395.0" fill="none" stroke="#64748B" stroke-width="3" stroke-linecap="round"/><path d="M 295.0 395.0 L 317.6 394.5" stroke="#64748B" stroke-width="3" stroke-linecap="round" fill="none"/><path d="M 295.0 395.0 L 307.7 377.4" stroke="#64748B" stroke-width="3" stroke-linecap="round" fill="none"/><rect x="498.8" y="396.3" width="330" height="150" fill="none" stroke="#8A8178" stroke-width="1.4" opacity="0.55" stroke-dasharray="7 5"/><path d="M 499.7 404.5 Q 540.7 401.3 579.8 399.1 Q 620.5 398.4 664.4 402.3 Q 704.8 397.5 747.2 396.9 Q 786.3 400.8 822.1 407.2 Q 826.3 422.2 825.0 436.3 Q 822.0 457.4 822.5 479.2 Q 823.7 500.8 824.3 516.5 Q 822.1 532.5 824.5 549.4 Q 784.0 545.1 743.2 543.7 Q 707.7 549.7 667.7 552.4 Q 628.3 551.1 585.3 552.3 Q 542.8 546.2 505.2 542.1 Q 506.5 530.9 503.6 515.3 Q 500.3 498.5 499.4 479.2 Q 497.9 459.6 496.8 436.7 Z" fill="#D8C3A5" fill-opacity="0.5" stroke="none"/><path d="M 496.7 400.0 Q 542.4 400.7 585.1 401.6 Q 624.2 400.9 663.7 400.4 Q 707.3 399.9 750.1 397.1 Q 791.5 401.1 832.9 402.8 Q 829.3 421.8 828.0 437.6 Q 829.5 454.7 830.2 474.7 Q 827.3 494.2 827.7 513.4 Q 829.4 530.7 829.0 548.6 Q 791.1 550.5 750.8 549.1 Q 706.2 550.1 663.3 548.9 Q 624.5 547.3 584.0 547.3 Q 542.8 550.4 502.6 551.7 Q 503.6 533.9 502.5 514.1 Q 503.8 497.0 502.0 477.3 Q 500.7 455.0 498.3 436.1 Z" fill="none" stroke="#1F2933" stroke-width="3" stroke-linecap="round" stroke-linejoin="round"/><text x="665.0" y="467.0" font-family="'Segoe Print','Bradley Hand','Comic Sans MS',cursive" font-size="28" fill="#1F2933" text-anchor="middle" font-weight="bold" opacity="1.0">Ubuntu root</text><text x="665.0" y="501.0" font-family="'Segoe Print','Bradley Hand','Comic Sans MS',cursive" font-size="20" fill="#4B5563" text-anchor="middle" font-weight="normal" opacity="1.0">the Linux system</text><path d="M 800.0 275.0 Q 749.0 349.3 665.0 395.0" fill="none" stroke="#64748B" stroke-width="3" stroke-linecap="round"/><path d="M 665.0 395.0 L 686.6 393.2" stroke="#64748B" stroke-width="3" stroke-linecap="round" fill="none"/><path d="M 665.0 395.0 L 675.0 376.4" stroke="#64748B" stroke-width="3" stroke-linecap="round" fill="none"/><rect x="865.5" y="400.6" width="330" height="150" fill="none" stroke="#8A8178" stroke-width="1.4" opacity="0.55" stroke-dasharray="7 5"/><path d="M 868.9 406.2 Q 915.1 405.7 959.5 400.0 Q 995.2 395.6 1033.8 396.4 Q 1076.2 399.6 1119.4 397.6 Q 1160.1 400.5 1199.6 407.8 Q 1193.4 425.4 1192.3 441.9 Q 1196.0 455.4 1199.7 470.5 Q 1200.4 491.5 1198.9 508.6 Q 1194.3 528.7 1192.4 549.1 Q 1154.2 547.0 1114.4 548.0 Q 1073.7 546.4 1030.3 543.8 Q 989.6 544.1 949.3 544.3 Q 910.6 546.5 870.6 550.9 Q 870.5 531.0 873.2 513.0 Q 873.1 497.6 871.6 480.6 Q 869.4 462.7 867.4 441.4 Z" fill="#8A936D" fill-opacity="0.5" stroke="none"/><path d="M 872.3 398.8 Q 914.8 399.7 955.6 400.6 Q 993.5 401.4 1033.9 401.2 Q 1075.5 399.1 1119.1 400.3 Q 1156.9 403.0 1196.9 402.2 Q 1198.9 418.9 1203.3 435.3 Q 1202.1 454.5 1199.3 476.5 Q 1197.7 495.8 1198.7 515.8 Q 1196.6 531.3 1196.5 548.8 Q 1158.4 546.8 1119.8 547.6 Q 1077.8 548.5 1034.5 546.8 Q 993.1 547.4 955.2 547.8 Q 912.4 548.9 873.2 548.4 Q 872.5 531.0 873.1 512.3 Q 873.0 493.7 869.3 474.3 Q 869.4 453.8 868.4 434.8 Z" fill="none" stroke="#1F2933" stroke-width="3" stroke-linecap="round" stroke-linejoin="round"/><text x="1035.0" y="467.0" font-family="'Segoe Print','Bradley Hand','Comic Sans MS',cursive" font-size="28" fill="#1F2933" text-anchor="middle" font-weight="bold" opacity="1.0">Shared storage</text><text x="1035.0" y="501.0" font-family="'Segoe Print','Bradley Hand','Comic Sans MS',cursive" font-size="20" fill="#4B5563" text-anchor="middle" font-weight="normal" opacity="1.0">visible to Android</text><path d="M 800.0 275.0 Q 906.8 363.4 1035.0 395.0" fill="none" stroke="#64748B" stroke-width="3" stroke-linecap="round"/><path d="M 1035.0 395.0 L 1018.7 378.2" stroke="#64748B" stroke-width="3" stroke-linecap="round" fill="none"/><path d="M 1035.0 395.0 L 1012.2 402.1" stroke="#64748B" stroke-width="3" stroke-linecap="round" fill="none"/><rect x="702.9" y="663.1" width="280" height="120" fill="none" stroke="#8A8178" stroke-width="1.4" opacity="0.55" stroke-dasharray="7 5"/><path d="M 706.9 661.9 Q 739.8 660.9 773.5 661.4 Q 808.8 659.8 842.3 661.2 Q 876.4 661.2 911.8 664.6 Q 945.8 662.3 979.0 658.8 Q 978.9 676.5 976.4 690.4 Q 972.6 703.4 973.5 715.6 Q 973.3 727.6 977.2 744.7 Q 973.0 764.7 974.0 779.6 Q 943.7 778.9 911.3 779.7 Q 880.4 779.4 844.4 779.4 Q 809.8 775.4 774.2 776.7 Q 739.9 777.1 707.4 772.3 Q 703.2 764.8 701.5 751.4 Q 701.1 737.1 696.7 724.3 Q 698.6 707.9 699.0 696.7 Z" fill="#D6A94A" fill-opacity="0.5" stroke="none"/><path d="M 697.2 659.9 Q 732.4 663.3 768.4 663.3 Q 801.5 661.9 837.6 657.7 Q 873.1 658.1 909.7 658.0 Q 946.4 658.1 983.0 658.9 Q 981.4 674.9 982.6 688.8 Q 981.1 703.2 982.3 718.8 Q 980.5 732.0 977.8 747.9 Q 977.2 766.5 978.2 782.5 Q 944.3 780.5 911.0 778.0 Q 878.4 779.1 843.5 778.1 Q 805.0 780.8 767.6 783.3 Q 734.4 782.8 700.2 779.3 Q 698.8 765.9 699.4 751.7 Q 699.3 734.8 702.5 720.1 Q 703.3 703.2 703.2 687.3 Z" fill="none" stroke="#1F2933" stroke-width="3" stroke-linecap="round" stroke-linejoin="round"/><text x="840.0" y="729.5" font-family="'Segoe Print','Bradley Hand','Comic Sans MS',cursive" font-size="27" fill="#1F2933" text-anchor="middle" font-weight="bold" opacity="1.0">Downloads</text><rect x="1059.7" y="655.3" width="280" height="120" fill="none" stroke="#8A8178" stroke-width="1.4" opacity="0.55" stroke-dasharray="7 5"/><path d="M 1067.1 667.7 Q 1098.5 666.1 1127.9 659.4 Q 1162.0 661.8 1200.7 665.1 Q 1234.7 664.0 1271.3 667.8 Q 1307.0 664.5 1340.4 656.6 Q 1339.1 676.5 1333.7 694.8 Q 1331.6 707.4 1334.1 715.8 Q 1334.4 731.3 1332.4 743.7 Q 1335.3 763.9 1342.9 779.2 Q 1303.0 777.6 1263.3 772.0 Q 1233.2 776.4 1201.6 775.4 Q 1167.9 773.6 1132.2 774.1 Q 1098.0 777.9 1057.8 781.8 Q 1061.8 763.4 1067.7 747.6 Q 1063.8 731.7 1059.7 717.4 Q 1056.5 700.7 1056.3 689.0 Z" fill="#D6A94A" fill-opacity="0.5" stroke="none"/><path d="M 1058.2 661.8 Q 1094.9 662.2 1128.8 659.3 Q 1163.1 660.0 1198.0 657.9 Q 1231.3 658.2 1267.1 657.2 Q 1304.4 656.3 1338.9 657.5 Q 1342.1 675.3 1342.9 691.8 Q 1341.1 705.5 1337.2 720.3 Q 1339.0 735.0 1343.3 747.1 Q 1341.8 762.4 1340.7 780.3 Q 1305.3 780.2 1271.1 777.6 Q 1234.9 776.0 1196.8 776.6 Q 1165.4 777.9 1131.3 782.4 Q 1094.4 782.9 1057.0 783.1 Q 1058.0 766.5 1059.2 753.4 Q 1061.2 735.0 1062.3 716.9 Q 1061.5 703.4 1058.3 689.4 Z" fill="none" stroke="#1F2933" stroke-width="3" stroke-linecap="round" stroke-linejoin="round"/><text x="1200.0" y="729.5" font-family="'Segoe Print','Bradley Hand','Comic Sans MS',cursive" font-size="27" fill="#1F2933" text-anchor="middle" font-weight="bold" opacity="1.0">Backups</text><path d="M 1000.0 555.0 Q 952.2 618.6 880.0 655.0" fill="none" stroke="#64748B" stroke-width="3" stroke-linecap="round"/><path d="M 880.0 655.0 L 902.6 654.4" stroke="#64748B" stroke-width="3" stroke-linecap="round" fill="none"/><path d="M 880.0 655.0 L 894.2 637.7" stroke="#64748B" stroke-width="3" stroke-linecap="round" fill="none"/><path d="M 1090.0 555.0 Q 1141.5 596.3 1170.0 655.0" fill="none" stroke="#64748B" stroke-width="3" stroke-linecap="round"/><path d="M 1170.0 655.0 L 1172.6 632.5" stroke="#64748B" stroke-width="3" stroke-linecap="round" fill="none"/><path d="M 1170.0 655.0 L 1151.3 644.1" stroke="#64748B" stroke-width="3" stroke-linecap="round" fill="none"/><rect x="1287.1" y="399.2" width="250" height="150" fill="none" stroke="#8A8178" stroke-width="1.4" opacity="0.55" stroke-dasharray="7 5"/><path d="M 1293.4 396.0 Q 1319.4 398.7 1349.4 405.1 Q 1384.6 404.0 1415.4 398.7 Q 1448.8 401.5 1481.3 406.4 Q 1505.9 400.5 1532.4 397.8 Q 1535.5 418.8 1537.5 435.7 Q 1539.4 456.1 1543.5 480.1 Q 1540.9 493.9 1542.4 508.3 Q 1541.0 529.7 1541.2 551.5 Q 1514.0 548.3 1482.1 548.5 Q 1448.7 543.9 1419.4 542.0 Q 1382.2 545.9 1349.1 547.0 Q 1322.1 547.1 1293.6 549.2 Q 1292.9 532.1 1290.5 513.4 Q 1290.6 490.8 1287.7 472.9 Q 1289.6 451.3 1288.9 433.9 Z" fill="#5A9A9A" fill-opacity="0.5" stroke="none"/><path d="M 1287.3 400.5 Q 1318.7 399.2 1350.3 398.2 Q 1381.6 397.9 1413.8 400.9 Q 1447.8 402.1 1478.5 403.4 Q 1508.4 400.4 1539.0 400.6 Q 1536.5 421.0 1536.8 438.5 Q 1539.0 455.5 1540.0 472.9 Q 1539.5 492.0 1537.6 514.5 Q 1540.1 535.4 1542.5 553.2 Q 1507.6 549.9 1474.1 550.1 Q 1446.2 550.0 1416.2 548.8 Q 1382.1 550.3 1349.5 549.4 Q 1322.1 552.7 1293.1 553.1 Q 1292.1 534.7 1291.6 513.6 Q 1289.5 492.7 1287.6 473.5 Q 1288.9 456.0 1288.3 435.3 Z" fill="none" stroke="#1F2933" stroke-width="3" stroke-linecap="round" stroke-linejoin="round"/><text x="1415.0" y="467.0" font-family="'Segoe Print','Bradley Hand','Comic Sans MS',cursive" font-size="26" fill="#1F2933" text-anchor="middle" font-weight="bold" opacity="1.0">Both worlds</text><text x="1415.0" y="501.0" font-family="'Segoe Print','Bradley Hand','Comic Sans MS',cursive" font-size="18" fill="#4B5563" text-anchor="middle" font-weight="normal" opacity="1.0">Linux ↔ Android</text><path d="M 1205.0 475.0 Q 1245.0 465.6 1285.0 475.0" fill="none" stroke="#64748B" stroke-width="3" stroke-linecap="round"/><path d="M 1285.0 475.0 L 1267.2 461.1" stroke="#64748B" stroke-width="3" stroke-linecap="round" fill="none"/><path d="M 1285.0 475.0 L 1261.8 482.0" stroke="#64748B" stroke-width="3" stroke-linecap="round" fill="none"/><path d="M 1205.0 475.0 L 1225.5 481.5" stroke="#64748B" stroke-width="3" stroke-linecap="round" fill="none"/><path d="M 1205.0 475.0 L 1220.5 462.2" stroke="#64748B" stroke-width="3" stroke-linecap="round" fill="none"/></svg>
