<svg xmlns="http://www.w3.org/2000/svg" viewBox="0 0 1600 900" role="img" aria-labelledby="t d" preserveAspectRatio="xMidYMid meet"><title id="t">First launch sequence</title><desc id="d">Open Termux, start Linux, start X11, open the desktop, and the monitor shows the Linux desktop.</desc><rect x="0" y="0" width="1600" height="900" fill="#F7F1E6"/><line x1="195" y1="30" x2="199" y2="870" stroke="#8A8178" stroke-width="1" opacity="0.18"/><line x1="804" y1="30" x2="801" y2="870" stroke="#8A8178" stroke-width="1" opacity="0.18"/><line x1="1403" y1="30" x2="1398" y2="870" stroke="#8A8178" stroke-width="1" opacity="0.18"/><line x1="40" y1="149" x2="1560" y2="146" stroke="#8A8178" stroke-width="1" opacity="0.18"/><line x1="40" y1="446" x2="1560" y2="451" stroke="#8A8178" stroke-width="1" opacity="0.18"/><line x1="40" y1="746" x2="1560" y2="746" stroke="#8A8178" stroke-width="1" opacity="0.18"/><line x1="70" y1="20" x2="70" y2="880" stroke="#8A8178" stroke-width="1.6" opacity="0.3"/><path d="M 30 40 L 50 40 M 40 30 L 40 50" stroke="#8A8178" stroke-width="1.3" opacity="0.4"/><path d="M 1550 40 L 1570 40 M 1560 30 L 1560 50" stroke="#8A8178" stroke-width="1.3" opacity="0.4"/><path d="M 30 860 L 50 860 M 40 850 L 40 870" stroke="#8A8178" stroke-width="1.3" opacity="0.4"/><path d="M 1550 860 L 1570 860 M 1560 850 L 1560 870" stroke="#8A8178" stroke-width="1.3" opacity="0.4"/><text x="800.0" y="84.0" font-family="'Segoe Print','Bradley Hand','Comic Sans MS',cursive" font-size="42" fill="#1F2933" text-anchor="middle" font-weight="bold" opacity="1.0">First launch, step by step</text><path d="M 514 99 Q 800 111 1086 101" stroke="#1F2933" stroke-width="2.5" fill="none" opacity="0.75"/><rect x="86.9" y="334.8" width="250" height="150" fill="none" stroke="#8A8178" stroke-width="1.4" opacity="0.55" stroke-dasharray="7 5"/><path d="M 88.3 329.2 Q 121.6 329.8 152.6 333.9 Q 183.5 331.4 209.8 327.1 Q 242.6 329.0 278.3 326.2 Q 303.8 326.1 334.6 329.3 Q 334.3 344.5 339.2 363.4 Q 342.8 384.9 343.6 402.9 Q 336.5 420.8 332.1 437.9 Q 332.6 455.6 333.6 477.9 Q 307.8 475.3 277.6 476.2 Q 245.3 477.9 211.0 478.8 Q 179.6 479.5 149.8 475.2 Q 117.7 480.1 91.0 483.3 Q 90.5 463.9 90.7 438.9 Q 94.5 422.5 93.2 403.1 Q 94.4 381.0 93.3 364.6 Z" fill="#4B5563" fill-opacity="0.5" stroke="none"/><path d="M 90.1 329.8 Q 120.6 330.2 153.6 332.7 Q 183.3 330.5 213.5 328.8 Q 244.3 330.1 276.2 333.0 Q 310.1 330.3 342.9 327.5 Q 341.5 349.0 338.4 369.4 Q 339.1 386.5 340.2 402.4 Q 340.0 420.3 339.2 440.3 Q 337.8 461.2 338.7 478.9 Q 310.5 479.8 279.7 479.7 Q 245.4 480.5 212.2 481.9 Q 180.4 481.3 151.6 483.0 Q 121.5 482.0 90.9 480.6 Q 89.1 460.5 86.8 441.6 Q 89.6 422.8 93.0 404.2 Q 89.3 386.5 86.6 367.1 Z" fill="none" stroke="#1F2933" stroke-width="3" stroke-linecap="round" stroke-linejoin="round"/><text x="215.0" y="414.8" font-family="'Segoe Print','Bradley Hand','Comic Sans MS',cursive" font-size="28" fill="#1F2933" text-anchor="middle" font-weight="bold" opacity="1.0">Open Termux</text><path d="M 345.0 405.0 Q 371.4 408.3 390.0 405.0" fill="none" stroke="#1F2933" stroke-width="3.5" stroke-linecap="round"/><path d="M 390.0 405.0 L 370.3 398.9" stroke="#1F2933" stroke-width="3.5" stroke-linecap="round" fill="none"/><path d="M 390.0 405.0 L 371.8 420.1" stroke="#1F2933" stroke-width="3.5" stroke-linecap="round" fill="none"/><rect x="394.5" y="328.8" width="250" height="150" fill="none" stroke="#8A8178" stroke-width="1.4" opacity="0.55" stroke-dasharray="7 5"/><path d="M 394.8 330.8 Q 423.8 333.1 453.1 333.5 Q 484.2 329.0 518.0 329.6 Q 548.1 335.7 580.5 336.8 Q 609.7 334.0 644.2 332.5 Q 642.6 355.4 646.8 372.4 Q 646.0 392.4 641.0 407.8 Q 645.1 427.4 645.1 441.1 Q 644.2 456.2 637.3 475.7 Q 609.7 476.5 587.0 479.9 Q 553.6 478.3 515.6 472.1 Q 485.0 477.7 453.7 480.8 Q 425.3 481.1 399.5 481.8 Q 398.1 460.1 392.3 436.7 Q 396.9 420.8 395.6 410.0 Q 398.1 393.3 400.1 371.4 Z" fill="#D8C3A5" fill-opacity="0.5" stroke="none"/><path d="M 394.7 331.1 Q 425.5 331.0 454.5 330.9 Q 484.8 330.2 517.3 327.5 Q 549.7 329.8 582.5 331.9 Q 615.8 330.4 647.2 327.9 Q 646.7 345.6 647.5 366.7 Q 647.8 385.9 647.6 403.9 Q 648.1 422.5 646.5 440.8 Q 647.4 462.1 644.9 482.3 Q 614.4 482.3 585.0 479.8 Q 551.7 479.3 519.0 480.7 Q 486.6 483.6 454.6 483.2 Q 426.2 481.4 396.9 479.2 Q 395.5 460.3 397.2 441.2 Q 398.1 421.9 397.7 404.7 Q 397.6 385.5 398.4 369.3 Z" fill="none" stroke="#1F2933" stroke-width="3" stroke-linecap="round" stroke-linejoin="round"/><text x="520.0" y="414.8" font-family="'Segoe Print','Bradley Hand','Comic Sans MS',cursive" font-size="28" fill="#1F2933" text-anchor="middle" font-weight="bold" opacity="1.0">Start Linux</text><path d="M 650.0 405.0 Q 673.9 407.2 695.0 405.0" fill="none" stroke="#1F2933" stroke-width="3.5" stroke-linecap="round"/><path d="M 695.0 405.0 L 672.8 397.7" stroke="#1F2933" stroke-width="3.5" stroke-linecap="round" fill="none"/><path d="M 695.0 405.0 L 677.6 418.9" stroke="#1F2933" stroke-width="3.5" stroke-linecap="round" fill="none"/><rect x="696.1" y="331.9" width="250" height="150" fill="none" stroke="#8A8178" stroke-width="1.4" opacity="0.55" stroke-dasharray="7 5"/><path d="M 697.6 329.6 Q 730.7 331.1 759.5 335.4 Q 794.2 330.0 824.0 328.7 Q 856.7 331.6 886.9 336.9 Q 918.2 337.2 945.1 332.4 Q 949.7 354.7 951.6 371.3 Q 945.4 387.0 942.0 400.2 Q 946.6 426.4 948.5 446.8 Q 947.6 463.6 945.2 478.3 Q 919.8 481.8 889.0 480.6 Q 856.8 480.2 820.2 479.9 Q 793.2 476.9 764.7 477.4 Q 736.0 477.2 707.9 475.2 Q 705.0 461.0 706.2 441.5 Q 702.5 424.5 699.3 410.6 Q 700.2 387.8 696.6 367.9 Z" fill="#3E5C76" fill-opacity="0.5" stroke="none"/><path d="M 696.6 332.2 Q 732.1 330.6 765.1 329.0 Q 795.2 327.4 823.3 328.5 Q 854.9 326.8 884.7 326.7 Q 920.2 328.0 952.5 330.3 Q 949.3 351.3 948.3 368.9 Q 947.5 386.1 947.9 404.5 Q 949.5 422.2 948.8 442.5 Q 947.6 461.8 949.7 482.8 Q 918.6 482.2 884.5 481.7 Q 855.0 481.3 824.7 480.7 Q 796.5 481.8 765.8 482.7 Q 731.2 480.6 697.3 478.5 Q 697.4 459.9 700.8 442.1 Q 700.3 421.6 702.5 403.4 Q 701.0 385.2 702.6 369.7 Z" fill="none" stroke="#1F2933" stroke-width="3" stroke-linecap="round" stroke-linejoin="round"/><text x="825.0" y="414.8" font-family="'Segoe Print','Bradley Hand','Comic Sans MS',cursive" font-size="28" fill="#1F2933" text-anchor="middle" font-weight="bold" opacity="1.0">Start X11</text><path d="M 955.0 405.0 Q 978.0 399.2 1000.0 405.0" fill="none" stroke="#1F2933" stroke-width="3.5" stroke-linecap="round"/><path d="M 1000.0 405.0 L 982.6 389.7" stroke="#1F2933" stroke-width="3.5" stroke-linecap="round" fill="none"/><path d="M 1000.0 405.0 L 979.5 410.6" stroke="#1F2933" stroke-width="3.5" stroke-linecap="round" fill="none"/><rect x="1009.4" y="333.6" width="250" height="150" fill="none" stroke="#8A8178" stroke-width="1.4" opacity="0.55" stroke-dasharray="7 5"/><path d="M 1011.1 335.7 Q 1039.2 334.4 1070.2 329.9 Q 1104.0 334.0 1132.7 337.5 Q 1161.1 334.7 1185.6 329.2 Q 1216.9 333.9 1253.3 333.9 Q 1253.3 347.6 1255.5 367.2 Q 1252.9 382.5 1247.6 403.9 Q 1251.3 421.8 1257.4 436.3 Q 1256.9 455.0 1252.8 478.7 Q 1227.6 474.2 1196.8 472.6 Q 1167.4 473.5 1132.2 478.1 Q 1103.5 479.3 1069.4 476.5 Q 1038.3 482.2 1012.2 482.1 Q 1009.1 462.8 1001.9 446.4 Q 1004.4 429.4 1002.9 409.7 Q 1007.5 390.5 1012.7 365.9 Z" fill="#5A9A9A" fill-opacity="0.5" stroke="none"/><path d="M 1004.7 326.6 Q 1034.6 326.2 1064.4 327.0 Q 1097.1 328.4 1127.2 331.4 Q 1157.5 328.9 1190.4 328.3 Q 1222.4 327.7 1255.3 329.8 Q 1254.3 347.1 1252.4 366.6 Q 1254.6 388.0 1258.0 406.5 Q 1258.8 423.2 1257.3 441.7 Q 1256.3 458.5 1255.9 477.8 Q 1225.5 479.3 1194.5 479.8 Q 1161.1 480.8 1127.3 482.3 Q 1095.4 479.5 1065.7 478.8 Q 1034.9 482.1 1004.2 483.1 Q 1005.4 463.3 1003.7 440.2 Q 1004.4 422.6 1006.8 404.1 Q 1005.8 384.8 1004.1 368.3 Z" fill="none" stroke="#1F2933" stroke-width="3" stroke-linecap="round" stroke-linejoin="round"/><text x="1130.0" y="414.8" font-family="'Segoe Print','Bradley Hand','Comic Sans MS',cursive" font-size="28" fill="#1F2933" text-anchor="middle" font-weight="bold" opacity="1.0">Open desktop</text><path d="M 1260.0 405.0 Q 1279.8 396.1 1305.0 405.0" fill="none" stroke="#1F2933" stroke-width="3.5" stroke-linecap="round"/><path d="M 1305.0 405.0 L 1289.5 387.4" stroke="#1F2933" stroke-width="3.5" stroke-linecap="round" fill="none"/><path d="M 1305.0 405.0 L 1284.1 408.2" stroke="#1F2933" stroke-width="3.5" stroke-linecap="round" fill="none"/><rect x="1307.8" y="297.2" width="320" height="220" fill="none" stroke="#8A8178" stroke-width="1.4" opacity="0.55" stroke-dasharray="7 5"/><path d="M 1310.8 300.2 Q 1349.8 300.1 1386.3 300.7 Q 1425.6 304.9 1464.9 303.7 Q 1509.5 303.4 1554.5 305.8 Q 1590.2 299.5 1627.2 297.0 Q 1624.8 326.7 1626.6 351.0 Q 1630.0 383.2 1634.0 414.5 Q 1630.4 440.1 1622.0 468.2 Q 1625.7 489.9 1629.7 514.4 Q 1588.0 513.4 1544.1 512.8 Q 1505.1 513.0 1470.8 517.7 Q 1431.1 519.0 1387.7 514.7 Q 1350.2 519.8 1309.9 519.9 Q 1311.9 488.6 1317.7 461.3 Q 1316.1 437.4 1312.0 407.8 Q 1313.9 380.2 1310.8 352.2 Z" fill="#B8C0C2" fill-opacity="0.45" stroke="none"/><path d="M 1307.6 298.3 Q 1349.5 297.1 1388.9 296.9 Q 1429.2 299.8 1469.8 302.4 Q 1510.8 302.5 1553.1 303.1 Q 1593.6 300.0 1632.3 299.2 Q 1631.4 327.2 1628.4 357.0 Q 1628.1 383.5 1629.6 406.9 Q 1630.1 435.0 1633.0 464.8 Q 1630.3 490.6 1628.3 516.7 Q 1587.8 518.2 1548.5 518.1 Q 1508.0 517.9 1468.9 516.8 Q 1427.8 517.6 1387.7 519.2 Q 1349.3 521.4 1311.3 521.1 Q 1312.2 493.3 1312.5 467.4 Q 1311.3 439.5 1310.9 409.9 Q 1310.4 381.4 1310.8 354.4 Z" fill="none" stroke="#1F2933" stroke-width="3" stroke-linecap="round" stroke-linejoin="round"/><path d="M 1326.2 314.9 Q 1359.5 315.3 1394.4 315.6 Q 1433.2 315.9 1469.9 315.2 Q 1504.5 314.5 1542.0 315.0 Q 1579.1 314.6 1617.2 312.4 Q 1616.5 333.7 1615.5 356.1 Q 1617.4 377.2 1616.9 398.9 Q 1618.2 419.4 1617.5 442.0 Q 1618.6 461.7 1618.7 483.3 Q 1582.5 483.7 1545.1 481.1 Q 1507.9 480.8 1471.6 479.5 Q 1433.1 479.1 1395.3 479.4 Q 1358.9 481.3 1325.3 481.5 Q 1324.3 463.0 1323.1 441.5 Q 1323.4 421.8 1323.0 399.8 Q 1321.8 379.4 1321.0 358.1 Z" fill="#5A9A9A" fill-opacity="0.30" stroke="#1F2933" stroke-width="2"/><rect x="1330" y="318" width="280" height="10" fill="#3E5C76" opacity="0.6"/><path d="M 1339.9 342.3 Q 1356.9 343.1 1372.3 343.7 Q 1389.0 343.5 1407.0 341.9 Q 1422.8 342.9 1438.1 342.6 Q 1454.5 343.2 1471.0 342.8 Q 1470.4 357.6 1469.4 371.1 Q 1470.2 385.0 1471.4 397.1 Q 1469.9 410.5 1470.0 423.0 Q 1471.3 437.9 1471.1 451.2 Q 1453.9 451.5 1436.3 450.2 Q 1421.7 451.8 1406.1 452.5 Q 1390.2 451.6 1373.3 450.0 Q 1356.3 451.4 1341.3 453.8 Q 1340.6 439.9 1338.9 425.1 Q 1338.8 411.1 1338.6 395.4 Q 1338.6 382.8 1339.5 369.9 Z" fill="#F7F1E6" stroke="#1F2933" stroke-width="1.6"/><path d="M 1478.5 359.7 Q 1490.8 358.8 1503.2 357.3 Q 1515.2 357.9 1528.4 359.0 Q 1541.5 359.6 1555.7 358.5 Q 1567.6 357.9 1579.0 356.4 Q 1577.7 367.9 1578.1 378.6 Q 1578.0 390.6 1577.3 403.1 Q 1578.5 415.5 1580.1 426.1 Q 1580.7 436.4 1579.9 446.3 Q 1566.9 445.5 1553.1 446.5 Q 1540.7 448.5 1529.1 449.7 Q 1515.7 449.5 1503.4 447.7 Q 1492.3 447.2 1480.4 448.4 Q 1478.9 437.3 1478.1 425.0 Q 1480.3 413.7 1481.2 401.8 Q 1480.8 392.5 1481.2 381.2 Z" fill="#F7F1E6" stroke="#1F2933" stroke-width="1.6"/><path d="M 1462.0 520 L 1466.0 550 M 1478.0 520 L 1475.0 550" stroke="#1F2933" stroke-width="3"/><line x1="1424.0" y1="552" x2="1516.0" y2="554" stroke="#1F2933" stroke-width="3.5" stroke-linecap="round"/><text x="1470.0" y="586.0" font-family="'Segoe Print','Bradley Hand','Comic Sans MS',cursive" font-size="26" fill="#1F2933" text-anchor="middle" font-weight="normal" opacity="1.0">Linux desktop appears</text></svg>
