<svg xmlns="http://www.w3.org/2000/svg" viewBox="0 0 1600 900" role="img" aria-labelledby="t d" preserveAspectRatio="xMidYMid meet"><title id="t">Backup and restore flow</title><desc id="d">The Linux container is archived into a single file, stored on external storage or cloud, and can be restored back to the phone.</desc><rect x="0" y="0" width="1600" height="900" fill="#F7F1E6"/><line x1="197" y1="30" x2="205" y2="870" stroke="#8A8178" stroke-width="1" opacity="0.18"/><line x1="802" y1="30" x2="806" y2="870" stroke="#8A8178" stroke-width="1" opacity="0.18"/><line x1="1400" y1="30" x2="1402" y2="870" stroke="#8A8178" stroke-width="1" opacity="0.18"/><line x1="40" y1="149" x2="1560" y2="148" stroke="#8A8178" stroke-width="1" opacity="0.18"/><line x1="40" y1="455" x2="1560" y2="454" stroke="#8A8178" stroke-width="1" opacity="0.18"/><line x1="40" y1="750" x2="1560" y2="751" stroke="#8A8178" stroke-width="1" opacity="0.18"/><line x1="70" y1="20" x2="70" y2="880" stroke="#8A8178" stroke-width="1.6" opacity="0.3"/><path d="M 30 40 L 50 40 M 40 30 L 40 50" stroke="#8A8178" stroke-width="1.3" opacity="0.4"/><path d="M 1550 40 L 1570 40 M 1560 30 L 1560 50" stroke="#8A8178" stroke-width="1.3" opacity="0.4"/><path d="M 30 860 L 50 860 M 40 850 L 40 870" stroke="#8A8178" stroke-width="1.3" opacity="0.4"/><path d="M 1550 860 L 1570 860 M 1560 850 L 1560 870" stroke="#8A8178" stroke-width="1.3" opacity="0.4"/><text x="800.0" y="84.0" font-family="'Segoe Print','Bradley Hand','Comic Sans MS',cursive" font-size="42" fill="#1F2933" text-anchor="middle" font-weight="bold" opacity="1.0">Backup and restore</text><path d="M 602 101 Q 800 109 998 102" stroke="#1F2933" stroke-width="2.5" fill="none" opacity="0.75"/><rect x="123.8" y="337.0" width="330" height="170" fill="none" stroke="#8A8178" stroke-width="1.4" opacity="0.55" stroke-dasharray="7 5"/><path d="M 126.5 338.8 Q 165.2 337.0 202.5 338.4 Q 243.9 341.9 283.7 344.0 Q 323.9 341.1 368.2 341.4 Q 405.6 347.5 446.7 347.6 Q 451.6 363.1 450.8 377.6 Q 452.8 401.2 449.0 430.9 Q 452.5 449.5 450.0 467.5 Q 450.1 486.9 446.8 506.2 Q 401.9 506.2 362.8 507.2 Q 321.4 513.4 280.2 513.8 Q 241.3 507.6 199.8 505.9 Q 159.7 509.1 119.4 506.3 Q 123.4 488.7 125.4 465.8 Q 124.3 447.7 125.9 430.1 Q 118.4 410.9 116.8 387.3 Z" fill="#D8C3A5" fill-opacity="0.5" stroke="none"/><path d="M 121.0 336.6 Q 162.1 340.2 204.7 343.3 Q 245.8 341.8 286.3 336.8 Q 324.9 338.9 365.1 337.7 Q 410.3 337.9 452.8 337.4 Q 453.7 361.4 453.1 383.1 Q 449.3 402.2 447.2 424.3 Q 448.6 446.1 452.7 469.3 Q 452.2 488.1 449.7 507.2 Q 408.8 509.2 364.9 510.6 Q 325.1 510.9 282.1 508.1 Q 239.7 508.0 200.3 507.5 Q 157.6 508.4 117.5 511.5 Q 119.7 490.1 118.5 470.7 Q 117.9 445.1 117.7 421.7 Q 119.6 400.5 123.0 382.1 Z" fill="none" stroke="#1F2933" stroke-width="3" stroke-linecap="round" stroke-linejoin="round"/><text x="285.0" y="417.0" font-family="'Segoe Print','Bradley Hand','Comic Sans MS',cursive" font-size="30" fill="#1F2933" text-anchor="middle" font-weight="bold" opacity="1.0">Linux container</text><text x="285.0" y="451.0" font-family="'Segoe Print','Bradley Hand','Comic Sans MS',cursive" font-size="22" fill="#4B5563" text-anchor="middle" font-weight="normal" opacity="1.0">your whole setup</text><rect x="588.6" y="342.3" width="280" height="170" fill="none" stroke="#8A8178" stroke-width="1.4" opacity="0.55" stroke-dasharray="7 5"/><path d="M 586.5 339.2 Q 622.8 338.6 661.1 342.2 Q 694.9 338.6 732.1 336.8 Q 762.2 339.5 795.6 344.8 Q 832.4 344.5 874.0 343.9 Q 870.6 365.9 865.4 383.8 Q 869.3 405.3 871.9 423.8 Q 872.1 445.2 868.6 466.2 Q 870.2 482.8 868.1 504.1 Q 836.6 501.7 801.2 502.1 Q 765.8 504.4 733.5 509.8 Q 697.4 512.0 664.4 511.6 Q 628.4 508.2 593.2 510.3 Q 594.9 484.8 597.5 462.6 Q 591.4 441.7 586.3 423.7 Q 587.3 402.3 592.6 383.3 Z" fill="#4B5563" fill-opacity="0.5" stroke="none"/><path d="M 592.9 343.3 Q 625.2 341.4 658.3 341.1 Q 694.8 340.9 730.1 341.9 Q 765.1 338.8 802.2 338.7 Q 836.6 340.3 872.1 342.6 Q 870.5 364.2 867.4 383.3 Q 870.3 405.7 872.6 426.7 Q 872.1 445.7 871.3 467.1 Q 868.9 487.3 869.8 506.9 Q 835.5 506.3 802.6 507.2 Q 767.5 507.0 731.9 506.5 Q 695.3 509.8 657.2 511.4 Q 622.4 513.1 588.9 511.7 Q 590.3 490.8 590.6 467.6 Q 591.1 447.7 593.4 424.8 Q 593.3 405.7 593.1 385.2 Z" fill="none" stroke="#1F2933" stroke-width="3" stroke-linecap="round" stroke-linejoin="round"/><text x="730.0" y="417.0" font-family="'Segoe Print','Bradley Hand','Comic Sans MS',cursive" font-size="30" fill="#1F2933" text-anchor="middle" font-weight="bold" opacity="1.0">Archive</text><text x="730.0" y="451.0" font-family="'Segoe Print','Bradley Hand','Comic Sans MS',cursive" font-size="22" fill="#4B5563" text-anchor="middle" font-weight="normal" opacity="1.0">one .tar.gz file</text><rect x="1009.5" y="248.1" width="330" height="150" fill="none" stroke="#8A8178" stroke-width="1.4" opacity="0.55" stroke-dasharray="7 5"/><path d="M 1017.4 249.0 Q 1052.5 250.9 1090.0 249.7 Q 1135.0 251.1 1175.6 257.1 Q 1213.7 258.6 1257.6 257.1 Q 1298.3 252.2 1335.4 252.2 Q 1337.5 270.4 1339.1 286.0 Q 1341.1 308.0 1337.6 328.3 Q 1338.2 346.7 1342.4 362.5 Q 1342.0 381.0 1341.6 402.9 Q 1293.2 398.3 1250.6 392.7 Q 1211.7 394.7 1169.5 400.8 Q 1132.0 399.8 1088.5 395.4 Q 1047.3 400.9 1010.9 400.6 Q 1012.9 377.1 1012.3 355.6 Q 1014.1 341.0 1015.2 327.5 Q 1017.9 310.2 1015.4 292.1 Z" fill="#8A936D" fill-opacity="0.5" stroke="none"/><path d="M 1008.8 253.4 Q 1050.4 250.0 1093.4 248.6 Q 1136.3 249.3 1176.3 248.9 Q 1214.9 249.2 1256.3 252.2 Q 1299.3 251.4 1342.6 249.2 Q 1342.3 265.8 1338.9 285.5 Q 1341.5 302.7 1341.3 322.4 Q 1338.9 341.7 1338.8 360.4 Q 1339.3 379.7 1339.1 400.4 Q 1300.5 400.2 1260.0 398.9 Q 1217.8 398.3 1172.2 401.2 Q 1133.7 400.5 1094.7 396.8 Q 1054.3 399.8 1013.2 401.7 Q 1011.1 382.8 1010.1 361.7 Q 1007.2 343.7 1007.0 322.9 Q 1010.2 303.5 1011.7 284.0 Z" fill="none" stroke="#1F2933" stroke-width="3" stroke-linecap="round" stroke-linejoin="round"/><text x="1175.0" y="334.8" font-family="'Segoe Print','Bradley Hand','Comic Sans MS',cursive" font-size="28" fill="#1F2933" text-anchor="middle" font-weight="bold" opacity="1.0">External storage</text><path d="M 1080 580 Q 1050 570 1064 540 Q 1056 510 1094 516 Q 1108 464 1154 486 Q 1240 472 1236 534 Q 1260 564 1220 580 Z" fill="#D0D4D6" fill-opacity="0.5" stroke="#1F2933" stroke-width="3" stroke-linejoin="round"/><text x="1150.0" y="610.0" font-family="'Segoe Print','Bradley Hand','Comic Sans MS',cursive" font-size="24" fill="#1F2933" text-anchor="middle" font-weight="normal" opacity="1.0">or cloud</text><path d="M 455.0 425.0 Q 520.3 437.3 585.0 425.0" fill="none" stroke="#1F2933" stroke-width="3.5" stroke-linecap="round"/><path d="M 585.0 425.0 L 566.1 417.6" stroke="#1F2933" stroke-width="3.5" stroke-linecap="round" fill="none"/><path d="M 585.0 425.0 L 568.6 438.4" stroke="#1F2933" stroke-width="3.5" stroke-linecap="round" fill="none"/><text x="520.0" y="400.0" font-family="'Segoe Print','Bradley Hand','Comic Sans MS',cursive" font-size="24" fill="#4B5563" text-anchor="middle" font-weight="normal" opacity="1.0">back up</text><path d="M 875.0 390.0 Q 935.1 345.8 1005.0 330.0" fill="none" stroke="#1F2933" stroke-width="3.5" stroke-linecap="round"/><path d="M 1005.0 330.0 L 985.4 324.7" stroke="#1F2933" stroke-width="3.5" stroke-linecap="round" fill="none"/><path d="M 1005.0 330.0 L 990.4 346.5" stroke="#1F2933" stroke-width="3.5" stroke-linecap="round" fill="none"/><path d="M 875.0 460.0 Q 967.6 468.7 1040.0 520.0" fill="none" stroke="#1F2933" stroke-width="3.5" stroke-linecap="round"/><path d="M 1040.0 520.0 L 1029.4 502.1" stroke="#1F2933" stroke-width="3.5" stroke-linecap="round" fill="none"/><path d="M 1040.0 520.0 L 1018.2 517.7" stroke="#1F2933" stroke-width="3.5" stroke-linecap="round" fill="none"/><path d="M 1170.0 640.0 Q 727.1 517.0 300.0 700.0" fill="none" stroke="#7A9A6A" stroke-width="4" stroke-linecap="round"/><path d="M 300.0 700.0 L 322.5 703.1" stroke="#7A9A6A" stroke-width="4" stroke-linecap="round" fill="none"/><path d="M 300.0 700.0 L 314.1 681.3" stroke="#7A9A6A" stroke-width="4" stroke-linecap="round" fill="none"/><text x="740.0" y="740.0" font-family="'Segoe Print','Bradley Hand','Comic Sans MS',cursive" font-size="28" fill="#7A9A6A" text-anchor="middle" font-weight="normal" opacity="1.0">restore to any phone</text><path d="M 285.0 690.0 Q 260.4 604.0 285.0 515.0" fill="none" stroke="#7A9A6A" stroke-width="4" stroke-linecap="round"/><path d="M 285.0 515.0 L 269.2 531.0" stroke="#7A9A6A" stroke-width="4" stroke-linecap="round" fill="none"/><path d="M 285.0 515.0 L 290.1 537.0" stroke="#7A9A6A" stroke-width="4" stroke-linecap="round" fill="none"/></svg>
