<svg xmlns="http://www.w3.org/2000/svg" viewBox="0 0 1600 900" role="img" aria-labelledby="t d" preserveAspectRatio="xMidYMid meet"><title id="t">Command process flow</title><desc id="d">A user command passes through the shell to a package manager or app, into the Linux environment, and finally to Android resources.</desc><rect x="0" y="0" width="1600" height="900" fill="#F7F1E6"/><line x1="197" y1="30" x2="202" y2="870" stroke="#8A8178" stroke-width="1" opacity="0.18"/><line x1="805" y1="30" x2="798" y2="870" stroke="#8A8178" stroke-width="1" opacity="0.18"/><line x1="1406" y1="30" x2="1404" y2="870" stroke="#8A8178" stroke-width="1" opacity="0.18"/><line x1="40" y1="154" x2="1560" y2="151" stroke="#8A8178" stroke-width="1" opacity="0.18"/><line x1="40" y1="454" x2="1560" y2="448" stroke="#8A8178" stroke-width="1" opacity="0.18"/><line x1="40" y1="754" x2="1560" y2="747" stroke="#8A8178" stroke-width="1" opacity="0.18"/><line x1="70" y1="20" x2="70" y2="880" stroke="#8A8178" stroke-width="1.6" opacity="0.3"/><path d="M 30 40 L 50 40 M 40 30 L 40 50" stroke="#8A8178" stroke-width="1.3" opacity="0.4"/><path d="M 1550 40 L 1570 40 M 1560 30 L 1560 50" stroke="#8A8178" stroke-width="1.3" opacity="0.4"/><path d="M 30 860 L 50 860 M 40 850 L 40 870" stroke="#8A8178" stroke-width="1.3" opacity="0.4"/><path d="M 1550 860 L 1570 860 M 1560 850 L 1560 870" stroke="#8A8178" stroke-width="1.3" opacity="0.4"/><text x="800.0" y="84.0" font-family="'Segoe Print','Bradley Hand','Comic Sans MS',cursive" font-size="42" fill="#1F2933" text-anchor="middle" font-weight="bold" opacity="1.0">What happens when you run a command</text><path d="M 415 99 Q 800 108 1185 102" stroke="#1F2933" stroke-width="2.5" fill="none" opacity="0.75"/><rect x="88.3" y="381.2" width="250" height="150" fill="none" stroke="#8A8178" stroke-width="1.4" opacity="0.55" stroke-dasharray="7 5"/><path d="M 87.4 382.6 Q 115.9 383.7 149.6 383.6 Q 183.7 383.3 215.9 383.3 Q 250.6 377.8 282.0 376.8 Q 308.5 378.9 334.9 384.6 Q 331.9 399.4 333.3 420.0 Q 335.2 440.0 341.4 455.1 Q 337.7 469.6 340.0 488.7 Q 340.8 509.7 335.8 529.7 Q 309.0 528.3 280.1 523.8 Q 245.6 525.2 209.2 527.5 Q 179.9 528.6 156.2 530.2 Q 121.4 530.4 86.0 533.1 Q 91.6 514.7 95.5 496.7 Q 91.0 478.8 88.4 457.9 Q 86.4 440.2 86.3 421.0 Z" fill="#5AB8FF" fill-opacity="0.5" stroke="none"/><path d="M 86.9 381.9 Q 118.8 381.7 149.9 383.3 Q 183.8 382.5 214.2 382.9 Q 244.6 382.4 274.0 379.8 Q 306.8 381.7 340.8 382.6 Q 341.1 400.3 339.2 419.6 Q 337.9 437.3 336.9 452.0 Q 339.3 475.4 339.8 495.5 Q 340.3 511.0 337.5 527.1 Q 305.6 527.6 275.2 530.9 Q 246.4 531.5 215.9 528.6 Q 185.8 530.0 154.2 529.9 Q 122.1 529.8 88.1 531.7 Q 86.4 510.1 87.0 489.3 Q 91.2 470.7 92.6 452.1 Q 90.2 434.3 90.0 417.0 Z" fill="none" stroke="#1F2933" stroke-width="3" stroke-linecap="round" stroke-linejoin="round"/><text x="215.0" y="464.4" font-family="'Segoe Print','Bradley Hand','Comic Sans MS',cursive" font-size="27" fill="#1F2933" text-anchor="middle" font-weight="bold" opacity="1.0">You type a command</text><path d="M 345.0 455.0 Q 364.9 459.1 390.0 455.0" fill="none" stroke="#1F2933" stroke-width="3.5" stroke-linecap="round"/><path d="M 390.0 455.0 L 367.3 447.5" stroke="#1F2933" stroke-width="3.5" stroke-linecap="round" fill="none"/><path d="M 390.0 455.0 L 373.1 467.7" stroke="#1F2933" stroke-width="3.5" stroke-linecap="round" fill="none"/><rect x="398.8" y="380.5" width="250" height="150" fill="none" stroke="#8A8178" stroke-width="1.4" opacity="0.55" stroke-dasharray="7 5"/><path d="M 392.9 380.4 Q 427.5 380.5 462.5 384.2 Q 490.2 384.8 523.4 384.5 Q 550.4 387.3 577.6 385.0 Q 607.2 380.7 640.6 380.9 Q 646.4 401.3 646.9 418.7 Q 646.0 440.1 646.4 456.5 Q 644.0 469.3 646.1 487.8 Q 642.5 504.8 640.1 524.4 Q 613.8 524.0 585.5 525.6 Q 551.8 527.9 518.4 530.0 Q 488.6 528.3 463.5 527.0 Q 424.9 522.2 391.8 522.7 Q 394.6 507.1 398.2 490.9 Q 394.5 472.6 393.4 455.4 Q 391.4 435.3 392.5 419.6 Z" fill="#4B5563" fill-opacity="0.5" stroke="none"/><path d="M 392.7 377.2 Q 425.3 379.3 455.1 380.5 Q 487.8 380.9 523.1 378.0 Q 553.9 379.2 581.8 377.7 Q 615.1 378.9 646.2 377.9 Q 648.2 398.9 648.2 417.2 Q 649.2 437.0 647.5 456.4 Q 643.3 477.5 642.4 496.0 Q 643.5 514.6 646.5 532.9 Q 614.3 529.2 585.0 528.3 Q 551.7 527.5 521.7 527.5 Q 488.6 528.8 456.6 530.3 Q 422.9 529.0 391.9 528.4 Q 395.9 511.3 398.4 492.2 Q 399.0 474.7 397.7 455.5 Q 398.6 435.4 396.2 418.0 Z" fill="none" stroke="#1F2933" stroke-width="3" stroke-linecap="round" stroke-linejoin="round"/><text x="520.0" y="464.4" font-family="'Segoe Print','Bradley Hand','Comic Sans MS',cursive" font-size="27" fill="#1F2933" text-anchor="middle" font-weight="bold" opacity="1.0">Shell</text><path d="M 650.0 455.0 Q 670.9 450.9 695.0 455.0" fill="none" stroke="#1F2933" stroke-width="3.5" stroke-linecap="round"/><path d="M 695.0 455.0 L 678.8 441.1" stroke="#1F2933" stroke-width="3.5" stroke-linecap="round" fill="none"/><path d="M 695.0 455.0 L 675.2 463.5" stroke="#1F2933" stroke-width="3.5" stroke-linecap="round" fill="none"/><rect x="701.9" y="376.1" width="250" height="150" fill="none" stroke="#8A8178" stroke-width="1.4" opacity="0.55" stroke-dasharray="7 5"/><path d="M 707.6 383.1 Q 735.9 385.2 760.1 383.0 Q 793.9 384.8 823.0 385.7 Q 857.5 382.8 887.8 377.7 Q 915.5 377.7 943.5 381.6 Q 942.1 398.5 944.6 412.6 Q 945.5 436.0 945.2 457.3 Q 946.4 472.2 943.2 487.8 Q 947.0 510.2 945.7 527.4 Q 914.1 526.2 888.1 530.1 Q 857.9 531.8 829.5 528.1 Q 794.0 523.7 758.1 522.8 Q 732.8 527.1 705.9 526.7 Q 700.4 510.7 699.7 495.9 Q 705.2 477.4 707.4 458.6 Q 707.4 440.8 703.6 424.3 Z" fill="#3E5C76" fill-opacity="0.5" stroke="none"/><path d="M 698.9 376.8 Q 733.1 378.3 765.0 382.8 Q 794.8 382.2 825.0 381.7 Q 855.5 381.7 884.9 380.3 Q 915.4 381.3 948.8 382.1 Q 949.1 399.2 952.3 419.5 Q 950.7 439.4 950.7 458.2 Q 950.3 475.6 952.0 489.4 Q 950.1 507.6 947.7 526.6 Q 919.6 531.6 891.0 533.2 Q 860.1 528.6 826.2 526.8 Q 797.7 531.0 765.9 533.0 Q 734.0 530.9 700.4 527.7 Q 698.7 509.0 696.7 489.2 Q 698.8 473.6 697.8 457.2 Q 699.7 439.2 703.5 419.0 Z" fill="none" stroke="#1F2933" stroke-width="3" stroke-linecap="round" stroke-linejoin="round"/><text x="825.0" y="464.4" font-family="'Segoe Print','Bradley Hand','Comic Sans MS',cursive" font-size="27" fill="#1F2933" text-anchor="middle" font-weight="bold" opacity="1.0">Package manager / app</text><path d="M 955.0 455.0 Q 981.3 452.7 1000.0 455.0" fill="none" stroke="#1F2933" stroke-width="3.5" stroke-linecap="round"/><path d="M 1000.0 455.0 L 980.4 443.3" stroke="#1F2933" stroke-width="3.5" stroke-linecap="round" fill="none"/><path d="M 1000.0 455.0 L 979.0 464.2" stroke="#1F2933" stroke-width="3.5" stroke-linecap="round" fill="none"/><rect x="1005.3" y="382.6" width="250" height="150" fill="none" stroke="#8A8178" stroke-width="1.4" opacity="0.55" stroke-dasharray="7 5"/><path d="M 1002.8 387.5 Q 1032.3 382.2 1065.7 379.8 Q 1102.4 376.2 1135.9 377.4 Q 1164.2 380.3 1188.7 386.4 Q 1220.9 384.1 1248.4 380.0 Q 1251.9 398.2 1252.8 413.9 Q 1250.0 436.6 1251.4 457.0 Q 1250.2 476.2 1253.6 493.1 Q 1252.8 513.4 1254.7 533.5 Q 1217.8 535.7 1185.7 531.8 Q 1152.5 534.2 1124.8 532.7 Q 1097.1 528.6 1072.1 527.4 Q 1039.2 530.0 1006.1 527.2 Q 1008.3 513.5 1007.2 495.1 Q 1002.5 479.6 1001.5 458.6 Q 1008.6 437.7 1012.1 415.3 Z" fill="#D8C3A5" fill-opacity="0.5" stroke="none"/><path d="M 1004.8 377.2 Q 1035.8 379.8 1065.6 378.9 Q 1100.3 381.0 1133.0 380.9 Q 1162.6 380.9 1194.3 378.0 Q 1226.6 377.7 1255.6 377.8 Q 1252.4 398.0 1251.7 416.8 Q 1254.5 436.0 1255.3 452.0 Q 1257.2 475.0 1256.1 494.9 Q 1255.3 514.3 1253.5 532.5 Q 1223.0 531.6 1192.8 531.6 Q 1160.3 530.9 1127.9 528.9 Q 1097.8 529.1 1069.8 531.1 Q 1036.3 531.2 1005.7 529.7 Q 1003.9 514.0 1002.0 495.9 Q 1006.2 475.8 1008.4 452.3 Q 1005.2 434.3 1004.4 418.4 Z" fill="none" stroke="#1F2933" stroke-width="3" stroke-linecap="round" stroke-linejoin="round"/><text x="1130.0" y="464.4" font-family="'Segoe Print','Bradley Hand','Comic Sans MS',cursive" font-size="27" fill="#1F2933" text-anchor="middle" font-weight="bold" opacity="1.0">Linux environment</text><path d="M 1260.0 455.0 Q 1280.7 461.6 1305.0 455.0" fill="none" stroke="#1F2933" stroke-width="3.5" stroke-linecap="round"/><path d="M 1305.0 455.0 L 1284.2 448.6" stroke="#1F2933" stroke-width="3.5" stroke-linecap="round" fill="none"/><path d="M 1305.0 455.0 L 1287.9 470.7" stroke="#1F2933" stroke-width="3.5" stroke-linecap="round" fill="none"/><rect x="1314.1" y="377.9" width="250" height="150" fill="none" stroke="#8A8178" stroke-width="1.4" opacity="0.55" stroke-dasharray="7 5"/><path d="M 1313.0 378.2 Q 1347.0 377.8 1379.0 379.4 Q 1407.9 382.7 1432.5 385.3 Q 1467.0 380.4 1501.4 378.8 Q 1529.0 380.1 1558.2 383.4 Q 1556.5 401.2 1556.4 415.3 Q 1555.5 436.8 1558.1 454.6 Q 1557.4 474.3 1555.2 488.7 Q 1560.7 509.0 1562.6 529.9 Q 1526.8 529.0 1491.5 529.7 Q 1464.4 526.2 1438.6 522.2 Q 1401.3 525.7 1368.8 528.9 Q 1340.1 527.9 1314.0 525.2 Q 1314.2 506.4 1309.3 487.4 Q 1311.8 473.0 1311.8 456.0 Q 1312.3 436.9 1310.3 418.5 Z" fill="#8A936D" fill-opacity="0.5" stroke="none"/><path d="M 1312.8 377.5 Q 1343.1 380.4 1372.3 380.3 Q 1402.0 379.2 1431.8 378.5 Q 1465.5 380.3 1500.6 378.6 Q 1532.1 376.6 1561.2 376.6 Q 1562.6 396.2 1561.9 417.8 Q 1561.6 436.7 1562.5 458.1 Q 1561.6 477.1 1562.5 494.9 Q 1558.7 511.2 1557.6 530.9 Q 1526.4 533.3 1497.3 532.8 Q 1465.1 532.7 1432.4 532.3 Q 1405.3 533.0 1375.5 530.2 Q 1342.5 531.5 1311.9 530.0 Q 1310.0 513.3 1310.6 494.6 Q 1307.7 476.9 1306.7 455.9 Q 1311.1 433.8 1312.1 414.2 Z" fill="none" stroke="#1F2933" stroke-width="3" stroke-linecap="round" stroke-linejoin="round"/><text x="1435.0" y="464.4" font-family="'Segoe Print','Bradley Hand','Comic Sans MS',cursive" font-size="27" fill="#1F2933" text-anchor="middle" font-weight="bold" opacity="1.0">Android resources</text><text x="800.0" y="620.0" font-family="'Segoe Print','Bradley Hand','Comic Sans MS',cursive" font-size="26" fill="#4B5563" text-anchor="middle" font-weight="normal" opacity="1.0">every request flows down to the phone's real CPU, RAM, and storage</text></svg>
