<svg xmlns="http://www.w3.org/2000/svg" viewBox="0 0 1600 900" role="img" aria-labelledby="t d" preserveAspectRatio="xMidYMid meet"><title id="t">ADL filesystem layout</title><desc id="d">Android shared storage, Termux home, and the Ubuntu container filesystem all connect through shared folders, which also feed backups.</desc><rect x="0" y="0" width="1600" height="900" fill="#F7F1E6"/><line x1="202" y1="30" x2="204" y2="870" stroke="#8A8178" stroke-width="1" opacity="0.18"/><line x1="805" y1="30" x2="800" y2="870" stroke="#8A8178" stroke-width="1" opacity="0.18"/><line x1="1404" y1="30" x2="1401" y2="870" stroke="#8A8178" stroke-width="1" opacity="0.18"/><line x1="40" y1="147" x2="1560" y2="145" stroke="#8A8178" stroke-width="1" opacity="0.18"/><line x1="40" y1="451" x2="1560" y2="445" stroke="#8A8178" stroke-width="1" opacity="0.18"/><line x1="40" y1="745" x2="1560" y2="753" stroke="#8A8178" stroke-width="1" opacity="0.18"/><line x1="70" y1="20" x2="70" y2="880" stroke="#8A8178" stroke-width="1.6" opacity="0.3"/><path d="M 30 40 L 50 40 M 40 30 L 40 50" stroke="#8A8178" stroke-width="1.3" opacity="0.4"/><path d="M 1550 40 L 1570 40 M 1560 30 L 1560 50" stroke="#8A8178" stroke-width="1.3" opacity="0.4"/><path d="M 30 860 L 50 860 M 40 850 L 40 870" stroke="#8A8178" stroke-width="1.3" opacity="0.4"/><path d="M 1550 860 L 1570 860 M 1560 850 L 1560 870" stroke="#8A8178" stroke-width="1.3" opacity="0.4"/><text x="800.0" y="84.0" font-family="'Segoe Print','Bradley Hand','Comic Sans MS',cursive" font-size="42" fill="#1F2933" text-anchor="middle" font-weight="bold" opacity="1.0">Where your files live</text><path d="M 569 104 Q 800 112 1031 101" stroke="#1F2933" stroke-width="2.5" fill="none" opacity="0.75"/><rect x="164.6" y="165.8" width="400" height="150" fill="none" stroke="#8A8178" stroke-width="1.4" opacity="0.55" stroke-dasharray="7 5"/><path d="M 156.9 169.9 Q 209.8 169.6 256.7 167.0 Q 309.1 168.4 358.5 173.1 Q 406.3 175.6 456.5 176.1 Q 505.7 175.0 553.5 176.1 Q 554.6 193.6 559.3 212.3 Q 557.0 228.2 555.1 239.9 Q 559.4 259.5 557.7 278.0 Q 558.7 298.5 556.6 322.8 Q 510.7 324.2 460.2 323.8 Q 408.1 318.8 359.2 315.1 Q 310.6 312.5 258.7 314.9 Q 207.3 313.9 160.8 315.3 Q 157.6 297.0 158.6 283.5 Q 161.1 261.7 165.6 242.1 Q 163.1 228.6 160.2 210.0 Z" fill="#8A936D" fill-opacity="0.5" stroke="none"/><path d="M 157.9 172.0 Q 211.2 169.9 262.7 167.8 Q 310.6 168.4 357.2 172.2 Q 408.3 173.1 461.4 170.6 Q 510.7 170.2 562.5 168.7 Q 560.0 188.8 559.5 207.9 Q 560.1 224.4 562.8 244.1 Q 560.1 265.2 557.0 284.7 Q 557.2 301.0 557.6 320.3 Q 510.6 318.5 461.0 317.1 Q 409.2 317.7 359.3 321.6 Q 310.3 319.4 261.7 320.6 Q 210.9 322.4 158.0 322.5 Q 158.4 303.9 161.9 284.5 Q 163.5 264.8 161.9 246.2 Q 158.9 229.2 157.4 209.0 Z" fill="none" stroke="#1F2933" stroke-width="3" stroke-linecap="round" stroke-linejoin="round"/><text x="360.0" y="237.0" font-family="'Segoe Print','Bradley Hand','Comic Sans MS',cursive" font-size="30" fill="#1F2933" text-anchor="middle" font-weight="bold" opacity="1.0">Android shared storage</text><text x="360.0" y="271.0" font-family="'Segoe Print','Bradley Hand','Comic Sans MS',cursive" font-size="22" fill="#4B5563" text-anchor="middle" font-weight="normal" opacity="1.0">/storage/emulated/0</text><rect x="164.9" y="421.1" width="400" height="150" fill="none" stroke="#8A8178" stroke-width="1.4" opacity="0.55" stroke-dasharray="7 5"/><path d="M 166.0 426.0 Q 215.7 419.5 262.4 416.9 Q 311.4 419.4 365.4 421.0 Q 409.0 421.4 456.6 420.8 Q 507.2 418.3 554.4 417.6 Q 554.8 438.9 560.6 457.9 Q 559.5 480.7 563.7 500.8 Q 564.5 514.6 561.2 532.5 Q 554.4 545.7 553.6 564.0 Q 506.7 562.9 456.2 567.2 Q 409.5 566.5 364.0 568.9 Q 311.6 568.3 259.5 566.3 Q 209.1 566.2 156.8 566.0 Q 159.2 550.4 162.2 535.8 Q 164.3 516.8 160.8 494.9 Q 160.1 477.3 163.6 461.3 Z" fill="#4B5563" fill-opacity="0.5" stroke="none"/><path d="M 158.4 420.4 Q 207.6 419.9 257.9 420.7 Q 307.7 418.3 358.3 419.2 Q 410.5 420.0 461.3 420.6 Q 511.4 418.7 562.2 419.2 Q 559.7 435.0 556.7 454.1 Q 556.9 473.9 556.7 497.2 Q 558.9 514.9 560.9 532.1 Q 559.1 549.2 556.8 568.8 Q 510.0 568.1 461.0 568.6 Q 410.2 571.2 362.4 572.4 Q 309.7 569.9 257.5 568.3 Q 209.3 569.7 158.3 571.6 Q 159.0 552.0 157.0 532.5 Q 158.0 513.6 156.9 495.8 Q 159.6 475.8 162.5 454.7 Z" fill="none" stroke="#1F2933" stroke-width="3" stroke-linecap="round" stroke-linejoin="round"/><text x="360.0" y="487.0" font-family="'Segoe Print','Bradley Hand','Comic Sans MS',cursive" font-size="30" fill="#1F2933" text-anchor="middle" font-weight="bold" opacity="1.0">Termux home</text><text x="360.0" y="521.0" font-family="'Segoe Print','Bradley Hand','Comic Sans MS',cursive" font-size="22" fill="#4B5563" text-anchor="middle" font-weight="normal" opacity="1.0">~ inside Termux</text><rect x="163.7" y="665.0" width="400" height="150" fill="none" stroke="#8A8178" stroke-width="1.4" opacity="0.55" stroke-dasharray="7 5"/><path d="M 167.1 665.2 Q 219.5 662.6 266.7 658.8 Q 311.2 665.2 356.0 668.0 Q 402.9 661.8 454.5 656.2 Q 508.5 654.8 561.4 656.1 Q 559.7 677.2 552.2 702.7 Q 555.4 720.1 562.9 735.4 Q 558.3 754.9 554.4 768.4 Q 558.5 785.1 556.9 803.7 Q 505.0 805.1 458.3 807.0 Q 409.1 802.9 363.9 803.1 Q 309.5 804.2 258.9 803.7 Q 210.5 801.8 162.1 804.7 Q 163.6 788.2 166.2 771.0 Q 168.2 755.7 166.3 734.9 Q 165.6 717.1 159.7 698.5 Z" fill="#D8C3A5" fill-opacity="0.5" stroke="none"/><path d="M 159.0 660.3 Q 210.1 661.3 258.8 663.0 Q 310.6 660.2 363.2 659.7 Q 413.5 661.1 463.0 662.3 Q 512.2 661.1 559.2 659.4 Q 558.0 678.8 557.0 694.9 Q 560.4 713.1 561.4 733.1 Q 558.1 753.2 557.4 772.3 Q 557.9 792.1 560.9 809.7 Q 512.4 808.4 461.5 809.2 Q 410.5 810.0 357.7 813.0 Q 309.7 812.3 259.5 812.8 Q 211.4 811.5 161.9 808.5 Q 159.2 791.9 160.0 773.3 Q 161.8 753.8 163.3 732.5 Q 163.4 714.2 162.1 696.5 Z" fill="none" stroke="#1F2933" stroke-width="3" stroke-linecap="round" stroke-linejoin="round"/><text x="360.0" y="727.0" font-family="'Segoe Print','Bradley Hand','Comic Sans MS',cursive" font-size="30" fill="#1F2933" text-anchor="middle" font-weight="bold" opacity="1.0">Ubuntu container</text><text x="360.0" y="761.0" font-family="'Segoe Print','Bradley Hand','Comic Sans MS',cursive" font-size="22" fill="#4B5563" text-anchor="middle" font-weight="normal" opacity="1.0">its own / filesystem</text><rect x="901.6" y="396.8" width="380" height="170" fill="none" stroke="#8A8178" stroke-width="1.4" opacity="0.55" stroke-dasharray="7 5"/><path d="M 904.8 402.5 Q 949.4 404.9 992.1 402.6 Q 1040.4 398.7 1091.6 397.1 Q 1139.2 398.6 1188.6 401.0 Q 1235.8 405.7 1281.0 406.6 Q 1278.2 423.7 1274.5 443.7 Q 1273.0 464.1 1274.9 484.2 Q 1275.9 505.8 1273.2 531.8 Q 1274.6 549.2 1274.4 562.0 Q 1224.3 567.2 1179.5 568.7 Q 1139.5 567.1 1093.8 562.2 Q 1043.9 565.1 994.6 563.4 Q 946.8 566.0 904.3 570.2 Q 898.6 546.0 897.0 522.5 Q 899.3 500.0 906.8 480.4 Q 903.7 462.3 902.3 438.6 Z" fill="#5A9A9A" fill-opacity="0.5" stroke="none"/><path d="M 898.7 399.3 Q 949.8 397.8 998.4 399.7 Q 1043.5 398.9 1092.0 398.4 Q 1137.9 399.0 1185.1 401.9 Q 1233.7 401.2 1282.0 401.3 Q 1279.1 423.0 1276.5 443.3 Q 1277.1 461.1 1277.3 482.1 Q 1278.8 506.9 1281.0 531.0 Q 1281.0 550.5 1279.6 572.6 Q 1231.4 573.9 1182.3 573.0 Q 1135.7 572.2 1091.4 569.1 Q 1043.1 569.6 994.3 571.0 Q 946.8 571.3 902.8 571.7 Q 899.6 548.7 897.1 525.3 Q 895.5 508.0 896.8 487.6 Q 898.5 464.2 902.2 441.0 Z" fill="none" stroke="#1F2933" stroke-width="3" stroke-linecap="round" stroke-linejoin="round"/><text x="1090.0" y="477.0" font-family="'Segoe Print','Bradley Hand','Comic Sans MS',cursive" font-size="30" fill="#1F2933" text-anchor="middle" font-weight="bold" opacity="1.0">Shared folders</text><text x="1090.0" y="511.0" font-family="'Segoe Print','Bradley Hand','Comic Sans MS',cursive" font-size="22" fill="#4B5563" text-anchor="middle" font-weight="normal" opacity="1.0">bridge between all three</text><rect x="1334.9" y="398.8" width="210" height="170" fill="none" stroke="#8A8178" stroke-width="1.4" opacity="0.55" stroke-dasharray="7 5"/><path d="M 1336.7 402.9 Q 1364.0 400.3 1386.2 396.3 Q 1406.9 395.7 1432.9 400.2 Q 1460.1 400.4 1489.0 397.2 Q 1515.2 404.6 1537.5 407.3 Q 1541.5 420.8 1542.4 439.7 Q 1542.9 461.7 1540.1 481.6 Q 1540.9 501.9 1536.6 521.9 Q 1533.0 541.9 1534.6 565.7 Q 1508.8 567.8 1481.3 570.9 Q 1458.5 569.9 1433.0 565.1 Q 1406.6 561.8 1381.5 563.9 Q 1358.2 566.5 1337.8 566.2 Q 1332.2 547.2 1332.4 531.8 Q 1327.7 509.6 1328.1 485.1 Q 1334.2 465.3 1336.2 448.6 Z" fill="#D6A94A" fill-opacity="0.5" stroke="none"/><path d="M 1328.0 401.6 Q 1357.8 400.4 1384.3 398.1 Q 1410.6 397.8 1436.2 396.7 Q 1463.2 398.1 1487.3 401.1 Q 1515.0 400.1 1540.9 401.0 Q 1538.1 421.4 1536.8 442.8 Q 1538.1 464.9 1542.4 485.8 Q 1543.1 507.4 1540.9 526.2 Q 1541.0 548.6 1541.2 569.0 Q 1516.3 571.1 1488.0 573.4 Q 1460.4 572.6 1435.8 569.9 Q 1407.8 568.9 1383.1 570.8 Q 1357.6 569.6 1331.8 571.7 Q 1328.3 548.7 1326.7 526.8 Q 1327.2 506.2 1327.2 487.2 Q 1329.9 465.3 1333.3 444.1 Z" fill="none" stroke="#1F2933" stroke-width="3" stroke-linecap="round" stroke-linejoin="round"/><text x="1435.0" y="494.8" font-family="'Segoe Print','Bradley Hand','Comic Sans MS',cursive" font-size="28" fill="#1F2933" text-anchor="middle" font-weight="bold" opacity="1.0">Backups</text><path d="M 565.0 245.0 Q 767.7 293.4 930.0 430.0" fill="none" stroke="#1F2933" stroke-width="3.5" stroke-linecap="round"/><path d="M 930.0 430.0 L 920.5 407.7" stroke="#1F2933" stroke-width="3.5" stroke-linecap="round" fill="none"/><path d="M 930.0 430.0 L 910.3 425.8" stroke="#1F2933" stroke-width="3.5" stroke-linecap="round" fill="none"/><path d="M 565.0 245.0 L 580.3 261.5" stroke="#1F2933" stroke-width="3.5" stroke-linecap="round" fill="none"/><path d="M 565.0 245.0 L 587.4 239.9" stroke="#1F2933" stroke-width="3.5" stroke-linecap="round" fill="none"/><path d="M 565.0 495.0 Q 730.5 449.9 895.0 485.0" fill="none" stroke="#1F2933" stroke-width="3.5" stroke-linecap="round"/><path d="M 895.0 485.0 L 876.9 468.8" stroke="#1F2933" stroke-width="3.5" stroke-linecap="round" fill="none"/><path d="M 895.0 485.0 L 872.3 490.6" stroke="#1F2933" stroke-width="3.5" stroke-linecap="round" fill="none"/><path d="M 565.0 495.0 L 586.3 498.6" stroke="#1F2933" stroke-width="3.5" stroke-linecap="round" fill="none"/><path d="M 565.0 495.0 L 579.0 478.7" stroke="#1F2933" stroke-width="3.5" stroke-linecap="round" fill="none"/><path d="M 565.0 735.0 Q 725.4 593.9 930.0 545.0" fill="none" stroke="#1F2933" stroke-width="3.5" stroke-linecap="round"/><path d="M 930.0 545.0 L 908.7 541.2" stroke="#1F2933" stroke-width="3.5" stroke-linecap="round" fill="none"/><path d="M 930.0 545.0 L 914.6 558.7" stroke="#1F2933" stroke-width="3.5" stroke-linecap="round" fill="none"/><path d="M 565.0 735.0 L 588.1 729.3" stroke="#1F2933" stroke-width="3.5" stroke-linecap="round" fill="none"/><path d="M 565.0 735.0 L 571.2 716.0" stroke="#1F2933" stroke-width="3.5" stroke-linecap="round" fill="none"/><path d="M 1285.0 485.0 Q 1308.4 487.7 1325.0 485.0" fill="none" stroke="#1F2933" stroke-width="3.5" stroke-linecap="round"/><path d="M 1325.0 485.0 L 1303.5 478.5" stroke="#1F2933" stroke-width="3.5" stroke-linecap="round" fill="none"/><path d="M 1325.0 485.0 L 1307.9 499.9" stroke="#1F2933" stroke-width="3.5" stroke-linecap="round" fill="none"/><text x="745.0" y="300.0" font-family="'Segoe Print','Bradley Hand','Comic Sans MS',cursive" font-size="22" fill="#4B5563" text-anchor="middle" font-weight="normal" opacity="1.0">photos, downloads</text></svg>
