<svg xmlns="http://www.w3.org/2000/svg" viewBox="0 0 1600 900" role="img" aria-labelledby="t d" preserveAspectRatio="xMidYMid meet"><title id="t">Hardware resource flow</title><desc id="d">Phone hardware — CPU, RAM, storage, battery, and display — feeds both Android and the Linux desktop session, which share the same resources.</desc><rect x="0" y="0" width="1600" height="900" fill="#F7F1E6"/><line x1="202" y1="30" x2="200" y2="870" stroke="#8A8178" stroke-width="1" opacity="0.18"/><line x1="797" y1="30" x2="805" y2="870" stroke="#8A8178" stroke-width="1" opacity="0.18"/><line x1="1401" y1="30" x2="1404" y2="870" stroke="#8A8178" stroke-width="1" opacity="0.18"/><line x1="40" y1="151" x2="1560" y2="150" stroke="#8A8178" stroke-width="1" opacity="0.18"/><line x1="40" y1="453" x2="1560" y2="453" stroke="#8A8178" stroke-width="1" opacity="0.18"/><line x1="40" y1="751" x2="1560" y2="751" stroke="#8A8178" stroke-width="1" opacity="0.18"/><line x1="70" y1="20" x2="70" y2="880" stroke="#8A8178" stroke-width="1.6" opacity="0.3"/><path d="M 30 40 L 50 40 M 40 30 L 40 50" stroke="#8A8178" stroke-width="1.3" opacity="0.4"/><path d="M 1550 40 L 1570 40 M 1560 30 L 1560 50" stroke="#8A8178" stroke-width="1.3" opacity="0.4"/><path d="M 30 860 L 50 860 M 40 850 L 40 870" stroke="#8A8178" stroke-width="1.3" opacity="0.4"/><path d="M 1550 860 L 1570 860 M 1560 850 L 1560 870" stroke="#8A8178" stroke-width="1.3" opacity="0.4"/><text x="800.0" y="84.0" font-family="'Segoe Print','Bradley Hand','Comic Sans MS',cursive" font-size="42" fill="#1F2933" text-anchor="middle" font-weight="bold" opacity="1.0">One phone, shared resources</text><path d="M 503 104 Q 800 110 1097 97" stroke="#1F2933" stroke-width="2.5" fill="none" opacity="0.75"/><rect x="144.6" y="162.3" width="260" height="110" fill="none" stroke="#8A8178" stroke-width="1.4" opacity="0.55" stroke-dasharray="7 5"/><path d="M 147.1 159.2 Q 175.7 164.8 205.4 165.9 Q 237.0 163.5 267.2 161.4 Q 298.8 164.1 335.2 163.8 Q 367.4 166.2 395.2 166.4 Q 395.8 178.5 393.9 194.3 Q 396.2 202.5 396.1 209.8 Q 401.0 226.3 402.6 245.6 Q 398.1 254.7 394.4 263.4 Q 358.4 260.8 328.2 263.7 Q 299.6 268.1 275.6 273.2 Q 242.4 272.8 206.0 267.8 Q 170.8 272.4 139.2 271.3 Q 138.3 256.0 142.9 238.9 Q 143.4 225.9 140.0 212.5 Q 137.8 197.8 137.0 183.7 Z" fill="#3E5C76" fill-opacity="0.5" stroke="none"/><path d="M 139.2 163.4 Q 171.5 162.7 203.6 158.9 Q 234.5 158.8 267.4 160.9 Q 302.5 160.5 338.5 158.3 Q 369.5 160.6 403.2 163.1 Q 400.1 172.8 397.7 185.1 Q 399.6 201.1 402.4 215.0 Q 400.4 229.8 400.5 245.7 Q 400.1 259.8 402.3 273.3 Q 367.7 271.8 335.6 271.3 Q 305.4 271.6 272.0 272.4 Q 237.3 274.5 203.7 273.4 Q 170.0 273.2 139.1 273.1 Q 141.7 256.9 142.3 243.9 Q 141.4 228.0 140.2 213.6 Q 140.5 199.3 139.8 184.7 Z" fill="none" stroke="#1F2933" stroke-width="3" stroke-linecap="round" stroke-linejoin="round"/><text x="270.0" y="225.5" font-family="'Segoe Print','Bradley Hand','Comic Sans MS',cursive" font-size="30" fill="#1F2933" text-anchor="middle" font-weight="bold" opacity="1.0">CPU</text><path d="M 405.0 215.0 Q 530.7 270.5 620.0 380.0" fill="none" stroke="#64748B" stroke-width="3" stroke-linecap="round"/><path d="M 620.0 380.0 L 615.0 357.8" stroke="#64748B" stroke-width="3" stroke-linecap="round" fill="none"/><path d="M 620.0 380.0 L 600.7 370.0" stroke="#64748B" stroke-width="3" stroke-linecap="round" fill="none"/><rect x="139.7" y="286.3" width="260" height="110" fill="none" stroke="#8A8178" stroke-width="1.4" opacity="0.55" stroke-dasharray="7 5"/><path d="M 145.6 294.9 Q 175.7 292.8 205.5 290.4 Q 235.9 293.0 268.8 294.2 Q 302.6 288.4 335.6 287.9 Q 369.3 290.2 402.0 291.3 Q 403.4 300.8 401.5 314.6 Q 401.4 333.0 400.0 348.0 Q 398.2 360.1 397.1 371.3 Q 399.2 381.9 395.4 391.9 Q 362.4 390.9 330.0 394.4 Q 301.5 398.4 272.1 397.0 Q 244.3 398.9 210.7 401.2 Q 179.0 402.3 141.2 401.6 Q 142.2 382.2 147.0 368.6 Q 143.7 356.5 141.0 340.5 Q 137.8 327.4 140.1 316.2 Z" fill="#5A9A9A" fill-opacity="0.5" stroke="none"/><path d="M 142.3 285.6 Q 173.7 288.4 204.6 289.4 Q 238.3 287.9 270.1 286.5 Q 303.6 288.5 337.7 289.0 Q 368.3 289.2 399.5 286.8 Q 400.0 302.9 399.7 318.2 Q 400.7 330.9 402.6 340.8 Q 401.6 354.9 397.5 367.6 Q 396.6 380.4 396.5 395.9 Q 364.1 395.9 334.2 399.4 Q 302.7 400.7 268.5 398.5 Q 238.3 398.2 204.7 399.4 Q 169.5 399.2 137.4 398.6 Q 137.3 386.3 139.8 371.1 Q 140.4 357.1 142.8 342.9 Q 140.3 329.5 139.5 318.2 Z" fill="none" stroke="#1F2933" stroke-width="3" stroke-linecap="round" stroke-linejoin="round"/><text x="270.0" y="353.5" font-family="'Segoe Print','Bradley Hand','Comic Sans MS',cursive" font-size="30" fill="#1F2933" text-anchor="middle" font-weight="bold" opacity="1.0">RAM</text><path d="M 405.0 343.0 Q 519.5 337.2 620.0 380.0" fill="none" stroke="#64748B" stroke-width="3" stroke-linecap="round"/><path d="M 620.0 380.0 L 606.1 361.5" stroke="#64748B" stroke-width="3" stroke-linecap="round" fill="none"/><path d="M 620.0 380.0 L 600.0 383.3" stroke="#64748B" stroke-width="3" stroke-linecap="round" fill="none"/><rect x="141.3" y="417.0" width="260" height="110" fill="none" stroke="#8A8178" stroke-width="1.4" opacity="0.55" stroke-dasharray="7 5"/><path d="M 139.3 413.4 Q 170.9 415.4 201.7 421.4 Q 234.6 420.9 266.0 414.9 Q 301.4 420.6 338.8 421.3 Q 366.7 416.2 396.7 416.5 Q 400.5 432.3 398.5 445.8 Q 398.5 458.8 403.8 471.3 Q 401.0 488.6 400.0 501.0 Q 398.7 512.5 396.0 527.6 Q 368.7 527.6 336.0 525.9 Q 305.8 523.8 269.7 523.7 Q 232.8 527.9 201.7 526.0 Q 173.0 525.6 138.6 525.7 Q 139.2 513.5 142.4 495.5 Q 145.8 481.4 144.5 468.2 Q 142.8 454.3 138.5 440.6 Z" fill="#D8C3A5" fill-opacity="0.5" stroke="none"/><path d="M 137.0 415.7 Q 172.4 416.4 206.1 417.4 Q 236.4 415.9 269.7 417.4 Q 301.7 418.0 334.4 419.0 Q 366.6 420.5 397.8 419.1 Q 398.6 429.9 399.9 440.6 Q 400.8 457.1 398.2 473.9 Q 399.9 484.2 398.9 495.2 Q 397.3 510.6 396.9 529.1 Q 364.9 526.2 336.4 523.7 Q 303.8 526.1 273.0 526.6 Q 238.7 527.8 201.5 527.2 Q 170.4 523.7 138.3 523.0 Q 141.1 512.6 143.0 499.1 Q 141.7 482.9 138.0 468.0 Q 140.1 453.8 139.0 441.5 Z" fill="none" stroke="#1F2933" stroke-width="3" stroke-linecap="round" stroke-linejoin="round"/><text x="270.0" y="481.5" font-family="'Segoe Print','Bradley Hand','Comic Sans MS',cursive" font-size="30" fill="#1F2933" text-anchor="middle" font-weight="bold" opacity="1.0">Storage</text><path d="M 405.0 471.0 Q 526.7 454.1 620.0 380.0" fill="none" stroke="#64748B" stroke-width="3" stroke-linecap="round"/><path d="M 620.0 380.0 L 598.5 382.7" stroke="#64748B" stroke-width="3" stroke-linecap="round" fill="none"/><path d="M 620.0 380.0 L 609.6 399.9" stroke="#64748B" stroke-width="3" stroke-linecap="round" fill="none"/><rect x="136.3" y="539.4" width="260" height="110" fill="none" stroke="#8A8178" stroke-width="1.4" opacity="0.55" stroke-dasharray="7 5"/><path d="M 141.4 543.8 Q 172.4 546.9 207.3 548.8 Q 240.4 551.2 273.3 550.7 Q 305.5 548.2 338.4 544.8 Q 367.1 543.8 398.4 542.4 Q 401.6 561.3 399.2 575.6 Q 399.1 588.7 396.8 596.2 Q 393.4 611.1 395.3 629.0 Q 394.6 639.6 397.6 654.6 Q 366.0 653.2 331.3 653.3 Q 298.4 657.0 268.5 655.4 Q 232.9 652.1 202.1 651.1 Q 175.1 650.7 143.0 646.5 Q 144.0 638.6 141.8 625.9 Q 144.3 609.9 143.7 599.9 Q 140.4 582.7 141.7 568.0 Z" fill="#D6A94A" fill-opacity="0.5" stroke="none"/><path d="M 142.6 543.3 Q 173.7 543.8 202.3 541.1 Q 234.7 540.6 268.4 541.9 Q 303.7 542.0 336.0 542.6 Q 369.6 543.5 401.7 546.0 Q 400.0 559.5 400.6 574.6 Q 400.5 589.3 398.0 601.3 Q 397.2 615.3 397.9 625.9 Q 398.9 642.7 400.6 656.4 Q 365.1 652.3 332.7 650.9 Q 300.9 655.2 267.4 656.6 Q 236.3 658.3 207.0 657.2 Q 172.2 656.4 136.5 654.3 Q 139.5 642.6 140.9 629.9 Q 141.6 614.3 139.9 595.6 Q 140.2 584.4 138.9 573.4 Z" fill="none" stroke="#1F2933" stroke-width="3" stroke-linecap="round" stroke-linejoin="round"/><text x="270.0" y="609.5" font-family="'Segoe Print','Bradley Hand','Comic Sans MS',cursive" font-size="30" fill="#1F2933" text-anchor="middle" font-weight="bold" opacity="1.0">Battery</text><path d="M 405.0 599.0 Q 517.0 602.4 620.0 560.0" fill="none" stroke="#64748B" stroke-width="3" stroke-linecap="round"/><path d="M 620.0 560.0 L 599.3 557.5" stroke="#64748B" stroke-width="3" stroke-linecap="round" fill="none"/><path d="M 620.0 560.0 L 607.2 577.5" stroke="#64748B" stroke-width="3" stroke-linecap="round" fill="none"/><rect x="137.9" y="673.0" width="260" height="110" fill="none" stroke="#8A8178" stroke-width="1.4" opacity="0.55" stroke-dasharray="7 5"/><path d="M 136.6 672.4 Q 170.7 669.6 200.1 672.7 Q 234.1 674.1 270.1 677.4 Q 299.6 673.0 333.7 669.1 Q 365.7 667.2 393.9 670.2 Q 394.4 690.6 397.9 705.0 Q 397.7 715.6 397.9 728.9 Q 401.4 738.8 401.2 747.7 Q 400.8 760.5 402.0 776.0 Q 365.0 777.2 332.4 779.3 Q 299.9 781.7 270.4 779.9 Q 235.7 780.3 205.3 776.7 Q 168.1 782.6 136.7 783.1 Q 140.3 768.9 147.8 754.7 Q 144.3 737.5 145.0 722.0 Q 141.4 712.3 141.9 704.9 Z" fill="#5AB8FF" fill-opacity="0.5" stroke="none"/><path d="M 138.6 669.7 Q 171.7 668.5 203.0 669.1 Q 237.8 669.0 272.8 670.8 Q 302.5 671.6 332.6 674.4 Q 364.4 673.1 398.5 671.0 Q 399.5 687.6 398.5 702.2 Q 396.3 716.7 397.4 729.2 Q 399.2 744.5 400.2 756.7 Q 400.5 768.9 403.1 783.5 Q 370.0 783.4 337.1 785.4 Q 305.6 782.6 271.4 782.0 Q 240.1 781.0 207.2 781.4 Q 175.8 780.8 143.2 783.2 Q 144.2 768.8 142.7 755.1 Q 142.0 739.1 142.5 726.7 Q 142.6 711.3 140.2 697.0 Z" fill="none" stroke="#1F2933" stroke-width="3" stroke-linecap="round" stroke-linejoin="round"/><text x="270.0" y="737.5" font-family="'Segoe Print','Bradley Hand','Comic Sans MS',cursive" font-size="30" fill="#1F2933" text-anchor="middle" font-weight="bold" opacity="1.0">Display</text><path d="M 405.0 727.0 Q 533.6 671.0 620.0 560.0" fill="none" stroke="#64748B" stroke-width="3" stroke-linecap="round"/><path d="M 620.0 560.0 L 598.6 568.3" stroke="#64748B" stroke-width="3" stroke-linecap="round" fill="none"/><path d="M 620.0 560.0 L 616.5 581.0" stroke="#64748B" stroke-width="3" stroke-linecap="round" fill="none"/><rect x="640.3" y="276.3" width="400" height="180" fill="none" stroke="#8A8178" stroke-width="1.4" opacity="0.55" stroke-dasharray="7 5"/><path d="M 648.0 280.7 Q 695.7 284.9 745.0 286.1 Q 792.9 283.6 844.6 286.5 Q 895.0 283.6 939.9 285.6 Q 987.0 283.9 1032.0 283.7 Q 1036.3 308.7 1040.8 329.5 Q 1036.3 351.0 1037.7 371.2 Q 1039.0 392.2 1034.5 412.5 Q 1035.3 439.6 1040.0 463.9 Q 994.0 458.4 943.2 456.3 Q 888.7 458.7 836.3 458.1 Q 790.7 459.0 746.2 456.3 Q 690.7 457.4 638.7 456.1 Q 637.5 435.8 639.6 414.8 Q 642.7 393.3 646.2 365.8 Q 643.1 348.6 644.3 326.5 Z" fill="#8A936D" fill-opacity="0.5" stroke="none"/><path d="M 638.6 282.1 Q 690.7 280.6 740.4 279.2 Q 790.9 282.4 839.1 282.1 Q 887.6 279.8 939.2 278.6 Q 987.9 277.9 1037.8 278.6 Q 1039.1 302.1 1037.3 325.9 Q 1039.9 345.7 1040.1 368.1 Q 1040.7 389.2 1041.9 411.7 Q 1040.6 437.1 1036.6 459.8 Q 988.9 462.2 938.7 462.4 Q 890.5 463.5 841.4 461.4 Q 789.3 461.4 740.3 459.7 Q 689.5 460.7 640.6 460.1 Q 641.3 436.0 643.2 413.4 Q 641.1 394.2 641.5 371.7 Q 642.3 348.4 642.9 323.1 Z" fill="none" stroke="#1F2933" stroke-width="3" stroke-linecap="round" stroke-linejoin="round"/><text x="840.0" y="362.0" font-family="'Segoe Print','Bradley Hand','Comic Sans MS',cursive" font-size="32" fill="#1F2933" text-anchor="middle" font-weight="bold" opacity="1.0">Android</text><text x="840.0" y="396.0" font-family="'Segoe Print','Bradley Hand','Comic Sans MS',cursive" font-size="24" fill="#4B5563" text-anchor="middle" font-weight="normal" opacity="1.0">phone, notifications, DeX</text><rect x="642.2" y="516.1" width="400" height="180" fill="none" stroke="#8A8178" stroke-width="1.4" opacity="0.55" stroke-dasharray="7 5"/><path d="M 644.9 525.1 Q 691.4 519.9 737.8 516.6 Q 791.2 520.4 842.0 523.1 Q 889.9 525.5 942.9 526.8 Q 994.3 524.0 1044.0 524.8 Q 1039.2 541.0 1036.7 563.1 Q 1036.7 581.2 1039.8 604.8 Q 1036.0 629.0 1032.8 654.6 Q 1040.5 678.5 1043.9 696.8 Q 989.7 699.0 933.5 695.7 Q 884.5 696.4 834.4 699.8 Q 785.8 695.6 735.4 697.3 Q 687.7 698.7 643.0 700.2 Q 640.1 679.6 638.1 656.0 Q 640.0 633.0 641.4 614.3 Q 646.0 587.4 646.9 561.6 Z" fill="#4B5563" fill-opacity="0.5" stroke="none"/><path d="M 638.1 522.8 Q 689.5 523.0 742.2 522.8 Q 790.6 523.1 839.8 521.3 Q 888.7 521.0 936.9 519.4 Q 988.0 519.3 1036.6 518.3 Q 1037.4 540.3 1037.0 564.1 Q 1035.7 587.4 1037.4 613.3 Q 1040.0 633.9 1039.6 654.0 Q 1037.6 678.0 1038.8 702.9 Q 988.5 702.7 938.2 699.2 Q 890.4 701.6 841.7 701.5 Q 789.4 701.5 739.1 703.5 Q 690.0 703.1 642.4 700.5 Q 642.0 675.9 639.4 651.9 Q 641.3 629.5 640.1 607.5 Q 639.7 583.7 640.6 562.8 Z" fill="none" stroke="#1F2933" stroke-width="3" stroke-linecap="round" stroke-linejoin="round"/><text x="840.0" y="602.0" font-family="'Segoe Print','Bradley Hand','Comic Sans MS',cursive" font-size="30" fill="#1F2933" text-anchor="middle" font-weight="bold" opacity="1.0">Linux desktop session</text><text x="840.0" y="636.0" font-family="'Segoe Print','Bradley Hand','Comic Sans MS',cursive" font-size="22" fill="#4B5563" text-anchor="middle" font-weight="normal" opacity="1.0">XFCE + your apps</text><path d="M 845.0 465.0 Q 841.3 487.0 845.0 515.0" fill="none" stroke="#64748B" stroke-width="3.5" stroke-linecap="round"/><path d="M 845.0 515.0 L 854.9 495.5" stroke="#64748B" stroke-width="3.5" stroke-linecap="round" fill="none"/><path d="M 845.0 515.0 L 832.9 499.1" stroke="#64748B" stroke-width="3.5" stroke-linecap="round" fill="none"/><path d="M 845.0 465.0 L 830.0 481.3" stroke="#64748B" stroke-width="3.5" stroke-linecap="round" fill="none"/><path d="M 845.0 465.0 L 854.2 485.0" stroke="#64748B" stroke-width="3.5" stroke-linecap="round" fill="none"/><text x="1250.0" y="400.0" font-family="'Segoe Print','Bradley Hand','Comic Sans MS',cursive" font-size="26" fill="#4B5563" text-anchor="start" font-weight="normal" opacity="1.0">Android stays in charge —</text><text x="1250.0" y="436.0" font-family="'Segoe Print','Bradley Hand','Comic Sans MS',cursive" font-size="26" fill="#4B5563" text-anchor="start" font-weight="normal" opacity="1.0">Linux borrows what it needs</text></svg>
