<svg xmlns="http://www.w3.org/2000/svg" viewBox="0 0 1600 900" role="img" aria-labelledby="t d" preserveAspectRatio="xMidYMid meet"><title id="t">ADL desktop architecture</title><desc id="d">Cutaway of a phone showing Android, Termux, Ubuntu in proot, XFCE, and apps, with USB-C video out to an external monitor showing the desktop.</desc><rect x="0" y="0" width="1600" height="900" fill="#F7F1E6"/><line x1="199" y1="30" x2="194" y2="870" stroke="#8A8178" stroke-width="1" opacity="0.18"/><line x1="805" y1="30" x2="799" y2="870" stroke="#8A8178" stroke-width="1" opacity="0.18"/><line x1="1406" y1="30" x2="1405" y2="870" stroke="#8A8178" stroke-width="1" opacity="0.18"/><line x1="40" y1="150" x2="1560" y2="145" stroke="#8A8178" stroke-width="1" opacity="0.18"/><line x1="40" y1="451" x2="1560" y2="450" stroke="#8A8178" stroke-width="1" opacity="0.18"/><line x1="40" y1="751" x2="1560" y2="748" stroke="#8A8178" stroke-width="1" opacity="0.18"/><line x1="70" y1="20" x2="70" y2="880" stroke="#8A8178" stroke-width="1.6" opacity="0.3"/><path d="M 30 40 L 50 40 M 40 30 L 40 50" stroke="#8A8178" stroke-width="1.3" opacity="0.4"/><path d="M 1550 40 L 1570 40 M 1560 30 L 1560 50" stroke="#8A8178" stroke-width="1.3" opacity="0.4"/><path d="M 30 860 L 50 860 M 40 850 L 40 870" stroke="#8A8178" stroke-width="1.3" opacity="0.4"/><path d="M 1550 860 L 1570 860 M 1560 850 L 1560 870" stroke="#8A8178" stroke-width="1.3" opacity="0.4"/><text x="800.0" y="84.0" font-family="'Segoe Print','Bradley Hand','Comic Sans MS',cursive" font-size="42" fill="#1F2933" text-anchor="middle" font-weight="bold" opacity="1.0">Desktop architecture</text><path d="M 580 105 Q 800 110 1020 97" stroke="#1F2933" stroke-width="2.5" fill="none" opacity="0.75"/><rect x="179.4" y="161.7" width="360" height="620" fill="none" stroke="#8A8178" stroke-width="1.4" opacity="0.55" stroke-dasharray="7 5"/><path d="M 177.5 159.0 Q 222.1 163.9 266.7 165.2 Q 312.2 169.0 360.8 167.4 Q 404.8 169.4 451.6 166.1 Q 493.9 159.2 539.4 158.2 Q 535.5 238.8 536.7 318.0 Q 538.7 391.4 540.8 467.4 Q 543.8 544.0 541.5 621.9 Q 535.9 697.5 532.3 774.8 Q 494.1 775.6 453.9 775.6 Q 406.4 781.5 354.2 782.3 Q 311.9 780.7 271.4 777.4 Q 223.8 777.8 177.3 782.2 Q 177.3 702.3 181.4 627.3 Q 182.8 547.0 180.2 471.8 Q 182.3 390.6 180.3 313.9 Z" fill="#D0D4D6" fill-opacity="0.35" stroke="none"/><path d="M 180.3 159.6 Q 224.6 159.7 267.1 160.2 Q 313.9 159.7 359.5 158.8 Q 405.8 160.3 449.9 162.4 Q 495.6 161.5 537.9 161.8 Q 538.9 237.8 541.1 314.1 Q 538.9 392.2 537.0 467.3 Q 540.2 547.1 540.4 627.9 Q 538.7 704.5 537.3 778.5 Q 495.4 781.2 450.8 781.7 Q 405.3 782.1 362.6 782.4 Q 317.2 782.3 271.4 779.4 Q 225.8 777.3 181.2 777.4 Q 181.0 702.9 178.2 625.8 Q 182.2 549.6 183.3 471.2 Q 179.2 392.0 177.8 314.8 Z" fill="none" stroke="#1F2933" stroke-width="3" stroke-linecap="round" stroke-linejoin="round"/><text x="360.0" y="140.0" font-family="'Segoe Print','Bradley Hand','Comic Sans MS',cursive" font-size="28" fill="#4B5563" text-anchor="middle" font-weight="normal" opacity="1.0">Phone (cutaway)</text><rect x="221.4" y="194.7" width="280" height="100" fill="none" stroke="#8A8178" stroke-width="1.4" opacity="0.55" stroke-dasharray="7 5"/><path d="M 226.7 186.1 Q 259.3 191.3 287.6 191.0 Q 323.8 192.9 361.8 195.0 Q 396.2 194.4 430.5 193.1 Q 464.8 194.4 493.0 193.8 Q 492.8 207.5 495.4 221.2 Q 501.7 232.4 503.9 241.5 Q 500.4 247.6 500.3 258.8 Q 501.1 277.0 500.8 292.3 Q 464.3 288.6 428.1 285.9 Q 395.3 289.4 361.2 287.5 Q 330.1 287.7 296.5 285.1 Q 261.5 286.5 222.2 289.2 Q 227.4 274.4 226.7 259.7 Q 228.2 251.0 227.2 244.4 Q 222.2 231.5 221.1 218.7 Z" fill="#D6A94A" fill-opacity="0.5" stroke="none"/><path d="M 216.9 187.8 Q 255.3 188.5 292.0 187.6 Q 324.7 188.7 360.6 189.3 Q 396.3 190.2 430.9 188.2 Q 467.2 189.9 501.6 191.7 Q 503.6 205.9 503.0 217.6 Q 501.0 228.3 497.0 238.9 Q 498.5 252.2 498.8 262.4 Q 499.3 277.1 496.7 289.2 Q 463.1 289.4 428.6 288.0 Q 394.8 290.0 363.1 290.6 Q 324.3 289.7 286.7 286.5 Q 252.3 288.7 219.9 292.3 Q 218.6 279.9 219.6 267.7 Q 220.7 252.3 221.5 236.7 Q 221.1 225.7 222.3 216.1 Z" fill="none" stroke="#1F2933" stroke-width="3" stroke-linecap="round" stroke-linejoin="round"/><text x="360.0" y="250.5" font-family="'Segoe Print','Bradley Hand','Comic Sans MS',cursive" font-size="30" fill="#1F2933" text-anchor="middle" font-weight="bold" opacity="1.0">Apps</text><rect x="217.7" y="304.1" width="280" height="100" fill="none" stroke="#8A8178" stroke-width="1.4" opacity="0.55" stroke-dasharray="7 5"/><path d="M 226.7 307.6 Q 257.6 305.5 293.5 308.7 Q 329.4 307.6 360.7 305.1 Q 400.1 308.9 434.2 312.5 Q 466.4 309.6 498.9 306.7 Q 498.4 318.5 501.5 333.5 Q 497.7 345.5 499.2 358.9 Q 499.5 368.3 503.5 374.2 Q 498.0 389.2 496.0 399.8 Q 467.3 397.2 434.2 400.5 Q 397.0 406.6 360.4 409.2 Q 325.1 405.6 288.2 404.4 Q 258.2 406.5 225.9 405.3 Q 225.9 394.8 227.1 383.8 Q 229.8 369.5 227.4 356.1 Q 221.9 347.6 217.6 334.8 Z" fill="#5A9A9A" fill-opacity="0.5" stroke="none"/><path d="M 223.4 308.2 Q 258.8 305.6 291.2 306.3 Q 326.5 307.8 359.9 306.5 Q 396.8 307.1 431.7 304.9 Q 468.7 305.3 503.3 307.4 Q 502.9 319.2 499.5 332.0 Q 502.5 344.1 502.5 358.3 Q 501.8 370.2 501.7 382.1 Q 501.7 394.0 499.8 408.1 Q 467.0 408.2 432.0 406.8 Q 396.3 409.5 360.5 409.4 Q 325.0 409.9 292.9 407.6 Q 257.6 407.5 223.3 407.3 Q 221.4 395.3 222.6 381.1 Q 221.1 370.0 217.2 356.5 Q 220.6 345.5 223.5 333.3 Z" fill="none" stroke="#1F2933" stroke-width="3" stroke-linecap="round" stroke-linejoin="round"/><text x="360.0" y="366.5" font-family="'Segoe Print','Bradley Hand','Comic Sans MS',cursive" font-size="30" fill="#1F2933" text-anchor="middle" font-weight="bold" opacity="1.0">XFCE</text><rect x="218.6" y="421.4" width="280" height="100" fill="none" stroke="#8A8178" stroke-width="1.4" opacity="0.55" stroke-dasharray="7 5"/><path d="M 220.4 426.6 Q 255.1 420.4 295.2 418.8 Q 326.6 420.6 361.2 427.9 Q 394.6 424.6 427.6 424.0 Q 464.9 426.1 500.0 423.9 Q 494.7 435.6 492.2 453.3 Q 498.5 462.6 500.4 473.1 Q 500.2 485.9 501.7 501.9 Q 501.4 510.8 496.0 515.1 Q 463.6 521.0 432.8 524.4 Q 398.1 524.9 357.9 521.2 Q 322.3 520.7 285.9 518.0 Q 250.2 518.9 218.6 522.2 Q 224.4 508.7 227.0 495.5 Q 221.5 485.4 218.4 472.1 Q 222.3 457.2 224.6 446.9 Z" fill="#D8C3A5" fill-opacity="0.5" stroke="none"/><path d="M 222.1 424.3 Q 256.9 424.5 291.2 421.4 Q 323.5 422.7 358.4 422.0 Q 395.6 422.1 429.2 421.2 Q 465.2 421.9 499.1 423.2 Q 500.1 435.6 499.3 448.6 Q 499.9 460.0 501.1 474.6 Q 499.9 488.0 499.5 500.1 Q 498.2 510.9 499.5 522.9 Q 463.5 521.5 430.2 521.4 Q 392.1 522.4 356.9 522.0 Q 325.9 520.7 293.3 521.4 Q 256.0 523.0 219.5 521.7 Q 220.3 507.6 223.2 493.9 Q 219.2 483.6 216.5 474.6 Q 219.3 460.6 223.3 446.4 Z" fill="none" stroke="#1F2933" stroke-width="3" stroke-linecap="round" stroke-linejoin="round"/><text x="360.0" y="482.5" font-family="'Segoe Print','Bradley Hand','Comic Sans MS',cursive" font-size="30" fill="#1F2933" text-anchor="middle" font-weight="bold" opacity="1.0">Ubuntu + proot</text><rect x="218.3" y="536.3" width="280" height="100" fill="none" stroke="#8A8178" stroke-width="1.4" opacity="0.55" stroke-dasharray="7 5"/><path d="M 217.6 540.3 Q 256.2 539.3 291.1 543.3 Q 327.8 540.8 365.5 543.3 Q 399.5 546.6 429.7 545.1 Q 463.5 545.6 501.1 545.9 Q 500.6 556.9 501.0 564.1 Q 501.0 577.3 501.4 588.5 Q 502.3 599.9 500.0 612.9 Q 496.0 621.2 496.8 631.5 Q 461.4 633.8 424.7 631.2 Q 393.5 635.3 359.1 634.1 Q 326.2 633.6 288.1 630.8 Q 255.6 629.5 221.6 631.7 Q 220.9 623.2 217.3 614.3 Q 223.2 603.8 227.9 588.0 Q 220.2 575.9 216.5 563.5 Z" fill="#4B5563" fill-opacity="0.5" stroke="none"/><path d="M 222.1 538.9 Q 256.6 537.9 288.6 539.5 Q 325.0 539.5 363.0 539.9 Q 399.4 537.7 432.9 538.5 Q 464.4 538.0 497.0 538.1 Q 499.1 551.9 502.3 563.9 Q 500.3 576.2 500.2 587.6 Q 499.6 602.5 498.9 614.2 Q 500.8 627.5 502.1 637.5 Q 465.8 636.6 426.8 635.1 Q 393.6 636.0 358.4 636.1 Q 324.9 639.3 292.6 639.5 Q 256.0 636.7 222.3 637.5 Q 220.1 627.4 217.2 614.3 Q 216.7 603.0 218.2 589.7 Q 217.5 578.6 216.6 566.0 Z" fill="none" stroke="#1F2933" stroke-width="3" stroke-linecap="round" stroke-linejoin="round"/><text x="360.0" y="598.5" font-family="'Segoe Print','Bradley Hand','Comic Sans MS',cursive" font-size="30" fill="#1F2933" text-anchor="middle" font-weight="bold" opacity="1.0">Termux</text><rect x="222.7" y="655.2" width="280" height="100" fill="none" stroke="#8A8178" stroke-width="1.4" opacity="0.55" stroke-dasharray="7 5"/><path d="M 220.8 660.4 Q 255.0 654.0 293.6 650.6 Q 327.1 653.1 364.8 652.3 Q 401.1 653.5 432.6 656.7 Q 467.7 657.2 502.4 659.6 Q 500.6 674.2 500.8 684.3 Q 499.5 696.0 496.3 703.8 Q 495.7 712.8 498.2 722.4 Q 502.0 738.0 502.1 748.4 Q 466.3 745.5 429.9 746.8 Q 397.7 744.9 364.4 746.3 Q 325.0 750.1 288.6 756.9 Q 256.8 757.5 223.8 755.5 Q 226.0 741.2 227.5 725.1 Q 222.7 716.8 220.7 707.7 Q 219.5 693.5 223.1 675.0 Z" fill="#8A936D" fill-opacity="0.5" stroke="none"/><path d="M 223.2 650.8 Q 257.1 653.1 292.5 656.0 Q 325.7 653.8 356.6 651.4 Q 393.9 651.9 428.7 655.2 Q 463.9 655.4 501.1 655.2 Q 501.9 666.1 503.2 680.2 Q 499.7 692.9 499.6 703.8 Q 500.0 713.8 497.7 726.0 Q 500.4 741.1 502.7 756.3 Q 465.7 754.8 431.7 755.9 Q 395.6 754.9 359.0 753.8 Q 324.1 756.6 290.9 756.8 Q 254.5 752.6 220.6 751.0 Q 218.0 739.7 218.5 731.6 Q 219.0 721.0 221.0 707.4 Q 219.5 691.0 220.3 677.7 Z" fill="none" stroke="#1F2933" stroke-width="3" stroke-linecap="round" stroke-linejoin="round"/><text x="360.0" y="714.5" font-family="'Segoe Print','Bradley Hand','Comic Sans MS',cursive" font-size="30" fill="#1F2933" text-anchor="middle" font-weight="bold" opacity="1.0">Android</text><path d="M 545.0 430.0 Q 732.1 450.6 900.0 380.0" fill="none" stroke="#1E3A5F" stroke-width="4" stroke-linecap="round"/><path d="M 900.0 380.0 L 878.7 377.5" stroke="#1E3A5F" stroke-width="4" stroke-linecap="round" fill="none"/><path d="M 900.0 380.0 L 885.6 396.9" stroke="#1E3A5F" stroke-width="4" stroke-linecap="round" fill="none"/><text x="720.0" y="380.0" font-family="'Segoe Print','Bradley Hand','Comic Sans MS',cursive" font-size="26" fill="#1E3A5F" text-anchor="middle" font-weight="normal" opacity="1.0">USB-C video out</text><rect x="910.3" y="230.4" width="480" height="320" fill="none" stroke="#8A8178" stroke-width="1.4" opacity="0.55" stroke-dasharray="7 5"/><path d="M 917.3 227.6 Q 977.1 232.9 1035.4 237.9 Q 1098.4 237.4 1155.8 234.8 Q 1216.3 231.5 1274.8 231.3 Q 1333.7 232.4 1390.0 232.5 Q 1387.8 268.4 1385.7 305.4 Q 1389.1 347.7 1388.3 388.4 Q 1388.6 430.5 1391.5 469.2 Q 1386.0 505.3 1385.9 543.9 Q 1329.2 547.3 1270.0 546.2 Q 1212.1 545.8 1153.5 550.2 Q 1093.1 552.7 1030.8 553.8 Q 972.3 550.9 914.7 545.6 Q 911.9 506.3 911.3 467.2 Q 912.9 430.5 913.4 390.2 Q 912.4 350.3 907.9 308.5 Z" fill="#B8C0C2" fill-opacity="0.45" stroke="none"/><path d="M 911.2 232.7 Q 970.7 228.1 1029.2 226.9 Q 1088.2 227.4 1147.8 228.9 Q 1210.6 229.9 1271.2 232.0 Q 1330.1 233.5 1391.7 232.2 Q 1388.9 270.6 1389.2 307.1 Q 1392.5 346.7 1393.2 387.5 Q 1391.4 428.2 1386.8 469.4 Q 1388.8 506.8 1390.4 546.5 Q 1333.2 548.0 1272.9 551.8 Q 1212.0 552.8 1147.9 550.4 Q 1090.0 553.4 1031.2 552.9 Q 969.5 553.2 907.1 550.8 Q 909.0 510.1 911.1 468.0 Q 912.4 427.6 913.0 388.7 Q 911.5 348.5 913.4 307.8 Z" fill="none" stroke="#1F2933" stroke-width="3" stroke-linecap="round" stroke-linejoin="round"/><path d="M 924.4 246.4 Q 981.4 246.0 1036.1 243.6 Q 1093.1 242.1 1152.6 241.7 Q 1209.7 244.8 1265.8 245.5 Q 1322.0 245.0 1377.6 243.7 Q 1378.6 278.3 1378.7 311.8 Q 1376.4 344.4 1374.7 378.2 Q 1375.0 410.1 1375.0 444.8 Q 1375.6 477.1 1377.4 510.9 Q 1320.6 511.2 1263.0 512.7 Q 1206.4 513.0 1149.0 512.1 Q 1095.9 510.2 1039.9 511.1 Q 981.7 511.2 924.9 514.1 Q 925.6 477.9 926.1 443.5 Q 925.9 410.2 923.3 376.6 Q 925.5 345.4 926.0 313.4 Z" fill="#5A9A9A" fill-opacity="0.30" stroke="#1F2933" stroke-width="2"/><rect x="930" y="248" width="440" height="10" fill="#3E5C76" opacity="0.6"/><path d="M 941.1 272.2 Q 966.5 273.0 991.0 272.7 Q 1019.6 273.2 1046.9 273.9 Q 1072.1 272.1 1097.1 270.9 Q 1123.5 272.5 1150.1 272.3 Q 1148.8 298.1 1148.5 323.1 Q 1149.7 350.8 1149.7 376.9 Q 1149.4 404.5 1148.7 430.7 Q 1149.7 456.4 1148.9 481.4 Q 1122.0 482.6 1096.5 483.3 Q 1070.4 482.6 1045.2 483.0 Q 1019.1 482.8 994.2 480.6 Q 967.2 480.5 938.8 481.6 Q 940.1 455.7 941.2 429.8 Q 941.2 402.7 940.4 377.1 Q 940.3 350.9 939.8 324.9 Z" fill="#F7F1E6" stroke="#1F2933" stroke-width="1.6"/><path d="M 1159.9 287.3 Q 1180.0 287.1 1201.6 287.1 Q 1220.9 286.9 1239.2 287.0 Q 1260.0 287.5 1280.9 288.8 Q 1301.3 287.0 1321.2 286.8 Q 1319.9 311.4 1320.7 334.2 Q 1320.9 358.8 1320.2 382.7 Q 1320.1 404.7 1318.2 428.6 Q 1319.7 453.5 1320.3 477.6 Q 1300.3 476.9 1280.6 476.8 Q 1261.3 476.7 1240.1 478.4 Q 1220.3 477.5 1199.3 478.2 Q 1179.2 478.5 1160.6 478.7 Q 1160.2 453.1 1160.2 429.3 Q 1159.1 405.8 1158.8 383.7 Q 1159.5 359.3 1158.6 334.0 Z" fill="#F7F1E6" stroke="#1F2933" stroke-width="1.6"/><path d="M 1142.0 550 L 1146.0 580 M 1158.0 550 L 1155.0 580" stroke="#1F2933" stroke-width="3"/><line x1="1104.0" y1="582" x2="1196.0" y2="584" stroke="#1F2933" stroke-width="3.5" stroke-linecap="round"/><text x="1150.0" y="616.0" font-family="'Segoe Print','Bradley Hand','Comic Sans MS',cursive" font-size="26" fill="#1F2933" text-anchor="middle" font-weight="normal" opacity="1.0">External monitor — XFCE desktop</text><text x="1150.0" y="700.0" font-family="'Segoe Print','Bradley Hand','Comic Sans MS',cursive" font-size="26" fill="#4B5563" text-anchor="middle" font-weight="normal" opacity="1.0">the whole stack renders here</text></svg>
