<svg xmlns="http://www.w3.org/2000/svg" viewBox="0 0 1600 900" role="img" aria-labelledby="t d" preserveAspectRatio="xMidYMid meet"><title id="t">The ADL Linux stack</title><desc id="d">Layered stack diagram: Android at the bottom, then Termux, proot, Ubuntu, XFCE desktop, and applications on top.</desc><rect x="0" y="0" width="1600" height="900" fill="#F7F1E6"/><line x1="206" y1="30" x2="201" y2="870" stroke="#8A8178" stroke-width="1" opacity="0.18"/><line x1="794" y1="30" x2="801" y2="870" stroke="#8A8178" stroke-width="1" opacity="0.18"/><line x1="1395" y1="30" x2="1400" y2="870" stroke="#8A8178" stroke-width="1" opacity="0.18"/><line x1="40" y1="153" x2="1560" y2="154" stroke="#8A8178" stroke-width="1" opacity="0.18"/><line x1="40" y1="450" x2="1560" y2="445" stroke="#8A8178" stroke-width="1" opacity="0.18"/><line x1="40" y1="745" x2="1560" y2="745" stroke="#8A8178" stroke-width="1" opacity="0.18"/><line x1="70" y1="20" x2="70" y2="880" stroke="#8A8178" stroke-width="1.6" opacity="0.3"/><path d="M 30 40 L 50 40 M 40 30 L 40 50" stroke="#8A8178" stroke-width="1.3" opacity="0.4"/><path d="M 1550 40 L 1570 40 M 1560 30 L 1560 50" stroke="#8A8178" stroke-width="1.3" opacity="0.4"/><path d="M 30 860 L 50 860 M 40 850 L 40 870" stroke="#8A8178" stroke-width="1.3" opacity="0.4"/><path d="M 1550 860 L 1570 860 M 1560 850 L 1560 870" stroke="#8A8178" stroke-width="1.3" opacity="0.4"/><text x="800.0" y="84.0" font-family="'Segoe Print','Bradley Hand','Comic Sans MS',cursive" font-size="42" fill="#1F2933" text-anchor="middle" font-weight="bold" opacity="1.0">The ADL Linux stack</text><path d="M 591 100 Q 800 111 1009 102" stroke="#1F2933" stroke-width="2.5" fill="none" opacity="0.75"/><rect x="478.1" y="136.6" width="640" height="108" fill="none" stroke="#8A8178" stroke-width="1.4" opacity="0.55" stroke-dasharray="7 5"/><path d="M 484.9 141.5 Q 567.6 142.4 646.8 144.3 Q 720.4 143.5 799.8 147.9 Q 877.4 144.9 955.4 143.5 Q 1036.2 139.8 1122.5 138.8 Q 1121.8 155.6 1122.4 173.4 Q 1118.9 186.2 1114.1 194.3 Q 1114.8 205.8 1117.6 220.4 Q 1118.5 235.5 1123.9 251.8 Q 1041.5 247.5 964.2 243.2 Q 879.6 242.5 797.8 245.4 Q 722.3 250.2 644.6 249.6 Q 566.8 246.4 483.8 243.6 Q 479.9 232.6 479.3 220.2 Q 478.9 203.3 477.1 188.2 Q 481.6 182.5 482.8 171.9 Z" fill="#D6A94A" fill-opacity="0.5" stroke="none"/><path d="M 481.6 141.6 Q 563.7 142.5 642.3 141.7 Q 720.0 138.7 799.5 137.2 Q 878.0 139.4 959.5 140.7 Q 1041.5 139.6 1122.9 141.4 Q 1119.0 154.4 1116.9 170.4 Q 1117.2 182.5 1117.5 196.0 Q 1119.2 207.5 1118.4 220.9 Q 1118.4 233.2 1120.7 246.9 Q 1040.0 247.3 957.5 246.2 Q 879.8 245.4 800.5 246.0 Q 721.6 246.6 641.1 245.3 Q 561.9 245.0 483.3 245.2 Q 481.3 232.1 478.5 218.7 Q 480.3 203.8 480.3 192.0 Q 479.2 178.3 480.0 166.2 Z" fill="none" stroke="#1F2933" stroke-width="3" stroke-linecap="round" stroke-linejoin="round"/><text x="800.0" y="186.0" font-family="'Segoe Print','Bradley Hand','Comic Sans MS',cursive" font-size="34" fill="#1F2933" text-anchor="middle" font-weight="bold" opacity="1.0">Applications</text><text x="800.0" y="220.0" font-family="'Segoe Print','Bradley Hand','Comic Sans MS',cursive" font-size="26" fill="#4B5563" text-anchor="middle" font-weight="normal" opacity="1.0">Firefox, VS Code, LibreOffice…</text><rect x="477.5" y="263.1" width="640" height="108" fill="none" stroke="#8A8178" stroke-width="1.4" opacity="0.55" stroke-dasharray="7 5"/><path d="M 478.9 259.9 Q 564.9 263.0 647.0 266.1 Q 725.3 267.7 799.8 268.2 Q 880.8 264.8 957.2 262.3 Q 1036.0 263.1 1115.7 269.7 Q 1119.4 278.3 1122.1 290.2 Q 1118.8 308.9 1116.5 321.8 Q 1116.8 328.8 1122.3 338.2 Q 1121.0 352.9 1118.0 368.9 Q 1034.1 367.8 954.1 366.8 Q 879.7 361.9 799.6 362.1 Q 723.1 367.7 646.3 370.0 Q 563.4 367.4 477.1 363.3 Q 479.2 350.9 479.9 339.6 Q 479.9 331.7 476.7 319.3 Q 479.7 304.2 482.9 288.2 Z" fill="#5A9A9A" fill-opacity="0.5" stroke="none"/><path d="M 482.2 263.6 Q 560.1 263.1 639.8 264.0 Q 719.7 263.3 803.0 261.7 Q 881.2 263.4 962.5 261.7 Q 1040.0 262.9 1119.3 262.2 Q 1118.3 277.0 1120.5 288.4 Q 1119.0 303.0 1117.1 317.7 Q 1119.2 330.7 1121.7 345.9 Q 1121.9 358.7 1118.9 369.5 Q 1041.6 369.6 961.3 369.2 Q 879.1 367.5 796.6 366.9 Q 719.7 370.0 642.4 370.6 Q 559.2 369.7 478.1 367.2 Q 479.8 357.2 482.8 345.6 Q 482.3 328.8 482.4 313.7 Q 480.3 301.5 480.2 292.2 Z" fill="none" stroke="#1F2933" stroke-width="3" stroke-linecap="round" stroke-linejoin="round"/><text x="800.0" y="308.0" font-family="'Segoe Print','Bradley Hand','Comic Sans MS',cursive" font-size="34" fill="#1F2933" text-anchor="middle" font-weight="bold" opacity="1.0">XFCE Desktop</text><text x="800.0" y="342.0" font-family="'Segoe Print','Bradley Hand','Comic Sans MS',cursive" font-size="26" fill="#4B5563" text-anchor="middle" font-weight="normal" opacity="1.0">windows, panel, file manager</text><rect x="484.3" y="379.9" width="640" height="108" fill="none" stroke="#8A8178" stroke-width="1.4" opacity="0.55" stroke-dasharray="7 5"/><path d="M 478.8 390.1 Q 563.7 391.2 642.7 391.1 Q 723.4 389.8 804.2 386.8 Q 883.6 387.3 962.9 388.4 Q 1040.7 388.9 1124.0 389.8 Q 1120.1 403.6 1112.9 413.9 Q 1117.1 423.4 1116.9 436.2 Q 1117.7 455.0 1122.4 469.4 Q 1122.4 482.5 1119.4 491.0 Q 1033.8 493.7 953.8 492.0 Q 877.4 492.3 800.4 493.6 Q 723.9 488.3 646.4 486.0 Q 562.7 483.1 484.1 484.2 Q 485.8 474.4 486.8 463.3 Q 483.8 451.1 477.7 439.5 Q 478.0 426.8 481.2 408.6 Z" fill="#D8C3A5" fill-opacity="0.5" stroke="none"/><path d="M 483.5 385.1 Q 561.8 381.4 640.1 381.0 Q 719.2 383.6 800.6 384.0 Q 879.9 383.9 957.8 384.1 Q 1038.8 385.5 1119.7 384.6 Q 1119.5 400.2 1119.0 413.4 Q 1119.3 426.0 1118.9 439.0 Q 1118.3 455.0 1121.0 467.6 Q 1121.6 479.2 1121.2 492.0 Q 1039.6 489.7 958.0 489.3 Q 880.9 493.8 803.3 495.5 Q 720.3 492.6 640.4 492.7 Q 560.8 494.2 477.8 495.4 Q 479.8 480.3 480.6 465.0 Q 481.9 451.9 482.6 438.4 Q 483.5 422.8 483.3 409.7 Z" fill="none" stroke="#1F2933" stroke-width="3" stroke-linecap="round" stroke-linejoin="round"/><text x="800.0" y="430.0" font-family="'Segoe Print','Bradley Hand','Comic Sans MS',cursive" font-size="34" fill="#1F2933" text-anchor="middle" font-weight="bold" opacity="1.0">Ubuntu</text><text x="800.0" y="464.0" font-family="'Segoe Print','Bradley Hand','Comic Sans MS',cursive" font-size="26" fill="#4B5563" text-anchor="middle" font-weight="normal" opacity="1.0">full Linux distribution</text><rect x="484.2" y="509.1" width="640" height="108" fill="none" stroke="#8A8178" stroke-width="1.4" opacity="0.55" stroke-dasharray="7 5"/><path d="M 476.6 502.4 Q 561.6 504.4 641.5 512.4 Q 721.1 507.8 799.9 502.6 Q 883.5 500.6 961.4 503.3 Q 1041.0 505.6 1123.9 504.0 Q 1120.3 521.9 1118.1 538.4 Q 1114.8 549.9 1114.8 558.4 Q 1113.4 577.2 1115.2 591.2 Q 1120.7 602.3 1120.3 617.5 Q 1036.6 617.0 957.9 617.1 Q 877.3 614.0 797.7 611.1 Q 718.4 611.3 644.6 614.4 Q 560.8 610.2 476.9 610.7 Q 477.9 598.8 480.0 584.8 Q 484.3 571.4 483.1 556.1 Q 485.7 542.7 487.6 529.9 Z" fill="#3E5C76" fill-opacity="0.5" stroke="none"/><path d="M 481.9 503.0 Q 558.8 502.1 637.6 503.2 Q 718.6 506.1 802.6 508.2 Q 881.0 506.8 961.7 504.6 Q 1040.7 504.6 1121.1 504.1 Q 1119.8 519.6 1116.6 533.6 Q 1117.1 546.9 1117.4 558.9 Q 1117.5 572.4 1119.7 588.1 Q 1119.7 602.4 1119.4 614.7 Q 1039.9 613.0 959.7 612.1 Q 880.2 610.8 799.0 610.9 Q 718.4 613.7 640.9 616.8 Q 561.4 616.7 480.0 616.0 Q 478.5 602.5 478.4 589.9 Q 476.7 575.2 477.5 558.7 Q 479.9 545.8 479.3 535.2 Z" fill="none" stroke="#1F2933" stroke-width="3" stroke-linecap="round" stroke-linejoin="round"/><text x="800.0" y="552.0" font-family="'Segoe Print','Bradley Hand','Comic Sans MS',cursive" font-size="34" fill="#1F2933" text-anchor="middle" font-weight="bold" opacity="1.0">proot</text><text x="800.0" y="586.0" font-family="'Segoe Print','Bradley Hand','Comic Sans MS',cursive" font-size="26" fill="#4B5563" text-anchor="middle" font-weight="normal" opacity="1.0">container — no root needed</text><rect x="477.7" y="626.2" width="640" height="108" fill="none" stroke="#8A8178" stroke-width="1.4" opacity="0.55" stroke-dasharray="7 5"/><path d="M 477.4 629.5 Q 560.3 626.2 639.4 624.7 Q 715.5 628.4 796.6 631.2 Q 878.6 630.1 962.5 631.1 Q 1038.6 629.4 1117.1 632.9 Q 1113.5 643.9 1114.3 658.7 Q 1117.3 673.1 1114.8 687.3 Q 1117.4 698.9 1123.5 712.4 Q 1116.4 721.0 1112.9 729.0 Q 1036.2 735.0 959.1 737.6 Q 883.2 739.7 803.0 737.6 Q 722.7 737.8 643.0 735.0 Q 561.4 736.6 482.8 739.1 Q 481.4 724.8 485.5 705.3 Q 483.6 693.1 479.4 683.6 Q 481.0 669.0 479.7 657.8 Z" fill="#4B5563" fill-opacity="0.5" stroke="none"/><path d="M 479.2 629.6 Q 560.7 630.7 640.1 631.0 Q 720.0 630.1 802.8 630.1 Q 883.1 631.2 960.8 630.5 Q 1038.1 628.9 1118.1 626.7 Q 1120.1 638.4 1119.4 652.0 Q 1119.4 668.9 1116.5 683.4 Q 1119.8 694.6 1122.0 706.9 Q 1118.6 720.5 1117.8 736.2 Q 1038.3 736.8 958.0 734.4 Q 882.2 737.9 803.3 738.3 Q 720.8 736.3 641.2 736.9 Q 560.7 734.1 479.7 734.1 Q 480.9 720.0 482.0 706.0 Q 481.1 694.3 479.9 681.9 Q 480.0 669.4 479.6 656.1 Z" fill="none" stroke="#1F2933" stroke-width="3" stroke-linecap="round" stroke-linejoin="round"/><text x="800.0" y="674.0" font-family="'Segoe Print','Bradley Hand','Comic Sans MS',cursive" font-size="34" fill="#1F2933" text-anchor="middle" font-weight="bold" opacity="1.0">Termux</text><text x="800.0" y="708.0" font-family="'Segoe Print','Bradley Hand','Comic Sans MS',cursive" font-size="26" fill="#4B5563" text-anchor="middle" font-weight="normal" opacity="1.0">the Linux terminal on Android</text><rect x="479.6" y="753.4" width="640" height="108" fill="none" stroke="#8A8178" stroke-width="1.4" opacity="0.55" stroke-dasharray="7 5"/><path d="M 480.8 757.1 Q 560.1 756.2 636.0 751.2 Q 715.3 751.3 796.7 752.5 Q 879.5 750.9 963.9 753.2 Q 1045.4 756.9 1121.4 755.4 Q 1120.1 762.5 1113.6 774.2 Q 1115.3 791.7 1117.7 803.6 Q 1115.9 816.7 1114.1 824.5 Q 1118.8 837.2 1118.7 855.7 Q 1039.4 856.9 955.7 856.6 Q 879.3 856.3 804.4 854.3 Q 722.8 850.4 642.1 851.2 Q 563.3 852.0 483.6 855.2 Q 480.1 848.0 479.8 835.3 Q 482.4 822.4 484.0 807.6 Q 480.5 787.2 479.1 772.6 Z" fill="#8A936D" fill-opacity="0.5" stroke="none"/><path d="M 478.6 751.2 Q 559.2 751.6 638.5 752.0 Q 720.7 752.5 801.7 753.2 Q 880.8 750.6 957.6 750.9 Q 1037.7 750.8 1119.4 752.2 Q 1119.6 764.4 1116.5 775.6 Q 1117.4 790.9 1119.2 807.3 Q 1119.0 819.1 1117.9 832.2 Q 1117.5 847.5 1118.9 859.7 Q 1040.1 857.6 959.0 858.0 Q 878.2 860.1 798.9 859.7 Q 720.0 857.3 640.8 855.4 Q 559.1 856.7 477.1 860.7 Q 477.6 842.8 478.1 827.6 Q 477.4 814.0 477.7 803.1 Q 477.8 788.5 480.9 774.3 Z" fill="none" stroke="#1F2933" stroke-width="3" stroke-linecap="round" stroke-linejoin="round"/><text x="800.0" y="796.0" font-family="'Segoe Print','Bradley Hand','Comic Sans MS',cursive" font-size="34" fill="#1F2933" text-anchor="middle" font-weight="bold" opacity="1.0">Android</text><text x="800.0" y="830.0" font-family="'Segoe Print','Bradley Hand','Comic Sans MS',cursive" font-size="26" fill="#4B5563" text-anchor="middle" font-weight="normal" opacity="1.0">your phone's OS — untouched</text><path d="M 380.0 830.0 Q 461.6 498.2 380.0 170.0" fill="none" stroke="#64748B" stroke-width="4" stroke-linecap="round"/><path d="M 380.0 170.0 L 375.3 191.7" stroke="#64748B" stroke-width="4" stroke-linecap="round" fill="none"/><path d="M 380.0 170.0 L 394.6 186.1" stroke="#64748B" stroke-width="4" stroke-linecap="round" fill="none"/><text x="340.0" y="500.0" font-family="'Segoe Print','Bradley Hand','Comic Sans MS',cursive" font-size="24" fill="#4B5563" text-anchor="middle" font-weight="normal" opacity="1.0">each layer runs on the one below</text><g transform="rotate(-90 340 500)"><text x="340.0" y="500.0" font-family="'Segoe Print','Bradley Hand','Comic Sans MS',cursive" font-size="24" fill="#1F2933" text-anchor="start" font-weight="normal" opacity="1.0"></text></g><text x="1190.0" y="200.0" font-family="'Segoe Print','Bradley Hand','Comic Sans MS',cursive" font-size="26" fill="#4B5563" text-anchor="start" font-weight="normal" opacity="1.0">what you see</text><text x="1190.0" y="810.0" font-family="'Segoe Print','Bradley Hand','Comic Sans MS',cursive" font-size="26" fill="#4B5563" text-anchor="start" font-weight="normal" opacity="1.0">what you own</text></svg>
